<svg xmlns="http://www.w3.org/2000/svg" xmlns:xlink="http://www.w3.org/1999/xlink" width="40" zoomAndPan="magnify" viewBox="0 0 30 30.000001" height="40" preserveAspectRatio="xMidYMid meet" version="1.0"><defs><clipPath id="0a45ad8db8"><path d="M 0.484375 4.84375 L 29.515625 4.84375 L 29.515625 24.441406 L 0.484375 24.441406 Z M 0.484375 4.84375 " clip-rule="nonzero"/></clipPath><clipPath id="5821bc684a"><path d="M 0.484375 8.472656 L 0.484375 20.558594 C 0.484375 22.5625 2.109375 24.1875 4.113281 24.1875 L 25.886719 24.1875 C 27.890625 24.1875 29.515625 22.5625 29.515625 20.558594 L 29.515625 8.472656 C 29.515625 6.46875 27.890625 4.84375 25.886719 4.84375 L 4.113281 4.84375 C 2.109375 4.84375 0.484375 6.46875 0.484375 8.472656 Z M 0.484375 8.472656 " clip-rule="nonzero"/></clipPath><clipPath id="50a38b84aa"><path d="M 0.484375 8 L 29.515625 8 L 29.515625 21 L 0.484375 21 Z M 0.484375 8 " clip-rule="nonzero"/></clipPath><clipPath id="b513044860"><path d="M 0.484375 8.472656 L 0.484375 20.558594 C 0.484375 22.5625 2.109375 24.1875 4.113281 24.1875 L 25.886719 24.1875 C 27.890625 24.1875 29.515625 22.5625 29.515625 20.558594 L 29.515625 8.472656 C 29.515625 6.46875 27.890625 4.84375 25.886719 4.84375 L 4.113281 4.84375 C 2.109375 4.84375 0.484375 6.46875 0.484375 8.472656 Z M 0.484375 8.472656 " clip-rule="nonzero"/></clipPath><clipPath id="8da8c81310"><path d="M 0.484375 4.84375 L 29.515625 4.84375 L 29.515625 24.441406 L 0.484375 24.441406 Z M 0.484375 4.84375 " clip-rule="nonzero"/></clipPath><clipPath id="b6ed7da197"><path d="M 0.484375 8.472656 L 0.484375 20.558594 C 0.484375 22.5625 2.109375 24.1875 4.113281 24.1875 L 25.886719 24.1875 C 27.890625 24.1875 29.515625 22.5625 29.515625 20.558594 L 29.515625 8.472656 C 29.515625 6.46875 27.890625 4.84375 25.886719 4.84375 L 4.113281 4.84375 C 2.109375 4.84375 0.484375 6.46875 0.484375 8.472656 Z M 0.484375 8.472656 " clip-rule="nonzero"/></clipPath><clipPath id="1399d7b9ea"><path d="M 12 15 L 15 15 L 15 17 L 12 17 Z M 12 15 " clip-rule="nonzero"/></clipPath><clipPath id="eca0d6053d"><path d="M 0.484375 8.472656 L 0.484375 20.558594 C 0.484375 22.5625 2.109375 24.1875 4.113281 24.1875 L 25.886719 24.1875 C 27.890625 24.1875 29.515625 22.5625 29.515625 20.558594 L 29.515625 8.472656 C 29.515625 6.46875 27.890625 4.84375 25.886719 4.84375 L 4.113281 4.84375 C 2.109375 4.84375 0.484375 6.46875 0.484375 8.472656 Z M 0.484375 8.472656 " clip-rule="nonzero"/></clipPath><clipPath id="20ce89f1d2"><path d="M 5 15 L 7 15 L 7 16 L 5 16 Z M 5 15 " clip-rule="nonzero"/></clipPath><clipPath id="69aaaad1fd"><path d="M 0.484375 8.472656 L 0.484375 20.558594 C 0.484375 22.5625 2.109375 24.1875 4.113281 24.1875 L 25.886719 24.1875 C 27.890625 24.1875 29.515625 22.5625 29.515625 20.558594 L 29.515625 8.472656 C 29.515625 6.46875 27.890625 4.84375 25.886719 4.84375 L 4.113281 4.84375 C 2.109375 4.84375 0.484375 6.46875 0.484375 8.472656 Z M 0.484375 8.472656 " clip-rule="nonzero"/></clipPath><clipPath id="5e8671ac21"><path d="M 7 15 L 10 15 L 10 19 L 7 19 Z M 7 15 " clip-rule="nonzero"/></clipPath><clipPath id="3a7a7015a3"><path d="M 0.484375 8.472656 L 0.484375 20.558594 C 0.484375 22.5625 2.109375 24.1875 4.113281 24.1875 L 25.886719 24.1875 C 27.890625 24.1875 29.515625 22.5625 29.515625 20.558594 L 29.515625 8.472656 C 29.515625 6.46875 27.890625 4.84375 25.886719 4.84375 L 4.113281 4.84375 C 2.109375 4.84375 0.484375 6.46875 0.484375 8.472656 Z M 0.484375 8.472656 " clip-rule="nonzero"/></clipPath><clipPath id="81dbf32a70"><path d="M 7 13 L 10 13 L 10 16 L 7 16 Z M 7 13 " clip-rule="nonzero"/></clipPath><clipPath id="0271290100"><path d="M 0.484375 8.472656 L 0.484375 20.558594 C 0.484375 22.5625 2.109375 24.1875 4.113281 24.1875 L 25.886719 24.1875 C 27.890625 24.1875 29.515625 22.5625 29.515625 20.558594 L 29.515625 8.472656 C 29.515625 6.46875 27.890625 4.84375 25.886719 4.84375 L 4.113281 4.84375 C 2.109375 4.84375 0.484375 6.46875 0.484375 8.472656 Z M 0.484375 8.472656 " clip-rule="nonzero"/></clipPath><clipPath id="ba88d676af"><path d="M 8 17 L 11 17 L 11 20 L 8 20 Z M 8 17 " clip-rule="nonzero"/></clipPath><clipPath id="56fb183e0f"><path d="M 0.484375 8.472656 L 0.484375 20.558594 C 0.484375 22.5625 2.109375 24.1875 4.113281 24.1875 L 25.886719 24.1875 C 27.890625 24.1875 29.515625 22.5625 29.515625 20.558594 L 29.515625 8.472656 C 29.515625 6.46875 27.890625 4.84375 25.886719 4.84375 L 4.113281 4.84375 C 2.109375 4.84375 0.484375 6.46875 0.484375 8.472656 Z M 0.484375 8.472656 " clip-rule="nonzero"/></clipPath><clipPath id="e08e2c974c"><path d="M 9 15 L 12 15 L 12 19 L 9 19 Z M 9 15 " clip-rule="nonzero"/></clipPath><clipPath id="590d2c2b59"><path d="M 0.484375 8.472656 L 0.484375 20.558594 C 0.484375 22.5625 2.109375 24.1875 4.113281 24.1875 L 25.886719 24.1875 C 27.890625 24.1875 29.515625 22.5625 29.515625 20.558594 L 29.515625 8.472656 C 29.515625 6.46875 27.890625 4.84375 25.886719 4.84375 L 4.113281 4.84375 C 2.109375 4.84375 0.484375 6.46875 0.484375 8.472656 Z M 0.484375 8.472656 " clip-rule="nonzero"/></clipPath><clipPath id="93c12fa397"><path d="M 9 13 L 12 13 L 12 16 L 9 16 Z M 9 13 " clip-rule="nonzero"/></clipPath><clipPath id="7560e5bbd6"><path d="M 0.484375 8.472656 L 0.484375 20.558594 C 0.484375 22.5625 2.109375 24.1875 4.113281 24.1875 L 25.886719 24.1875 C 27.890625 24.1875 29.515625 22.5625 29.515625 20.558594 L 29.515625 8.472656 C 29.515625 6.46875 27.890625 4.84375 25.886719 4.84375 L 4.113281 4.84375 C 2.109375 4.84375 0.484375 6.46875 0.484375 8.472656 Z M 0.484375 8.472656 " clip-rule="nonzero"/></clipPath><clipPath id="e7c0119e99"><path d="M 8 14 L 11 14 L 11 17 L 8 17 Z M 8 14 " clip-rule="nonzero"/></clipPath><clipPath id="459d221fc2"><path d="M 0.484375 8.472656 L 0.484375 20.558594 C 0.484375 22.5625 2.109375 24.1875 4.113281 24.1875 L 25.886719 24.1875 C 27.890625 24.1875 29.515625 22.5625 29.515625 20.558594 L 29.515625 8.472656 C 29.515625 6.46875 27.890625 4.84375 25.886719 4.84375 L 4.113281 4.84375 C 2.109375 4.84375 0.484375 6.46875 0.484375 8.472656 Z M 0.484375 8.472656 " clip-rule="nonzero"/></clipPath><clipPath id="efb24d7b58"><path d="M 8 15 L 11 15 L 11 17 L 8 17 Z M 8 15 " clip-rule="nonzero"/></clipPath><clipPath id="54aca5725d"><path d="M 0.484375 8.472656 L 0.484375 20.558594 C 0.484375 22.5625 2.109375 24.1875 4.113281 24.1875 L 25.886719 24.1875 C 27.890625 24.1875 29.515625 22.5625 29.515625 20.558594 L 29.515625 8.472656 C 29.515625 6.46875 27.890625 4.84375 25.886719 4.84375 L 4.113281 4.84375 C 2.109375 4.84375 0.484375 6.46875 0.484375 8.472656 Z M 0.484375 8.472656 " clip-rule="nonzero"/></clipPath><clipPath id="f20dc045ab"><path d="M 5 13 L 7 13 L 7 18 L 5 18 Z M 5 13 " clip-rule="nonzero"/></clipPath><clipPath id="0ad8a248a9"><path d="M 0.484375 8.472656 L 0.484375 20.558594 C 0.484375 22.5625 2.109375 24.1875 4.113281 24.1875 L 25.886719 24.1875 C 27.890625 24.1875 29.515625 22.5625 29.515625 20.558594 L 29.515625 8.472656 C 29.515625 6.46875 27.890625 4.84375 25.886719 4.84375 L 4.113281 4.84375 C 2.109375 4.84375 0.484375 6.46875 0.484375 8.472656 Z M 0.484375 8.472656 " clip-rule="nonzero"/></clipPath><clipPath id="dd13414e57"><path d="M 5 13 L 7 13 L 7 19 L 5 19 Z M 5 13 " clip-rule="nonzero"/></clipPath><clipPath id="7f70de1830"><path d="M 0.484375 8.472656 L 0.484375 20.558594 C 0.484375 22.5625 2.109375 24.1875 4.113281 24.1875 L 25.886719 24.1875 C 27.890625 24.1875 29.515625 22.5625 29.515625 20.558594 L 29.515625 8.472656 C 29.515625 6.46875 27.890625 4.84375 25.886719 4.84375 L 4.113281 4.84375 C 2.109375 4.84375 0.484375 6.46875 0.484375 8.472656 Z M 0.484375 8.472656 " clip-rule="nonzero"/></clipPath><clipPath id="41e09fe8be"><path d="M 7 10 L 12 10 L 12 14 L 7 14 Z M 7 10 " clip-rule="nonzero"/></clipPath><clipPath id="d6557da612"><path d="M 0.484375 8.472656 L 0.484375 20.558594 C 0.484375 22.5625 2.109375 24.1875 4.113281 24.1875 L 25.886719 24.1875 C 27.890625 24.1875 29.515625 22.5625 29.515625 20.558594 L 29.515625 8.472656 C 29.515625 6.46875 27.890625 4.84375 25.886719 4.84375 L 4.113281 4.84375 C 2.109375 4.84375 0.484375 6.46875 0.484375 8.472656 Z M 0.484375 8.472656 " clip-rule="nonzero"/></clipPath><clipPath id="15e20fedd9"><path d="M 7 15 L 10 15 L 10 19 L 7 19 Z M 7 15 " clip-rule="nonzero"/></clipPath><clipPath id="22e4960e74"><path d="M 0.484375 8.472656 L 0.484375 20.558594 C 0.484375 22.5625 2.109375 24.1875 4.113281 24.1875 L 25.886719 24.1875 C 27.890625 24.1875 29.515625 22.5625 29.515625 20.558594 L 29.515625 8.472656 C 29.515625 6.46875 27.890625 4.84375 25.886719 4.84375 L 4.113281 4.84375 C 2.109375 4.84375 0.484375 6.46875 0.484375 8.472656 Z M 0.484375 8.472656 " clip-rule="nonzero"/></clipPath><clipPath id="a72a760aca"><path d="M 9 13 L 12 13 L 12 16 L 9 16 Z M 9 13 " clip-rule="nonzero"/></clipPath><clipPath id="7031fd1acf"><path d="M 0.484375 8.472656 L 0.484375 20.558594 C 0.484375 22.5625 2.109375 24.1875 4.113281 24.1875 L 25.886719 24.1875 C 27.890625 24.1875 29.515625 22.5625 29.515625 20.558594 L 29.515625 8.472656 C 29.515625 6.46875 27.890625 4.84375 25.886719 4.84375 L 4.113281 4.84375 C 2.109375 4.84375 0.484375 6.46875 0.484375 8.472656 Z M 0.484375 8.472656 " clip-rule="nonzero"/></clipPath><clipPath id="b9bc778e94"><path d="M 10 16 L 11 16 L 11 18 L 10 18 Z M 10 16 " clip-rule="nonzero"/></clipPath><clipPath id="264a2e063b"><path d="M 0.484375 8.472656 L 0.484375 20.558594 C 0.484375 22.5625 2.109375 24.1875 4.113281 24.1875 L 25.886719 24.1875 C 27.890625 24.1875 29.515625 22.5625 29.515625 20.558594 L 29.515625 8.472656 C 29.515625 6.46875 27.890625 4.84375 25.886719 4.84375 L 4.113281 4.84375 C 2.109375 4.84375 0.484375 6.46875 0.484375 8.472656 Z M 0.484375 8.472656 " clip-rule="nonzero"/></clipPath><clipPath id="93d6eecbf5"><path d="M 7 13 L 9 13 L 9 16 L 7 16 Z M 7 13 " clip-rule="nonzero"/></clipPath><clipPath id="503b5b71f7"><path d="M 0.484375 8.472656 L 0.484375 20.558594 C 0.484375 22.5625 2.109375 24.1875 4.113281 24.1875 L 25.886719 24.1875 C 27.890625 24.1875 29.515625 22.5625 29.515625 20.558594 L 29.515625 8.472656 C 29.515625 6.46875 27.890625 4.84375 25.886719 4.84375 L 4.113281 4.84375 C 2.109375 4.84375 0.484375 6.46875 0.484375 8.472656 Z M 0.484375 8.472656 " clip-rule="nonzero"/></clipPath><clipPath id="fa1749f17f"><path d="M 7 9 L 12 9 L 12 13 L 7 13 Z M 7 9 " clip-rule="nonzero"/></clipPath><clipPath id="1862ec2f59"><path d="M 0.484375 8.472656 L 0.484375 20.558594 C 0.484375 22.5625 2.109375 24.1875 4.113281 24.1875 L 25.886719 24.1875 C 27.890625 24.1875 29.515625 22.5625 29.515625 20.558594 L 29.515625 8.472656 C 29.515625 6.46875 27.890625 4.84375 25.886719 4.84375 L 4.113281 4.84375 C 2.109375 4.84375 0.484375 6.46875 0.484375 8.472656 Z M 0.484375 8.472656 " clip-rule="nonzero"/></clipPath><clipPath id="c02da227c0"><path d="M 4 14 L 8 14 L 8 17 L 4 17 Z M 4 14 " clip-rule="nonzero"/></clipPath><clipPath id="7ba9081428"><path d="M 0.484375 8.472656 L 0.484375 20.558594 C 0.484375 22.5625 2.109375 24.1875 4.113281 24.1875 L 25.886719 24.1875 C 27.890625 24.1875 29.515625 22.5625 29.515625 20.558594 L 29.515625 8.472656 C 29.515625 6.46875 27.890625 4.84375 25.886719 4.84375 L 4.113281 4.84375 C 2.109375 4.84375 0.484375 6.46875 0.484375 8.472656 Z M 0.484375 8.472656 " clip-rule="nonzero"/></clipPath><clipPath id="e6dc751c21"><path d="M 12 13 L 14 13 L 14 18 L 12 18 Z M 12 13 " clip-rule="nonzero"/></clipPath><clipPath id="77ba3019f2"><path d="M 0.484375 8.472656 L 0.484375 20.558594 C 0.484375 22.5625 2.109375 24.1875 4.113281 24.1875 L 25.886719 24.1875 C 27.890625 24.1875 29.515625 22.5625 29.515625 20.558594 L 29.515625 8.472656 C 29.515625 6.46875 27.890625 4.84375 25.886719 4.84375 L 4.113281 4.84375 C 2.109375 4.84375 0.484375 6.46875 0.484375 8.472656 Z M 0.484375 8.472656 " clip-rule="nonzero"/></clipPath><clipPath id="32bb244f34"><path d="M 12 13 L 14 13 L 14 19 L 12 19 Z M 12 13 " clip-rule="nonzero"/></clipPath><clipPath id="aafe3cd2d1"><path d="M 0.484375 8.472656 L 0.484375 20.558594 C 0.484375 22.5625 2.109375 24.1875 4.113281 24.1875 L 25.886719 24.1875 C 27.890625 24.1875 29.515625 22.5625 29.515625 20.558594 L 29.515625 8.472656 C 29.515625 6.46875 27.890625 4.84375 25.886719 4.84375 L 4.113281 4.84375 C 2.109375 4.84375 0.484375 6.46875 0.484375 8.472656 Z M 0.484375 8.472656 " clip-rule="nonzero"/></clipPath><clipPath id="1820001b31"><path d="M 5 18 L 14 18 L 14 20 L 5 20 Z M 5 18 " clip-rule="nonzero"/></clipPath><clipPath id="d7360d16fc"><path d="M 0.484375 8.472656 L 0.484375 20.558594 C 0.484375 22.5625 2.109375 24.1875 4.113281 24.1875 L 25.886719 24.1875 C 27.890625 24.1875 29.515625 22.5625 29.515625 20.558594 L 29.515625 8.472656 C 29.515625 6.46875 27.890625 4.84375 25.886719 4.84375 L 4.113281 4.84375 C 2.109375 4.84375 0.484375 6.46875 0.484375 8.472656 Z M 0.484375 8.472656 " clip-rule="nonzero"/></clipPath><clipPath id="26f80c0d0c"><path d="M 5 12 L 14 12 L 14 14 L 5 14 Z M 5 12 " clip-rule="nonzero"/></clipPath><clipPath id="f36471f1f6"><path d="M 0.484375 8.472656 L 0.484375 20.558594 C 0.484375 22.5625 2.109375 24.1875 4.113281 24.1875 L 25.886719 24.1875 C 27.890625 24.1875 29.515625 22.5625 29.515625 20.558594 L 29.515625 8.472656 C 29.515625 6.46875 27.890625 4.84375 25.886719 4.84375 L 4.113281 4.84375 C 2.109375 4.84375 0.484375 6.46875 0.484375 8.472656 Z M 0.484375 8.472656 " clip-rule="nonzero"/></clipPath><clipPath id="c221256967"><path d="M 11 14 L 15 14 L 15 17 L 11 17 Z M 11 14 " clip-rule="nonzero"/></clipPath><clipPath id="3620ed83a1"><path d="M 0.484375 8.472656 L 0.484375 20.558594 C 0.484375 22.5625 2.109375 24.1875 4.113281 24.1875 L 25.886719 24.1875 C 27.890625 24.1875 29.515625 22.5625 29.515625 20.558594 L 29.515625 8.472656 C 29.515625 6.46875 27.890625 4.84375 25.886719 4.84375 L 4.113281 4.84375 C 2.109375 4.84375 0.484375 6.46875 0.484375 8.472656 Z M 0.484375 8.472656 " clip-rule="nonzero"/></clipPath><clipPath id="ca22ab35aa"><path d="M 9 10 L 10 10 L 10 11 L 9 11 Z M 9 10 " clip-rule="nonzero"/></clipPath><clipPath id="b395041ed8"><path d="M 0.484375 8.472656 L 0.484375 20.558594 C 0.484375 22.5625 2.109375 24.1875 4.113281 24.1875 L 25.886719 24.1875 C 27.890625 24.1875 29.515625 22.5625 29.515625 20.558594 L 29.515625 8.472656 C 29.515625 6.46875 27.890625 4.84375 25.886719 4.84375 L 4.113281 4.84375 C 2.109375 4.84375 0.484375 6.46875 0.484375 8.472656 Z M 0.484375 8.472656 " clip-rule="nonzero"/></clipPath><clipPath id="03928ab658"><path d="M 9 16 L 12 16 L 12 19 L 9 19 Z M 9 16 " clip-rule="nonzero"/></clipPath><clipPath id="1580e3b94e"><path d="M 0.484375 8.472656 L 0.484375 20.558594 C 0.484375 22.5625 2.109375 24.1875 4.113281 24.1875 L 25.886719 24.1875 C 27.890625 24.1875 29.515625 22.5625 29.515625 20.558594 L 29.515625 8.472656 C 29.515625 6.46875 27.890625 4.84375 25.886719 4.84375 L 4.113281 4.84375 C 2.109375 4.84375 0.484375 6.46875 0.484375 8.472656 Z M 0.484375 8.472656 " clip-rule="nonzero"/></clipPath><clipPath id="e7c51456fe"><path d="M 7 14 L 9 14 L 9 16 L 7 16 Z M 7 14 " clip-rule="nonzero"/></clipPath><clipPath id="1155d21135"><path d="M 0.484375 8.472656 L 0.484375 20.558594 C 0.484375 22.5625 2.109375 24.1875 4.113281 24.1875 L 25.886719 24.1875 C 27.890625 24.1875 29.515625 22.5625 29.515625 20.558594 L 29.515625 8.472656 C 29.515625 6.46875 27.890625 4.84375 25.886719 4.84375 L 4.113281 4.84375 C 2.109375 4.84375 0.484375 6.46875 0.484375 8.472656 Z M 0.484375 8.472656 " clip-rule="nonzero"/></clipPath></defs><g clip-path="url(#0a45ad8db8)"><g clip-path="url(#5821bc684a)"><path fill="#ffd351" d="M 29.5 6.042969 L 29.5 23.246094 C 29.5 23.90625 28.972656 24.441406 28.320312 24.441406 L 1.675781 24.441406 C 1.027344 24.441406 0.496094 23.90625 0.496094 23.246094 L 0.496094 6.042969 C 0.496094 5.378906 1.027344 4.84375 1.675781 4.84375 L 28.320312 4.84375 C 28.972656 4.84375 29.5 5.378906 29.5 6.042969 Z M 29.5 6.042969 " fill-opacity="1" fill-rule="nonzero"/></g></g><g clip-path="url(#50a38b84aa)"><g clip-path="url(#b513044860)"><path fill="#ffd351" d="M 0.496094 8.765625 L 29.5 8.765625 L 29.5 20.523438 L 0.496094 20.523438 Z M 0.496094 8.765625 " fill-opacity="1" fill-rule="nonzero"/></g></g><g clip-path="url(#8da8c81310)"><g clip-path="url(#b6ed7da197)"><path fill="#c9424b" d="M 29.5 6.042969 L 29.5 8.761719 L 0.496094 8.761719 L 0.496094 6.042969 C 0.496094 5.378906 1.027344 4.84375 1.675781 4.84375 L 28.320312 4.84375 C 28.972656 4.84375 29.5 5.378906 29.5 6.042969 Z M 0.496094 20.523438 L 0.496094 23.246094 C 0.496094 23.90625 1.027344 24.441406 1.675781 24.441406 L 28.320312 24.441406 C 28.972656 24.441406 29.5 23.90625 29.5 23.246094 L 29.5 20.523438 Z M 0.496094 20.523438 " fill-opacity="1" fill-rule="nonzero"/></g></g><g clip-path="url(#1399d7b9ea)"><g clip-path="url(#eca0d6053d)"><path fill="#aa191d" d="M 12.335938 15.546875 L 14.058594 15.054688 L 13.921875 15.386719 L 12.335938 16.015625 Z M 12.335938 15.546875 " fill-opacity="1" fill-rule="nonzero"/></g></g><g clip-path="url(#20ce89f1d2)"><g clip-path="url(#69aaaad1fd)"><path fill="#aa191d" d="M 5.167969 15.042969 L 6.671875 15.546875 L 6.472656 15.992188 L 5.085938 15.386719 Z M 5.167969 15.042969 " fill-opacity="1" fill-rule="nonzero"/></g></g><g clip-path="url(#5e8671ac21)"><g clip-path="url(#3a7a7015a3)"><path fill="#cdb100" d="M 7.839844 15.761719 L 7.839844 18.628906 C 7.761719 18.570312 7.6875 18.5 7.617188 18.429688 L 7.617188 15.761719 Z M 9.457031 16.699219 C 9.449219 16.695312 9.4375 16.695312 9.425781 16.695312 C 9.414062 16.691406 9.402344 16.691406 9.390625 16.6875 C 9.378906 16.6875 9.367188 16.683594 9.355469 16.679688 C 9.304688 16.667969 9.261719 16.652344 9.214844 16.625 L 9.214844 18.335938 C 9.386719 18.171875 9.5 17.949219 9.503906 17.644531 L 9.503906 16.699219 C 9.488281 16.699219 9.472656 16.699219 9.457031 16.699219 Z M 7.085938 15.761719 L 7.085938 17.09375 C 7.085938 17.429688 7.171875 17.742188 7.320312 18.019531 L 7.320312 15.761719 Z M 8.136719 15.761719 L 8.136719 18.757812 C 8.222656 18.75 8.3125 18.734375 8.402344 18.714844 L 8.402344 15.761719 Z M 8.882812 16.269531 C 8.878906 16.257812 8.871094 16.246094 8.867188 16.234375 C 8.863281 16.230469 8.863281 16.222656 8.859375 16.21875 C 8.855469 16.207031 8.851562 16.199219 8.847656 16.1875 C 8.835938 16.15625 8.824219 16.121094 8.816406 16.085938 C 8.8125 16.078125 8.808594 16.070312 8.808594 16.058594 C 8.804688 16.050781 8.804688 16.039062 8.800781 16.03125 C 8.796875 16.015625 8.796875 16.003906 8.792969 15.988281 C 8.789062 15.972656 8.789062 15.957031 8.785156 15.9375 C 8.785156 15.925781 8.78125 15.910156 8.78125 15.898438 C 8.78125 15.882812 8.78125 15.867188 8.777344 15.851562 C 8.777344 15.835938 8.777344 15.820312 8.777344 15.808594 C 8.777344 15.792969 8.777344 15.777344 8.777344 15.761719 L 8.699219 15.761719 L 8.699219 18.636719 C 8.777344 18.609375 8.851562 18.578125 8.921875 18.542969 L 8.921875 16.335938 C 8.90625 16.316406 8.894531 16.292969 8.882812 16.269531 Z M 8.882812 16.269531 " fill-opacity="1" fill-rule="nonzero"/></g></g><g clip-path="url(#81dbf32a70)"><g clip-path="url(#0271290100)"><path fill="#ae191b" d="M 7.085938 13.027344 L 7.085938 15.761719 L 8.777344 15.761719 C 8.78125 15.671875 8.796875 15.578125 8.824219 15.496094 L 7.660156 15.496094 L 7.660156 15.054688 L 7.78125 15.054688 L 7.78125 14.34375 L 7.660156 14.34375 L 7.660156 13.902344 L 8.894531 13.902344 L 8.894531 14.34375 L 8.773438 14.34375 L 8.773438 15.054688 L 8.894531 15.054688 L 8.894531 15.320312 C 9.023438 15.078125 9.246094 14.914062 9.503906 14.914062 L 9.503906 13.027344 Z M 8.039062 13.820312 L 7.878906 13.820312 L 7.878906 13.65625 L 8.039062 13.65625 Z M 8.355469 13.820312 L 8.199219 13.820312 L 8.199219 13.515625 L 8.355469 13.515625 Z M 8.695312 13.820312 L 8.535156 13.820312 L 8.535156 13.65625 L 8.695312 13.65625 Z M 8.695312 13.820312 " fill-opacity="1" fill-rule="nonzero"/></g></g><g clip-path="url(#ba88d676af)"><g clip-path="url(#56fb183e0f)"><path fill="#cfcfd3" d="M 11 18.746094 C 10.710938 18.921875 10.375 19.023438 10.015625 19.023438 L 8.992188 19.023438 C 8.96875 19.023438 8.941406 19.023438 8.917969 19.023438 C 8.84375 19.019531 8.769531 19.011719 8.699219 19 C 8.597656 18.984375 8.496094 18.960938 8.402344 18.929688 C 8.308594 18.898438 8.222656 18.859375 8.136719 18.816406 C 8.105469 18.800781 8.074219 18.785156 8.046875 18.769531 C 8.074219 18.765625 8.105469 18.761719 8.136719 18.757812 C 8.222656 18.75 8.3125 18.734375 8.402344 18.714844 C 8.5 18.695312 8.601562 18.667969 8.699219 18.636719 C 8.773438 18.609375 8.847656 18.578125 8.917969 18.542969 C 9.027344 18.488281 9.128906 18.421875 9.214844 18.335938 C 9.390625 18.171875 9.5 17.949219 9.503906 17.644531 C 9.503906 17.730469 9.535156 18.742188 11 18.746094 Z M 11 18.746094 " fill-opacity="1" fill-rule="nonzero"/></g></g><g clip-path="url(#e08e2c974c)"><g clip-path="url(#590d2c2b59)"><path fill="#ab191b" d="M 10.230469 15.761719 C 10.230469 15.777344 10.230469 15.792969 10.230469 15.808594 C 10.230469 15.914062 10.214844 16.015625 10.1875 16.113281 C 10.1875 16.113281 10.183594 16.117188 10.183594 16.117188 C 10.117188 16.34375 9.972656 16.53125 9.792969 16.625 C 9.777344 16.632812 9.761719 16.640625 9.746094 16.644531 C 9.671875 16.679688 9.589844 16.699219 9.503906 16.699219 L 9.503906 17.644531 C 9.503906 17.730469 9.535156 18.742188 11 18.746094 C 11.550781 18.40625 11.921875 17.792969 11.921875 17.089844 L 11.921875 15.761719 Z M 10.710938 17.246094 C 10.628906 17.246094 10.5625 17.179688 10.5625 17.097656 C 10.5625 17.011719 10.628906 16.945312 10.710938 16.945312 C 10.792969 16.945312 10.859375 17.011719 10.859375 17.097656 C 10.859375 17.179688 10.792969 17.246094 10.710938 17.246094 Z M 10.710938 17.246094 " fill-opacity="1" fill-rule="nonzero"/></g></g><g clip-path="url(#93c12fa397)"><g clip-path="url(#7560e5bbd6)"><path fill="#cfcfd3" d="M 9.503906 13.027344 L 9.503906 14.914062 C 9.894531 14.914062 10.210938 15.289062 10.230469 15.761719 L 11.921875 15.761719 L 11.921875 13.027344 Z M 11.214844 14.886719 L 11.179688 15.640625 L 10.984375 15.628906 L 11.011719 14.976562 L 10.824219 15.054688 L 10.769531 14.925781 L 10.398438 15.328125 L 10.253906 15.191406 L 10.683594 14.722656 L 10.535156 14.378906 L 9.847656 14.585938 L 9.789062 14.390625 L 10.402344 14.207031 L 9.859375 13.804688 L 9.972656 13.640625 L 10.539062 14.058594 L 10.539062 13.332031 L 11.15625 13.332031 L 11.15625 14.171875 L 10.933594 14.171875 L 11.195312 14.792969 L 11.214844 14.835938 Z M 11.214844 14.886719 " fill-opacity="1" fill-rule="nonzero"/></g></g><g clip-path="url(#e7c0119e99)"><g clip-path="url(#459d221fc2)"><path fill="#164899" d="M 10.230469 15.761719 C 10.210938 15.289062 9.894531 14.914062 9.503906 14.914062 C 9.246094 14.914062 9.023438 15.078125 8.894531 15.320312 C 8.863281 15.375 8.839844 15.433594 8.824219 15.496094 C 8.796875 15.578125 8.78125 15.667969 8.777344 15.761719 L 8.777344 15.851562 C 8.777344 15.867188 8.777344 15.882812 8.78125 15.898438 C 8.78125 15.910156 8.785156 15.925781 8.785156 15.9375 C 8.789062 15.953125 8.789062 15.96875 8.792969 15.988281 C 8.796875 16 8.796875 16.015625 8.800781 16.03125 C 8.800781 16.039062 8.804688 16.050781 8.808594 16.058594 C 8.808594 16.070312 8.8125 16.078125 8.8125 16.085938 C 8.824219 16.121094 8.835938 16.15625 8.847656 16.1875 C 8.851562 16.199219 8.855469 16.207031 8.859375 16.214844 C 8.863281 16.222656 8.863281 16.230469 8.867188 16.234375 C 8.871094 16.246094 8.878906 16.257812 8.882812 16.269531 C 8.894531 16.292969 8.90625 16.316406 8.921875 16.335938 C 8.921875 16.335938 8.921875 16.339844 8.921875 16.339844 C 8.929688 16.355469 8.9375 16.367188 8.945312 16.382812 C 8.957031 16.390625 8.960938 16.402344 8.972656 16.414062 C 8.976562 16.421875 8.980469 16.425781 8.988281 16.433594 C 9.042969 16.503906 9.105469 16.558594 9.175781 16.605469 C 9.183594 16.609375 9.1875 16.609375 9.195312 16.613281 C 9.199219 16.617188 9.210938 16.625 9.214844 16.625 C 9.261719 16.648438 9.304688 16.667969 9.355469 16.679688 C 9.367188 16.683594 9.378906 16.683594 9.390625 16.6875 C 9.402344 16.691406 9.414062 16.691406 9.429688 16.695312 C 9.4375 16.695312 9.449219 16.695312 9.457031 16.695312 C 9.472656 16.699219 9.488281 16.699219 9.503906 16.699219 C 9.589844 16.699219 9.667969 16.679688 9.746094 16.644531 C 9.761719 16.640625 9.773438 16.632812 9.789062 16.625 C 9.972656 16.53125 10.117188 16.34375 10.183594 16.117188 C 10.183594 16.117188 10.183594 16.113281 10.183594 16.113281 C 10.214844 16.015625 10.230469 15.914062 10.230469 15.808594 C 10.230469 15.792969 10.230469 15.777344 10.230469 15.761719 Z M 9.980469 16.117188 C 9.9375 16.21875 9.871094 16.308594 9.789062 16.367188 C 9.707031 16.433594 9.609375 16.46875 9.503906 16.46875 C 9.492188 16.46875 9.480469 16.46875 9.46875 16.46875 C 9.464844 16.46875 9.460938 16.46875 9.457031 16.46875 C 9.449219 16.46875 9.441406 16.464844 9.433594 16.464844 C 9.421875 16.464844 9.40625 16.460938 9.394531 16.457031 C 9.386719 16.453125 9.375 16.453125 9.367188 16.449219 C 9.359375 16.445312 9.351562 16.445312 9.34375 16.441406 C 9.324219 16.433594 9.300781 16.421875 9.277344 16.410156 C 9.269531 16.402344 9.257812 16.398438 9.246094 16.390625 C 9.238281 16.382812 9.226562 16.375 9.214844 16.367188 C 9.207031 16.359375 9.199219 16.351562 9.1875 16.34375 C 9.179688 16.339844 9.171875 16.328125 9.164062 16.320312 C 9.15625 16.3125 9.148438 16.304688 9.140625 16.296875 C 9.136719 16.292969 9.132812 16.289062 9.128906 16.28125 C 9.125 16.277344 9.117188 16.269531 9.113281 16.265625 C 9.105469 16.253906 9.097656 16.246094 9.089844 16.234375 C 9.085938 16.222656 9.078125 16.210938 9.070312 16.203125 C 9.070312 16.199219 9.070312 16.199219 9.070312 16.199219 C 9.0625 16.191406 9.058594 16.179688 9.050781 16.167969 C 9.046875 16.15625 9.042969 16.148438 9.035156 16.136719 C 9.035156 16.136719 9.035156 16.132812 9.035156 16.132812 C 9.03125 16.125 9.027344 16.117188 9.023438 16.113281 C 9.019531 16.105469 9.019531 16.097656 9.015625 16.09375 C 9.007812 16.070312 9 16.046875 8.996094 16.027344 C 8.992188 16.019531 8.988281 16.011719 8.988281 16.003906 C 8.984375 15.980469 8.976562 15.957031 8.972656 15.933594 C 8.972656 15.921875 8.96875 15.90625 8.96875 15.890625 C 8.96875 15.878906 8.964844 15.863281 8.964844 15.851562 C 8.964844 15.835938 8.960938 15.820312 8.960938 15.804688 C 8.960938 15.789062 8.964844 15.773438 8.964844 15.761719 C 8.984375 15.414062 9.21875 15.140625 9.503906 15.140625 C 9.789062 15.140625 10.023438 15.414062 10.042969 15.761719 C 10.042969 15.773438 10.042969 15.789062 10.042969 15.804688 C 10.042969 15.917969 10.019531 16.023438 9.980469 16.117188 Z M 9.980469 16.117188 " fill-opacity="1" fill-rule="nonzero"/></g></g><g clip-path="url(#efb24d7b58)"><g clip-path="url(#54aca5725d)"><path fill="#fbb90e" d="M 10.042969 15.808594 C 10.042969 15.917969 10.019531 16.023438 9.980469 16.117188 C 9.9375 16.21875 9.871094 16.308594 9.789062 16.371094 C 9.707031 16.433594 9.609375 16.472656 9.503906 16.472656 C 9.492188 16.472656 9.480469 16.46875 9.46875 16.46875 C 9.464844 16.46875 9.460938 16.46875 9.457031 16.46875 C 9.449219 16.46875 9.441406 16.46875 9.433594 16.464844 C 9.421875 16.464844 9.40625 16.460938 9.394531 16.457031 C 9.386719 16.457031 9.375 16.453125 9.367188 16.449219 C 9.359375 16.449219 9.351562 16.445312 9.34375 16.441406 C 9.324219 16.433594 9.300781 16.421875 9.277344 16.410156 C 9.269531 16.40625 9.257812 16.398438 9.25 16.390625 C 9.238281 16.386719 9.226562 16.378906 9.214844 16.371094 C 9.207031 16.363281 9.199219 16.355469 9.1875 16.347656 C 9.179688 16.339844 9.171875 16.332031 9.164062 16.324219 C 9.15625 16.316406 9.148438 16.308594 9.140625 16.296875 C 9.136719 16.292969 9.132812 16.289062 9.128906 16.285156 C 9.125 16.277344 9.117188 16.273438 9.113281 16.265625 C 9.105469 16.257812 9.097656 16.246094 9.089844 16.234375 C 9.082031 16.226562 9.078125 16.214844 9.070312 16.203125 C 9.0625 16.191406 9.054688 16.179688 9.050781 16.167969 C 9.042969 16.160156 9.039062 16.148438 9.035156 16.140625 C 9.035156 16.136719 9.03125 16.136719 9.03125 16.132812 C 9.027344 16.128906 9.027344 16.121094 9.023438 16.113281 C 9.019531 16.105469 9.015625 16.101562 9.015625 16.09375 C 9.007812 16.074219 9 16.050781 8.992188 16.027344 C 8.988281 16.019531 8.988281 16.011719 8.984375 16.003906 C 8.980469 15.984375 8.976562 15.960938 8.972656 15.9375 C 8.96875 15.921875 8.96875 15.910156 8.964844 15.894531 C 8.964844 15.882812 8.964844 15.867188 8.960938 15.855469 C 8.960938 15.839844 8.960938 15.820312 8.960938 15.804688 C 8.960938 15.792969 8.960938 15.777344 8.960938 15.761719 C 8.980469 15.417969 9.214844 15.140625 9.5 15.140625 C 9.789062 15.140625 10.023438 15.414062 10.039062 15.761719 C 10.042969 15.777344 10.042969 15.792969 10.042969 15.808594 Z M 10.042969 15.808594 " fill-opacity="1" fill-rule="nonzero"/></g></g><g clip-path="url(#f20dc045ab)"><g clip-path="url(#0ad8a248a9)"><path fill="#cfcfd3" d="M 6.347656 16.238281 L 6.347656 17.835938 L 5.523438 17.835938 L 5.523438 16.664062 C 5.859375 16.527344 6.132812 16.375 6.347656 16.238281 Z M 6.347656 14.648438 L 6.347656 13.691406 L 5.523438 13.691406 L 5.523438 14.765625 C 5.792969 14.6875 6.082031 14.65625 6.347656 14.648438 Z M 5.523438 15.164062 L 5.523438 16.242188 C 5.867188 16.089844 6.140625 15.925781 6.347656 15.789062 L 6.347656 15.042969 C 6.082031 15.046875 5.789062 15.078125 5.523438 15.164062 Z M 5.523438 15.164062 " fill-opacity="1" fill-rule="nonzero"/></g></g><g clip-path="url(#dd13414e57)"><g clip-path="url(#7f70de1830)"><path fill="#fbb90e" d="M 5.507812 13.691406 L 5.382812 13.382812 L 6.472656 13.382812 L 6.347656 13.691406 Z M 5.507812 17.835938 L 5.382812 18.140625 L 6.472656 18.140625 L 6.347656 17.835938 Z M 5.507812 17.835938 " fill-opacity="1" fill-rule="nonzero"/><path fill="#cdb100" d="M 6.472656 13.382812 L 5.382812 13.382812 L 5.382812 13.074219 L 6.472656 13.074219 Z M 5.382812 18.140625 L 5.382812 18.449219 L 6.472656 18.449219 L 6.472656 18.140625 Z M 5.382812 18.140625 " fill-opacity="1" fill-rule="nonzero"/></g></g><g clip-path="url(#41e09fe8be)"><g clip-path="url(#d6557da612)"><path fill="#aa191d" d="M 9.503906 13.027344 L 8.179688 13.027344 L 7.917969 12.71875 C 8.699219 12.585938 10.199219 12.574219 11.125 12.679688 L 10.828125 13.027344 Z M 11.414062 12.339844 L 11.5 12.242188 L 11.8125 11.875 C 11.902344 11.722656 11.953125 11.550781 11.953125 11.382812 C 11.929688 11.339844 11.902344 11.300781 11.867188 11.265625 C 11.648438 11.03125 11.265625 10.875 10.832031 10.875 L 8.175781 10.875 C 7.742188 10.875 7.359375 11.03125 7.140625 11.265625 C 7.105469 11.300781 7.074219 11.339844 7.054688 11.382812 C 7.054688 11.550781 7.105469 11.722656 7.195312 11.875 L 7.507812 12.242188 L 7.644531 12.402344 C 8.347656 12.195312 10.441406 12.175781 11.414062 12.339844 Z M 11.414062 12.339844 " fill-opacity="1" fill-rule="nonzero"/></g></g><g clip-path="url(#15e20fedd9)"><g clip-path="url(#22e4960e74)"><path fill="#ab191b" d="M 7.617188 15.761719 L 7.617188 18.429688 C 7.5 18.308594 7.402344 18.167969 7.320312 18.019531 L 7.320312 15.761719 Z M 8.136719 15.761719 L 7.839844 15.761719 L 7.839844 18.628906 C 7.902344 18.679688 7.972656 18.726562 8.042969 18.769531 C 8.074219 18.765625 8.105469 18.761719 8.136719 18.757812 Z M 8.402344 15.761719 L 8.402344 18.714844 C 8.5 18.695312 8.601562 18.667969 8.699219 18.636719 L 8.699219 15.761719 Z M 9.195312 16.613281 C 9.1875 16.609375 9.183594 16.605469 9.175781 16.605469 C 9.105469 16.558594 9.042969 16.503906 8.988281 16.433594 C 8.980469 16.425781 8.976562 16.421875 8.972656 16.414062 C 8.964844 16.402344 8.957031 16.390625 8.949219 16.382812 C 8.9375 16.367188 8.929688 16.355469 8.921875 16.339844 C 8.921875 16.339844 8.921875 16.339844 8.917969 16.335938 L 8.917969 18.542969 C 9.03125 18.488281 9.132812 18.417969 9.21875 18.335938 L 9.21875 16.625 C 9.210938 16.621094 9.203125 16.617188 9.195312 16.613281 Z M 9.195312 16.613281 " fill-opacity="1" fill-rule="nonzero"/></g></g><g clip-path="url(#a72a760aca)"><g clip-path="url(#7031fd1acf)"><path fill="#ae191b" d="M 11.214844 14.835938 L 11.214844 14.886719 L 11.179688 15.636719 L 10.984375 15.628906 L 11.011719 14.976562 L 10.824219 15.054688 L 10.769531 14.925781 L 10.398438 15.328125 L 10.253906 15.191406 L 10.683594 14.722656 L 10.535156 14.375 L 9.847656 14.585938 L 9.789062 14.390625 L 10.402344 14.207031 L 9.855469 13.804688 L 9.972656 13.640625 L 10.539062 14.054688 L 10.539062 13.328125 L 11.15625 13.328125 L 11.15625 14.171875 L 10.933594 14.171875 L 11.195312 14.789062 Z M 11.214844 14.835938 " fill-opacity="1" fill-rule="nonzero"/></g></g><g clip-path="url(#b9bc778e94)"><g clip-path="url(#264a2e063b)"><path fill="#08764d" d="M 10.5625 17.097656 C 10.5625 17.011719 10.628906 16.945312 10.710938 16.945312 C 10.796875 16.945312 10.863281 17.011719 10.863281 17.097656 C 10.863281 17.179688 10.796875 17.246094 10.710938 17.246094 C 10.628906 17.246094 10.5625 17.179688 10.5625 17.097656 Z M 10.5625 17.097656 " fill-opacity="1" fill-rule="nonzero"/></g></g><g clip-path="url(#93d6eecbf5)"><g clip-path="url(#503b5b71f7)"><path fill="#fbb90e" d="M 8.894531 14.34375 L 8.894531 13.902344 L 7.660156 13.902344 L 7.660156 14.34375 L 7.78125 14.34375 L 7.78125 15.054688 L 7.660156 15.054688 L 7.660156 15.496094 L 8.824219 15.496094 C 8.839844 15.433594 8.863281 15.375 8.894531 15.320312 L 8.894531 15.054688 L 8.773438 15.054688 L 8.773438 14.34375 Z M 8.097656 14.820312 L 7.859375 14.820312 L 7.859375 14.589844 C 7.859375 14.523438 7.914062 14.46875 7.976562 14.46875 C 8.042969 14.46875 8.097656 14.523438 8.097656 14.589844 Z M 8.667969 14.820312 L 8.429688 14.820312 L 8.429688 14.589844 C 8.429688 14.523438 8.484375 14.46875 8.550781 14.46875 C 8.617188 14.46875 8.667969 14.523438 8.667969 14.589844 Z M 8.355469 13.820312 L 8.195312 13.820312 L 8.195312 13.515625 L 8.355469 13.515625 Z M 8.039062 13.820312 L 7.878906 13.820312 L 7.878906 13.65625 L 8.039062 13.65625 Z M 8.695312 13.820312 L 8.535156 13.820312 L 8.535156 13.65625 L 8.695312 13.65625 Z M 8.695312 13.820312 " fill-opacity="1" fill-rule="nonzero"/></g></g><g clip-path="url(#fa1749f17f)"><g clip-path="url(#1862ec2f59)"><path fill="#cdb100" d="M 7.917969 12.71875 L 7.648438 12.402344 C 8.347656 12.195312 10.441406 12.175781 11.414062 12.339844 L 11.125 12.679688 C 10.199219 12.574219 8.699219 12.585938 7.917969 12.71875 Z M 11.8125 10.886719 C 11.597656 10.546875 11.226562 10.328125 10.800781 10.328125 L 9.582031 10.328125 L 9.582031 9.566406 L 9.410156 9.566406 L 9.410156 10.328125 L 8.207031 10.328125 C 7.78125 10.328125 7.410156 10.546875 7.191406 10.886719 C 7.097656 11.035156 7.050781 11.207031 7.054688 11.382812 C 7.074219 11.339844 7.105469 11.300781 7.140625 11.265625 C 7.359375 11.03125 7.742188 10.875 8.175781 10.875 L 10.832031 10.875 C 11.265625 10.875 11.648438 11.03125 11.867188 11.265625 C 11.902344 11.300781 11.929688 11.339844 11.953125 11.382812 C 11.953125 11.207031 11.910156 11.035156 11.8125 10.886719 Z M 11.8125 10.886719 " fill-opacity="1" fill-rule="nonzero"/></g></g><g clip-path="url(#c02da227c0)"><g clip-path="url(#7ba9081428)"><path fill="#aa191d" d="M 7.085938 14.679688 L 7.085938 15.097656 C 6.925781 15.074219 6.652344 15.039062 6.347656 15.042969 C 6.082031 15.046875 5.789062 15.078125 5.523438 15.164062 C 5.367188 15.21875 5.214844 15.289062 5.085938 15.386719 L 4.949219 15.054688 C 5.113281 14.921875 5.3125 14.828125 5.523438 14.765625 C 5.792969 14.6875 6.082031 14.65625 6.347656 14.648438 C 6.65625 14.636719 6.925781 14.660156 7.085938 14.679688 Z M 6.347656 15.777344 C 6.140625 15.910156 5.867188 16.066406 5.523438 16.210938 C 5.378906 16.273438 5.222656 16.332031 5.050781 16.386719 L 5.109375 16.765625 C 5.257812 16.71875 5.394531 16.667969 5.523438 16.617188 C 5.859375 16.484375 6.132812 16.339844 6.347656 16.207031 C 6.476562 16.128906 6.585938 16.054688 6.671875 15.992188 L 6.671875 15.546875 C 6.59375 15.605469 6.488281 15.6875 6.347656 15.777344 Z M 6.347656 15.777344 " fill-opacity="1" fill-rule="nonzero"/></g></g><g clip-path="url(#e6dc751c21)"><g clip-path="url(#77ba3019f2)"><path fill="#cfcfd3" d="M 13.484375 15.164062 L 13.484375 16.242188 C 13.140625 16.089844 12.863281 15.925781 12.660156 15.789062 L 12.660156 15.042969 C 12.925781 15.046875 13.21875 15.078125 13.484375 15.164062 Z M 12.660156 16.238281 L 12.660156 17.835938 L 13.484375 17.835938 L 13.484375 16.664062 C 13.148438 16.527344 12.875 16.375 12.660156 16.238281 Z M 13.484375 14.765625 L 13.484375 13.691406 L 12.660156 13.691406 L 12.660156 14.644531 C 12.921875 14.65625 13.214844 14.6875 13.484375 14.765625 Z M 13.484375 14.765625 " fill-opacity="1" fill-rule="nonzero"/></g></g><g clip-path="url(#32bb244f34)"><g clip-path="url(#aafe3cd2d1)"><path fill="#fbb90e" d="M 12.660156 13.691406 L 12.535156 13.382812 L 13.625 13.382812 L 13.5 13.691406 Z M 12.535156 18.140625 L 13.625 18.140625 L 13.5 17.835938 L 12.660156 17.835938 Z M 12.535156 18.140625 " fill-opacity="1" fill-rule="nonzero"/><path fill="#cdb100" d="M 13.625 13.382812 L 12.535156 13.382812 L 12.535156 13.074219 L 13.625 13.074219 Z M 12.535156 18.140625 L 12.535156 18.449219 L 13.625 18.449219 L 13.625 18.140625 Z M 12.535156 18.140625 " fill-opacity="1" fill-rule="nonzero"/></g></g><g clip-path="url(#1820001b31)"><g clip-path="url(#d7360d16fc)"><path fill="#164899" d="M 6.472656 18.449219 L 6.472656 18.363281 L 6.714844 18.429688 L 6.714844 19.078125 L 6.46875 19.011719 C 6.417969 19 6.363281 18.996094 6.3125 19.007812 L 6 19.066406 C 5.957031 19.074219 5.914062 19.074219 5.871094 19.066406 L 5.5625 19.007812 C 5.511719 18.996094 5.457031 19 5.40625 19.011719 L 5.15625 19.078125 L 5.15625 18.429688 L 5.382812 18.363281 L 5.382812 18.449219 Z M 12.535156 18.449219 L 12.535156 18.363281 L 12.292969 18.429688 L 12.292969 19.078125 L 12.539062 19.011719 C 12.589844 19 12.640625 18.996094 12.695312 19.007812 L 13.007812 19.066406 C 13.050781 19.074219 13.09375 19.074219 13.136719 19.066406 L 13.445312 19.007812 C 13.496094 18.996094 13.550781 19 13.601562 19.011719 L 13.851562 19.078125 L 13.851562 18.429688 L 13.625 18.363281 L 13.625 18.449219 Z M 12.535156 18.449219 " fill-opacity="1" fill-rule="nonzero"/></g></g><g clip-path="url(#26f80c0d0c)"><g clip-path="url(#f36471f1f6)"><path fill="#aa191d" d="M 6.28125 13.074219 L 5.601562 13.074219 L 5.4375 12.804688 C 5.398438 12.742188 5.398438 12.65625 5.4375 12.589844 C 5.484375 12.519531 5.566406 12.46875 5.65625 12.46875 L 6.222656 12.46875 C 6.316406 12.46875 6.394531 12.519531 6.441406 12.589844 C 6.484375 12.65625 6.480469 12.738281 6.441406 12.804688 Z M 13.570312 12.804688 C 13.609375 12.742188 13.609375 12.65625 13.570312 12.589844 C 13.523438 12.519531 13.441406 12.46875 13.347656 12.46875 L 12.785156 12.46875 C 12.691406 12.46875 12.613281 12.519531 12.566406 12.589844 C 12.523438 12.65625 12.527344 12.738281 12.566406 12.804688 L 12.726562 13.074219 L 13.40625 13.074219 Z M 13.570312 12.804688 " fill-opacity="1" fill-rule="nonzero"/></g></g><g clip-path="url(#c221256967)"><g clip-path="url(#3620ed83a1)"><path fill="#aa191d" d="M 14.058594 15.054688 L 13.921875 15.386719 C 13.792969 15.289062 13.640625 15.214844 13.484375 15.164062 C 13.351562 15.121094 13.210938 15.089844 13.070312 15.074219 C 12.933594 15.054688 12.792969 15.046875 12.660156 15.042969 C 12.351562 15.039062 12.082031 15.074219 11.921875 15.097656 L 11.921875 14.679688 C 12.054688 14.664062 12.265625 14.644531 12.515625 14.644531 C 12.5625 14.644531 12.609375 14.644531 12.660156 14.648438 C 12.925781 14.65625 13.214844 14.6875 13.484375 14.765625 C 13.695312 14.828125 13.894531 14.921875 14.058594 15.054688 Z M 13.484375 16.242188 C 13.140625 16.089844 12.867188 15.925781 12.660156 15.789062 C 12.519531 15.691406 12.410156 15.609375 12.335938 15.546875 L 12.335938 16.015625 C 12.421875 16.078125 12.53125 16.15625 12.660156 16.238281 C 12.875 16.375 13.148438 16.527344 13.484375 16.664062 C 13.613281 16.71875 13.75 16.769531 13.898438 16.820312 L 13.957031 16.425781 C 13.785156 16.367188 13.628906 16.304688 13.484375 16.242188 Z M 13.484375 16.242188 " fill-opacity="1" fill-rule="nonzero"/></g></g><g clip-path="url(#ca22ab35aa)"><g clip-path="url(#b395041ed8)"><path fill="#67631e" d="M 9.710938 10.328125 C 9.710938 10.441406 9.617188 10.535156 9.503906 10.535156 C 9.390625 10.535156 9.296875 10.441406 9.296875 10.328125 C 9.296875 10.210938 9.390625 10.117188 9.503906 10.117188 C 9.617188 10.117188 9.710938 10.210938 9.710938 10.328125 Z M 9.710938 10.328125 " fill-opacity="1" fill-rule="nonzero"/></g></g><g clip-path="url(#03928ab658)"><g clip-path="url(#1580e3b94e)"><path fill="#fbb90e" d="M 10.710938 18.441406 C 10.179688 18.441406 9.746094 18.011719 9.746094 17.484375 L 9.746094 16.648438 L 9.808594 16.648438 L 9.808594 17.484375 C 9.808594 17.976562 10.214844 18.378906 10.710938 18.378906 C 11.210938 18.378906 11.613281 17.976562 11.613281 17.484375 L 11.613281 16.144531 L 10.21875 16.144531 L 10.21875 16.082031 L 11.675781 16.082031 L 11.675781 17.484375 C 11.675781 18.011719 11.242188 18.441406 10.710938 18.441406 Z M 10.753906 16.238281 L 10.667969 16.238281 L 10.667969 16.847656 L 10.753906 16.847656 Z M 10.46875 17.039062 L 9.867188 17.039062 L 9.867188 17.128906 L 10.46875 17.128906 Z M 11.53125 17.050781 L 10.933594 17.050781 L 10.933594 17.140625 L 11.53125 17.140625 Z M 10.753906 17.347656 L 10.667969 17.347656 L 10.667969 18.296875 L 10.753906 18.296875 Z M 10.753906 17.347656 " fill-opacity="1" fill-rule="nonzero"/></g></g><g clip-path="url(#e7c51456fe)"><g clip-path="url(#1155d21135)"><path fill="#164899" d="M 8.097656 14.589844 L 8.097656 14.820312 L 7.859375 14.820312 L 7.859375 14.589844 C 7.859375 14.523438 7.914062 14.46875 7.976562 14.46875 C 8.042969 14.46875 8.097656 14.523438 8.097656 14.589844 Z M 8.550781 14.46875 C 8.484375 14.46875 8.429688 14.523438 8.429688 14.589844 L 8.429688 14.820312 L 8.667969 14.820312 L 8.667969 14.589844 C 8.667969 14.523438 8.613281 14.46875 8.550781 14.46875 Z M 8.269531 15.101562 C 8.203125 15.101562 8.148438 15.152344 8.148438 15.21875 L 8.148438 15.449219 L 8.386719 15.449219 L 8.386719 15.21875 C 8.386719 15.152344 8.335938 15.101562 8.269531 15.101562 Z M 8.269531 15.101562 " fill-opacity="1" fill-rule="nonzero"/></g></g></svg>