<svg xmlns="http://www.w3.org/2000/svg" xmlns:xlink="http://www.w3.org/1999/xlink" width="700" zoomAndPan="magnify" viewBox="0 0 525 149.999998" height="200" preserveAspectRatio="xMidYMid meet" version="1.0"><defs><g/><clipPath id="15b740c152"><path d="M 42 109 L 43 109 L 43 110 L 42 110 Z M 42 109 " clip-rule="nonzero"/></clipPath><clipPath id="e67820fb36"><path d="M 6.9375 65.320312 L 136.699219 82.46875 L 129.726562 135.222656 L -0.0351562 118.074219 Z M 6.9375 65.320312 " clip-rule="nonzero"/></clipPath><clipPath id="4ec84ae11f"><path d="M 6.9375 65.320312 L 136.699219 82.46875 L 129.726562 135.222656 L -0.0351562 118.074219 Z M 6.9375 65.320312 " clip-rule="nonzero"/></clipPath><clipPath id="22850fa760"><path d="M 109 79 L 136 79 L 136 107 L 109 107 Z M 109 79 " clip-rule="nonzero"/></clipPath><clipPath id="07673c6d7a"><path d="M 6.9375 65.320312 L 136.699219 82.46875 L 129.726562 135.222656 L -0.0351562 118.074219 Z M 6.9375 65.320312 " clip-rule="nonzero"/></clipPath><clipPath id="ba52e36608"><path d="M 6.9375 65.320312 L 136.699219 82.46875 L 129.726562 135.222656 L -0.0351562 118.074219 Z M 6.9375 65.320312 " clip-rule="nonzero"/></clipPath><clipPath id="5af4ae6a27"><path d="M 112.253906 79.238281 L 136.84375 82.488281 L 133.207031 110.019531 L 108.617188 106.769531 Z M 112.253906 79.238281 " clip-rule="nonzero"/></clipPath><clipPath id="4b74de2cf4"><path d="M 112.253906 79.238281 L 136.710938 82.46875 L 133.074219 110 L 108.617188 106.769531 Z M 112.253906 79.238281 " clip-rule="nonzero"/></clipPath><clipPath id="06e4831b88"><path d="M 2 87 L 70 87 L 70 113 L 2 113 Z M 2 87 " clip-rule="nonzero"/></clipPath><clipPath id="e9fe42497b"><path d="M 6.9375 65.320312 L 136.699219 82.46875 L 129.726562 135.222656 L -0.0351562 118.074219 Z M 6.9375 65.320312 " clip-rule="nonzero"/></clipPath><clipPath id="cb67a7be39"><path d="M 6.9375 65.320312 L 136.699219 82.46875 L 129.726562 135.222656 L -0.0351562 118.074219 Z M 6.9375 65.320312 " clip-rule="nonzero"/></clipPath><clipPath id="ddcc814f29"><path d="M 109 79 L 136 79 L 136 107 L 109 107 Z M 109 79 " clip-rule="nonzero"/></clipPath><clipPath id="ccedbf9579"><path d="M 6.9375 65.320312 L 136.699219 82.46875 L 129.726562 135.222656 L -0.0351562 118.074219 Z M 6.9375 65.320312 " clip-rule="nonzero"/></clipPath><clipPath id="c6818ceef9"><path d="M 6.9375 65.320312 L 136.699219 82.46875 L 129.726562 135.222656 L -0.0351562 118.074219 Z M 6.9375 65.320312 " clip-rule="nonzero"/></clipPath><clipPath id="ab6f8d91a9"><path d="M 112.253906 79.238281 L 136.84375 82.488281 L 133.207031 110.019531 L 108.617188 106.769531 Z M 112.253906 79.238281 " clip-rule="nonzero"/></clipPath><clipPath id="0c8bbc1543"><path d="M 112.253906 79.238281 L 136.710938 82.46875 L 133.074219 110 L 108.617188 106.769531 Z M 112.253906 79.238281 " clip-rule="nonzero"/></clipPath><clipPath id="7e233eaa28"><path d="M 2 87 L 70 87 L 70 113 L 2 113 Z M 2 87 " clip-rule="nonzero"/></clipPath><clipPath id="46f288634c"><path d="M 6.9375 65.320312 L 136.699219 82.46875 L 129.726562 135.222656 L -0.0351562 118.074219 Z M 6.9375 65.320312 " clip-rule="nonzero"/></clipPath><clipPath id="1f00037736"><path d="M 6.9375 65.320312 L 136.699219 82.46875 L 129.726562 135.222656 L -0.0351562 118.074219 Z M 6.9375 65.320312 " clip-rule="nonzero"/></clipPath><clipPath id="ed880a57f1"><path d="M 88 129 L 89 129 L 89 130 L 88 130 Z M 88 129 " clip-rule="nonzero"/></clipPath><clipPath id="12f99f8b00"><path d="M 6.9375 65.320312 L 136.699219 82.46875 L 129.726562 135.222656 L -0.0351562 118.074219 Z M 6.9375 65.320312 " clip-rule="nonzero"/></clipPath><clipPath id="7eac2b7367"><path d="M 6.9375 65.320312 L 136.699219 82.46875 L 129.726562 135.222656 L -0.0351562 118.074219 Z M 6.9375 65.320312 " clip-rule="nonzero"/></clipPath><clipPath id="910ee5123f"><path d="M 88.492188 129.402344 L 88.757812 129.4375 L 88.722656 129.707031 L 88.457031 129.671875 Z M 88.492188 129.402344 " clip-rule="nonzero"/></clipPath><clipPath id="5b0ecf445b"><path d="M 88.492188 129.402344 L 88.757812 129.4375 L 88.742188 129.554688 L 88.476562 129.519531 Z M 88.492188 129.402344 " clip-rule="nonzero"/></clipPath><clipPath id="e8eb707e5d"><path d="M 68 90 L 108 90 L 108 128 L 68 128 Z M 68 90 " clip-rule="nonzero"/></clipPath><clipPath id="74d0a29cd0"><path d="M 6.9375 65.320312 L 136.699219 82.46875 L 129.726562 135.222656 L -0.0351562 118.074219 Z M 6.9375 65.320312 " clip-rule="nonzero"/></clipPath><clipPath id="8dfc5b791c"><path d="M 6.9375 65.320312 L 136.699219 82.46875 L 129.726562 135.222656 L -0.0351562 118.074219 Z M 6.9375 65.320312 " clip-rule="nonzero"/></clipPath><clipPath id="bd84569cdb"><path d="M 202.34375 89.546875 L 206.589844 89.546875 L 206.589844 93.792969 L 202.34375 93.792969 Z M 202.34375 89.546875 " clip-rule="nonzero"/></clipPath><clipPath id="5ce8d9439e"><path d="M 204.46875 89.546875 C 203.292969 89.546875 202.34375 90.496094 202.34375 91.667969 C 202.34375 92.84375 203.292969 93.792969 204.46875 93.792969 C 205.640625 93.792969 206.589844 92.84375 206.589844 91.667969 C 206.589844 90.496094 205.640625 89.546875 204.46875 89.546875 Z M 204.46875 89.546875 " clip-rule="nonzero"/></clipPath><clipPath id="287013cfaa"><path d="M 456.609375 89.546875 L 460.859375 89.546875 L 460.859375 93.792969 L 456.609375 93.792969 Z M 456.609375 89.546875 " clip-rule="nonzero"/></clipPath><clipPath id="63ddb43b09"><path d="M 458.734375 89.546875 C 457.5625 89.546875 456.609375 90.496094 456.609375 91.667969 C 456.609375 92.84375 457.5625 93.792969 458.734375 93.792969 C 459.90625 93.792969 460.859375 92.84375 460.859375 91.667969 C 460.859375 90.496094 459.90625 89.546875 458.734375 89.546875 Z M 458.734375 89.546875 " clip-rule="nonzero"/></clipPath></defs><path stroke-linecap="round" transform="matrix(0, -0.75, 0.75, 0, 168.593548, 106.025386)" fill="none" stroke-linejoin="miter" d="M 1.502598 1.500269 L 81.236978 1.500269 " stroke="#3a2620" stroke-width="3" stroke-opacity="1" stroke-miterlimit="4"/><g fill="#3a2620" fill-opacity="1"><g transform="translate(17.199823, 80.012145)"><g><path d="M 28.84375 1.140625 C 36.152344 1.140625 41.179688 0 45.75 -1.484375 L 45.75 -9.136719 L 45.121094 -9.136719 C 45.121094 -9.136719 41.523438 0.457031 28.84375 0.457031 C 17.820312 0.457031 8.566406 -11.878906 8.566406 -28.558594 C 8.566406 -45.234375 17.019531 -57.570312 28.84375 -57.570312 C 38.378906 -57.570312 43.007812 -53.515625 43.007812 -46.71875 C 43.007812 -38.378906 26.957031 -35.011719 26.957031 -24.957031 C 26.957031 -22.332031 28.84375 -18.960938 31.925781 -19.648438 C 30.785156 -20.617188 30.214844 -21.589844 30.214844 -23.359375 C 30.214844 -30.15625 46.375 -34.382812 46.375 -46.261719 C 46.375 -51.460938 41.921875 -58.257812 28.84375 -58.257812 C 14.621094 -58.257812 3.425781 -45.691406 3.425781 -28.558594 C 3.425781 -11.421875 14.621094 1.140625 28.84375 1.140625 Z M 28.84375 1.140625 "/></g></g></g><g fill="#3a2620" fill-opacity="1"><g transform="translate(52.961468, 104.042728)"><g><path d="M 1.515625 0 L 15.117188 0 L 15.117188 -0.503906 C 10.769531 -0.503906 10.464844 -4.09375 10.464844 -14.054688 L 10.464844 -49.246094 C 13.550781 -50.359375 15.976562 -50.863281 19.71875 -50.863281 C 29.121094 -50.863281 35.039062 -45.707031 35.039062 -37.3125 C 35.039062 -31.246094 30.941406 -25.027344 24.621094 -25.027344 C 19.921875 -25.027344 17.59375 -27.910156 14.613281 -27.910156 C 13.703125 -27.910156 12.84375 -27.402344 12.84375 -26.191406 C 12.84375 -22.753906 18.203125 -22.550781 23.105469 -15.167969 C 31.09375 -3.183594 32.511719 0 34.835938 0 L 42.570312 0 L 42.570312 -0.503906 C 36.808594 -0.503906 32.105469 -9.503906 28.113281 -15.722656 C 24.015625 -22.09375 13.347656 -22.800781 13.347656 -26.089844 C 13.347656 -27.25 14.207031 -27.402344 14.8125 -27.402344 C 16.9375 -27.402344 20.171875 -24.167969 24.925781 -24.167969 C 33.722656 -24.167969 39.386719 -30.4375 39.386719 -37.363281 C 39.386719 -45.605469 33.371094 -51.570312 22.601562 -51.570312 C 16.734375 -51.570312 13.144531 -50.558594 7.585938 -50.558594 L 1.515625 -50.558594 L 1.515625 -50.054688 C 5.863281 -50.054688 6.167969 -46.464844 6.167969 -36.503906 L 6.167969 -14.054688 C 6.167969 -4.09375 5.863281 -0.503906 1.515625 -0.503906 Z M 1.515625 0 "/></g></g></g><g clip-path="url(#15b740c152)"><g clip-path="url(#e67820fb36)"><g clip-path="url(#4ec84ae11f)"><path fill="#3a2620" d="M 42.101562 109.28125 L 42.105469 109.28125 C 42.105469 109.273438 42.105469 109.265625 42.105469 109.257812 L 42.101562 109.253906 C 42.101562 109.265625 42.101562 109.273438 42.101562 109.28125 " fill-opacity="1" fill-rule="nonzero"/></g></g></g><g clip-path="url(#22850fa760)"><g clip-path="url(#07673c6d7a)"><g clip-path="url(#ba52e36608)"><g clip-path="url(#5af4ae6a27)"><g clip-path="url(#4b74de2cf4)"><path fill="#3a2620" d="M 109.230469 103.410156 C 109.234375 103.414062 109.238281 103.417969 109.242188 103.421875 C 109.289062 103.496094 109.320312 103.5625 109.386719 103.640625 C 109.574219 103.976562 109.621094 104.304688 109.660156 104.621094 C 109.738281 105.230469 109.609375 105.792969 109.371094 106.308594 C 109.332031 106.398438 109.273438 106.484375 109.226562 106.570312 C 109.222656 106.574219 109.21875 106.578125 109.21875 106.582031 C 109.230469 106.578125 109.238281 106.578125 109.25 106.574219 C 109.484375 106.511719 109.714844 106.449219 109.949219 106.386719 C 110.667969 106.191406 111.386719 105.992188 112.101562 105.78125 C 113.945312 105.246094 115.777344 104.664062 117.59375 104.023438 C 119.476562 103.347656 121.351562 102.625 123.191406 101.792969 C 125.03125 100.964844 126.847656 100.058594 128.59375 98.980469 C 129.46875 98.441406 130.328125 97.867188 131.15625 97.222656 C 131.980469 96.578125 132.777344 95.871094 133.503906 95.054688 C 133.867188 94.644531 134.207031 94.203125 134.511719 93.722656 C 134.820312 93.242188 135.089844 92.71875 135.292969 92.152344 C 135.496094 91.585938 135.625 90.96875 135.640625 90.339844 C 135.648438 90.183594 135.644531 90.023438 135.632812 89.867188 L 135.625 89.75 L 135.613281 89.621094 L 135.585938 89.402344 C 135.535156 89.085938 135.464844 88.78125 135.363281 88.488281 C 135.167969 87.902344 134.878906 87.367188 134.539062 86.890625 C 134.203125 86.414062 133.820312 85.996094 133.414062 85.621094 C 132.601562 84.878906 131.710938 84.292969 130.800781 83.789062 C 128.976562 82.792969 127.066406 82.105469 125.140625 81.542969 C 123.214844 80.980469 121.261719 80.566406 119.304688 80.222656 C 117.347656 79.886719 115.378906 79.632812 113.410156 79.457031 L 113.367188 79.742188 C 115.292969 80.167969 117.207031 80.621094 119.101562 81.144531 C 120.992188 81.660156 122.859375 82.25 124.671875 82.9375 C 125.578125 83.285156 126.472656 83.65625 127.339844 84.066406 C 128.203125 84.476562 129.046875 84.925781 129.832031 85.429688 C 130.613281 85.933594 131.347656 86.492188 131.953125 87.125 C 132.550781 87.75 133.015625 88.449219 133.203125 89.160156 C 133.25 89.335938 133.28125 89.519531 133.296875 89.6875 L 133.308594 89.839844 L 133.308594 89.960938 C 133.308594 90.050781 133.304688 90.136719 133.300781 90.226562 C 133.269531 90.582031 133.179688 90.941406 133.03125 91.296875 C 132.738281 92.007812 132.226562 92.695312 131.617188 93.324219 C 131.007812 93.960938 130.300781 94.542969 129.546875 95.078125 C 128.792969 95.617188 128 96.117188 127.175781 96.585938 C 125.527344 97.515625 123.789062 98.335938 122.015625 99.082031 C 120.238281 99.820312 118.421875 100.507812 116.585938 101.132812 C 115.667969 101.441406 114.746094 101.753906 113.816406 102.042969 C 113.292969 102.210938 112.765625 102.371094 112.234375 102.53125 C 111.832031 102.652344 111.425781 102.773438 111.023438 102.894531 C 110.472656 103.054688 109.925781 103.214844 109.371094 103.371094 C 109.367188 103.371094 109.363281 103.371094 109.359375 103.375 C 109.316406 103.382812 109.273438 103.398438 109.230469 103.410156 " fill-opacity="1" fill-rule="nonzero"/></g></g></g></g></g><g clip-path="url(#06e4831b88)"><g clip-path="url(#e9fe42497b)"><g clip-path="url(#cb67a7be39)"><path fill="#3a2620" d="M 2.652344 99.996094 C 2.628906 100.617188 2.71875 101.25 2.90625 101.839844 C 3.097656 102.429688 3.382812 102.972656 3.710938 103.457031 C 4.378906 104.425781 5.207031 105.179688 6.070312 105.820312 C 6.9375 106.460938 7.847656 106.988281 8.773438 107.457031 C 9.699219 107.929688 10.648438 108.324219 11.601562 108.691406 C 13.507812 109.414062 15.449219 109.980469 17.40625 110.441406 C 18.382812 110.671875 19.363281 110.882812 20.347656 111.0625 C 21.332031 111.25 22.320312 111.410156 23.308594 111.550781 C 24.851562 111.777344 26.394531 111.953125 27.941406 112.09375 C 28.945312 112.1875 29.949219 112.261719 30.949219 112.328125 C 32.363281 112.421875 33.777344 112.492188 35.191406 112.546875 C 37.558594 112.636719 39.921875 112.683594 42.285156 112.707031 C 43.242188 112.714844 44.199219 112.722656 45.15625 112.726562 C 45.792969 112.730469 46.429688 112.730469 47.066406 112.730469 C 51.015625 112.734375 54.96875 112.695312 58.917969 112.605469 C 61.558594 112.539062 64.21875 112.46875 66.859375 112.367188 C 67.632812 112.339844 68.351562 112.296875 69.203125 112.273438 L 69.207031 112.265625 L 69.296875 111.871094 L 68.617188 110.875 C 68.089844 110.882812 67.523438 110.96875 67.054688 111.03125 L 67.054688 111.023438 C 64.359375 111.292969 61.617188 111.503906 58.902344 111.640625 C 54.96875 111.84375 51.015625 111.910156 47.082031 111.808594 C 46.949219 111.804688 46.808594 111.800781 46.675781 111.796875 C 46.535156 111.792969 46.394531 111.789062 46.253906 111.785156 C 46.113281 111.78125 45.972656 111.777344 45.832031 111.769531 C 45.769531 111.769531 45.707031 111.765625 45.644531 111.761719 C 45.550781 111.761719 45.480469 111.757812 45.386719 111.753906 C 45.289062 111.75 45.199219 111.746094 45.125 111.746094 C 44.972656 111.734375 44.964844 111.738281 44.898438 111.734375 C 44.730469 111.730469 44.546875 111.71875 44.382812 111.714844 C 44.378906 111.710938 44.371094 111.710938 44.367188 111.710938 C 44.128906 111.699219 43.886719 111.6875 43.644531 111.675781 C 43.40625 111.664062 43.167969 111.628906 42.925781 111.617188 C 42.6875 111.601562 42.445312 111.585938 42.207031 111.554688 L 42.203125 111.554688 C 39.890625 111.476562 37.601562 111.210938 35.316406 110.945312 C 33.703125 110.761719 32.101562 110.527344 30.5 110.316406 L 30.492188 110.3125 C 29.488281 110.179688 28.484375 110.046875 27.492188 109.839844 L 27.480469 109.839844 C 26.210938 109.671875 24.957031 109.417969 23.707031 109.179688 C 23.226562 109.085938 22.75 109 22.273438 108.902344 C 21.796875 108.804688 21.320312 108.710938 20.84375 108.605469 C 19.898438 108.394531 18.949219 108.183594 18.011719 107.949219 C 16.136719 107.476562 14.28125 106.949219 12.492188 106.300781 C 11.597656 105.976562 10.722656 105.613281 9.878906 105.210938 C 9.039062 104.808594 8.226562 104.359375 7.496094 103.847656 C 6.765625 103.332031 6.101562 102.753906 5.628906 102.109375 C 5.15625 101.460938 4.886719 100.769531 4.882812 100.042969 C 4.871094 99.316406 5.140625 98.550781 5.582031 97.820312 C 6.023438 97.089844 6.632812 96.40625 7.300781 95.765625 C 7.972656 95.125 8.714844 94.535156 9.492188 93.980469 C 10.265625 93.421875 11.078125 92.902344 11.910156 92.40625 C 13.574219 91.414062 15.316406 90.527344 17.085938 89.683594 C 18.859375 88.847656 20.667969 88.066406 22.492188 87.308594 L 22.398438 87.035156 C 20.480469 87.527344 18.578125 88.09375 16.703125 88.757812 C 14.828125 89.414062 12.980469 90.167969 11.175781 91.058594 C 9.378906 91.957031 7.617188 92.976562 6.011719 94.320312 C 5.214844 94.996094 4.453125 95.757812 3.824219 96.683594 C 3.507812 97.148438 3.226562 97.652344 3.019531 98.210938 C 2.808594 98.765625 2.675781 99.371094 2.652344 99.996094 " fill-opacity="1" fill-rule="nonzero"/></g></g></g><g clip-path="url(#ddcc814f29)"><g clip-path="url(#ccedbf9579)"><g clip-path="url(#c6818ceef9)"><g clip-path="url(#ab6f8d91a9)"><g clip-path="url(#0c8bbc1543)"><path fill="#3a2620" d="M 109.230469 103.410156 C 109.234375 103.414062 109.238281 103.417969 109.242188 103.421875 C 109.289062 103.496094 109.320312 103.5625 109.386719 103.640625 C 109.574219 103.976562 109.621094 104.304688 109.660156 104.621094 C 109.738281 105.230469 109.609375 105.792969 109.371094 106.308594 C 109.332031 106.398438 109.273438 106.484375 109.226562 106.570312 C 109.222656 106.574219 109.21875 106.578125 109.21875 106.582031 C 109.230469 106.578125 109.238281 106.578125 109.25 106.574219 C 109.484375 106.511719 109.714844 106.449219 109.949219 106.386719 C 110.667969 106.191406 111.386719 105.992188 112.101562 105.78125 C 113.945312 105.246094 115.777344 104.664062 117.59375 104.023438 C 119.476562 103.347656 121.351562 102.625 123.191406 101.792969 C 125.03125 100.964844 126.847656 100.058594 128.59375 98.980469 C 129.46875 98.441406 130.328125 97.867188 131.15625 97.222656 C 131.980469 96.578125 132.777344 95.871094 133.503906 95.054688 C 133.867188 94.644531 134.207031 94.203125 134.511719 93.722656 C 134.820312 93.242188 135.089844 92.71875 135.292969 92.152344 C 135.496094 91.585938 135.625 90.96875 135.640625 90.339844 C 135.648438 90.183594 135.644531 90.023438 135.632812 89.867188 L 135.625 89.75 L 135.613281 89.621094 L 135.585938 89.402344 C 135.535156 89.085938 135.464844 88.78125 135.363281 88.488281 C 135.167969 87.902344 134.878906 87.367188 134.539062 86.890625 C 134.203125 86.414062 133.820312 85.996094 133.414062 85.621094 C 132.601562 84.878906 131.710938 84.292969 130.800781 83.789062 C 128.976562 82.792969 127.066406 82.105469 125.140625 81.542969 C 123.214844 80.980469 121.261719 80.566406 119.304688 80.222656 C 117.347656 79.886719 115.378906 79.632812 113.410156 79.457031 L 113.367188 79.742188 C 115.292969 80.167969 117.207031 80.621094 119.101562 81.144531 C 120.992188 81.660156 122.859375 82.25 124.671875 82.9375 C 125.578125 83.285156 126.472656 83.65625 127.339844 84.066406 C 128.203125 84.476562 129.046875 84.925781 129.832031 85.429688 C 130.613281 85.933594 131.347656 86.492188 131.953125 87.125 C 132.550781 87.75 133.015625 88.449219 133.203125 89.160156 C 133.25 89.335938 133.28125 89.519531 133.296875 89.6875 L 133.308594 89.839844 L 133.308594 89.960938 C 133.308594 90.050781 133.304688 90.136719 133.300781 90.226562 C 133.269531 90.582031 133.179688 90.941406 133.03125 91.296875 C 132.738281 92.007812 132.226562 92.695312 131.617188 93.324219 C 131.007812 93.960938 130.300781 94.542969 129.546875 95.078125 C 128.792969 95.617188 128 96.117188 127.175781 96.585938 C 125.527344 97.515625 123.789062 98.335938 122.015625 99.082031 C 120.238281 99.820312 118.421875 100.507812 116.585938 101.132812 C 115.667969 101.441406 114.746094 101.753906 113.816406 102.042969 C 113.292969 102.210938 112.765625 102.371094 112.234375 102.53125 C 111.832031 102.652344 111.425781 102.773438 111.023438 102.894531 C 110.472656 103.054688 109.925781 103.214844 109.371094 103.371094 C 109.367188 103.371094 109.363281 103.371094 109.359375 103.375 C 109.316406 103.382812 109.273438 103.398438 109.230469 103.410156 " fill-opacity="1" fill-rule="nonzero"/></g></g></g></g></g><g clip-path="url(#7e233eaa28)"><g clip-path="url(#46f288634c)"><g clip-path="url(#1f00037736)"><path fill="#3a2620" d="M 2.652344 99.996094 C 2.628906 100.617188 2.71875 101.25 2.90625 101.839844 C 3.097656 102.429688 3.382812 102.972656 3.710938 103.457031 C 4.378906 104.425781 5.207031 105.179688 6.070312 105.820312 C 6.9375 106.460938 7.847656 106.988281 8.773438 107.457031 C 9.699219 107.929688 10.648438 108.324219 11.601562 108.691406 C 13.507812 109.414062 15.449219 109.980469 17.40625 110.441406 C 18.382812 110.671875 19.363281 110.882812 20.347656 111.0625 C 21.332031 111.25 22.320312 111.410156 23.308594 111.550781 C 24.851562 111.777344 26.394531 111.953125 27.941406 112.09375 C 28.945312 112.1875 29.949219 112.261719 30.949219 112.328125 C 32.363281 112.421875 33.777344 112.492188 35.191406 112.546875 C 37.558594 112.636719 39.921875 112.683594 42.285156 112.707031 C 43.242188 112.714844 44.199219 112.722656 45.15625 112.726562 C 45.792969 112.730469 46.429688 112.730469 47.066406 112.730469 C 51.015625 112.734375 54.96875 112.695312 58.917969 112.605469 C 61.558594 112.539062 64.21875 112.46875 66.859375 112.367188 C 67.632812 112.339844 68.351562 112.296875 69.203125 112.273438 L 69.207031 112.265625 L 69.296875 111.871094 L 68.617188 110.875 C 68.089844 110.882812 67.550781 110.976562 67.015625 111.03125 C 64.308594 111.296875 61.597656 111.507812 58.882812 111.644531 C 54.949219 111.847656 51.011719 111.914062 47.078125 111.808594 C 46.800781 111.804688 46.527344 111.796875 46.25 111.785156 C 46.109375 111.78125 45.972656 111.777344 45.832031 111.769531 C 45.769531 111.769531 45.707031 111.765625 45.644531 111.761719 C 45.550781 111.761719 45.453125 111.757812 45.359375 111.753906 C 45.265625 111.75 45.175781 111.746094 45.082031 111.742188 C 45.011719 111.738281 44.941406 111.738281 44.871094 111.730469 C 44.703125 111.726562 44.535156 111.71875 44.367188 111.710938 C 44.367188 111.710938 44.363281 111.710938 44.359375 111.710938 C 44.121094 111.699219 43.882812 111.6875 43.640625 111.675781 C 43.402344 111.660156 43.164062 111.628906 42.925781 111.617188 C 42.6875 111.601562 42.445312 111.585938 42.207031 111.554688 L 42.203125 111.554688 C 39.890625 111.476562 37.601562 111.210938 35.316406 110.945312 C 33.703125 110.761719 32.101562 110.527344 30.5 110.316406 L 30.492188 110.3125 C 29.488281 110.179688 28.484375 110.046875 27.492188 109.839844 L 27.480469 109.839844 C 26.210938 109.671875 24.957031 109.417969 23.707031 109.179688 C 23.226562 109.085938 22.75 109 22.273438 108.902344 C 21.796875 108.804688 21.320312 108.710938 20.84375 108.605469 C 19.898438 108.394531 18.949219 108.183594 18.011719 107.949219 C 16.136719 107.476562 14.28125 106.949219 12.492188 106.300781 C 11.597656 105.976562 10.722656 105.613281 9.878906 105.210938 C 9.039062 104.808594 8.226562 104.359375 7.496094 103.847656 C 6.765625 103.332031 6.101562 102.753906 5.628906 102.109375 C 5.15625 101.460938 4.886719 100.769531 4.882812 100.042969 C 4.871094 99.316406 5.140625 98.550781 5.582031 97.820312 C 6.023438 97.089844 6.632812 96.40625 7.300781 95.765625 C 7.972656 95.125 8.714844 94.535156 9.492188 93.980469 C 10.265625 93.421875 11.078125 92.902344 11.910156 92.40625 C 13.574219 91.414062 15.316406 90.527344 17.085938 89.683594 C 18.859375 88.847656 20.667969 88.066406 22.492188 87.308594 L 22.398438 87.035156 C 20.480469 87.527344 18.578125 88.09375 16.703125 88.757812 C 14.828125 89.414062 12.980469 90.167969 11.175781 91.058594 C 9.378906 91.957031 7.617188 92.976562 6.011719 94.320312 C 5.214844 94.996094 4.453125 95.757812 3.824219 96.683594 C 3.507812 97.148438 3.226562 97.652344 3.019531 98.210938 C 2.808594 98.765625 2.675781 99.371094 2.652344 99.996094 " fill-opacity="1" fill-rule="nonzero"/></g></g></g><g clip-path="url(#ed880a57f1)"><g clip-path="url(#12f99f8b00)"><g clip-path="url(#7eac2b7367)"><g clip-path="url(#910ee5123f)"><g clip-path="url(#5b0ecf445b)"><path fill="#3a2620" d="M 88.503906 129.503906 C 88.503906 129.507812 88.503906 129.511719 88.503906 129.511719 C 88.503906 129.515625 88.503906 129.519531 88.503906 129.523438 L 88.535156 129.515625 C 88.527344 129.511719 88.515625 129.507812 88.503906 129.503906 " fill-opacity="1" fill-rule="nonzero"/></g></g></g></g></g><g clip-path="url(#e8eb707e5d)"><g clip-path="url(#74d0a29cd0)"><g clip-path="url(#8dfc5b791c)"><path fill="#3a2620" d="M 68.214844 106.132812 L 69.75 108.421875 L 70.167969 109.042969 L 71.1875 110.5625 L 71.507812 111.042969 C 71.601562 111.179688 71.691406 111.667969 71.65625 111.832031 L 71.59375 112.152344 C 71.597656 112.148438 71.613281 112.152344 71.613281 112.148438 L 71.613281 112.15625 L 71.074219 114.472656 L 71.074219 114.476562 L 70.351562 117.597656 C 70.253906 118.015625 70.492188 118.296875 70.882812 118.226562 C 71.277344 118.152344 71.753906 117.773438 71.941406 117.386719 L 73.40625 114.347656 L 73.40625 114.34375 L 74.382812 112.300781 L 78.242188 111.730469 L 78.523438 111.691406 L 78.527344 111.6875 L 89.515625 110.070312 L 89.425781 110.464844 L 89.429688 110.472656 L 89.460938 110.480469 L 89.035156 112.855469 L 89.03125 112.867188 L 86.042969 126.992188 C 85.980469 127.289062 86.042969 127.53125 86.269531 127.5625 L 86.28125 127.5625 C 86.371094 127.574219 86.472656 127.574219 86.582031 127.554688 L 88.347656 127.222656 C 88.757812 127.148438 89.226562 126.78125 89.386719 126.394531 L 90.902344 122.75 C 91.007812 122.773438 91.105469 122.730469 91.21875 122.707031 L 91.992188 122.5625 L 92.203125 122.527344 C 92.613281 122.449219 92.921875 122.148438 92.84375 121.738281 L 92.789062 121.4375 C 92.765625 121.304688 92.703125 121.179688 92.621094 121.066406 C 92.4375 120.835938 92.148438 120.679688 91.871094 120.730469 L 91.691406 120.761719 L 93.039062 117.597656 C 93.140625 117.625 93.261719 117.6875 93.371094 117.667969 L 93.777344 117.589844 L 94.328125 117.488281 C 94.738281 117.414062 95.019531 117.003906 94.945312 116.59375 L 94.890625 116.292969 C 94.839844 116.027344 94.640625 115.765625 94.390625 115.636719 C 94.261719 115.570312 94.113281 115.539062 93.972656 115.566406 L 93.824219 115.589844 L 95.324219 112.011719 L 95.394531 111.851562 L 96.445312 109.34375 L 96.59375 108.988281 L 102.113281 108.238281 L 102.160156 108.234375 C 103.429688 108.042969 105.792969 107.03125 106.847656 105.976562 C 107.207031 105.613281 107.414062 105.246094 107.371094 104.90625 C 107.332031 104.585938 107.074219 104.320312 106.6875 104.105469 C 105.445312 103.40625 102.84375 103.207031 101.542969 103.402344 C 101.519531 103.40625 99.5 103.851562 96.550781 104.511719 C 96.453125 104.535156 96.355469 104.554688 96.257812 104.578125 C 96.109375 104.609375 95.957031 104.644531 95.804688 104.679688 L 95.625 104.492188 L 95.511719 104.371094 L 93.902344 102.667969 L 90.832031 99.429688 L 90.980469 99.402344 C 91.390625 99.324219 91.679688 98.941406 91.601562 98.53125 L 91.546875 98.234375 C 91.472656 97.824219 91.082031 97.65625 90.671875 97.734375 L 89.714844 97.910156 C 89.605469 97.929688 89.492188 97.902344 89.40625 97.964844 L 86.992188 95.363281 L 87.171875 95.332031 C 87.582031 95.253906 87.878906 94.890625 87.800781 94.480469 L 87.746094 94.179688 C 87.671875 93.769531 87.25 93.457031 86.835938 93.535156 L 85.851562 93.71875 C 85.742188 93.738281 85.640625 93.785156 85.554688 93.84375 L 82.835938 90.976562 C 82.546875 90.675781 81.96875 90.453125 81.558594 90.53125 L 79.796875 90.859375 C 79.382812 90.933594 79.238281 91.316406 79.464844 91.667969 L 86.957031 103.347656 L 88.46875 105.699219 L 88.820312 106.25 C 88.601562 106.300781 88.382812 106.347656 88.164062 106.398438 C 82.183594 107.734375 76 109.121094 73.859375 109.597656 L 72.289062 108.121094 L 70.511719 106.445312 L 69.777344 105.753906 C 69.464844 105.460938 68.886719 105.277344 68.496094 105.351562 C 68.101562 105.421875 67.976562 105.773438 68.214844 106.132812 " fill-opacity="1" fill-rule="nonzero"/><path fill="#3a2620" d="M 68.214844 106.132812 L 69.75 108.421875 L 70.167969 109.042969 L 71.1875 110.5625 L 71.507812 111.042969 C 71.601562 111.179688 71.703125 111.671875 71.667969 111.832031 L 71.613281 112.148438 L 71.613281 112.15625 L 71.074219 114.472656 L 71.074219 114.476562 L 70.351562 117.597656 C 70.253906 118.015625 70.492188 118.296875 70.882812 118.226562 C 71.277344 118.152344 71.753906 117.773438 71.941406 117.386719 L 73.40625 114.347656 L 73.40625 114.34375 L 74.382812 112.300781 L 78.242188 111.730469 L 78.523438 111.691406 L 78.527344 111.6875 L 89.515625 110.070312 L 89.425781 110.464844 L 89.429688 110.472656 L 89.460938 110.480469 L 89.035156 112.855469 L 89.03125 112.867188 L 86.042969 126.992188 C 85.980469 127.289062 86.042969 127.53125 86.269531 127.5625 L 86.28125 127.5625 C 86.371094 127.574219 86.472656 127.574219 86.582031 127.554688 L 88.347656 127.222656 C 88.757812 127.148438 89.226562 126.78125 89.386719 126.394531 L 90.902344 122.75 C 91.007812 122.773438 91.105469 122.730469 91.21875 122.707031 L 91.992188 122.5625 L 92.203125 122.527344 C 92.613281 122.449219 92.921875 122.148438 92.84375 121.738281 L 92.789062 121.4375 C 92.765625 121.304688 92.703125 121.179688 92.621094 121.066406 C 92.4375 120.835938 92.148438 120.679688 91.871094 120.730469 L 91.691406 120.761719 L 93.039062 117.597656 C 93.140625 117.625 93.261719 117.6875 93.371094 117.667969 L 93.777344 117.589844 L 94.328125 117.488281 C 94.738281 117.414062 95.019531 117.003906 94.945312 116.59375 L 94.890625 116.292969 C 94.839844 116.027344 94.640625 115.765625 94.390625 115.636719 C 94.261719 115.570312 94.113281 115.539062 93.972656 115.566406 L 93.824219 115.589844 L 95.324219 112.011719 L 95.394531 111.851562 L 96.445312 109.34375 L 96.59375 108.988281 L 102.113281 108.238281 L 102.160156 108.234375 C 103.429688 108.042969 105.792969 107.03125 106.847656 105.976562 C 107.207031 105.613281 107.414062 105.246094 107.371094 104.90625 C 107.332031 104.585938 107.074219 104.320312 106.6875 104.105469 C 105.445312 103.40625 102.84375 103.207031 101.542969 103.402344 C 101.519531 103.40625 99.5 103.851562 96.550781 104.511719 C 96.453125 104.535156 96.355469 104.554688 96.257812 104.578125 C 96.109375 104.609375 95.957031 104.644531 95.804688 104.679688 L 95.625 104.492188 L 95.511719 104.371094 L 93.902344 102.667969 L 90.832031 99.429688 L 90.980469 99.402344 C 91.390625 99.324219 91.679688 98.941406 91.601562 98.53125 L 91.546875 98.234375 C 91.472656 97.824219 91.082031 97.65625 90.671875 97.734375 L 89.714844 97.910156 C 89.605469 97.929688 89.492188 97.902344 89.40625 97.964844 L 86.992188 95.363281 L 87.171875 95.332031 C 87.582031 95.253906 87.878906 94.890625 87.800781 94.480469 L 87.746094 94.179688 C 87.671875 93.769531 87.25 93.457031 86.835938 93.535156 L 85.851562 93.71875 C 85.742188 93.738281 85.640625 93.785156 85.554688 93.84375 L 82.835938 90.976562 C 82.546875 90.675781 81.96875 90.453125 81.558594 90.53125 L 79.796875 90.859375 C 79.382812 90.933594 79.238281 91.316406 79.464844 91.667969 L 86.957031 103.347656 L 88.46875 105.699219 L 88.820312 106.25 C 88.601562 106.300781 88.382812 106.347656 88.164062 106.398438 C 82.183594 107.734375 76 109.121094 73.859375 109.597656 L 72.289062 108.121094 L 70.511719 106.445312 L 69.777344 105.753906 C 69.464844 105.460938 68.886719 105.277344 68.496094 105.351562 C 68.101562 105.421875 67.976562 105.773438 68.214844 106.132812 " fill-opacity="1" fill-rule="nonzero"/></g></g></g><g clip-path="url(#bd84569cdb)"><g clip-path="url(#5ce8d9439e)"><path fill="#a6873a" d="M 202.34375 89.546875 L 206.589844 89.546875 L 206.589844 93.792969 L 202.34375 93.792969 Z M 202.34375 89.546875 " fill-opacity="1" fill-rule="nonzero"/></g></g><g clip-path="url(#287013cfaa)"><g clip-path="url(#63ddb43b09)"><path fill="#a6873a" d="M 456.609375 89.546875 L 460.859375 89.546875 L 460.859375 93.792969 L 456.609375 93.792969 Z M 456.609375 89.546875 " fill-opacity="1" fill-rule="nonzero"/></g></g><g fill="#a6873a" fill-opacity="1"><g transform="translate(220.235505, 98.642201)"><g><path d="M 6.09375 -8.234375 L 6.09375 -6.75 L 2.484375 -6.75 L 2.484375 -1.5 L 6.921875 -1.5 L 6.921875 0 L 0.84375 0 L 0.84375 -14.78125 L 6.921875 -14.78125 L 6.921875 -13.28125 L 2.484375 -13.28125 L 2.484375 -8.234375 Z M 6.09375 -8.234375 "/></g></g></g><g fill="#a6873a" fill-opacity="1"><g transform="translate(229.736534, 98.642201)"><g><path d="M 3.953125 -14.921875 C 5.078125 -14.921875 5.90625 -14.585938 6.4375 -13.921875 C 6.96875 -13.253906 7.234375 -12.359375 7.234375 -11.234375 L 7.234375 -10.828125 L 5.671875 -10.828125 L 5.671875 -11.3125 C 5.671875 -11.988281 5.535156 -12.507812 5.265625 -12.875 C 5.003906 -13.238281 4.578125 -13.421875 3.984375 -13.421875 C 3.398438 -13.421875 2.972656 -13.238281 2.703125 -12.875 C 2.429688 -12.507812 2.296875 -11.992188 2.296875 -11.328125 C 2.296875 -10.785156 2.421875 -10.304688 2.671875 -9.890625 C 2.921875 -9.484375 3.226562 -9.109375 3.59375 -8.765625 C 3.957031 -8.421875 4.351562 -8.082031 4.78125 -7.75 C 5.207031 -7.425781 5.601562 -7.066406 5.96875 -6.671875 C 6.332031 -6.273438 6.640625 -5.828125 6.890625 -5.328125 C 7.140625 -4.828125 7.265625 -4.234375 7.265625 -3.546875 C 7.265625 -2.421875 6.992188 -1.523438 6.453125 -0.859375 C 5.910156 -0.191406 5.066406 0.140625 3.921875 0.140625 C 2.785156 0.140625 1.945312 -0.191406 1.40625 -0.859375 C 0.875 -1.523438 0.609375 -2.421875 0.609375 -3.546875 L 0.609375 -4.390625 L 2.15625 -4.390625 L 2.15625 -3.46875 C 2.15625 -2.789062 2.296875 -2.265625 2.578125 -1.890625 C 2.859375 -1.523438 3.296875 -1.34375 3.890625 -1.34375 C 4.472656 -1.34375 4.90625 -1.523438 5.1875 -1.890625 C 5.46875 -2.265625 5.609375 -2.789062 5.609375 -3.46875 C 5.609375 -4.007812 5.484375 -4.476562 5.234375 -4.875 C 4.992188 -5.28125 4.691406 -5.65625 4.328125 -6 C 3.960938 -6.34375 3.566406 -6.679688 3.140625 -7.015625 C 2.722656 -7.347656 2.332031 -7.710938 1.96875 -8.109375 C 1.601562 -8.503906 1.296875 -8.953125 1.046875 -9.453125 C 0.796875 -9.953125 0.671875 -10.546875 0.671875 -11.234375 C 0.671875 -12.367188 0.9375 -13.265625 1.46875 -13.921875 C 2.007812 -14.585938 2.835938 -14.921875 3.953125 -14.921875 Z M 3.953125 -14.921875 "/></g></g></g><g fill="#a6873a" fill-opacity="1"><g transform="translate(239.490908, 98.642201)"><g><path d="M 4.078125 -14.78125 C 5.242188 -14.78125 6.085938 -14.457031 6.609375 -13.8125 C 7.128906 -13.175781 7.390625 -12.296875 7.390625 -11.171875 L 7.390625 -9.390625 C 7.390625 -8.210938 7.109375 -7.320312 6.546875 -6.71875 C 5.992188 -6.125 5.128906 -5.828125 3.953125 -5.828125 L 2.484375 -5.828125 L 2.484375 0 L 0.84375 0 L 0.84375 -14.78125 Z M 3.953125 -7.296875 C 4.566406 -7.296875 5.019531 -7.445312 5.3125 -7.75 C 5.613281 -8.0625 5.765625 -8.570312 5.765625 -9.28125 L 5.765625 -11.25 C 5.765625 -11.925781 5.632812 -12.429688 5.375 -12.765625 C 5.113281 -13.109375 4.679688 -13.28125 4.078125 -13.28125 L 2.484375 -13.28125 L 2.484375 -7.296875 Z M 3.953125 -7.296875 "/></g></g></g><g fill="#a6873a" fill-opacity="1"><g transform="translate(249.287501, 98.642201)"><g><path d="M 6.09375 -8.234375 L 6.09375 -6.75 L 2.484375 -6.75 L 2.484375 -1.5 L 6.921875 -1.5 L 6.921875 0 L 0.84375 0 L 0.84375 -14.78125 L 6.921875 -14.78125 L 6.921875 -13.28125 L 2.484375 -13.28125 L 2.484375 -8.234375 Z M 6.09375 -8.234375 "/></g></g></g><g fill="#a6873a" fill-opacity="1"><g transform="translate(258.788529, 98.642201)"><g><path d="M 4.03125 -14.921875 C 5.164062 -14.921875 6.003906 -14.582031 6.546875 -13.90625 C 7.085938 -13.226562 7.359375 -12.328125 7.359375 -11.203125 L 7.359375 -9.875 L 5.8125 -9.875 L 5.8125 -11.296875 C 5.8125 -11.972656 5.671875 -12.492188 5.390625 -12.859375 C 5.117188 -13.234375 4.679688 -13.421875 4.078125 -13.421875 C 3.484375 -13.421875 3.046875 -13.234375 2.765625 -12.859375 C 2.484375 -12.492188 2.34375 -11.972656 2.34375 -11.296875 L 2.34375 -3.484375 C 2.34375 -2.804688 2.484375 -2.28125 2.765625 -1.90625 C 3.046875 -1.53125 3.484375 -1.34375 4.078125 -1.34375 C 4.679688 -1.34375 5.117188 -1.53125 5.390625 -1.90625 C 5.671875 -2.28125 5.8125 -2.804688 5.8125 -3.484375 L 5.8125 -5.40625 L 7.359375 -5.40625 L 7.359375 -3.5625 C 7.359375 -2.4375 7.085938 -1.535156 6.546875 -0.859375 C 6.003906 -0.191406 5.164062 0.140625 4.03125 0.140625 C 2.90625 0.140625 2.070312 -0.191406 1.53125 -0.859375 C 0.988281 -1.535156 0.71875 -2.4375 0.71875 -3.5625 L 0.71875 -11.203125 C 0.71875 -11.765625 0.785156 -12.273438 0.921875 -12.734375 C 1.054688 -13.191406 1.257812 -13.582031 1.53125 -13.90625 C 1.800781 -14.226562 2.144531 -14.476562 2.5625 -14.65625 C 2.976562 -14.832031 3.46875 -14.921875 4.03125 -14.921875 Z M 4.03125 -14.921875 "/></g></g></g><g fill="#a6873a" fill-opacity="1"><g transform="translate(268.711795, 98.642201)"><g><path d="M 2.484375 -14.78125 L 2.484375 0 L 0.84375 0 L 0.84375 -14.78125 Z M 2.484375 -14.78125 "/></g></g></g><g fill="#a6873a" fill-opacity="1"><g transform="translate(273.94831, 98.642201)"><g><path d="M 2.515625 -2.96875 L 1.9375 0 L 0.421875 0 L 3.25 -14.78125 L 5.640625 -14.78125 L 8.46875 0 L 6.8125 0 L 6.25 -2.96875 Z M 2.71875 -4.390625 L 6.015625 -4.390625 L 4.34375 -12.921875 Z M 2.71875 -4.390625 "/></g></g></g><g fill="#a6873a" fill-opacity="1"><g transform="translate(284.758253, 98.642201)"><g><path d="M 0.84375 0 L 0.84375 -14.78125 L 2.484375 -14.78125 L 2.484375 -1.5 L 6.71875 -1.5 L 6.71875 0 Z M 0.84375 0 "/></g></g></g><g fill="#a6873a" fill-opacity="1"><g transform="translate(293.773716, 98.642201)"><g><path d="M 2.484375 -14.78125 L 2.484375 0 L 0.84375 0 L 0.84375 -14.78125 Z M 2.484375 -14.78125 "/></g></g></g><g fill="#a6873a" fill-opacity="1"><g transform="translate(299.010231, 98.642201)"><g><path d="M 3.953125 -14.921875 C 5.078125 -14.921875 5.90625 -14.585938 6.4375 -13.921875 C 6.96875 -13.253906 7.234375 -12.359375 7.234375 -11.234375 L 7.234375 -10.828125 L 5.671875 -10.828125 L 5.671875 -11.3125 C 5.671875 -11.988281 5.535156 -12.507812 5.265625 -12.875 C 5.003906 -13.238281 4.578125 -13.421875 3.984375 -13.421875 C 3.398438 -13.421875 2.972656 -13.238281 2.703125 -12.875 C 2.429688 -12.507812 2.296875 -11.992188 2.296875 -11.328125 C 2.296875 -10.785156 2.421875 -10.304688 2.671875 -9.890625 C 2.921875 -9.484375 3.226562 -9.109375 3.59375 -8.765625 C 3.957031 -8.421875 4.351562 -8.082031 4.78125 -7.75 C 5.207031 -7.425781 5.601562 -7.066406 5.96875 -6.671875 C 6.332031 -6.273438 6.640625 -5.828125 6.890625 -5.328125 C 7.140625 -4.828125 7.265625 -4.234375 7.265625 -3.546875 C 7.265625 -2.421875 6.992188 -1.523438 6.453125 -0.859375 C 5.910156 -0.191406 5.066406 0.140625 3.921875 0.140625 C 2.785156 0.140625 1.945312 -0.191406 1.40625 -0.859375 C 0.875 -1.523438 0.609375 -2.421875 0.609375 -3.546875 L 0.609375 -4.390625 L 2.15625 -4.390625 L 2.15625 -3.46875 C 2.15625 -2.789062 2.296875 -2.265625 2.578125 -1.890625 C 2.859375 -1.523438 3.296875 -1.34375 3.890625 -1.34375 C 4.472656 -1.34375 4.90625 -1.523438 5.1875 -1.890625 C 5.46875 -2.265625 5.609375 -2.789062 5.609375 -3.46875 C 5.609375 -4.007812 5.484375 -4.476562 5.234375 -4.875 C 4.992188 -5.28125 4.691406 -5.65625 4.328125 -6 C 3.960938 -6.34375 3.566406 -6.679688 3.140625 -7.015625 C 2.722656 -7.347656 2.332031 -7.710938 1.96875 -8.109375 C 1.601562 -8.503906 1.296875 -8.953125 1.046875 -9.453125 C 0.796875 -9.953125 0.671875 -10.546875 0.671875 -11.234375 C 0.671875 -12.367188 0.9375 -13.265625 1.46875 -13.921875 C 2.007812 -14.585938 2.835938 -14.921875 3.953125 -14.921875 Z M 3.953125 -14.921875 "/></g></g></g><g fill="#a6873a" fill-opacity="1"><g transform="translate(308.764605, 98.642201)"><g><path d="M 3 0 L 3 -13.28125 L 0.28125 -13.28125 L 0.28125 -14.78125 L 7.359375 -14.78125 L 7.359375 -13.28125 L 4.640625 -13.28125 L 4.640625 0 Z M 3 0 "/></g></g></g><g fill="#a6873a" fill-opacity="1"><g transform="translate(318.328961, 98.642201)"><g><path d="M 2.515625 -2.96875 L 1.9375 0 L 0.421875 0 L 3.25 -14.78125 L 5.640625 -14.78125 L 8.46875 0 L 6.8125 0 L 6.25 -2.96875 Z M 2.71875 -4.390625 L 6.015625 -4.390625 L 4.34375 -12.921875 Z M 2.71875 -4.390625 "/></g></g></g><g fill="#a6873a" fill-opacity="1"><g transform="translate(329.138905, 98.642201)"><g/></g></g><g fill="#a6873a" fill-opacity="1"><g transform="translate(334.312076, 98.642201)"><g><path d="M 6.09375 -8.234375 L 6.09375 -6.75 L 2.484375 -6.75 L 2.484375 -1.5 L 6.921875 -1.5 L 6.921875 0 L 0.84375 0 L 0.84375 -14.78125 L 6.921875 -14.78125 L 6.921875 -13.28125 L 2.484375 -13.28125 L 2.484375 -8.234375 Z M 6.09375 -8.234375 "/></g></g></g><g fill="#a6873a" fill-opacity="1"><g transform="translate(343.813104, 98.642201)"><g><path d="M 6.296875 -0.015625 L 4.703125 -0.015625 L 2.265625 -11.78125 L 2.265625 0 L 0.828125 0 L 0.828125 -14.78125 L 3.125 -14.78125 L 5.546875 -2.96875 L 7.890625 -14.78125 L 10.203125 -14.78125 L 10.203125 0 L 8.640625 0 L 8.640625 -11.890625 Z M 6.296875 -0.015625 "/></g></g></g><g fill="#a6873a" fill-opacity="1"><g transform="translate(356.755295, 98.642201)"><g/></g></g><g fill="#a6873a" fill-opacity="1"><g transform="translate(361.928466, 98.642201)"><g><path d="M 2.484375 -14.78125 L 2.484375 0 L 0.84375 0 L 0.84375 -14.78125 Z M 2.484375 -14.78125 "/></g></g></g><g fill="#a6873a" fill-opacity="1"><g transform="translate(367.164981, 98.642201)"><g><path d="M 6.296875 -0.015625 L 4.703125 -0.015625 L 2.265625 -11.78125 L 2.265625 0 L 0.828125 0 L 0.828125 -14.78125 L 3.125 -14.78125 L 5.546875 -2.96875 L 7.890625 -14.78125 L 10.203125 -14.78125 L 10.203125 0 L 8.640625 0 L 8.640625 -11.890625 Z M 6.296875 -0.015625 "/></g></g></g><g fill="#a6873a" fill-opacity="1"><g transform="translate(380.107173, 98.642201)"><g><path d="M 2.484375 -14.78125 L 2.484375 0 L 0.84375 0 L 0.84375 -14.78125 Z M 2.484375 -14.78125 "/></g></g></g><g fill="#a6873a" fill-opacity="1"><g transform="translate(385.343688, 98.642201)"><g><path d="M 4.03125 -14.921875 C 5.164062 -14.921875 6.003906 -14.582031 6.546875 -13.90625 C 7.085938 -13.226562 7.359375 -12.328125 7.359375 -11.203125 L 7.359375 -9.9375 L 5.8125 -9.9375 L 5.8125 -11.296875 C 5.8125 -11.972656 5.671875 -12.492188 5.390625 -12.859375 C 5.117188 -13.234375 4.679688 -13.421875 4.078125 -13.421875 C 3.484375 -13.421875 3.046875 -13.234375 2.765625 -12.859375 C 2.484375 -12.492188 2.34375 -11.972656 2.34375 -11.296875 L 2.34375 -3.484375 C 2.34375 -2.804688 2.484375 -2.28125 2.765625 -1.90625 C 3.046875 -1.53125 3.484375 -1.34375 4.078125 -1.34375 C 4.679688 -1.34375 5.117188 -1.53125 5.390625 -1.90625 C 5.671875 -2.28125 5.8125 -2.804688 5.8125 -3.484375 L 5.8125 -6.4375 L 4.28125 -6.4375 L 4.28125 -7.921875 L 7.359375 -7.921875 L 7.359375 -3.5625 C 7.359375 -2.4375 7.085938 -1.535156 6.546875 -0.859375 C 6.003906 -0.191406 5.164062 0.140625 4.03125 0.140625 C 2.90625 0.140625 2.070312 -0.191406 1.53125 -0.859375 C 0.988281 -1.535156 0.71875 -2.4375 0.71875 -3.5625 L 0.71875 -11.203125 C 0.71875 -11.765625 0.785156 -12.273438 0.921875 -12.734375 C 1.054688 -13.191406 1.257812 -13.582031 1.53125 -13.90625 C 1.800781 -14.226562 2.144531 -14.476562 2.5625 -14.65625 C 2.976562 -14.832031 3.46875 -14.921875 4.03125 -14.921875 Z M 4.03125 -14.921875 "/></g></g></g><g fill="#a6873a" fill-opacity="1"><g transform="translate(395.330282, 98.642201)"><g><path d="M 4.140625 -14.78125 C 5.304688 -14.78125 6.144531 -14.488281 6.65625 -13.90625 C 7.175781 -13.332031 7.4375 -12.5 7.4375 -11.40625 L 7.4375 -10.203125 C 7.4375 -9.378906 7.285156 -8.710938 6.984375 -8.203125 C 6.691406 -7.703125 6.226562 -7.351562 5.59375 -7.15625 C 6.269531 -6.957031 6.75 -6.59375 7.03125 -6.0625 C 7.3125 -5.539062 7.453125 -4.878906 7.453125 -4.078125 L 7.453125 -1.765625 C 7.453125 -1.441406 7.460938 -1.128906 7.484375 -0.828125 C 7.515625 -0.523438 7.601562 -0.25 7.75 0 L 6.078125 0 C 5.984375 -0.207031 5.914062 -0.4375 5.875 -0.6875 C 5.832031 -0.9375 5.8125 -1.304688 5.8125 -1.796875 L 5.8125 -4.109375 C 5.8125 -4.941406 5.625 -5.515625 5.25 -5.828125 C 4.875 -6.148438 4.34375 -6.3125 3.65625 -6.3125 L 2.484375 -6.3125 L 2.484375 0 L 0.84375 0 L 0.84375 -14.78125 Z M 3.71875 -7.8125 C 4.375 -7.8125 4.882812 -7.945312 5.25 -8.21875 C 5.625 -8.5 5.8125 -9.039062 5.8125 -9.84375 L 5.8125 -11.25 C 5.8125 -11.925781 5.679688 -12.429688 5.421875 -12.765625 C 5.160156 -13.109375 4.71875 -13.28125 4.09375 -13.28125 L 2.484375 -13.28125 L 2.484375 -7.8125 Z M 3.71875 -7.8125 "/></g></g></g><g fill="#a6873a" fill-opacity="1"><g transform="translate(405.549096, 98.642201)"><g><path d="M 2.515625 -2.96875 L 1.9375 0 L 0.421875 0 L 3.25 -14.78125 L 5.640625 -14.78125 L 8.46875 0 L 6.8125 0 L 6.25 -2.96875 Z M 2.71875 -4.390625 L 6.015625 -4.390625 L 4.34375 -12.921875 Z M 2.71875 -4.390625 "/></g></g></g><g fill="#a6873a" fill-opacity="1"><g transform="translate(416.35904, 98.642201)"><g><path d="M 4.03125 -14.921875 C 5.164062 -14.921875 6.003906 -14.582031 6.546875 -13.90625 C 7.085938 -13.226562 7.359375 -12.328125 7.359375 -11.203125 L 7.359375 -9.875 L 5.8125 -9.875 L 5.8125 -11.296875 C 5.8125 -11.972656 5.671875 -12.492188 5.390625 -12.859375 C 5.117188 -13.234375 4.679688 -13.421875 4.078125 -13.421875 C 3.484375 -13.421875 3.046875 -13.234375 2.765625 -12.859375 C 2.484375 -12.492188 2.34375 -11.972656 2.34375 -11.296875 L 2.34375 -3.484375 C 2.34375 -2.804688 2.484375 -2.28125 2.765625 -1.90625 C 3.046875 -1.53125 3.484375 -1.34375 4.078125 -1.34375 C 4.679688 -1.34375 5.117188 -1.53125 5.390625 -1.90625 C 5.671875 -2.28125 5.8125 -2.804688 5.8125 -3.484375 L 5.8125 -5.40625 L 7.359375 -5.40625 L 7.359375 -3.5625 C 7.359375 -2.507812 7.113281 -1.648438 6.625 -0.984375 C 6.144531 -0.316406 5.398438 0.0507812 4.390625 0.125 L 4.390625 0.78125 C 4.878906 0.78125 5.257812 0.875 5.53125 1.0625 C 5.8125 1.25 5.953125 1.515625 5.953125 1.859375 C 5.953125 2.273438 5.773438 2.601562 5.421875 2.84375 C 5.066406 3.082031 4.578125 3.203125 3.953125 3.203125 C 3.328125 3.203125 2.84375 3.085938 2.5 2.859375 C 2.164062 2.628906 2 2.3125 2 1.90625 L 2 1.734375 L 3.078125 1.734375 L 3.078125 1.875 C 3.078125 2.238281 3.367188 2.441406 3.953125 2.484375 C 4.554688 2.484375 4.859375 2.257812 4.859375 1.8125 C 4.859375 1.394531 4.515625 1.1875 3.828125 1.1875 L 3.625 1.1875 L 3.625 0.125 C 2.625 0.0507812 1.890625 -0.316406 1.421875 -0.984375 C 0.953125 -1.660156 0.71875 -2.519531 0.71875 -3.5625 L 0.71875 -11.203125 C 0.71875 -11.765625 0.785156 -12.273438 0.921875 -12.734375 C 1.054688 -13.191406 1.257812 -13.582031 1.53125 -13.90625 C 1.800781 -14.226562 2.144531 -14.476562 2.5625 -14.65625 C 2.976562 -14.832031 3.46875 -14.921875 4.03125 -14.921875 Z M 4.03125 -14.921875 "/></g></g></g><g fill="#a6873a" fill-opacity="1"><g transform="translate(426.282306, 98.642201)"><g><path d="M 3.40625 -17.4375 C 3.613281 -17.4375 3.804688 -17.40625 3.984375 -17.34375 C 4.160156 -17.28125 4.320312 -17.207031 4.46875 -17.125 C 4.613281 -17.039062 4.753906 -16.960938 4.890625 -16.890625 C 5.035156 -16.828125 5.1875 -16.796875 5.34375 -16.796875 C 5.519531 -16.816406 5.675781 -16.867188 5.8125 -16.953125 C 5.945312 -17.046875 6.070312 -17.207031 6.1875 -17.4375 L 7.015625 -16.859375 C 6.835938 -16.453125 6.625 -16.148438 6.375 -15.953125 C 6.125 -15.753906 5.835938 -15.65625 5.515625 -15.65625 C 5.296875 -15.65625 5.101562 -15.6875 4.9375 -15.75 C 4.769531 -15.820312 4.613281 -15.894531 4.46875 -15.96875 C 4.320312 -16.039062 4.175781 -16.109375 4.03125 -16.171875 C 3.894531 -16.242188 3.738281 -16.28125 3.5625 -16.28125 C 3.363281 -16.28125 3.191406 -16.234375 3.046875 -16.140625 C 2.910156 -16.046875 2.789062 -15.878906 2.6875 -15.640625 L 1.859375 -16.21875 C 2.023438 -16.644531 2.238281 -16.953125 2.5 -17.140625 C 2.769531 -17.328125 3.070312 -17.425781 3.40625 -17.4375 Z M 2.515625 -2.96875 L 1.9375 0 L 0.421875 0 L 3.25 -14.78125 L 5.640625 -14.78125 L 8.46875 0 L 6.8125 0 L 6.25 -2.96875 Z M 2.71875 -4.390625 L 6.015625 -4.390625 L 4.34375 -12.921875 Z M 2.71875 -4.390625 "/></g></g></g><g fill="#a6873a" fill-opacity="1"><g transform="translate(437.092249, 98.642201)"><g><path d="M 0.71875 -11.203125 C 0.71875 -12.347656 0.992188 -13.253906 1.546875 -13.921875 C 2.109375 -14.585938 2.957031 -14.921875 4.09375 -14.921875 C 5.238281 -14.921875 6.09375 -14.585938 6.65625 -13.921875 C 7.21875 -13.253906 7.5 -12.347656 7.5 -11.203125 L 7.5 -3.5625 C 7.5 -2.4375 7.21875 -1.535156 6.65625 -0.859375 C 6.09375 -0.191406 5.238281 0.140625 4.09375 0.140625 C 2.957031 0.140625 2.109375 -0.191406 1.546875 -0.859375 C 0.992188 -1.535156 0.71875 -2.4375 0.71875 -3.5625 Z M 2.34375 -3.484375 C 2.34375 -2.804688 2.484375 -2.28125 2.765625 -1.90625 C 3.054688 -1.53125 3.5 -1.34375 4.09375 -1.34375 C 4.695312 -1.34375 5.140625 -1.53125 5.421875 -1.90625 C 5.703125 -2.28125 5.84375 -2.804688 5.84375 -3.484375 L 5.84375 -11.296875 C 5.84375 -11.972656 5.703125 -12.492188 5.421875 -12.859375 C 5.140625 -13.234375 4.695312 -13.421875 4.09375 -13.421875 C 3.5 -13.421875 3.054688 -13.234375 2.765625 -12.859375 C 2.484375 -12.492188 2.34375 -11.972656 2.34375 -11.296875 Z M 2.34375 -3.484375 "/></g></g></g><g fill="#261913" fill-opacity="1"><g transform="translate(202.974973, 72.200898)"><g><path d="M 18.15625 -5.089844 C 17.746094 -4.328125 15.445312 -1.027344 10.839844 -1.027344 C 6.246094 -1.027344 2.507812 -5.308594 2.507812 -10.574219 C 2.507812 -15.855469 6.246094 -20.136719 10.839844 -20.136719 C 14.519531 -20.136719 16.792969 -18.199219 16.398438 -16 L 18.714844 -18.039062 C 17.601562 -18.523438 15.429688 -21.03125 10.96875 -21.03125 C 5.25 -21.03125 0.601562 -16.339844 0.601562 -10.546875 C 0.601562 -4.765625 5.25 -0.0585938 10.96875 -0.0585938 C 15.296875 -0.0585938 18.011719 -3.328125 18.15625 -5.089844 Z M 18.15625 -5.089844 "/></g></g></g><g fill="#261913" fill-opacity="1"><g transform="translate(222.97518, 72.200898)"><g><path d="M 15.253906 -2.242188 L 11.425781 -7.964844 C 17.21875 -8.828125 18.890625 -11.394531 18.890625 -14.328125 C 18.890625 -18.625 15.105469 -21.015625 10.339844 -21.015625 L 0.601562 -21.03125 C 0.601562 -21.03125 1.730469 -20.839844 1.730469 -18.789062 L 1.730469 -2.242188 C 1.730469 -0.175781 0.601562 0 0.601562 0 L 4.664062 0 C 4.664062 0 3.550781 -0.148438 3.535156 -2.242188 L 3.535156 -7.65625 L 6.644531 -7.65625 C 7.773438 -7.65625 8.800781 -7.683594 9.738281 -7.773438 L 13.433594 -2.242188 C 14.828125 -0.148438 13.816406 0 13.816406 0 L 17.878906 0 C 17.878906 0 16.648438 -0.175781 15.253906 -2.242188 Z M 6.644531 -8.460938 L 3.535156 -8.460938 L 3.535156 -18.773438 C 3.535156 -19.359375 3.636719 -20.109375 4.5625 -20.109375 L 10.339844 -20.109375 C 14.09375 -20.109375 16.867188 -17.703125 16.867188 -14.417969 C 16.867188 -11.191406 14.300781 -8.550781 6.644531 -8.460938 Z M 6.644531 -8.460938 "/></g></g></g><g fill="#261913" fill-opacity="1"><g transform="translate(243.151327, 72.200898)"><g><path d="M 0.601562 -21.03125 C 0.601562 -21.03125 1.714844 -20.839844 1.714844 -18.789062 L 1.714844 -2.242188 C 1.714844 -0.175781 0.601562 0 0.601562 0 L 4.664062 0 C 4.664062 0 3.550781 -0.148438 3.535156 -2.242188 L 3.535156 -18.773438 C 3.550781 -20.886719 4.664062 -21.03125 4.664062 -21.03125 Z M 0.601562 -21.03125 "/></g></g></g><g fill="#261913" fill-opacity="1"><g transform="translate(249.091052, 72.200898)"><g><path d="M 16.425781 -5.867188 C 16.339844 -3.886719 14.503906 -0.910156 9.386719 -0.910156 C 4.269531 -0.910156 2.84375 -6.820312 2.84375 -6.820312 L 0.601562 -5.164062 C 0.601562 -5.164062 2.757812 0 9.34375 0 C 16.648438 0 18.480469 -3.375 18.582031 -5.894531 C 18.859375 -12.597656 3.269531 -10.910156 3.492188 -16.046875 C 3.59375 -18.65625 5.765625 -20.296875 9.621094 -20.296875 C 14.210938 -20.296875 15.210938 -17.058594 15.210938 -17.058594 L 16.882812 -19.007812 C 16.882812 -19.007812 13.84375 -21.03125 9.652344 -21.03125 C 5.457031 -21.03125 1.996094 -19.109375 1.847656 -15.824219 C 1.585938 -9.429688 16.648438 -11.382812 16.425781 -5.867188 Z M 16.425781 -5.867188 "/></g></g></g><g fill="#261913" fill-opacity="1"><g transform="translate(269.237876, 72.200898)"><g><path d="M 0.601562 -21.015625 L 0.601562 -17.601562 C 0.601562 -17.601562 1.363281 -20.109375 5.707031 -20.109375 L 7.4375 -20.109375 C 7.554688 -19.785156 7.640625 -19.359375 7.640625 -18.789062 L 7.640625 -2.242188 C 7.640625 -0.175781 6.527344 0 6.527344 0 L 10.589844 0 C 10.589844 0 9.460938 -0.148438 9.460938 -2.242188 L 9.460938 -18.773438 C 9.460938 -19.359375 9.546875 -19.785156 9.664062 -20.109375 L 11.425781 -20.109375 C 15.78125 -20.109375 16.527344 -17.601562 16.527344 -17.601562 L 16.527344 -21.015625 Z M 0.601562 -21.015625 "/></g></g></g><g fill="#261913" fill-opacity="1"><g transform="translate(287.068171, 72.200898)"><g><path d="M 0.601562 -21.03125 C 0.601562 -21.03125 1.714844 -20.839844 1.714844 -18.789062 L 1.714844 -2.242188 C 1.714844 -0.175781 0.601562 0 0.601562 0 L 4.664062 0 C 4.664062 0 3.550781 -0.148438 3.535156 -2.242188 L 3.535156 -18.773438 C 3.550781 -20.886719 4.664062 -21.03125 4.664062 -21.03125 Z M 0.601562 -21.03125 "/></g></g></g><g fill="#261913" fill-opacity="1"><g transform="translate(293.0079, 72.200898)"><g><path d="M 16.882812 0 L 20.945312 0 C 20.945312 0 19.769531 -0.148438 18.917969 -2.242188 L 11.453125 -21.03125 L 10.105469 -21.03125 L 2.625 -2.242188 C 1.773438 -0.148438 0.601562 0 0.601562 0 L 3.695312 0 C 3.695312 0 2.640625 -0.175781 3.476562 -2.242188 L 5.765625 -7.980469 L 14.8125 -7.980469 L 17.101562 -2.242188 C 17.9375 -0.175781 16.882812 0 16.882812 0 Z M 5.984375 -8.519531 C 5.984375 -8.519531 10.222656 -19.15625 10.265625 -19.316406 C 10.339844 -19.15625 14.59375 -8.519531 14.59375 -8.519531 Z M 5.984375 -8.519531 "/></g></g></g><g fill="#261913" fill-opacity="1"><g transform="translate(315.222005, 72.200898)"><g><path d="M 5.089844 -21.03125 L 0.601562 -21.03125 C 0.601562 -21.03125 1.714844 -20.839844 1.714844 -18.789062 L 1.714844 -2.242188 C 1.714844 -0.175781 0.601562 0 0.601562 0 L 3.695312 0 C 3.695312 0 2.582031 -0.148438 2.566406 -2.242188 L 2.566406 -18.773438 C 2.566406 -19.199219 2.625 -19.550781 2.699219 -19.828125 C 2.917969 -19.550781 3.152344 -19.199219 3.386719 -18.789062 L 13.773438 0 L 14.621094 0 L 14.621094 -18.773438 C 14.636719 -20.886719 15.75 -21.03125 15.75 -21.03125 L 12.65625 -21.03125 C 12.65625 -21.03125 13.785156 -20.839844 13.785156 -18.789062 L 13.785156 -3.257812 L 5.207031 -18.773438 C 4.046875 -20.886719 5.089844 -21.03125 5.089844 -21.03125 Z M 5.089844 -21.03125 "/></g></g></g><g fill="#261913" fill-opacity="1"><g transform="translate(332.275227, 72.200898)"><g><path d="M 10.191406 -10.414062 L 10.191406 -14.828125 C 10.191406 -14.828125 9.652344 -12.847656 5.074219 -12.847656 L 3.535156 -12.847656 L 3.535156 -18.773438 C 3.535156 -19.359375 3.519531 -20.109375 4.488281 -20.109375 C 4.488281 -20.109375 5.558594 -20.109375 9.355469 -20.109375 C 14.726562 -20.109375 15.371094 -18.128906 15.371094 -18.128906 L 15.371094 -21.015625 L 0.601562 -21.03125 C 0.601562 -21.03125 1.714844 -20.839844 1.714844 -18.789062 L 1.714844 -2.242188 C 1.714844 -0.175781 0.601562 0 0.601562 0 L 15.371094 0 L 15.371094 -2.890625 C 15.371094 -2.890625 14.726562 -0.910156 9.355469 -0.910156 C 5.558594 -0.910156 4.488281 -0.910156 4.488281 -0.910156 C 3.59375 -0.910156 3.535156 -1.65625 3.535156 -2.242188 L 3.535156 -12.378906 L 5.074219 -12.394531 C 9.652344 -12.394531 10.191406 -10.414062 10.191406 -10.414062 Z M 10.191406 -10.414062 "/></g></g></g><g fill="#261913" fill-opacity="1"><g transform="translate(348.947247, 72.200898)"><g/></g></g><g fill="#261913" fill-opacity="1"><g transform="translate(357.174186, 72.200898)"><g><path d="M 15.253906 -2.242188 L 11.425781 -7.964844 C 17.21875 -8.828125 18.890625 -11.394531 18.890625 -14.328125 C 18.890625 -18.625 15.105469 -21.015625 10.339844 -21.015625 L 0.601562 -21.03125 C 0.601562 -21.03125 1.730469 -20.839844 1.730469 -18.789062 L 1.730469 -2.242188 C 1.730469 -0.175781 0.601562 0 0.601562 0 L 4.664062 0 C 4.664062 0 3.550781 -0.148438 3.535156 -2.242188 L 3.535156 -7.65625 L 6.644531 -7.65625 C 7.773438 -7.65625 8.800781 -7.683594 9.738281 -7.773438 L 13.433594 -2.242188 C 14.828125 -0.148438 13.816406 0 13.816406 0 L 17.878906 0 C 17.878906 0 16.648438 -0.175781 15.253906 -2.242188 Z M 6.644531 -8.460938 L 3.535156 -8.460938 L 3.535156 -18.773438 C 3.535156 -19.359375 3.636719 -20.109375 4.5625 -20.109375 L 10.339844 -20.109375 C 14.09375 -20.109375 16.867188 -17.703125 16.867188 -14.417969 C 16.867188 -11.191406 14.300781 -8.550781 6.644531 -8.460938 Z M 6.644531 -8.460938 "/></g></g></g><g fill="#261913" fill-opacity="1"><g transform="translate(377.350337, 72.200898)"><g><path d="M 10.96875 -21.03125 C 5.25 -21.03125 0.601562 -16.339844 0.601562 -10.546875 C 0.601562 -4.765625 5.25 -0.0585938 10.96875 -0.0585938 C 16.707031 -0.0585938 21.339844 -4.765625 21.339844 -10.546875 C 21.339844 -16.339844 16.707031 -21.03125 10.96875 -21.03125 Z M 10.96875 -0.925781 C 6.277344 -0.925781 2.464844 -5.222656 2.464844 -10.515625 C 2.464844 -15.808594 6.277344 -20.121094 10.96875 -20.121094 C 15.664062 -20.121094 19.476562 -15.808594 19.476562 -10.515625 C 19.476562 -5.222656 15.664062 -0.925781 10.96875 -0.925781 Z M 10.96875 -0.925781 "/></g></g></g><g fill="#261913" fill-opacity="1"><g transform="translate(399.989637, 72.200898)"><g><path d="M 18.15625 -5.089844 C 17.746094 -4.328125 15.445312 -1.027344 10.839844 -1.027344 C 6.246094 -1.027344 2.507812 -5.308594 2.507812 -10.574219 C 2.507812 -15.855469 6.246094 -20.136719 10.839844 -20.136719 C 14.519531 -20.136719 16.792969 -18.199219 16.398438 -16 L 18.714844 -18.039062 C 17.601562 -18.523438 15.429688 -21.03125 10.96875 -21.03125 C 5.25 -21.03125 0.601562 -16.339844 0.601562 -10.546875 C 0.601562 -4.765625 5.25 -0.0585938 10.96875 -0.0585938 C 15.296875 -0.0585938 18.011719 -3.328125 18.15625 -5.089844 Z M 18.15625 -5.089844 "/></g></g></g><g fill="#261913" fill-opacity="1"><g transform="translate(419.989848, 72.200898)"><g><path d="M 3.535156 -7.980469 L 14.460938 -7.980469 L 14.460938 -2.242188 C 14.460938 -0.175781 13.332031 0 13.332031 0 L 17.394531 0 C 17.394531 0 16.28125 -0.148438 16.28125 -2.242188 L 16.28125 -18.773438 C 16.28125 -20.886719 17.394531 -21.03125 17.394531 -21.03125 L 13.332031 -21.03125 C 13.332031 -21.03125 14.460938 -20.839844 14.460938 -18.789062 L 14.460938 -8.519531 L 3.535156 -8.519531 L 3.535156 -18.773438 C 3.550781 -20.886719 4.664062 -21.03125 4.664062 -21.03125 L 0.601562 -21.03125 C 0.601562 -21.03125 1.714844 -20.839844 1.714844 -18.789062 L 1.714844 -2.242188 C 1.714844 -0.175781 0.601562 0 0.601562 0 L 4.664062 0 C 4.664062 0 3.550781 -0.148438 3.535156 -2.242188 Z M 3.535156 -7.980469 "/></g></g></g><g fill="#261913" fill-opacity="1"><g transform="translate(438.670515, 72.200898)"><g><path d="M 16.882812 0 L 20.945312 0 C 20.945312 0 19.769531 -0.148438 18.917969 -2.242188 L 11.453125 -21.03125 L 10.105469 -21.03125 L 2.625 -2.242188 C 1.773438 -0.148438 0.601562 0 0.601562 0 L 3.695312 0 C 3.695312 0 2.640625 -0.175781 3.476562 -2.242188 L 5.765625 -7.980469 L 14.8125 -7.980469 L 17.101562 -2.242188 C 17.9375 -0.175781 16.882812 0 16.882812 0 Z M 5.984375 -8.519531 C 5.984375 -8.519531 10.222656 -19.15625 10.265625 -19.316406 C 10.339844 -19.15625 14.59375 -8.519531 14.59375 -8.519531 Z M 5.984375 -8.519531 "/></g></g></g></svg>