<svg xmlns="http://www.w3.org/2000/svg" xmlns:xlink="http://www.w3.org/1999/xlink" width="500" zoomAndPan="magnify" viewBox="0 0 375 374.999991" height="500" preserveAspectRatio="xMidYMid meet" version="1.0"><defs><g/><clipPath id="3d2a263496"><path d="M 189 232 L 190 232 L 190 233 L 189 233 Z M 189 232 " clip-rule="nonzero"/></clipPath><clipPath id="d6ee41715f"><path d="M 39.109375 111.992188 L 356.597656 153.945312 L 339.699219 281.832031 L 22.210938 239.882812 Z M 39.109375 111.992188 " clip-rule="nonzero"/></clipPath><clipPath id="f477328634"><path d="M 39.109375 111.992188 L 356.597656 153.945312 L 339.699219 281.832031 L 22.210938 239.882812 Z M 39.109375 111.992188 " clip-rule="nonzero"/></clipPath><clipPath id="35fee3dc01"><path d="M 88 214 L 89 214 L 89 215 L 88 215 Z M 88 214 " clip-rule="nonzero"/></clipPath><clipPath id="7b396f3233"><path d="M 39.109375 111.992188 L 356.597656 153.945312 L 339.699219 281.832031 L 22.210938 239.882812 Z M 39.109375 111.992188 " clip-rule="nonzero"/></clipPath><clipPath id="a438516794"><path d="M 39.109375 111.992188 L 356.597656 153.945312 L 339.699219 281.832031 L 22.210938 239.882812 Z M 39.109375 111.992188 " clip-rule="nonzero"/></clipPath><clipPath id="c684d57cfc"><path d="M 288 146 L 354 146 L 354 213 L 288 213 Z M 288 146 " clip-rule="nonzero"/></clipPath><clipPath id="3dbc19a6d8"><path d="M 39.109375 111.992188 L 356.597656 153.945312 L 339.699219 281.832031 L 22.210938 239.882812 Z M 39.109375 111.992188 " clip-rule="nonzero"/></clipPath><clipPath id="cf2dc8fe02"><path d="M 39.109375 111.992188 L 356.597656 153.945312 L 339.699219 281.832031 L 22.210938 239.882812 Z M 39.109375 111.992188 " clip-rule="nonzero"/></clipPath><clipPath id="91a2e8fd2a"><path d="M 296.246094 145.96875 L 356.28125 153.902344 L 347.402344 221.117188 L 287.363281 213.183594 Z M 296.246094 145.96875 " clip-rule="nonzero"/></clipPath><clipPath id="40abbecc86"><path d="M 296.246094 145.96875 L 355.957031 153.859375 L 347.074219 221.074219 L 287.363281 213.183594 Z M 296.246094 145.96875 " clip-rule="nonzero"/></clipPath><clipPath id="96ed2c4255"><path d="M 28 165 L 192 165 L 192 228 L 28 228 Z M 28 165 " clip-rule="nonzero"/></clipPath><clipPath id="e386156031"><path d="M 39.109375 111.992188 L 356.597656 153.945312 L 339.699219 281.832031 L 22.210938 239.882812 Z M 39.109375 111.992188 " clip-rule="nonzero"/></clipPath><clipPath id="3248d3f959"><path d="M 39.109375 111.992188 L 356.597656 153.945312 L 339.699219 281.832031 L 22.210938 239.882812 Z M 39.109375 111.992188 " clip-rule="nonzero"/></clipPath><clipPath id="61dfff6131"><path d="M 288 146 L 354 146 L 354 213 L 288 213 Z M 288 146 " clip-rule="nonzero"/></clipPath><clipPath id="18f8e204f3"><path d="M 39.109375 111.992188 L 356.597656 153.945312 L 339.699219 281.832031 L 22.210938 239.882812 Z M 39.109375 111.992188 " clip-rule="nonzero"/></clipPath><clipPath id="b646c4c9bf"><path d="M 39.109375 111.992188 L 356.597656 153.945312 L 339.699219 281.832031 L 22.210938 239.882812 Z M 39.109375 111.992188 " clip-rule="nonzero"/></clipPath><clipPath id="2396cb5fab"><path d="M 296.246094 145.96875 L 356.28125 153.902344 L 347.402344 221.117188 L 287.363281 213.183594 Z M 296.246094 145.96875 " clip-rule="nonzero"/></clipPath><clipPath id="a62566f978"><path d="M 296.246094 145.96875 L 355.957031 153.859375 L 347.074219 221.074219 L 287.363281 213.183594 Z M 296.246094 145.96875 " clip-rule="nonzero"/></clipPath><clipPath id="9f24e5f7f7"><path d="M 28 165 L 192 165 L 192 228 L 28 228 Z M 28 165 " clip-rule="nonzero"/></clipPath><clipPath id="ecb5316f61"><path d="M 39.109375 111.992188 L 356.597656 153.945312 L 339.699219 281.832031 L 22.210938 239.882812 Z M 39.109375 111.992188 " clip-rule="nonzero"/></clipPath><clipPath id="cae63d27d1"><path d="M 39.109375 111.992188 L 356.597656 153.945312 L 339.699219 281.832031 L 22.210938 239.882812 Z M 39.109375 111.992188 " clip-rule="nonzero"/></clipPath><clipPath id="955063a820"><path d="M 238 268 L 239 268 L 239 269 L 238 269 Z M 238 268 " clip-rule="nonzero"/></clipPath><clipPath id="cebaf6cb5d"><path d="M 39.109375 111.992188 L 356.597656 153.945312 L 339.699219 281.832031 L 22.210938 239.882812 Z M 39.109375 111.992188 " clip-rule="nonzero"/></clipPath><clipPath id="8627e7af8f"><path d="M 39.109375 111.992188 L 356.597656 153.945312 L 339.699219 281.832031 L 22.210938 239.882812 Z M 39.109375 111.992188 " clip-rule="nonzero"/></clipPath><clipPath id="34e2d1f40f"><path d="M 238.230469 268.441406 L 238.882812 268.527344 L 238.796875 269.183594 L 238.144531 269.09375 Z M 238.230469 268.441406 " clip-rule="nonzero"/></clipPath><clipPath id="131cea2b7e"><path d="M 238.230469 268.441406 L 238.882812 268.527344 L 238.847656 268.808594 L 238.195312 268.722656 Z M 238.230469 268.441406 " clip-rule="nonzero"/></clipPath><clipPath id="638ab3f359"><path d="M 188 173 L 285 173 L 285 264 L 188 264 Z M 188 173 " clip-rule="nonzero"/></clipPath><clipPath id="e9de770b5d"><path d="M 39.109375 111.992188 L 356.597656 153.945312 L 339.699219 281.832031 L 22.210938 239.882812 Z M 39.109375 111.992188 " clip-rule="nonzero"/></clipPath><clipPath id="bd24009ce8"><path d="M 39.109375 111.992188 L 356.597656 153.945312 L 339.699219 281.832031 L 22.210938 239.882812 Z M 39.109375 111.992188 " clip-rule="nonzero"/></clipPath><clipPath id="c899989727"><path d="M 0 342.628906 L 6.160156 342.628906 L 6.160156 348.789062 L 0 348.789062 Z M 0 342.628906 " clip-rule="nonzero"/></clipPath><clipPath id="6450b3e2c8"><path d="M 3.082031 342.628906 C 1.378906 342.628906 0 344.007812 0 345.707031 C 0 347.410156 1.378906 348.789062 3.082031 348.789062 C 4.78125 348.789062 6.160156 347.410156 6.160156 345.707031 C 6.160156 344.007812 4.78125 342.628906 3.082031 342.628906 Z M 3.082031 342.628906 " clip-rule="nonzero"/></clipPath><clipPath id="df5a3f7cd6"><path d="M 368.839844 342.628906 L 375 342.628906 L 375 348.789062 L 368.839844 348.789062 Z M 368.839844 342.628906 " clip-rule="nonzero"/></clipPath><clipPath id="775bb8f66a"><path d="M 371.917969 342.628906 C 370.21875 342.628906 368.839844 344.007812 368.839844 345.707031 C 368.839844 347.410156 370.21875 348.789062 371.917969 348.789062 C 373.621094 348.789062 375 347.410156 375 345.707031 C 375 344.007812 373.621094 342.628906 371.917969 342.628906 Z M 371.917969 342.628906 " clip-rule="nonzero"/></clipPath></defs><g fill="#383325" fill-opacity="1"><g transform="translate(62.295336, 144.438359)"><g><path d="M 70.417969 2.789062 C 88.269531 2.789062 100.539062 0 111.695312 -3.625 L 111.695312 -22.3125 L 110.160156 -22.3125 C 110.160156 -22.3125 101.375 1.117188 70.417969 1.117188 C 43.507812 1.117188 20.917969 -29.003906 20.917969 -69.722656 C 20.917969 -110.441406 41.554688 -140.558594 70.417969 -140.558594 C 93.707031 -140.558594 105 -130.660156 105 -114.066406 C 105 -93.707031 65.816406 -85.480469 65.816406 -60.9375 C 65.816406 -54.523438 70.417969 -46.296875 77.949219 -47.96875 C 75.160156 -50.339844 73.765625 -52.710938 73.765625 -57.03125 C 73.765625 -73.625 113.230469 -83.945312 113.230469 -112.949219 C 113.230469 -125.640625 102.351562 -142.234375 70.417969 -142.234375 C 35.699219 -142.234375 8.367188 -111.554688 8.367188 -69.722656 C 8.367188 -27.890625 35.699219 2.789062 70.417969 2.789062 Z M 70.417969 2.789062 "/></g></g></g><g fill="#383325" fill-opacity="1"><g transform="translate(149.607563, 203.10916)"><g><path d="M 3.703125 0 L 36.910156 0 L 36.910156 -1.234375 C 26.292969 -1.234375 25.550781 -10 25.550781 -34.316406 L 25.550781 -120.234375 C 33.082031 -122.949219 39.007812 -124.183594 48.144531 -124.183594 C 71.101562 -124.183594 85.546875 -111.59375 85.546875 -91.101562 C 85.546875 -76.289062 75.546875 -61.105469 60.117188 -61.105469 C 48.636719 -61.105469 42.957031 -68.140625 35.675781 -68.140625 C 33.453125 -68.140625 31.355469 -66.90625 31.355469 -63.941406 C 31.355469 -55.550781 44.4375 -55.054688 56.414062 -37.03125 C 75.917969 -7.777344 79.375 0 85.050781 0 L 103.9375 0 L 103.9375 -1.234375 C 89.867188 -1.234375 78.386719 -23.207031 68.632812 -38.390625 C 58.636719 -53.945312 32.589844 -55.671875 32.589844 -63.695312 C 32.589844 -66.535156 34.6875 -66.90625 36.167969 -66.90625 C 41.351562 -66.90625 49.253906 -59.003906 60.855469 -59.003906 C 82.335938 -59.003906 96.160156 -74.3125 96.160156 -91.222656 C 96.160156 -111.34375 81.472656 -125.910156 55.179688 -125.910156 C 40.859375 -125.910156 32.09375 -123.441406 18.515625 -123.441406 L 3.703125 -123.441406 L 3.703125 -122.207031 C 14.320312 -122.207031 15.058594 -113.445312 15.058594 -89.125 L 15.058594 -34.316406 C 15.058594 -10 14.320312 -1.234375 3.703125 -1.234375 Z M 3.703125 0 "/></g></g></g><g clip-path="url(#3d2a263496)"><g clip-path="url(#d6ee41715f)"><g clip-path="url(#f477328634)"><path fill="#383325" d="M 189.734375 232.25 L 189.742188 232.222656 L 189.738281 232.222656 Z M 189.734375 232.25 " fill-opacity="1" fill-rule="nonzero"/></g></g></g><g clip-path="url(#35fee3dc01)"><g clip-path="url(#7b396f3233)"><g clip-path="url(#a438516794)"><path fill="#383325" d="M 88.441406 214.890625 C 88.441406 214.890625 88.441406 214.898438 88.441406 214.898438 L 88.445312 214.890625 L 88.441406 214.890625 " fill-opacity="1" fill-rule="nonzero"/></g></g></g><g clip-path="url(#c684d57cfc)"><g clip-path="url(#3dbc19a6d8)"><g clip-path="url(#cf2dc8fe02)"><g clip-path="url(#91a2e8fd2a)"><g clip-path="url(#40abbecc86)"><path fill="#383325" d="M 288.867188 204.980469 C 288.875 204.988281 288.886719 205 288.894531 205.011719 C 289.003906 205.191406 289.082031 205.355469 289.246094 205.546875 C 289.246094 205.546875 289.246094 205.546875 289.246094 205.550781 C 289.703125 206.371094 289.8125 207.167969 289.910156 207.9375 C 290.097656 209.425781 289.789062 210.796875 289.207031 212.0625 C 289.109375 212.277344 288.972656 212.484375 288.851562 212.695312 C 288.847656 212.707031 288.839844 212.714844 288.835938 212.726562 C 288.859375 212.71875 288.882812 212.714844 288.910156 212.703125 C 289.480469 212.558594 290.046875 212.402344 290.617188 212.25 C 290.617188 212.25 290.617188 212.25 290.621094 212.25 C 292.375 211.773438 294.128906 211.285156 295.875 210.773438 C 300.371094 209.46875 304.84375 208.042969 309.28125 206.476562 C 313.882812 204.828125 318.460938 203.066406 322.953125 201.035156 C 327.441406 199.015625 331.875 196.796875 336.140625 194.171875 C 338.277344 192.859375 340.375 191.453125 342.390625 189.878906 C 344.40625 188.304688 346.351562 186.582031 348.125 184.582031 C 349.007812 183.578125 349.839844 182.5 350.589844 181.332031 C 351.335938 180.15625 352 178.882812 352.492188 177.496094 C 352.984375 176.113281 353.304688 174.609375 353.34375 173.074219 C 353.355469 172.691406 353.347656 172.304688 353.328125 171.921875 L 353.304688 171.632812 L 353.273438 171.316406 L 353.203125 170.78125 C 353.085938 170.007812 352.910156 169.273438 352.667969 168.554688 C 352.1875 167.121094 351.480469 165.8125 350.65625 164.652344 C 349.832031 163.488281 348.894531 162.472656 347.90625 161.554688 C 345.921875 159.742188 343.75 158.308594 341.527344 157.082031 C 337.074219 154.648438 332.40625 152.972656 327.707031 151.59375 C 323.003906 150.222656 318.238281 149.210938 313.460938 148.375 C 308.679688 147.558594 303.878906 146.9375 299.066406 146.503906 L 298.960938 147.195312 C 303.664062 148.242188 308.339844 149.347656 312.960938 150.625 C 317.578125 151.882812 322.136719 153.328125 326.566406 155.003906 C 328.78125 155.847656 330.960938 156.753906 333.074219 157.757812 C 335.183594 158.761719 337.238281 159.855469 339.15625 161.085938 C 341.070312 162.316406 342.863281 163.683594 344.335938 165.222656 C 345.800781 166.757812 346.929688 168.457031 347.390625 170.195312 C 347.507812 170.621094 347.582031 171.070312 347.621094 171.484375 L 347.648438 171.851562 L 347.652344 172.148438 C 347.652344 172.363281 347.640625 172.582031 347.625 172.800781 C 347.550781 173.667969 347.332031 174.542969 346.96875 175.40625 C 346.253906 177.148438 345.003906 178.820312 343.519531 180.363281 C 342.035156 181.910156 340.300781 183.332031 338.46875 184.644531 C 336.628906 185.957031 334.6875 187.179688 332.679688 188.320312 C 328.65625 190.59375 324.410156 192.597656 320.074219 194.417969 C 315.734375 196.222656 311.308594 197.898438 306.820312 199.421875 C 304.578125 200.179688 302.328125 200.9375 300.0625 201.652344 C 298.78125 202.058594 297.492188 202.449219 296.199219 202.839844 C 295.214844 203.132812 294.226562 203.425781 293.238281 203.722656 C 291.898438 204.117188 290.558594 204.503906 289.210938 204.886719 C 289.199219 204.890625 289.1875 204.890625 289.175781 204.894531 C 289.074219 204.921875 288.96875 204.953125 288.867188 204.980469 " fill-opacity="1" fill-rule="nonzero"/></g></g></g></g></g><g clip-path="url(#96ed2c4255)"><g clip-path="url(#e386156031)"><g clip-path="url(#3248d3f959)"><path fill="#383325" d="M 28.664062 196.648438 C 28.605469 198.167969 28.824219 199.714844 29.285156 201.152344 C 29.75 202.59375 30.445312 203.914062 31.25 205.097656 C 32.875 207.460938 34.902344 209.304688 37.007812 210.871094 C 39.128906 212.433594 41.351562 213.722656 43.613281 214.867188 C 45.875 216.011719 48.1875 216.984375 50.511719 217.875 C 55.167969 219.644531 59.910156 221.023438 64.6875 222.152344 C 67.074219 222.714844 69.46875 223.226562 71.871094 223.664062 C 74.273438 224.121094 76.679688 224.511719 79.09375 224.859375 C 82.859375 225.40625 86.632812 225.84375 90.410156 226.1875 C 92.851562 226.410156 95.304688 226.597656 97.75 226.757812 C 101.203125 226.988281 104.65625 227.15625 108.109375 227.292969 C 113.882812 227.503906 119.65625 227.621094 125.421875 227.679688 C 127.757812 227.703125 130.097656 227.71875 132.433594 227.726562 C 133.988281 227.738281 135.539062 227.742188 137.09375 227.742188 C 146.742188 227.75 156.390625 227.652344 166.035156 227.429688 C 172.476562 227.273438 178.972656 227.097656 185.417969 226.851562 C 187.3125 226.78125 189.066406 226.683594 191.144531 226.625 L 191.148438 226.609375 L 191.367188 225.640625 L 189.714844 223.214844 L 189.714844 223.210938 C 188.425781 223.230469 187.042969 223.4375 185.894531 223.585938 L 185.898438 223.570312 C 179.316406 224.230469 172.625 224.746094 165.992188 225.082031 C 156.394531 225.574219 146.742188 225.738281 137.132812 225.488281 C 136.804688 225.480469 136.472656 225.46875 136.144531 225.457031 C 135.804688 225.449219 135.457031 225.441406 135.113281 225.429688 C 134.769531 225.417969 134.425781 225.410156 134.082031 225.398438 C 133.933594 225.390625 133.777344 225.382812 133.625 225.378906 C 133.394531 225.371094 133.222656 225.367188 132.996094 225.359375 C 132.761719 225.347656 132.539062 225.335938 132.355469 225.335938 L 132.355469 225.339844 C 131.980469 225.304688 131.960938 225.320312 131.800781 225.308594 C 131.390625 225.292969 130.949219 225.273438 130.542969 225.253906 C 130.535156 225.253906 130.515625 225.25 130.507812 225.25 C 129.929688 225.222656 129.335938 225.195312 128.742188 225.160156 C 128.160156 225.128906 127.578125 225.054688 126.992188 225.015625 C 126.40625 224.980469 125.816406 224.941406 125.234375 224.867188 L 125.222656 224.863281 C 119.582031 224.679688 113.992188 224.027344 108.410156 223.382812 C 104.476562 222.933594 100.5625 222.359375 96.648438 221.839844 L 96.636719 221.839844 C 94.183594 221.515625 91.734375 221.191406 89.3125 220.683594 C 89.308594 220.679688 89.308594 220.679688 89.308594 220.679688 L 89.28125 220.675781 C 86.183594 220.269531 83.121094 219.652344 80.066406 219.066406 C 78.898438 218.84375 77.726562 218.632812 76.566406 218.390625 C 75.40625 218.152344 74.238281 217.921875 73.082031 217.664062 C 70.765625 217.15625 68.457031 216.640625 66.164062 216.0625 C 61.585938 214.910156 57.054688 213.625 52.6875 212.039062 C 50.503906 211.246094 48.371094 210.359375 46.3125 209.382812 C 44.253906 208.402344 42.277344 207.304688 40.488281 206.050781 C 38.703125 204.796875 37.085938 203.386719 35.929688 201.808594 C 34.777344 200.226562 34.121094 198.535156 34.109375 196.761719 C 34.085938 194.992188 34.742188 193.125 35.816406 191.339844 C 36.898438 189.550781 38.382812 187.878906 40.011719 186.320312 C 41.652344 184.757812 43.464844 183.320312 45.363281 181.964844 C 47.25 180.601562 49.238281 179.335938 51.265625 178.121094 C 55.328125 175.695312 59.582031 173.527344 63.90625 171.476562 C 68.234375 169.433594 72.644531 167.523438 77.097656 165.671875 L 76.875 165.007812 C 72.191406 166.203125 67.550781 167.59375 62.972656 169.207031 C 58.394531 170.816406 53.878906 172.65625 49.472656 174.828125 C 45.085938 177.019531 40.785156 179.515625 36.863281 182.792969 C 34.917969 184.441406 33.0625 186.304688 31.519531 188.5625 C 30.753906 189.691406 30.066406 190.929688 29.5625 192.289062 C 29.050781 193.644531 28.722656 195.125 28.664062 196.648438 " fill-opacity="1" fill-rule="nonzero"/></g></g></g><g clip-path="url(#61dfff6131)"><g clip-path="url(#18f8e204f3)"><g clip-path="url(#b646c4c9bf)"><g clip-path="url(#2396cb5fab)"><g clip-path="url(#a62566f978)"><path fill="#383325" d="M 288.867188 204.980469 C 288.875 204.988281 288.886719 205 288.894531 205.011719 C 289.003906 205.191406 289.082031 205.355469 289.246094 205.546875 C 289.246094 205.546875 289.246094 205.546875 289.246094 205.550781 C 289.703125 206.371094 289.8125 207.167969 289.910156 207.9375 C 290.097656 209.425781 289.789062 210.796875 289.207031 212.0625 C 289.109375 212.277344 288.972656 212.484375 288.851562 212.695312 C 288.847656 212.707031 288.839844 212.714844 288.835938 212.726562 C 288.859375 212.71875 288.882812 212.714844 288.910156 212.703125 C 289.480469 212.558594 290.046875 212.402344 290.617188 212.25 C 290.617188 212.25 290.617188 212.25 290.621094 212.25 C 292.375 211.773438 294.128906 211.285156 295.875 210.773438 C 300.371094 209.46875 304.84375 208.042969 309.28125 206.476562 C 313.882812 204.828125 318.460938 203.066406 322.953125 201.035156 C 327.441406 199.015625 331.875 196.796875 336.140625 194.171875 C 338.277344 192.859375 340.375 191.453125 342.390625 189.878906 C 344.40625 188.304688 346.351562 186.582031 348.125 184.582031 C 349.007812 183.578125 349.839844 182.5 350.589844 181.332031 C 351.335938 180.15625 352 178.882812 352.492188 177.496094 C 352.984375 176.113281 353.304688 174.609375 353.34375 173.074219 C 353.355469 172.691406 353.347656 172.304688 353.328125 171.921875 L 353.304688 171.632812 L 353.273438 171.316406 L 353.203125 170.78125 C 353.085938 170.007812 352.910156 169.273438 352.667969 168.554688 C 352.1875 167.121094 351.480469 165.8125 350.65625 164.652344 C 349.832031 163.488281 348.894531 162.472656 347.90625 161.554688 C 345.921875 159.742188 343.75 158.308594 341.527344 157.082031 C 337.074219 154.648438 332.40625 152.972656 327.707031 151.59375 C 323.003906 150.222656 318.238281 149.210938 313.460938 148.375 C 308.679688 147.558594 303.878906 146.9375 299.066406 146.503906 L 298.960938 147.195312 C 303.664062 148.242188 308.339844 149.347656 312.960938 150.625 C 317.578125 151.882812 322.136719 153.328125 326.566406 155.003906 C 328.78125 155.847656 330.960938 156.753906 333.074219 157.757812 C 335.183594 158.761719 337.238281 159.855469 339.15625 161.085938 C 341.070312 162.316406 342.863281 163.683594 344.335938 165.222656 C 345.800781 166.757812 346.929688 168.457031 347.390625 170.195312 C 347.507812 170.621094 347.582031 171.070312 347.621094 171.484375 L 347.648438 171.851562 L 347.652344 172.148438 C 347.652344 172.363281 347.640625 172.582031 347.625 172.800781 C 347.550781 173.667969 347.332031 174.542969 346.96875 175.40625 C 346.253906 177.148438 345.003906 178.820312 343.519531 180.363281 C 342.035156 181.910156 340.300781 183.332031 338.46875 184.644531 C 336.628906 185.957031 334.6875 187.179688 332.679688 188.320312 C 328.65625 190.59375 324.410156 192.597656 320.074219 194.417969 C 315.734375 196.222656 311.308594 197.898438 306.820312 199.421875 C 304.578125 200.179688 302.328125 200.9375 300.0625 201.652344 C 298.78125 202.058594 297.492188 202.449219 296.199219 202.839844 C 295.214844 203.132812 294.226562 203.425781 293.238281 203.722656 C 291.898438 204.117188 290.558594 204.503906 289.210938 204.886719 C 289.199219 204.890625 289.1875 204.890625 289.175781 204.894531 C 289.074219 204.921875 288.96875 204.953125 288.867188 204.980469 " fill-opacity="1" fill-rule="nonzero"/></g></g></g></g></g><g clip-path="url(#9f24e5f7f7)"><g clip-path="url(#ecb5316f61)"><g clip-path="url(#cae63d27d1)"><path fill="#383325" d="M 28.664062 196.648438 C 28.605469 198.167969 28.824219 199.714844 29.285156 201.152344 C 29.75 202.59375 30.445312 203.914062 31.25 205.097656 C 32.875 207.460938 34.902344 209.304688 37.007812 210.871094 C 39.128906 212.433594 41.351562 213.722656 43.613281 214.867188 C 45.875 216.011719 48.1875 216.984375 50.511719 217.875 C 55.167969 219.644531 59.910156 221.023438 64.6875 222.152344 C 67.074219 222.714844 69.46875 223.226562 71.871094 223.664062 C 74.273438 224.121094 76.679688 224.511719 79.09375 224.859375 C 82.859375 225.40625 86.632812 225.84375 90.410156 226.1875 C 92.851562 226.410156 95.304688 226.597656 97.75 226.757812 C 101.203125 226.988281 104.65625 227.15625 108.109375 227.292969 C 113.882812 227.503906 119.65625 227.621094 125.421875 227.679688 C 127.757812 227.703125 130.097656 227.71875 132.433594 227.726562 C 133.988281 227.738281 135.539062 227.742188 137.09375 227.742188 C 146.742188 227.75 156.390625 227.652344 166.035156 227.429688 C 172.476562 227.273438 178.972656 227.097656 185.417969 226.851562 C 187.3125 226.78125 189.066406 226.683594 191.144531 226.625 L 191.148438 226.609375 L 191.367188 225.640625 L 189.714844 223.214844 L 189.714844 223.210938 C 188.425781 223.230469 187.109375 223.457031 185.800781 223.585938 C 179.191406 224.242188 172.574219 224.753906 165.941406 225.089844 C 156.347656 225.582031 146.730469 225.746094 137.125 225.492188 C 136.449219 225.476562 135.777344 225.453125 135.105469 225.429688 C 134.761719 225.421875 134.425781 225.410156 134.082031 225.394531 C 133.929688 225.390625 133.773438 225.382812 133.625 225.378906 C 133.390625 225.371094 133.160156 225.359375 132.929688 225.351562 C 132.703125 225.34375 132.480469 225.335938 132.25 225.324219 C 132.078125 225.320312 131.910156 225.3125 131.734375 225.300781 C 131.324219 225.285156 130.917969 225.269531 130.511719 225.25 C 130.507812 225.246094 130.5 225.25 130.492188 225.25 C 129.90625 225.21875 129.320312 225.191406 128.734375 225.160156 C 128.152344 225.128906 127.574219 225.050781 126.988281 225.015625 C 126.402344 224.980469 125.816406 224.941406 125.234375 224.867188 L 125.222656 224.863281 C 119.582031 224.679688 113.992188 224.027344 108.410156 223.382812 C 104.476562 222.933594 100.5625 222.359375 96.648438 221.839844 L 96.636719 221.839844 C 94.183594 221.515625 91.734375 221.191406 89.3125 220.683594 C 89.308594 220.679688 89.308594 220.679688 89.308594 220.679688 L 89.28125 220.675781 C 86.183594 220.269531 83.121094 219.652344 80.066406 219.066406 C 78.898438 218.84375 77.726562 218.632812 76.566406 218.390625 C 75.40625 218.152344 74.238281 217.921875 73.082031 217.664062 C 70.765625 217.15625 68.457031 216.640625 66.164062 216.0625 C 61.585938 214.910156 57.054688 213.625 52.6875 212.039062 C 50.503906 211.246094 48.371094 210.359375 46.3125 209.382812 C 44.253906 208.402344 42.277344 207.304688 40.488281 206.050781 C 38.703125 204.796875 37.085938 203.386719 35.929688 201.808594 C 34.777344 200.226562 34.121094 198.535156 34.109375 196.761719 C 34.085938 194.992188 34.742188 193.125 35.816406 191.339844 C 36.898438 189.550781 38.382812 187.878906 40.011719 186.320312 C 41.652344 184.757812 43.464844 183.320312 45.363281 181.964844 C 47.25 180.601562 49.238281 179.335938 51.265625 178.121094 C 55.328125 175.695312 59.582031 173.527344 63.90625 171.476562 C 68.234375 169.433594 72.644531 167.523438 77.097656 165.671875 L 76.875 165.007812 C 72.191406 166.203125 67.550781 167.59375 62.972656 169.207031 C 58.394531 170.816406 53.878906 172.65625 49.472656 174.828125 C 45.085938 177.019531 40.785156 179.515625 36.863281 182.792969 C 34.917969 184.441406 33.0625 186.304688 31.519531 188.5625 C 30.753906 189.691406 30.066406 190.929688 29.5625 192.289062 C 29.050781 193.644531 28.722656 195.125 28.664062 196.648438 " fill-opacity="1" fill-rule="nonzero"/></g></g></g><g clip-path="url(#955063a820)"><g clip-path="url(#cebaf6cb5d)"><g clip-path="url(#8627e7af8f)"><g clip-path="url(#34e2d1f40f)"><g clip-path="url(#131cea2b7e)"><path fill="#383325" d="M 238.265625 268.6875 C 238.265625 268.699219 238.265625 268.703125 238.261719 268.707031 C 238.261719 268.714844 238.261719 268.722656 238.261719 268.730469 L 238.339844 268.714844 C 238.316406 268.707031 238.292969 268.695312 238.265625 268.6875 " fill-opacity="1" fill-rule="nonzero"/></g></g></g></g></g><g clip-path="url(#638ab3f359)"><g clip-path="url(#e9de770b5d)"><g clip-path="url(#bd24009ce8)"><path fill="#383325" d="M 188.734375 211.628906 L 192.480469 217.222656 L 193.496094 218.734375 L 195.984375 222.449219 L 196.769531 223.617188 C 196.992188 223.953125 197.214844 225.148438 197.125 225.539062 L 196.972656 226.324219 C 196.988281 226.320312 197.023438 226.324219 197.023438 226.320312 L 197.023438 226.332031 L 195.710938 231.988281 L 195.707031 232 L 193.941406 239.621094 C 193.707031 240.644531 194.289062 241.332031 195.246094 241.15625 C 196.207031 240.976562 197.371094 240.054688 197.824219 239.105469 L 201.402344 231.683594 L 201.402344 231.679688 L 203.789062 226.6875 L 213.214844 225.296875 L 213.898438 225.195312 L 213.910156 225.195312 L 240.738281 221.238281 L 240.515625 222.203125 L 240.515625 222.207031 L 240.519531 222.226562 L 240.601562 222.246094 L 239.558594 228.039062 L 239.554688 228.074219 L 232.253906 262.558594 C 232.105469 263.277344 232.253906 263.871094 232.808594 263.945312 L 232.839844 263.949219 C 233.050781 263.976562 233.300781 263.980469 233.570312 263.929688 L 237.878906 263.125 C 238.882812 262.941406 240.027344 262.039062 240.417969 261.097656 L 244.121094 252.195312 C 244.371094 252.261719 244.617188 252.148438 244.890625 252.097656 L 246.78125 251.746094 L 247.292969 251.652344 C 248.296875 251.464844 249.046875 250.730469 248.863281 249.726562 L 248.726562 248.996094 C 248.667969 248.675781 248.519531 248.363281 248.308594 248.09375 C 247.871094 247.523438 247.164062 247.140625 246.484375 247.269531 L 246.046875 247.347656 L 249.332031 239.621094 C 249.585938 239.683594 249.878906 239.839844 250.148438 239.789062 L 251.140625 239.601562 L 252.480469 239.355469 C 253.484375 239.171875 254.171875 238.171875 253.988281 237.167969 L 253.851562 236.4375 C 253.730469 235.785156 253.242188 235.148438 252.636719 234.835938 C 252.316406 234.667969 251.957031 234.59375 251.613281 234.660156 L 251.25 234.722656 L 254.917969 225.984375 L 255.082031 225.59375 L 257.652344 219.464844 L 258.015625 218.601562 L 271.492188 216.777344 L 271.597656 216.765625 C 274.707031 216.296875 280.472656 213.824219 283.042969 211.246094 C 283.925781 210.367188 284.429688 209.46875 284.324219 208.636719 C 284.230469 207.859375 283.601562 207.207031 282.652344 206.675781 C 279.621094 204.976562 273.277344 204.488281 270.101562 204.960938 C 270.042969 204.96875 265.113281 206.0625 257.90625 207.671875 C 257.667969 207.726562 257.433594 207.777344 257.191406 207.832031 C 256.828125 207.914062 256.457031 207.996094 256.082031 208.078125 L 255.652344 207.628906 L 255.367188 207.328125 L 251.4375 203.175781 L 243.945312 195.261719 L 244.308594 195.195312 C 245.3125 195.011719 246.011719 194.074219 245.828125 193.074219 L 245.695312 192.34375 C 245.507812 191.34375 244.558594 190.941406 243.558594 191.125 L 241.222656 191.558594 C 240.953125 191.609375 240.675781 191.539062 240.464844 191.691406 L 234.574219 185.335938 L 235.007812 185.257812 C 236.007812 185.070312 236.730469 184.183594 236.546875 183.183594 L 236.410156 182.449219 C 236.226562 181.453125 235.195312 180.6875 234.195312 180.871094 L 231.789062 181.320312 C 231.515625 181.367188 231.273438 181.484375 231.066406 181.632812 L 224.421875 174.628906 C 223.71875 173.890625 222.308594 173.355469 221.308594 173.539062 L 217 174.339844 C 216 174.523438 215.644531 175.457031 216.195312 176.316406 L 234.488281 204.832031 L 238.171875 210.574219 L 239.035156 211.917969 C 238.5 212.039062 237.964844 212.152344 237.433594 212.277344 C 222.832031 215.542969 207.734375 218.921875 202.507812 220.09375 L 198.675781 216.480469 L 194.335938 212.394531 L 192.546875 210.707031 C 191.78125 209.984375 190.371094 209.542969 189.414062 209.71875 C 188.457031 209.898438 188.152344 210.757812 188.734375 211.628906 " fill-opacity="1" fill-rule="nonzero"/><path fill="#383325" d="M 188.734375 211.628906 L 192.480469 217.222656 L 193.496094 218.734375 L 195.984375 222.449219 L 196.769531 223.617188 C 196.992188 223.953125 197.242188 225.152344 197.15625 225.542969 L 197.023438 226.320312 L 197.023438 226.332031 L 195.710938 231.988281 L 195.707031 232 L 193.941406 239.621094 C 193.707031 240.644531 194.289062 241.332031 195.246094 241.15625 C 196.207031 240.976562 197.371094 240.054688 197.824219 239.105469 L 201.402344 231.683594 L 201.402344 231.679688 L 203.789062 226.6875 L 213.214844 225.296875 L 213.898438 225.195312 L 213.910156 225.195312 L 240.738281 221.238281 L 240.515625 222.203125 L 240.515625 222.207031 L 240.519531 222.226562 L 240.601562 222.246094 L 239.558594 228.039062 L 239.554688 228.074219 L 232.253906 262.558594 C 232.105469 263.277344 232.253906 263.871094 232.808594 263.945312 L 232.839844 263.949219 C 233.050781 263.976562 233.300781 263.980469 233.570312 263.929688 L 237.878906 263.125 C 238.882812 262.941406 240.027344 262.039062 240.417969 261.097656 L 244.121094 252.195312 C 244.371094 252.261719 244.617188 252.148438 244.890625 252.097656 L 246.78125 251.746094 L 247.292969 251.652344 C 248.296875 251.464844 249.046875 250.730469 248.863281 249.726562 L 248.726562 248.996094 C 248.667969 248.675781 248.519531 248.363281 248.308594 248.09375 C 247.871094 247.523438 247.164062 247.140625 246.484375 247.269531 L 246.046875 247.347656 L 249.332031 239.621094 C 249.585938 239.683594 249.878906 239.839844 250.148438 239.789062 L 251.140625 239.601562 L 252.480469 239.355469 C 253.484375 239.171875 254.171875 238.171875 253.988281 237.167969 L 253.851562 236.4375 C 253.730469 235.785156 253.242188 235.148438 252.636719 234.835938 C 252.316406 234.667969 251.957031 234.59375 251.613281 234.660156 L 251.25 234.722656 L 254.917969 225.984375 L 255.082031 225.59375 L 257.652344 219.464844 L 258.015625 218.601562 L 271.492188 216.777344 L 271.597656 216.765625 C 274.707031 216.296875 280.472656 213.824219 283.042969 211.246094 C 283.925781 210.367188 284.429688 209.46875 284.324219 208.636719 C 284.230469 207.859375 283.601562 207.207031 282.652344 206.675781 C 279.621094 204.976562 273.277344 204.488281 270.101562 204.960938 C 270.042969 204.96875 265.113281 206.0625 257.90625 207.671875 C 257.667969 207.726562 257.433594 207.777344 257.191406 207.832031 C 256.828125 207.914062 256.457031 207.996094 256.082031 208.078125 L 255.652344 207.628906 L 255.367188 207.328125 L 251.4375 203.175781 L 243.945312 195.261719 L 244.308594 195.195312 C 245.3125 195.011719 246.011719 194.074219 245.828125 193.074219 L 245.695312 192.34375 C 245.507812 191.34375 244.558594 190.941406 243.558594 191.125 L 241.222656 191.558594 C 240.953125 191.609375 240.675781 191.539062 240.464844 191.691406 L 234.574219 185.335938 L 235.007812 185.257812 C 236.007812 185.070312 236.730469 184.183594 236.546875 183.183594 L 236.410156 182.449219 C 236.226562 181.453125 235.195312 180.6875 234.195312 180.871094 L 231.789062 181.320312 C 231.515625 181.367188 231.273438 181.484375 231.066406 181.632812 L 224.421875 174.628906 C 223.71875 173.890625 222.308594 173.355469 221.308594 173.539062 L 217 174.339844 C 216 174.523438 215.644531 175.457031 216.195312 176.316406 L 234.488281 204.832031 L 238.171875 210.574219 L 239.035156 211.917969 C 238.5 212.039062 237.964844 212.152344 237.433594 212.277344 C 222.832031 215.542969 207.734375 218.921875 202.507812 220.09375 L 198.675781 216.480469 L 194.335938 212.394531 L 192.546875 210.707031 C 191.78125 209.984375 190.371094 209.542969 189.414062 209.71875 C 188.457031 209.898438 188.152344 210.757812 188.734375 211.628906 " fill-opacity="1" fill-rule="nonzero"/></g></g></g><g clip-path="url(#c899989727)"><g clip-path="url(#6450b3e2c8)"><path fill="#a6873a" d="M 0 342.628906 L 6.160156 342.628906 L 6.160156 348.789062 L 0 348.789062 Z M 0 342.628906 " fill-opacity="1" fill-rule="nonzero"/></g></g><g clip-path="url(#df5a3f7cd6)"><g clip-path="url(#775bb8f66a)"><path fill="#a6873a" d="M 368.839844 342.628906 L 375 342.628906 L 375 348.789062 L 368.839844 348.789062 Z M 368.839844 342.628906 " fill-opacity="1" fill-rule="nonzero"/></g></g><g fill="#a6873a" fill-opacity="1"><g transform="translate(25.953923, 355.816466)"><g><path d="M 8.84375 -11.9375 L 8.84375 -9.796875 L 3.609375 -9.796875 L 3.609375 -2.171875 L 10.046875 -2.171875 L 10.046875 0 L 1.21875 0 L 1.21875 -21.4375 L 10.046875 -21.4375 L 10.046875 -19.265625 L 3.609375 -19.265625 L 3.609375 -11.9375 Z M 8.84375 -11.9375 "/></g></g></g><g fill="#a6873a" fill-opacity="1"><g transform="translate(39.73606, 355.816466)"><g><path d="M 5.734375 -21.65625 C 7.359375 -21.65625 8.554688 -21.171875 9.328125 -20.203125 C 10.109375 -19.234375 10.5 -17.929688 10.5 -16.296875 L 10.5 -15.703125 L 8.234375 -15.703125 L 8.234375 -16.421875 C 8.234375 -17.398438 8.039062 -18.15625 7.65625 -18.6875 C 7.269531 -19.21875 6.644531 -19.484375 5.78125 -19.484375 C 4.925781 -19.484375 4.304688 -19.21875 3.921875 -18.6875 C 3.535156 -18.15625 3.34375 -17.410156 3.34375 -16.453125 C 3.34375 -15.648438 3.519531 -14.953125 3.875 -14.359375 C 4.226562 -13.765625 4.671875 -13.21875 5.203125 -12.71875 C 5.734375 -12.21875 6.3125 -11.726562 6.9375 -11.25 C 7.5625 -10.769531 8.140625 -10.242188 8.671875 -9.671875 C 9.203125 -9.097656 9.644531 -8.445312 10 -7.71875 C 10.351562 -7 10.53125 -6.140625 10.53125 -5.140625 C 10.53125 -3.503906 10.132812 -2.203125 9.34375 -1.234375 C 8.5625 -0.265625 7.347656 0.21875 5.703125 0.21875 C 4.046875 0.21875 2.828125 -0.265625 2.046875 -1.234375 C 1.273438 -2.203125 0.890625 -3.503906 0.890625 -5.140625 L 0.890625 -6.375 L 3.125 -6.375 L 3.125 -5.015625 C 3.125 -4.035156 3.328125 -3.28125 3.734375 -2.75 C 4.140625 -2.21875 4.773438 -1.953125 5.640625 -1.953125 C 6.492188 -1.953125 7.125 -2.21875 7.53125 -2.75 C 7.9375 -3.28125 8.140625 -4.035156 8.140625 -5.015625 C 8.140625 -5.816406 7.960938 -6.507812 7.609375 -7.09375 C 7.253906 -7.675781 6.8125 -8.21875 6.28125 -8.71875 C 5.75 -9.21875 5.175781 -9.707031 4.5625 -10.1875 C 3.945312 -10.664062 3.375 -11.191406 2.84375 -11.765625 C 2.3125 -12.335938 1.867188 -12.984375 1.515625 -13.703125 C 1.160156 -14.429688 0.984375 -15.296875 0.984375 -16.296875 C 0.984375 -17.941406 1.367188 -19.242188 2.140625 -20.203125 C 2.921875 -21.171875 4.117188 -21.65625 5.734375 -21.65625 Z M 5.734375 -21.65625 "/></g></g></g><g fill="#a6873a" fill-opacity="1"><g transform="translate(53.8857, 355.816466)"><g><path d="M 5.90625 -21.4375 C 7.601562 -21.4375 8.828125 -20.972656 9.578125 -20.046875 C 10.335938 -19.117188 10.71875 -17.835938 10.71875 -16.203125 L 10.71875 -13.625 C 10.71875 -11.914062 10.3125 -10.625 9.5 -9.75 C 8.695312 -8.882812 7.441406 -8.453125 5.734375 -8.453125 L 3.609375 -8.453125 L 3.609375 0 L 1.21875 0 L 1.21875 -21.4375 Z M 5.734375 -10.59375 C 6.628906 -10.59375 7.289062 -10.8125 7.71875 -11.25 C 8.144531 -11.6875 8.359375 -12.425781 8.359375 -13.46875 L 8.359375 -16.328125 C 8.359375 -17.304688 8.171875 -18.039062 7.796875 -18.53125 C 7.421875 -19.019531 6.789062 -19.265625 5.90625 -19.265625 L 3.609375 -19.265625 L 3.609375 -10.59375 Z M 5.734375 -10.59375 "/></g></g></g><g fill="#a6873a" fill-opacity="1"><g transform="translate(68.096583, 355.816466)"><g><path d="M 8.84375 -11.9375 L 8.84375 -9.796875 L 3.609375 -9.796875 L 3.609375 -2.171875 L 10.046875 -2.171875 L 10.046875 0 L 1.21875 0 L 1.21875 -21.4375 L 10.046875 -21.4375 L 10.046875 -19.265625 L 3.609375 -19.265625 L 3.609375 -11.9375 Z M 8.84375 -11.9375 "/></g></g></g><g fill="#a6873a" fill-opacity="1"><g transform="translate(81.87872, 355.816466)"><g><path d="M 5.84375 -21.65625 C 7.5 -21.65625 8.71875 -21.164062 9.5 -20.1875 C 10.289062 -19.207031 10.6875 -17.898438 10.6875 -16.265625 L 10.6875 -14.328125 L 8.421875 -14.328125 L 8.421875 -16.390625 C 8.421875 -17.367188 8.222656 -18.128906 7.828125 -18.671875 C 7.429688 -19.210938 6.789062 -19.484375 5.90625 -19.484375 C 5.050781 -19.484375 4.421875 -19.210938 4.015625 -18.671875 C 3.609375 -18.128906 3.40625 -17.367188 3.40625 -16.390625 L 3.40625 -5.046875 C 3.40625 -4.066406 3.609375 -3.304688 4.015625 -2.765625 C 4.421875 -2.222656 5.050781 -1.953125 5.90625 -1.953125 C 6.789062 -1.953125 7.429688 -2.222656 7.828125 -2.765625 C 8.222656 -3.304688 8.421875 -4.066406 8.421875 -5.046875 L 8.421875 -7.84375 L 10.6875 -7.84375 L 10.6875 -5.171875 C 10.6875 -3.535156 10.289062 -2.226562 9.5 -1.25 C 8.71875 -0.269531 7.5 0.21875 5.84375 0.21875 C 4.21875 0.21875 3.007812 -0.269531 2.21875 -1.25 C 1.4375 -2.226562 1.046875 -3.535156 1.046875 -5.171875 L 1.046875 -16.265625 C 1.046875 -17.078125 1.140625 -17.816406 1.328125 -18.484375 C 1.523438 -19.148438 1.820312 -19.71875 2.21875 -20.1875 C 2.613281 -20.65625 3.113281 -21.015625 3.71875 -21.265625 C 4.320312 -21.523438 5.03125 -21.65625 5.84375 -21.65625 Z M 5.84375 -21.65625 "/></g></g></g><g fill="#a6873a" fill-opacity="1"><g transform="translate(96.273354, 355.816466)"><g><path d="M 3.609375 -21.4375 L 3.609375 0 L 1.21875 0 L 1.21875 -21.4375 Z M 3.609375 -21.4375 "/></g></g></g><g fill="#a6873a" fill-opacity="1"><g transform="translate(103.869413, 355.816466)"><g><path d="M 3.640625 -4.3125 L 2.8125 0 L 0.609375 0 L 4.71875 -21.4375 L 8.171875 -21.4375 L 12.28125 0 L 9.890625 0 L 9.0625 -4.3125 Z M 3.953125 -6.375 L 8.734375 -6.375 L 6.3125 -18.75 Z M 3.953125 -6.375 "/></g></g></g><g fill="#a6873a" fill-opacity="1"><g transform="translate(119.550256, 355.816466)"><g><path d="M 1.21875 0 L 1.21875 -21.4375 L 3.609375 -21.4375 L 3.609375 -2.171875 L 9.734375 -2.171875 L 9.734375 0 Z M 1.21875 0 "/></g></g></g><g fill="#a6873a" fill-opacity="1"><g transform="translate(132.628035, 355.816466)"><g><path d="M 3.609375 -21.4375 L 3.609375 0 L 1.21875 0 L 1.21875 -21.4375 Z M 3.609375 -21.4375 "/></g></g></g><g fill="#a6873a" fill-opacity="1"><g transform="translate(140.224094, 355.816466)"><g><path d="M 5.734375 -21.65625 C 7.359375 -21.65625 8.554688 -21.171875 9.328125 -20.203125 C 10.109375 -19.234375 10.5 -17.929688 10.5 -16.296875 L 10.5 -15.703125 L 8.234375 -15.703125 L 8.234375 -16.421875 C 8.234375 -17.398438 8.039062 -18.15625 7.65625 -18.6875 C 7.269531 -19.21875 6.644531 -19.484375 5.78125 -19.484375 C 4.925781 -19.484375 4.304688 -19.21875 3.921875 -18.6875 C 3.535156 -18.15625 3.34375 -17.410156 3.34375 -16.453125 C 3.34375 -15.648438 3.519531 -14.953125 3.875 -14.359375 C 4.226562 -13.765625 4.671875 -13.21875 5.203125 -12.71875 C 5.734375 -12.21875 6.3125 -11.726562 6.9375 -11.25 C 7.5625 -10.769531 8.140625 -10.242188 8.671875 -9.671875 C 9.203125 -9.097656 9.644531 -8.445312 10 -7.71875 C 10.351562 -7 10.53125 -6.140625 10.53125 -5.140625 C 10.53125 -3.503906 10.132812 -2.203125 9.34375 -1.234375 C 8.5625 -0.265625 7.347656 0.21875 5.703125 0.21875 C 4.046875 0.21875 2.828125 -0.265625 2.046875 -1.234375 C 1.273438 -2.203125 0.890625 -3.503906 0.890625 -5.140625 L 0.890625 -6.375 L 3.125 -6.375 L 3.125 -5.015625 C 3.125 -4.035156 3.328125 -3.28125 3.734375 -2.75 C 4.140625 -2.21875 4.773438 -1.953125 5.640625 -1.953125 C 6.492188 -1.953125 7.125 -2.21875 7.53125 -2.75 C 7.9375 -3.28125 8.140625 -4.035156 8.140625 -5.015625 C 8.140625 -5.816406 7.960938 -6.507812 7.609375 -7.09375 C 7.253906 -7.675781 6.8125 -8.21875 6.28125 -8.71875 C 5.75 -9.21875 5.175781 -9.707031 4.5625 -10.1875 C 3.945312 -10.664062 3.375 -11.191406 2.84375 -11.765625 C 2.3125 -12.335938 1.867188 -12.984375 1.515625 -13.703125 C 1.160156 -14.429688 0.984375 -15.296875 0.984375 -16.296875 C 0.984375 -17.941406 1.367188 -19.242188 2.140625 -20.203125 C 2.921875 -21.171875 4.117188 -21.65625 5.734375 -21.65625 Z M 5.734375 -21.65625 "/></g></g></g><g fill="#a6873a" fill-opacity="1"><g transform="translate(154.373734, 355.816466)"><g><path d="M 4.34375 0 L 4.34375 -19.265625 L 0.390625 -19.265625 L 0.390625 -21.4375 L 10.6875 -21.4375 L 10.6875 -19.265625 L 6.734375 -19.265625 L 6.734375 0 Z M 4.34375 0 "/></g></g></g><g fill="#a6873a" fill-opacity="1"><g transform="translate(168.247736, 355.816466)"><g><path d="M 3.640625 -4.3125 L 2.8125 0 L 0.609375 0 L 4.71875 -21.4375 L 8.171875 -21.4375 L 12.28125 0 L 9.890625 0 L 9.0625 -4.3125 Z M 3.953125 -6.375 L 8.734375 -6.375 L 6.3125 -18.75 Z M 3.953125 -6.375 "/></g></g></g><g fill="#a6873a" fill-opacity="1"><g transform="translate(183.928579, 355.816466)"><g/></g></g><g fill="#a6873a" fill-opacity="1"><g transform="translate(191.432751, 355.816466)"><g><path d="M 8.84375 -11.9375 L 8.84375 -9.796875 L 3.609375 -9.796875 L 3.609375 -2.171875 L 10.046875 -2.171875 L 10.046875 0 L 1.21875 0 L 1.21875 -21.4375 L 10.046875 -21.4375 L 10.046875 -19.265625 L 3.609375 -19.265625 L 3.609375 -11.9375 Z M 8.84375 -11.9375 "/></g></g></g><g fill="#a6873a" fill-opacity="1"><g transform="translate(205.214888, 355.816466)"><g><path d="M 9.125 -0.03125 L 6.828125 -0.03125 L 3.28125 -17.09375 L 3.28125 0 L 1.1875 0 L 1.1875 -21.4375 L 4.53125 -21.4375 L 8.046875 -4.3125 L 11.453125 -21.4375 L 14.796875 -21.4375 L 14.796875 0 L 12.53125 0 L 12.53125 -17.234375 Z M 9.125 -0.03125 "/></g></g></g><g fill="#a6873a" fill-opacity="1"><g transform="translate(223.988758, 355.816466)"><g/></g></g><g fill="#a6873a" fill-opacity="1"><g transform="translate(231.49293, 355.816466)"><g><path d="M 3.609375 -21.4375 L 3.609375 0 L 1.21875 0 L 1.21875 -21.4375 Z M 3.609375 -21.4375 "/></g></g></g><g fill="#a6873a" fill-opacity="1"><g transform="translate(239.08899, 355.816466)"><g><path d="M 9.125 -0.03125 L 6.828125 -0.03125 L 3.28125 -17.09375 L 3.28125 0 L 1.1875 0 L 1.1875 -21.4375 L 4.53125 -21.4375 L 8.046875 -4.3125 L 11.453125 -21.4375 L 14.796875 -21.4375 L 14.796875 0 L 12.53125 0 L 12.53125 -17.234375 Z M 9.125 -0.03125 "/></g></g></g><g fill="#a6873a" fill-opacity="1"><g transform="translate(257.86286, 355.816466)"><g><path d="M 3.609375 -21.4375 L 3.609375 0 L 1.21875 0 L 1.21875 -21.4375 Z M 3.609375 -21.4375 "/></g></g></g><g fill="#a6873a" fill-opacity="1"><g transform="translate(265.45892, 355.816466)"><g><path d="M 5.84375 -21.65625 C 7.5 -21.65625 8.71875 -21.164062 9.5 -20.1875 C 10.289062 -19.207031 10.6875 -17.898438 10.6875 -16.265625 L 10.6875 -14.421875 L 8.421875 -14.421875 L 8.421875 -16.390625 C 8.421875 -17.367188 8.222656 -18.128906 7.828125 -18.671875 C 7.429688 -19.210938 6.789062 -19.484375 5.90625 -19.484375 C 5.050781 -19.484375 4.421875 -19.210938 4.015625 -18.671875 C 3.609375 -18.128906 3.40625 -17.367188 3.40625 -16.390625 L 3.40625 -5.046875 C 3.40625 -4.066406 3.609375 -3.304688 4.015625 -2.765625 C 4.421875 -2.222656 5.050781 -1.953125 5.90625 -1.953125 C 6.789062 -1.953125 7.429688 -2.222656 7.828125 -2.765625 C 8.222656 -3.304688 8.421875 -4.066406 8.421875 -5.046875 L 8.421875 -9.34375 L 6.21875 -9.34375 L 6.21875 -11.484375 L 10.6875 -11.484375 L 10.6875 -5.171875 C 10.6875 -3.535156 10.289062 -2.226562 9.5 -1.25 C 8.71875 -0.269531 7.5 0.21875 5.84375 0.21875 C 4.21875 0.21875 3.007812 -0.269531 2.21875 -1.25 C 1.4375 -2.226562 1.046875 -3.535156 1.046875 -5.171875 L 1.046875 -16.265625 C 1.046875 -17.078125 1.140625 -17.816406 1.328125 -18.484375 C 1.523438 -19.148438 1.820312 -19.71875 2.21875 -20.1875 C 2.613281 -20.65625 3.113281 -21.015625 3.71875 -21.265625 C 4.320312 -21.523438 5.03125 -21.65625 5.84375 -21.65625 Z M 5.84375 -21.65625 "/></g></g></g><g fill="#a6873a" fill-opacity="1"><g transform="translate(279.945417, 355.816466)"><g><path d="M 6 -21.4375 C 7.695312 -21.4375 8.914062 -21.015625 9.65625 -20.171875 C 10.40625 -19.335938 10.78125 -18.125 10.78125 -16.53125 L 10.78125 -14.796875 C 10.78125 -13.609375 10.566406 -12.644531 10.140625 -11.90625 C 9.710938 -11.175781 9.035156 -10.664062 8.109375 -10.375 C 9.085938 -10.09375 9.78125 -9.566406 10.1875 -8.796875 C 10.601562 -8.035156 10.8125 -7.070312 10.8125 -5.90625 L 10.8125 -2.578125 C 10.8125 -2.109375 10.832031 -1.648438 10.875 -1.203125 C 10.914062 -0.765625 11.035156 -0.363281 11.234375 0 L 8.8125 0 C 8.675781 -0.300781 8.578125 -0.628906 8.515625 -0.984375 C 8.453125 -1.347656 8.421875 -1.890625 8.421875 -2.609375 L 8.421875 -5.96875 C 8.421875 -7.175781 8.148438 -8.007812 7.609375 -8.46875 C 7.066406 -8.925781 6.296875 -9.15625 5.296875 -9.15625 L 3.609375 -9.15625 L 3.609375 0 L 1.21875 0 L 1.21875 -21.4375 Z M 5.390625 -11.328125 C 6.347656 -11.328125 7.09375 -11.523438 7.625 -11.921875 C 8.15625 -12.328125 8.421875 -13.109375 8.421875 -14.265625 L 8.421875 -16.328125 C 8.421875 -17.304688 8.226562 -18.039062 7.84375 -18.53125 C 7.46875 -19.019531 6.832031 -19.265625 5.9375 -19.265625 L 3.609375 -19.265625 L 3.609375 -11.328125 Z M 5.390625 -11.328125 "/></g></g></g><g fill="#a6873a" fill-opacity="1"><g transform="translate(294.76877, 355.816466)"><g><path d="M 3.640625 -4.3125 L 2.8125 0 L 0.609375 0 L 4.71875 -21.4375 L 8.171875 -21.4375 L 12.28125 0 L 9.890625 0 L 9.0625 -4.3125 Z M 3.953125 -6.375 L 8.734375 -6.375 L 6.3125 -18.75 Z M 3.953125 -6.375 "/></g></g></g><g fill="#a6873a" fill-opacity="1"><g transform="translate(310.449613, 355.816466)"><g><path d="M 5.84375 -21.65625 C 7.5 -21.65625 8.71875 -21.164062 9.5 -20.1875 C 10.289062 -19.207031 10.6875 -17.898438 10.6875 -16.265625 L 10.6875 -14.328125 L 8.421875 -14.328125 L 8.421875 -16.390625 C 8.421875 -17.367188 8.222656 -18.128906 7.828125 -18.671875 C 7.429688 -19.210938 6.789062 -19.484375 5.90625 -19.484375 C 5.050781 -19.484375 4.421875 -19.210938 4.015625 -18.671875 C 3.609375 -18.128906 3.40625 -17.367188 3.40625 -16.390625 L 3.40625 -5.046875 C 3.40625 -4.066406 3.609375 -3.304688 4.015625 -2.765625 C 4.421875 -2.222656 5.050781 -1.953125 5.90625 -1.953125 C 6.789062 -1.953125 7.429688 -2.222656 7.828125 -2.765625 C 8.222656 -3.304688 8.421875 -4.066406 8.421875 -5.046875 L 8.421875 -7.84375 L 10.6875 -7.84375 L 10.6875 -5.171875 C 10.6875 -3.640625 10.332031 -2.390625 9.625 -1.421875 C 8.925781 -0.453125 7.84375 0.0820312 6.375 0.1875 L 6.375 1.140625 C 7.082031 1.140625 7.632812 1.273438 8.03125 1.546875 C 8.4375 1.816406 8.640625 2.195312 8.640625 2.6875 C 8.640625 3.300781 8.382812 3.78125 7.875 4.125 C 7.363281 4.476562 6.648438 4.65625 5.734375 4.65625 C 4.828125 4.65625 4.128906 4.484375 3.640625 4.140625 C 3.148438 3.804688 2.90625 3.34375 2.90625 2.75 L 2.90625 2.515625 L 4.46875 2.515625 L 4.46875 2.71875 C 4.46875 3.25 4.890625 3.546875 5.734375 3.609375 C 6.609375 3.609375 7.046875 3.285156 7.046875 2.640625 C 7.046875 2.023438 6.546875 1.71875 5.546875 1.71875 L 5.265625 1.71875 L 5.265625 0.1875 C 3.816406 0.0820312 2.75 -0.457031 2.0625 -1.4375 C 1.382812 -2.414062 1.046875 -3.660156 1.046875 -5.171875 L 1.046875 -16.265625 C 1.046875 -17.078125 1.140625 -17.816406 1.328125 -18.484375 C 1.523438 -19.148438 1.820312 -19.71875 2.21875 -20.1875 C 2.613281 -20.65625 3.113281 -21.015625 3.71875 -21.265625 C 4.320312 -21.523438 5.03125 -21.65625 5.84375 -21.65625 Z M 5.84375 -21.65625 "/></g></g></g><g fill="#a6873a" fill-opacity="1"><g transform="translate(324.844247, 355.816466)"><g><path d="M 4.9375 -25.296875 C 5.238281 -25.296875 5.515625 -25.25 5.765625 -25.15625 C 6.023438 -25.0625 6.257812 -24.953125 6.46875 -24.828125 C 6.6875 -24.710938 6.894531 -24.609375 7.09375 -24.515625 C 7.300781 -24.421875 7.519531 -24.375 7.75 -24.375 C 8.007812 -24.394531 8.238281 -24.472656 8.4375 -24.609375 C 8.632812 -24.742188 8.8125 -24.972656 8.96875 -25.296875 L 10.171875 -24.46875 C 9.921875 -23.875 9.613281 -23.429688 9.25 -23.140625 C 8.882812 -22.859375 8.46875 -22.71875 8 -22.71875 C 7.6875 -22.71875 7.40625 -22.765625 7.15625 -22.859375 C 6.914062 -22.953125 6.6875 -23.054688 6.46875 -23.171875 C 6.257812 -23.285156 6.050781 -23.382812 5.84375 -23.46875 C 5.644531 -23.5625 5.421875 -23.609375 5.171875 -23.609375 C 4.890625 -23.609375 4.644531 -23.539062 4.4375 -23.40625 C 4.238281 -23.28125 4.054688 -23.039062 3.890625 -22.6875 L 2.6875 -23.515625 C 2.9375 -24.148438 3.253906 -24.597656 3.640625 -24.859375 C 4.023438 -25.128906 4.457031 -25.273438 4.9375 -25.296875 Z M 3.640625 -4.3125 L 2.8125 0 L 0.609375 0 L 4.71875 -21.4375 L 8.171875 -21.4375 L 12.28125 0 L 9.890625 0 L 9.0625 -4.3125 Z M 3.953125 -6.375 L 8.734375 -6.375 L 6.3125 -18.75 Z M 3.953125 -6.375 "/></g></g></g><g fill="#a6873a" fill-opacity="1"><g transform="translate(340.52509, 355.816466)"><g><path d="M 1.046875 -16.265625 C 1.046875 -17.921875 1.445312 -19.234375 2.25 -20.203125 C 3.050781 -21.171875 4.28125 -21.65625 5.9375 -21.65625 C 7.59375 -21.65625 8.828125 -21.171875 9.640625 -20.203125 C 10.460938 -19.234375 10.875 -17.921875 10.875 -16.265625 L 10.875 -5.171875 C 10.875 -3.535156 10.460938 -2.226562 9.640625 -1.25 C 8.828125 -0.269531 7.59375 0.21875 5.9375 0.21875 C 4.28125 0.21875 3.050781 -0.269531 2.25 -1.25 C 1.445312 -2.226562 1.046875 -3.535156 1.046875 -5.171875 Z M 3.40625 -5.046875 C 3.40625 -4.066406 3.613281 -3.304688 4.03125 -2.765625 C 4.445312 -2.222656 5.082031 -1.953125 5.9375 -1.953125 C 6.820312 -1.953125 7.46875 -2.222656 7.875 -2.765625 C 8.28125 -3.304688 8.484375 -4.066406 8.484375 -5.046875 L 8.484375 -16.390625 C 8.484375 -17.367188 8.28125 -18.128906 7.875 -18.671875 C 7.46875 -19.210938 6.820312 -19.484375 5.9375 -19.484375 C 5.082031 -19.484375 4.445312 -19.210938 4.03125 -18.671875 C 3.613281 -18.128906 3.40625 -17.367188 3.40625 -16.390625 Z M 3.40625 -5.046875 "/></g></g></g><g fill="#383325" fill-opacity="1"><g transform="translate(0.889214, 316.377176)"><g><path d="M 26.339844 -7.382812 C 25.742188 -6.277344 22.402344 -1.488281 15.722656 -1.488281 C 9.0625 -1.488281 3.636719 -7.703125 3.636719 -15.339844 C 3.636719 -23 9.0625 -29.210938 15.722656 -29.210938 C 21.0625 -29.210938 24.359375 -26.402344 23.785156 -23.210938 L 27.148438 -26.167969 C 25.53125 -26.871094 22.382812 -30.507812 15.914062 -30.507812 C 7.617188 -30.507812 0.871094 -23.703125 0.871094 -15.296875 C 0.871094 -6.914062 7.617188 -0.0859375 15.914062 -0.0859375 C 22.191406 -0.0859375 26.125 -4.828125 26.339844 -7.382812 Z M 26.339844 -7.382812 "/></g></g></g><g fill="#383325" fill-opacity="1"><g transform="translate(29.907533, 316.377176)"><g><path d="M 22.125 -3.253906 L 16.574219 -11.554688 C 24.976562 -12.808594 27.402344 -16.53125 27.402344 -20.785156 C 27.402344 -27.019531 21.914062 -30.488281 15 -30.488281 L 0.871094 -30.507812 C 0.871094 -30.507812 2.511719 -30.234375 2.511719 -27.253906 L 2.511719 -3.253906 C 2.511719 -0.253906 0.871094 0 0.871094 0 L 6.765625 0 C 6.765625 0 5.148438 -0.210938 5.128906 -3.253906 L 5.128906 -11.105469 L 9.636719 -11.105469 C 11.277344 -11.105469 12.765625 -11.148438 14.128906 -11.277344 L 19.488281 -3.253906 C 21.511719 -0.210938 20.042969 0 20.042969 0 L 25.933594 0 C 25.933594 0 24.148438 -0.253906 22.125 -3.253906 Z M 9.636719 -12.277344 L 5.128906 -12.277344 L 5.128906 -27.234375 C 5.128906 -28.085938 5.277344 -29.167969 6.617188 -29.167969 L 15 -29.167969 C 20.445312 -29.167969 24.46875 -25.679688 24.46875 -20.914062 C 24.46875 -16.234375 20.742188 -12.402344 9.636719 -12.277344 Z M 9.636719 -12.277344 "/></g></g></g><g fill="#383325" fill-opacity="1"><g transform="translate(59.181125, 316.377176)"><g><path d="M 0.871094 -30.507812 C 0.871094 -30.507812 2.488281 -30.234375 2.488281 -27.253906 L 2.488281 -3.253906 C 2.488281 -0.253906 0.871094 0 0.871094 0 L 6.765625 0 C 6.765625 0 5.148438 -0.210938 5.128906 -3.253906 L 5.128906 -27.234375 C 5.148438 -30.296875 6.765625 -30.507812 6.765625 -30.507812 Z M 0.871094 -30.507812 "/></g></g></g><g fill="#383325" fill-opacity="1"><g transform="translate(67.798928, 316.377176)"><g><path d="M 23.828125 -8.511719 C 23.703125 -5.636719 21.042969 -1.320312 13.617188 -1.320312 C 6.191406 -1.320312 4.128906 -9.894531 4.128906 -9.894531 L 0.871094 -7.488281 C 0.871094 -7.488281 4 0 13.550781 0 C 24.148438 0 26.808594 -4.894531 26.957031 -8.554688 C 27.359375 -18.277344 4.746094 -15.828125 5.0625 -23.277344 C 5.210938 -27.0625 8.363281 -29.445312 13.957031 -29.445312 C 20.617188 -29.445312 22.0625 -24.742188 22.0625 -24.742188 L 24.488281 -27.574219 C 24.488281 -27.574219 20.085938 -30.507812 14 -30.507812 C 7.914062 -30.507812 2.894531 -27.722656 2.679688 -22.957031 C 2.296875 -13.679688 24.148438 -16.511719 23.828125 -8.511719 Z M 23.828125 -8.511719 "/></g></g></g><g fill="#383325" fill-opacity="1"><g transform="translate(97.029975, 316.377176)"><g><path d="M 0.871094 -30.488281 L 0.871094 -25.53125 C 0.871094 -25.53125 1.980469 -29.167969 8.277344 -29.167969 L 10.785156 -29.167969 C 10.957031 -28.699219 11.085938 -28.085938 11.085938 -27.253906 L 11.085938 -3.253906 C 11.085938 -0.253906 9.46875 0 9.46875 0 L 15.359375 0 C 15.359375 0 13.722656 -0.210938 13.722656 -3.253906 L 13.722656 -27.234375 C 13.722656 -28.085938 13.851562 -28.699219 14.019531 -29.167969 L 16.574219 -29.167969 C 22.894531 -29.167969 23.976562 -25.53125 23.976562 -25.53125 L 23.976562 -30.488281 Z M 0.871094 -30.488281 "/></g></g></g><g fill="#383325" fill-opacity="1"><g transform="translate(122.899936, 316.377176)"><g><path d="M 0.871094 -30.507812 C 0.871094 -30.507812 2.488281 -30.234375 2.488281 -27.253906 L 2.488281 -3.253906 C 2.488281 -0.253906 0.871094 0 0.871094 0 L 6.765625 0 C 6.765625 0 5.148438 -0.210938 5.128906 -3.253906 L 5.128906 -27.234375 C 5.148438 -30.296875 6.765625 -30.507812 6.765625 -30.507812 Z M 0.871094 -30.507812 "/></g></g></g><g fill="#383325" fill-opacity="1"><g transform="translate(131.517739, 316.377176)"><g><path d="M 24.488281 0 L 30.382812 0 C 30.382812 0 28.679688 -0.210938 27.445312 -3.253906 L 16.617188 -30.507812 L 14.660156 -30.507812 L 3.808594 -3.253906 C 2.574219 -0.210938 0.871094 0 0.871094 0 L 5.363281 0 C 5.363281 0 3.828125 -0.253906 5.042969 -3.253906 L 8.363281 -11.574219 L 21.488281 -11.574219 L 24.808594 -3.253906 C 26.019531 -0.253906 24.488281 0 24.488281 0 Z M 8.679688 -12.359375 C 8.679688 -12.359375 14.828125 -27.785156 14.894531 -28.019531 C 15 -27.785156 21.167969 -12.359375 21.167969 -12.359375 Z M 8.679688 -12.359375 "/></g></g></g><g fill="#383325" fill-opacity="1"><g transform="translate(163.748244, 316.377176)"><g><path d="M 7.382812 -30.507812 L 0.871094 -30.507812 C 0.871094 -30.507812 2.488281 -30.234375 2.488281 -27.253906 L 2.488281 -3.253906 C 2.488281 -0.253906 0.871094 0 0.871094 0 L 5.363281 0 C 5.363281 0 3.746094 -0.210938 3.722656 -3.253906 L 3.722656 -27.234375 C 3.722656 -27.851562 3.808594 -28.359375 3.914062 -28.765625 C 4.234375 -28.359375 4.574219 -27.851562 4.914062 -27.253906 L 19.976562 0 L 21.210938 0 L 21.210938 -27.234375 C 21.234375 -30.296875 22.851562 -30.507812 22.851562 -30.507812 L 18.359375 -30.507812 C 18.359375 -30.507812 20 -30.234375 20 -27.253906 L 20 -4.722656 L 7.554688 -27.234375 C 5.871094 -30.296875 7.382812 -30.507812 7.382812 -30.507812 Z M 7.382812 -30.507812 "/></g></g></g><g fill="#383325" fill-opacity="1"><g transform="translate(188.490744, 316.377176)"><g><path d="M 14.785156 -15.105469 L 14.785156 -21.511719 C 14.785156 -21.511719 14 -18.636719 7.363281 -18.636719 L 5.128906 -18.636719 L 5.128906 -27.234375 C 5.128906 -28.085938 5.105469 -29.167969 6.511719 -29.167969 C 6.511719 -29.167969 8.0625 -29.167969 13.574219 -29.167969 C 21.359375 -29.167969 22.296875 -26.296875 22.296875 -26.296875 L 22.296875 -30.488281 L 0.871094 -30.507812 C 0.871094 -30.507812 2.488281 -30.234375 2.488281 -27.253906 L 2.488281 -3.253906 C 2.488281 -0.253906 0.871094 0 0.871094 0 L 22.296875 0 L 22.296875 -4.191406 C 22.296875 -4.191406 21.359375 -1.320312 13.574219 -1.320312 C 8.0625 -1.320312 6.511719 -1.320312 6.511719 -1.320312 C 5.210938 -1.320312 5.128906 -2.402344 5.128906 -3.253906 L 5.128906 -17.957031 L 7.363281 -17.976562 C 14 -17.976562 14.785156 -15.105469 14.785156 -15.105469 Z M 14.785156 -15.105469 "/></g></g></g><g fill="#383325" fill-opacity="1"><g transform="translate(212.680153, 316.377176)"><g/></g></g><g fill="#383325" fill-opacity="1"><g transform="translate(224.61649, 316.377176)"><g><path d="M 22.125 -3.253906 L 16.574219 -11.554688 C 24.976562 -12.808594 27.402344 -16.53125 27.402344 -20.785156 C 27.402344 -27.019531 21.914062 -30.488281 15 -30.488281 L 0.871094 -30.507812 C 0.871094 -30.507812 2.511719 -30.234375 2.511719 -27.253906 L 2.511719 -3.253906 C 2.511719 -0.253906 0.871094 0 0.871094 0 L 6.765625 0 C 6.765625 0 5.148438 -0.210938 5.128906 -3.253906 L 5.128906 -11.105469 L 9.636719 -11.105469 C 11.277344 -11.105469 12.765625 -11.148438 14.128906 -11.277344 L 19.488281 -3.253906 C 21.511719 -0.210938 20.042969 0 20.042969 0 L 25.933594 0 C 25.933594 0 24.148438 -0.253906 22.125 -3.253906 Z M 9.636719 -12.277344 L 5.128906 -12.277344 L 5.128906 -27.234375 C 5.128906 -28.085938 5.277344 -29.167969 6.617188 -29.167969 L 15 -29.167969 C 20.445312 -29.167969 24.46875 -25.679688 24.46875 -20.914062 C 24.46875 -16.234375 20.742188 -12.402344 9.636719 -12.277344 Z M 9.636719 -12.277344 "/></g></g></g><g fill="#383325" fill-opacity="1"><g transform="translate(253.89009, 316.377176)"><g><path d="M 15.914062 -30.507812 C 7.617188 -30.507812 0.871094 -23.703125 0.871094 -15.296875 C 0.871094 -6.914062 7.617188 -0.0859375 15.914062 -0.0859375 C 24.234375 -0.0859375 30.957031 -6.914062 30.957031 -15.296875 C 30.957031 -23.703125 24.234375 -30.507812 15.914062 -30.507812 Z M 15.914062 -1.339844 C 9.105469 -1.339844 3.574219 -7.574219 3.574219 -15.253906 C 3.574219 -22.933594 9.105469 -29.191406 15.914062 -29.191406 C 22.722656 -29.191406 28.253906 -22.933594 28.253906 -15.253906 C 28.253906 -7.574219 22.722656 -1.339844 15.914062 -1.339844 Z M 15.914062 -1.339844 "/></g></g></g><g fill="#383325" fill-opacity="1"><g transform="translate(286.737503, 316.377176)"><g><path d="M 26.339844 -7.382812 C 25.742188 -6.277344 22.402344 -1.488281 15.722656 -1.488281 C 9.0625 -1.488281 3.636719 -7.703125 3.636719 -15.339844 C 3.636719 -23 9.0625 -29.210938 15.722656 -29.210938 C 21.0625 -29.210938 24.359375 -26.402344 23.785156 -23.210938 L 27.148438 -26.167969 C 25.53125 -26.871094 22.382812 -30.507812 15.914062 -30.507812 C 7.617188 -30.507812 0.871094 -23.703125 0.871094 -15.296875 C 0.871094 -6.914062 7.617188 -0.0859375 15.914062 -0.0859375 C 22.191406 -0.0859375 26.125 -4.828125 26.339844 -7.382812 Z M 26.339844 -7.382812 "/></g></g></g><g fill="#383325" fill-opacity="1"><g transform="translate(315.755831, 316.377176)"><g><path d="M 5.128906 -11.574219 L 20.976562 -11.574219 L 20.976562 -3.253906 C 20.976562 -0.253906 19.339844 0 19.339844 0 L 25.234375 0 C 25.234375 0 23.617188 -0.210938 23.617188 -3.253906 L 23.617188 -27.234375 C 23.617188 -30.296875 25.234375 -30.507812 25.234375 -30.507812 L 19.339844 -30.507812 C 19.339844 -30.507812 20.976562 -30.234375 20.976562 -27.253906 L 20.976562 -12.359375 L 5.128906 -12.359375 L 5.128906 -27.234375 C 5.148438 -30.296875 6.765625 -30.507812 6.765625 -30.507812 L 0.871094 -30.507812 C 0.871094 -30.507812 2.488281 -30.234375 2.488281 -27.253906 L 2.488281 -3.253906 C 2.488281 -0.253906 0.871094 0 0.871094 0 L 6.765625 0 C 6.765625 0 5.148438 -0.210938 5.128906 -3.253906 Z M 5.128906 -11.574219 "/></g></g></g><g fill="#383325" fill-opacity="1"><g transform="translate(342.859616, 316.377176)"><g><path d="M 24.488281 0 L 30.382812 0 C 30.382812 0 28.679688 -0.210938 27.445312 -3.253906 L 16.617188 -30.507812 L 14.660156 -30.507812 L 3.808594 -3.253906 C 2.574219 -0.210938 0.871094 0 0.871094 0 L 5.363281 0 C 5.363281 0 3.828125 -0.253906 5.042969 -3.253906 L 8.363281 -11.574219 L 21.488281 -11.574219 L 24.808594 -3.253906 C 26.019531 -0.253906 24.488281 0 24.488281 0 Z M 8.679688 -12.359375 C 8.679688 -12.359375 14.828125 -27.785156 14.894531 -28.019531 C 15 -27.785156 21.167969 -12.359375 21.167969 -12.359375 Z M 8.679688 -12.359375 "/></g></g></g></svg>