<svg xmlns="http://www.w3.org/2000/svg" xmlns:xlink="http://www.w3.org/1999/xlink" width="700" zoomAndPan="magnify" viewBox="0 0 525 149.999998" height="200" preserveAspectRatio="xMidYMid meet" version="1.0"><defs><g/><clipPath id="78576ee183"><path d="M 42 109 L 43 109 L 43 110 L 42 110 Z M 42 109 " clip-rule="nonzero"/></clipPath><clipPath id="22ee6a7f36"><path d="M 6.9375 65.320312 L 136.699219 82.46875 L 129.726562 135.222656 L -0.0351562 118.074219 Z M 6.9375 65.320312 " clip-rule="nonzero"/></clipPath><clipPath id="2bd0366ad7"><path d="M 6.9375 65.320312 L 136.699219 82.46875 L 129.726562 135.222656 L -0.0351562 118.074219 Z M 6.9375 65.320312 " clip-rule="nonzero"/></clipPath><clipPath id="f716391f65"><path d="M 109 79 L 136 79 L 136 107 L 109 107 Z M 109 79 " clip-rule="nonzero"/></clipPath><clipPath id="507529425b"><path d="M 6.9375 65.320312 L 136.699219 82.46875 L 129.726562 135.222656 L -0.0351562 118.074219 Z M 6.9375 65.320312 " clip-rule="nonzero"/></clipPath><clipPath id="df7ac7c69d"><path d="M 6.9375 65.320312 L 136.699219 82.46875 L 129.726562 135.222656 L -0.0351562 118.074219 Z M 6.9375 65.320312 " clip-rule="nonzero"/></clipPath><clipPath id="3982db54ae"><path d="M 112.253906 79.238281 L 136.84375 82.488281 L 133.207031 110.019531 L 108.617188 106.769531 Z M 112.253906 79.238281 " clip-rule="nonzero"/></clipPath><clipPath id="59c3841b4f"><path d="M 112.253906 79.238281 L 136.710938 82.46875 L 133.074219 110 L 108.617188 106.769531 Z M 112.253906 79.238281 " clip-rule="nonzero"/></clipPath><clipPath id="4291be195e"><path d="M 2 87 L 70 87 L 70 113 L 2 113 Z M 2 87 " clip-rule="nonzero"/></clipPath><clipPath id="bf642da462"><path d="M 6.9375 65.320312 L 136.699219 82.46875 L 129.726562 135.222656 L -0.0351562 118.074219 Z M 6.9375 65.320312 " clip-rule="nonzero"/></clipPath><clipPath id="c2420fd8db"><path d="M 6.9375 65.320312 L 136.699219 82.46875 L 129.726562 135.222656 L -0.0351562 118.074219 Z M 6.9375 65.320312 " clip-rule="nonzero"/></clipPath><clipPath id="3e0f8e661d"><path d="M 109 79 L 136 79 L 136 107 L 109 107 Z M 109 79 " clip-rule="nonzero"/></clipPath><clipPath id="2fbab1af0f"><path d="M 6.9375 65.320312 L 136.699219 82.46875 L 129.726562 135.222656 L -0.0351562 118.074219 Z M 6.9375 65.320312 " clip-rule="nonzero"/></clipPath><clipPath id="7ad0fad708"><path d="M 6.9375 65.320312 L 136.699219 82.46875 L 129.726562 135.222656 L -0.0351562 118.074219 Z M 6.9375 65.320312 " clip-rule="nonzero"/></clipPath><clipPath id="d0bbb6edbf"><path d="M 112.253906 79.238281 L 136.84375 82.488281 L 133.207031 110.019531 L 108.617188 106.769531 Z M 112.253906 79.238281 " clip-rule="nonzero"/></clipPath><clipPath id="1ccbc69f7c"><path d="M 112.253906 79.238281 L 136.710938 82.46875 L 133.074219 110 L 108.617188 106.769531 Z M 112.253906 79.238281 " clip-rule="nonzero"/></clipPath><clipPath id="a8f982f8e2"><path d="M 2 87 L 70 87 L 70 113 L 2 113 Z M 2 87 " clip-rule="nonzero"/></clipPath><clipPath id="f891635481"><path d="M 6.9375 65.320312 L 136.699219 82.46875 L 129.726562 135.222656 L -0.0351562 118.074219 Z M 6.9375 65.320312 " clip-rule="nonzero"/></clipPath><clipPath id="993a342490"><path d="M 6.9375 65.320312 L 136.699219 82.46875 L 129.726562 135.222656 L -0.0351562 118.074219 Z M 6.9375 65.320312 " clip-rule="nonzero"/></clipPath><clipPath id="cb8b134c7c"><path d="M 88 129 L 89 129 L 89 130 L 88 130 Z M 88 129 " clip-rule="nonzero"/></clipPath><clipPath id="14fe6885c2"><path d="M 6.9375 65.320312 L 136.699219 82.46875 L 129.726562 135.222656 L -0.0351562 118.074219 Z M 6.9375 65.320312 " clip-rule="nonzero"/></clipPath><clipPath id="1184a999b7"><path d="M 6.9375 65.320312 L 136.699219 82.46875 L 129.726562 135.222656 L -0.0351562 118.074219 Z M 6.9375 65.320312 " clip-rule="nonzero"/></clipPath><clipPath id="326c35cbec"><path d="M 88.492188 129.402344 L 88.757812 129.4375 L 88.722656 129.707031 L 88.457031 129.671875 Z M 88.492188 129.402344 " clip-rule="nonzero"/></clipPath><clipPath id="a1482dd6d3"><path d="M 88.492188 129.402344 L 88.757812 129.4375 L 88.742188 129.554688 L 88.476562 129.519531 Z M 88.492188 129.402344 " clip-rule="nonzero"/></clipPath><clipPath id="637c5add1c"><path d="M 68 90 L 108 90 L 108 128 L 68 128 Z M 68 90 " clip-rule="nonzero"/></clipPath><clipPath id="cba81b6825"><path d="M 6.9375 65.320312 L 136.699219 82.46875 L 129.726562 135.222656 L -0.0351562 118.074219 Z M 6.9375 65.320312 " clip-rule="nonzero"/></clipPath><clipPath id="99e786b03b"><path d="M 6.9375 65.320312 L 136.699219 82.46875 L 129.726562 135.222656 L -0.0351562 118.074219 Z M 6.9375 65.320312 " clip-rule="nonzero"/></clipPath><clipPath id="1c963a9abf"><path d="M 200.757812 89.253906 L 205.027344 89.253906 L 205.027344 93.527344 L 200.757812 93.527344 Z M 200.757812 89.253906 " clip-rule="nonzero"/></clipPath><clipPath id="77acfc47e7"><path d="M 202.894531 89.253906 C 201.714844 89.253906 200.757812 90.210938 200.757812 91.390625 C 200.757812 92.570312 201.714844 93.527344 202.894531 93.527344 C 204.074219 93.527344 205.027344 92.570312 205.027344 91.390625 C 205.027344 90.210938 204.074219 89.253906 202.894531 89.253906 Z M 202.894531 89.253906 " clip-rule="nonzero"/></clipPath><clipPath id="cc353aeaab"><path d="M 456.410156 89.253906 L 460.679688 89.253906 L 460.679688 93.527344 L 456.410156 93.527344 Z M 456.410156 89.253906 " clip-rule="nonzero"/></clipPath><clipPath id="b6268f0967"><path d="M 458.546875 89.253906 C 457.367188 89.253906 456.410156 90.210938 456.410156 91.390625 C 456.410156 92.570312 457.367188 93.527344 458.546875 93.527344 C 459.722656 93.527344 460.679688 92.570312 460.679688 91.390625 C 460.679688 90.210938 459.722656 89.253906 458.546875 89.253906 Z M 458.546875 89.253906 " clip-rule="nonzero"/></clipPath></defs><path stroke-linecap="round" transform="matrix(0, -0.75, 0.75, 0, 167.005425, 110.85937)" fill="none" stroke-linejoin="miter" d="M 2.499993 2.497975 L 93.130207 2.497975 " stroke="#383325" stroke-width="5" stroke-opacity="1" stroke-miterlimit="4"/><g fill="#383325" fill-opacity="1"><g transform="translate(17.199823, 80.012145)"><g><path d="M 28.84375 1.140625 C 36.152344 1.140625 41.179688 0 45.75 -1.484375 L 45.75 -9.136719 L 45.121094 -9.136719 C 45.121094 -9.136719 41.523438 0.457031 28.84375 0.457031 C 17.820312 0.457031 8.566406 -11.878906 8.566406 -28.558594 C 8.566406 -45.234375 17.019531 -57.570312 28.84375 -57.570312 C 38.378906 -57.570312 43.007812 -53.515625 43.007812 -46.71875 C 43.007812 -38.378906 26.957031 -35.011719 26.957031 -24.957031 C 26.957031 -22.332031 28.84375 -18.960938 31.925781 -19.648438 C 30.785156 -20.617188 30.214844 -21.589844 30.214844 -23.359375 C 30.214844 -30.15625 46.375 -34.382812 46.375 -46.261719 C 46.375 -51.460938 41.921875 -58.257812 28.84375 -58.257812 C 14.621094 -58.257812 3.425781 -45.691406 3.425781 -28.558594 C 3.425781 -11.421875 14.621094 1.140625 28.84375 1.140625 Z M 28.84375 1.140625 "/></g></g></g><g fill="#383325" fill-opacity="1"><g transform="translate(52.961468, 104.042728)"><g><path d="M 1.515625 0 L 15.117188 0 L 15.117188 -0.503906 C 10.769531 -0.503906 10.464844 -4.09375 10.464844 -14.054688 L 10.464844 -49.246094 C 13.550781 -50.359375 15.976562 -50.863281 19.71875 -50.863281 C 29.121094 -50.863281 35.039062 -45.707031 35.039062 -37.3125 C 35.039062 -31.246094 30.941406 -25.027344 24.621094 -25.027344 C 19.921875 -25.027344 17.59375 -27.910156 14.613281 -27.910156 C 13.703125 -27.910156 12.84375 -27.402344 12.84375 -26.191406 C 12.84375 -22.753906 18.203125 -22.550781 23.105469 -15.167969 C 31.09375 -3.183594 32.511719 0 34.835938 0 L 42.570312 0 L 42.570312 -0.503906 C 36.808594 -0.503906 32.105469 -9.503906 28.113281 -15.722656 C 24.015625 -22.09375 13.347656 -22.800781 13.347656 -26.089844 C 13.347656 -27.25 14.207031 -27.402344 14.8125 -27.402344 C 16.9375 -27.402344 20.171875 -24.167969 24.925781 -24.167969 C 33.722656 -24.167969 39.386719 -30.4375 39.386719 -37.363281 C 39.386719 -45.605469 33.371094 -51.570312 22.601562 -51.570312 C 16.734375 -51.570312 13.144531 -50.558594 7.585938 -50.558594 L 1.515625 -50.558594 L 1.515625 -50.054688 C 5.863281 -50.054688 6.167969 -46.464844 6.167969 -36.503906 L 6.167969 -14.054688 C 6.167969 -4.09375 5.863281 -0.503906 1.515625 -0.503906 Z M 1.515625 0 "/></g></g></g><g clip-path="url(#78576ee183)"><g clip-path="url(#22ee6a7f36)"><g clip-path="url(#2bd0366ad7)"><path fill="#383325" d="M 42.101562 109.28125 L 42.105469 109.28125 C 42.105469 109.273438 42.105469 109.265625 42.105469 109.257812 L 42.101562 109.253906 C 42.101562 109.265625 42.101562 109.273438 42.101562 109.28125 " fill-opacity="1" fill-rule="nonzero"/></g></g></g><g clip-path="url(#f716391f65)"><g clip-path="url(#507529425b)"><g clip-path="url(#df7ac7c69d)"><g clip-path="url(#3982db54ae)"><g clip-path="url(#59c3841b4f)"><path fill="#383325" d="M 109.230469 103.410156 C 109.234375 103.414062 109.238281 103.417969 109.242188 103.421875 C 109.289062 103.496094 109.320312 103.5625 109.386719 103.640625 C 109.574219 103.976562 109.621094 104.304688 109.660156 104.621094 C 109.738281 105.230469 109.609375 105.792969 109.371094 106.308594 C 109.332031 106.398438 109.273438 106.484375 109.226562 106.570312 C 109.222656 106.574219 109.21875 106.578125 109.21875 106.582031 C 109.230469 106.578125 109.238281 106.578125 109.25 106.574219 C 109.484375 106.511719 109.714844 106.449219 109.949219 106.386719 C 110.667969 106.191406 111.386719 105.992188 112.101562 105.78125 C 113.945312 105.246094 115.777344 104.664062 117.59375 104.023438 C 119.476562 103.347656 121.351562 102.625 123.191406 101.792969 C 125.03125 100.964844 126.847656 100.058594 128.59375 98.980469 C 129.46875 98.441406 130.328125 97.867188 131.15625 97.222656 C 131.980469 96.578125 132.777344 95.871094 133.503906 95.054688 C 133.867188 94.644531 134.207031 94.203125 134.511719 93.722656 C 134.820312 93.242188 135.089844 92.71875 135.292969 92.152344 C 135.496094 91.585938 135.625 90.96875 135.640625 90.339844 C 135.648438 90.183594 135.644531 90.023438 135.632812 89.867188 L 135.625 89.75 L 135.613281 89.621094 L 135.585938 89.402344 C 135.535156 89.085938 135.464844 88.78125 135.363281 88.488281 C 135.167969 87.902344 134.878906 87.367188 134.539062 86.890625 C 134.203125 86.414062 133.820312 85.996094 133.414062 85.621094 C 132.601562 84.878906 131.710938 84.292969 130.800781 83.789062 C 128.976562 82.792969 127.066406 82.105469 125.140625 81.542969 C 123.214844 80.980469 121.261719 80.566406 119.304688 80.222656 C 117.347656 79.886719 115.378906 79.632812 113.410156 79.457031 L 113.367188 79.742188 C 115.292969 80.167969 117.207031 80.621094 119.101562 81.144531 C 120.992188 81.660156 122.859375 82.25 124.671875 82.9375 C 125.578125 83.285156 126.472656 83.65625 127.339844 84.066406 C 128.203125 84.476562 129.046875 84.925781 129.832031 85.429688 C 130.613281 85.933594 131.347656 86.492188 131.953125 87.125 C 132.550781 87.75 133.015625 88.449219 133.203125 89.160156 C 133.25 89.335938 133.28125 89.519531 133.296875 89.6875 L 133.308594 89.839844 L 133.308594 89.960938 C 133.308594 90.050781 133.304688 90.136719 133.300781 90.226562 C 133.269531 90.582031 133.179688 90.941406 133.03125 91.296875 C 132.738281 92.007812 132.226562 92.695312 131.617188 93.324219 C 131.007812 93.960938 130.300781 94.542969 129.546875 95.078125 C 128.792969 95.617188 128 96.117188 127.175781 96.585938 C 125.527344 97.515625 123.789062 98.335938 122.015625 99.082031 C 120.238281 99.820312 118.421875 100.507812 116.585938 101.132812 C 115.667969 101.441406 114.746094 101.753906 113.816406 102.042969 C 113.292969 102.210938 112.765625 102.371094 112.234375 102.53125 C 111.832031 102.652344 111.425781 102.773438 111.023438 102.894531 C 110.472656 103.054688 109.925781 103.214844 109.371094 103.371094 C 109.367188 103.371094 109.363281 103.371094 109.359375 103.375 C 109.316406 103.382812 109.273438 103.398438 109.230469 103.410156 " fill-opacity="1" fill-rule="nonzero"/></g></g></g></g></g><g clip-path="url(#4291be195e)"><g clip-path="url(#bf642da462)"><g clip-path="url(#c2420fd8db)"><path fill="#383325" d="M 2.652344 99.996094 C 2.628906 100.617188 2.71875 101.25 2.90625 101.839844 C 3.097656 102.429688 3.382812 102.972656 3.710938 103.457031 C 4.378906 104.425781 5.207031 105.179688 6.070312 105.820312 C 6.9375 106.460938 7.847656 106.988281 8.773438 107.457031 C 9.699219 107.929688 10.648438 108.324219 11.601562 108.691406 C 13.507812 109.414062 15.449219 109.980469 17.40625 110.441406 C 18.382812 110.671875 19.363281 110.882812 20.347656 111.0625 C 21.332031 111.25 22.320312 111.410156 23.308594 111.550781 C 24.851562 111.777344 26.394531 111.953125 27.941406 112.09375 C 28.945312 112.1875 29.949219 112.261719 30.949219 112.328125 C 32.363281 112.421875 33.777344 112.492188 35.191406 112.546875 C 37.558594 112.636719 39.921875 112.683594 42.285156 112.707031 C 43.242188 112.714844 44.199219 112.722656 45.15625 112.726562 C 45.792969 112.730469 46.429688 112.730469 47.066406 112.730469 C 51.015625 112.734375 54.96875 112.695312 58.917969 112.605469 C 61.558594 112.539062 64.21875 112.46875 66.859375 112.367188 C 67.632812 112.339844 68.351562 112.296875 69.203125 112.273438 L 69.207031 112.265625 L 69.296875 111.871094 L 68.617188 110.875 C 68.089844 110.882812 67.523438 110.96875 67.054688 111.03125 L 67.054688 111.023438 C 64.359375 111.292969 61.617188 111.503906 58.902344 111.640625 C 54.96875 111.84375 51.015625 111.910156 47.082031 111.808594 C 46.949219 111.804688 46.808594 111.800781 46.675781 111.796875 C 46.535156 111.792969 46.394531 111.789062 46.253906 111.785156 C 46.113281 111.78125 45.972656 111.777344 45.832031 111.769531 C 45.769531 111.769531 45.707031 111.765625 45.644531 111.761719 C 45.550781 111.761719 45.480469 111.757812 45.386719 111.753906 C 45.289062 111.75 45.199219 111.746094 45.125 111.746094 C 44.972656 111.734375 44.964844 111.738281 44.898438 111.734375 C 44.730469 111.730469 44.546875 111.71875 44.382812 111.714844 C 44.378906 111.710938 44.371094 111.710938 44.367188 111.710938 C 44.128906 111.699219 43.886719 111.6875 43.644531 111.675781 C 43.40625 111.664062 43.167969 111.628906 42.925781 111.617188 C 42.6875 111.601562 42.445312 111.585938 42.207031 111.554688 L 42.203125 111.554688 C 39.890625 111.476562 37.601562 111.210938 35.316406 110.945312 C 33.703125 110.761719 32.101562 110.527344 30.5 110.316406 L 30.492188 110.3125 C 29.488281 110.179688 28.484375 110.046875 27.492188 109.839844 L 27.480469 109.839844 C 26.210938 109.671875 24.957031 109.417969 23.707031 109.179688 C 23.226562 109.085938 22.75 109 22.273438 108.902344 C 21.796875 108.804688 21.320312 108.710938 20.84375 108.605469 C 19.898438 108.394531 18.949219 108.183594 18.011719 107.949219 C 16.136719 107.476562 14.28125 106.949219 12.492188 106.300781 C 11.597656 105.976562 10.722656 105.613281 9.878906 105.210938 C 9.039062 104.808594 8.226562 104.359375 7.496094 103.847656 C 6.765625 103.332031 6.101562 102.753906 5.628906 102.109375 C 5.15625 101.460938 4.886719 100.769531 4.882812 100.042969 C 4.871094 99.316406 5.140625 98.550781 5.582031 97.820312 C 6.023438 97.089844 6.632812 96.40625 7.300781 95.765625 C 7.972656 95.125 8.714844 94.535156 9.492188 93.980469 C 10.265625 93.421875 11.078125 92.902344 11.910156 92.40625 C 13.574219 91.414062 15.316406 90.527344 17.085938 89.683594 C 18.859375 88.847656 20.667969 88.066406 22.492188 87.308594 L 22.398438 87.035156 C 20.480469 87.527344 18.578125 88.09375 16.703125 88.757812 C 14.828125 89.414062 12.980469 90.167969 11.175781 91.058594 C 9.378906 91.957031 7.617188 92.976562 6.011719 94.320312 C 5.214844 94.996094 4.453125 95.757812 3.824219 96.683594 C 3.507812 97.148438 3.226562 97.652344 3.019531 98.210938 C 2.808594 98.765625 2.675781 99.371094 2.652344 99.996094 " fill-opacity="1" fill-rule="nonzero"/></g></g></g><g clip-path="url(#3e0f8e661d)"><g clip-path="url(#2fbab1af0f)"><g clip-path="url(#7ad0fad708)"><g clip-path="url(#d0bbb6edbf)"><g clip-path="url(#1ccbc69f7c)"><path fill="#383325" d="M 109.230469 103.410156 C 109.234375 103.414062 109.238281 103.417969 109.242188 103.421875 C 109.289062 103.496094 109.320312 103.5625 109.386719 103.640625 C 109.574219 103.976562 109.621094 104.304688 109.660156 104.621094 C 109.738281 105.230469 109.609375 105.792969 109.371094 106.308594 C 109.332031 106.398438 109.273438 106.484375 109.226562 106.570312 C 109.222656 106.574219 109.21875 106.578125 109.21875 106.582031 C 109.230469 106.578125 109.238281 106.578125 109.25 106.574219 C 109.484375 106.511719 109.714844 106.449219 109.949219 106.386719 C 110.667969 106.191406 111.386719 105.992188 112.101562 105.78125 C 113.945312 105.246094 115.777344 104.664062 117.59375 104.023438 C 119.476562 103.347656 121.351562 102.625 123.191406 101.792969 C 125.03125 100.964844 126.847656 100.058594 128.59375 98.980469 C 129.46875 98.441406 130.328125 97.867188 131.15625 97.222656 C 131.980469 96.578125 132.777344 95.871094 133.503906 95.054688 C 133.867188 94.644531 134.207031 94.203125 134.511719 93.722656 C 134.820312 93.242188 135.089844 92.71875 135.292969 92.152344 C 135.496094 91.585938 135.625 90.96875 135.640625 90.339844 C 135.648438 90.183594 135.644531 90.023438 135.632812 89.867188 L 135.625 89.75 L 135.613281 89.621094 L 135.585938 89.402344 C 135.535156 89.085938 135.464844 88.78125 135.363281 88.488281 C 135.167969 87.902344 134.878906 87.367188 134.539062 86.890625 C 134.203125 86.414062 133.820312 85.996094 133.414062 85.621094 C 132.601562 84.878906 131.710938 84.292969 130.800781 83.789062 C 128.976562 82.792969 127.066406 82.105469 125.140625 81.542969 C 123.214844 80.980469 121.261719 80.566406 119.304688 80.222656 C 117.347656 79.886719 115.378906 79.632812 113.410156 79.457031 L 113.367188 79.742188 C 115.292969 80.167969 117.207031 80.621094 119.101562 81.144531 C 120.992188 81.660156 122.859375 82.25 124.671875 82.9375 C 125.578125 83.285156 126.472656 83.65625 127.339844 84.066406 C 128.203125 84.476562 129.046875 84.925781 129.832031 85.429688 C 130.613281 85.933594 131.347656 86.492188 131.953125 87.125 C 132.550781 87.75 133.015625 88.449219 133.203125 89.160156 C 133.25 89.335938 133.28125 89.519531 133.296875 89.6875 L 133.308594 89.839844 L 133.308594 89.960938 C 133.308594 90.050781 133.304688 90.136719 133.300781 90.226562 C 133.269531 90.582031 133.179688 90.941406 133.03125 91.296875 C 132.738281 92.007812 132.226562 92.695312 131.617188 93.324219 C 131.007812 93.960938 130.300781 94.542969 129.546875 95.078125 C 128.792969 95.617188 128 96.117188 127.175781 96.585938 C 125.527344 97.515625 123.789062 98.335938 122.015625 99.082031 C 120.238281 99.820312 118.421875 100.507812 116.585938 101.132812 C 115.667969 101.441406 114.746094 101.753906 113.816406 102.042969 C 113.292969 102.210938 112.765625 102.371094 112.234375 102.53125 C 111.832031 102.652344 111.425781 102.773438 111.023438 102.894531 C 110.472656 103.054688 109.925781 103.214844 109.371094 103.371094 C 109.367188 103.371094 109.363281 103.371094 109.359375 103.375 C 109.316406 103.382812 109.273438 103.398438 109.230469 103.410156 " fill-opacity="1" fill-rule="nonzero"/></g></g></g></g></g><g clip-path="url(#a8f982f8e2)"><g clip-path="url(#f891635481)"><g clip-path="url(#993a342490)"><path fill="#383325" d="M 2.652344 99.996094 C 2.628906 100.617188 2.71875 101.25 2.90625 101.839844 C 3.097656 102.429688 3.382812 102.972656 3.710938 103.457031 C 4.378906 104.425781 5.207031 105.179688 6.070312 105.820312 C 6.9375 106.460938 7.847656 106.988281 8.773438 107.457031 C 9.699219 107.929688 10.648438 108.324219 11.601562 108.691406 C 13.507812 109.414062 15.449219 109.980469 17.40625 110.441406 C 18.382812 110.671875 19.363281 110.882812 20.347656 111.0625 C 21.332031 111.25 22.320312 111.410156 23.308594 111.550781 C 24.851562 111.777344 26.394531 111.953125 27.941406 112.09375 C 28.945312 112.1875 29.949219 112.261719 30.949219 112.328125 C 32.363281 112.421875 33.777344 112.492188 35.191406 112.546875 C 37.558594 112.636719 39.921875 112.683594 42.285156 112.707031 C 43.242188 112.714844 44.199219 112.722656 45.15625 112.726562 C 45.792969 112.730469 46.429688 112.730469 47.066406 112.730469 C 51.015625 112.734375 54.96875 112.695312 58.917969 112.605469 C 61.558594 112.539062 64.21875 112.46875 66.859375 112.367188 C 67.632812 112.339844 68.351562 112.296875 69.203125 112.273438 L 69.207031 112.265625 L 69.296875 111.871094 L 68.617188 110.875 C 68.089844 110.882812 67.550781 110.976562 67.015625 111.03125 C 64.308594 111.296875 61.597656 111.507812 58.882812 111.644531 C 54.949219 111.847656 51.011719 111.914062 47.078125 111.808594 C 46.800781 111.804688 46.527344 111.796875 46.25 111.785156 C 46.109375 111.78125 45.972656 111.777344 45.832031 111.769531 C 45.769531 111.769531 45.707031 111.765625 45.644531 111.761719 C 45.550781 111.761719 45.453125 111.757812 45.359375 111.753906 C 45.265625 111.75 45.175781 111.746094 45.082031 111.742188 C 45.011719 111.738281 44.941406 111.738281 44.871094 111.730469 C 44.703125 111.726562 44.535156 111.71875 44.367188 111.710938 C 44.367188 111.710938 44.363281 111.710938 44.359375 111.710938 C 44.121094 111.699219 43.882812 111.6875 43.640625 111.675781 C 43.402344 111.660156 43.164062 111.628906 42.925781 111.617188 C 42.6875 111.601562 42.445312 111.585938 42.207031 111.554688 L 42.203125 111.554688 C 39.890625 111.476562 37.601562 111.210938 35.316406 110.945312 C 33.703125 110.761719 32.101562 110.527344 30.5 110.316406 L 30.492188 110.3125 C 29.488281 110.179688 28.484375 110.046875 27.492188 109.839844 L 27.480469 109.839844 C 26.210938 109.671875 24.957031 109.417969 23.707031 109.179688 C 23.226562 109.085938 22.75 109 22.273438 108.902344 C 21.796875 108.804688 21.320312 108.710938 20.84375 108.605469 C 19.898438 108.394531 18.949219 108.183594 18.011719 107.949219 C 16.136719 107.476562 14.28125 106.949219 12.492188 106.300781 C 11.597656 105.976562 10.722656 105.613281 9.878906 105.210938 C 9.039062 104.808594 8.226562 104.359375 7.496094 103.847656 C 6.765625 103.332031 6.101562 102.753906 5.628906 102.109375 C 5.15625 101.460938 4.886719 100.769531 4.882812 100.042969 C 4.871094 99.316406 5.140625 98.550781 5.582031 97.820312 C 6.023438 97.089844 6.632812 96.40625 7.300781 95.765625 C 7.972656 95.125 8.714844 94.535156 9.492188 93.980469 C 10.265625 93.421875 11.078125 92.902344 11.910156 92.40625 C 13.574219 91.414062 15.316406 90.527344 17.085938 89.683594 C 18.859375 88.847656 20.667969 88.066406 22.492188 87.308594 L 22.398438 87.035156 C 20.480469 87.527344 18.578125 88.09375 16.703125 88.757812 C 14.828125 89.414062 12.980469 90.167969 11.175781 91.058594 C 9.378906 91.957031 7.617188 92.976562 6.011719 94.320312 C 5.214844 94.996094 4.453125 95.757812 3.824219 96.683594 C 3.507812 97.148438 3.226562 97.652344 3.019531 98.210938 C 2.808594 98.765625 2.675781 99.371094 2.652344 99.996094 " fill-opacity="1" fill-rule="nonzero"/></g></g></g><g clip-path="url(#cb8b134c7c)"><g clip-path="url(#14fe6885c2)"><g clip-path="url(#1184a999b7)"><g clip-path="url(#326c35cbec)"><g clip-path="url(#a1482dd6d3)"><path fill="#383325" d="M 88.503906 129.503906 C 88.503906 129.507812 88.503906 129.511719 88.503906 129.511719 C 88.503906 129.515625 88.503906 129.519531 88.503906 129.523438 L 88.535156 129.515625 C 88.527344 129.511719 88.515625 129.507812 88.503906 129.503906 " fill-opacity="1" fill-rule="nonzero"/></g></g></g></g></g><g clip-path="url(#637c5add1c)"><g clip-path="url(#cba81b6825)"><g clip-path="url(#99e786b03b)"><path fill="#383325" d="M 68.214844 106.132812 L 69.75 108.421875 L 70.167969 109.042969 L 71.1875 110.5625 L 71.507812 111.042969 C 71.601562 111.179688 71.691406 111.667969 71.65625 111.832031 L 71.59375 112.152344 C 71.597656 112.148438 71.613281 112.152344 71.613281 112.148438 L 71.613281 112.15625 L 71.074219 114.472656 L 71.074219 114.476562 L 70.351562 117.597656 C 70.253906 118.015625 70.492188 118.296875 70.882812 118.226562 C 71.277344 118.152344 71.753906 117.773438 71.941406 117.386719 L 73.40625 114.347656 L 73.40625 114.34375 L 74.382812 112.300781 L 78.242188 111.730469 L 78.523438 111.691406 L 78.527344 111.6875 L 89.515625 110.070312 L 89.425781 110.464844 L 89.429688 110.472656 L 89.460938 110.480469 L 89.035156 112.855469 L 89.03125 112.867188 L 86.042969 126.992188 C 85.980469 127.289062 86.042969 127.53125 86.269531 127.5625 L 86.28125 127.5625 C 86.371094 127.574219 86.472656 127.574219 86.582031 127.554688 L 88.347656 127.222656 C 88.757812 127.148438 89.226562 126.78125 89.386719 126.394531 L 90.902344 122.75 C 91.007812 122.773438 91.105469 122.730469 91.21875 122.707031 L 91.992188 122.5625 L 92.203125 122.527344 C 92.613281 122.449219 92.921875 122.148438 92.84375 121.738281 L 92.789062 121.4375 C 92.765625 121.304688 92.703125 121.179688 92.621094 121.066406 C 92.4375 120.835938 92.148438 120.679688 91.871094 120.730469 L 91.691406 120.761719 L 93.039062 117.597656 C 93.140625 117.625 93.261719 117.6875 93.371094 117.667969 L 93.777344 117.589844 L 94.328125 117.488281 C 94.738281 117.414062 95.019531 117.003906 94.945312 116.59375 L 94.890625 116.292969 C 94.839844 116.027344 94.640625 115.765625 94.390625 115.636719 C 94.261719 115.570312 94.113281 115.539062 93.972656 115.566406 L 93.824219 115.589844 L 95.324219 112.011719 L 95.394531 111.851562 L 96.445312 109.34375 L 96.59375 108.988281 L 102.113281 108.238281 L 102.160156 108.234375 C 103.429688 108.042969 105.792969 107.03125 106.847656 105.976562 C 107.207031 105.613281 107.414062 105.246094 107.371094 104.90625 C 107.332031 104.585938 107.074219 104.320312 106.6875 104.105469 C 105.445312 103.40625 102.84375 103.207031 101.542969 103.402344 C 101.519531 103.40625 99.5 103.851562 96.550781 104.511719 C 96.453125 104.535156 96.355469 104.554688 96.257812 104.578125 C 96.109375 104.609375 95.957031 104.644531 95.804688 104.679688 L 95.625 104.492188 L 95.511719 104.371094 L 93.902344 102.667969 L 90.832031 99.429688 L 90.980469 99.402344 C 91.390625 99.324219 91.679688 98.941406 91.601562 98.53125 L 91.546875 98.234375 C 91.472656 97.824219 91.082031 97.65625 90.671875 97.734375 L 89.714844 97.910156 C 89.605469 97.929688 89.492188 97.902344 89.40625 97.964844 L 86.992188 95.363281 L 87.171875 95.332031 C 87.582031 95.253906 87.878906 94.890625 87.800781 94.480469 L 87.746094 94.179688 C 87.671875 93.769531 87.25 93.457031 86.835938 93.535156 L 85.851562 93.71875 C 85.742188 93.738281 85.640625 93.785156 85.554688 93.84375 L 82.835938 90.976562 C 82.546875 90.675781 81.96875 90.453125 81.558594 90.53125 L 79.796875 90.859375 C 79.382812 90.933594 79.238281 91.316406 79.464844 91.667969 L 86.957031 103.347656 L 88.46875 105.699219 L 88.820312 106.25 C 88.601562 106.300781 88.382812 106.347656 88.164062 106.398438 C 82.183594 107.734375 76 109.121094 73.859375 109.597656 L 72.289062 108.121094 L 70.511719 106.445312 L 69.777344 105.753906 C 69.464844 105.460938 68.886719 105.277344 68.496094 105.351562 C 68.101562 105.421875 67.976562 105.773438 68.214844 106.132812 " fill-opacity="1" fill-rule="nonzero"/><path fill="#383325" d="M 68.214844 106.132812 L 69.75 108.421875 L 70.167969 109.042969 L 71.1875 110.5625 L 71.507812 111.042969 C 71.601562 111.179688 71.703125 111.671875 71.667969 111.832031 L 71.613281 112.148438 L 71.613281 112.15625 L 71.074219 114.472656 L 71.074219 114.476562 L 70.351562 117.597656 C 70.253906 118.015625 70.492188 118.296875 70.882812 118.226562 C 71.277344 118.152344 71.753906 117.773438 71.941406 117.386719 L 73.40625 114.347656 L 73.40625 114.34375 L 74.382812 112.300781 L 78.242188 111.730469 L 78.523438 111.691406 L 78.527344 111.6875 L 89.515625 110.070312 L 89.425781 110.464844 L 89.429688 110.472656 L 89.460938 110.480469 L 89.035156 112.855469 L 89.03125 112.867188 L 86.042969 126.992188 C 85.980469 127.289062 86.042969 127.53125 86.269531 127.5625 L 86.28125 127.5625 C 86.371094 127.574219 86.472656 127.574219 86.582031 127.554688 L 88.347656 127.222656 C 88.757812 127.148438 89.226562 126.78125 89.386719 126.394531 L 90.902344 122.75 C 91.007812 122.773438 91.105469 122.730469 91.21875 122.707031 L 91.992188 122.5625 L 92.203125 122.527344 C 92.613281 122.449219 92.921875 122.148438 92.84375 121.738281 L 92.789062 121.4375 C 92.765625 121.304688 92.703125 121.179688 92.621094 121.066406 C 92.4375 120.835938 92.148438 120.679688 91.871094 120.730469 L 91.691406 120.761719 L 93.039062 117.597656 C 93.140625 117.625 93.261719 117.6875 93.371094 117.667969 L 93.777344 117.589844 L 94.328125 117.488281 C 94.738281 117.414062 95.019531 117.003906 94.945312 116.59375 L 94.890625 116.292969 C 94.839844 116.027344 94.640625 115.765625 94.390625 115.636719 C 94.261719 115.570312 94.113281 115.539062 93.972656 115.566406 L 93.824219 115.589844 L 95.324219 112.011719 L 95.394531 111.851562 L 96.445312 109.34375 L 96.59375 108.988281 L 102.113281 108.238281 L 102.160156 108.234375 C 103.429688 108.042969 105.792969 107.03125 106.847656 105.976562 C 107.207031 105.613281 107.414062 105.246094 107.371094 104.90625 C 107.332031 104.585938 107.074219 104.320312 106.6875 104.105469 C 105.445312 103.40625 102.84375 103.207031 101.542969 103.402344 C 101.519531 103.40625 99.5 103.851562 96.550781 104.511719 C 96.453125 104.535156 96.355469 104.554688 96.257812 104.578125 C 96.109375 104.609375 95.957031 104.644531 95.804688 104.679688 L 95.625 104.492188 L 95.511719 104.371094 L 93.902344 102.667969 L 90.832031 99.429688 L 90.980469 99.402344 C 91.390625 99.324219 91.679688 98.941406 91.601562 98.53125 L 91.546875 98.234375 C 91.472656 97.824219 91.082031 97.65625 90.671875 97.734375 L 89.714844 97.910156 C 89.605469 97.929688 89.492188 97.902344 89.40625 97.964844 L 86.992188 95.363281 L 87.171875 95.332031 C 87.582031 95.253906 87.878906 94.890625 87.800781 94.480469 L 87.746094 94.179688 C 87.671875 93.769531 87.25 93.457031 86.835938 93.535156 L 85.851562 93.71875 C 85.742188 93.738281 85.640625 93.785156 85.554688 93.84375 L 82.835938 90.976562 C 82.546875 90.675781 81.96875 90.453125 81.558594 90.53125 L 79.796875 90.859375 C 79.382812 90.933594 79.238281 91.316406 79.464844 91.667969 L 86.957031 103.347656 L 88.46875 105.699219 L 88.820312 106.25 C 88.601562 106.300781 88.382812 106.347656 88.164062 106.398438 C 82.183594 107.734375 76 109.121094 73.859375 109.597656 L 72.289062 108.121094 L 70.511719 106.445312 L 69.777344 105.753906 C 69.464844 105.460938 68.886719 105.277344 68.496094 105.351562 C 68.101562 105.421875 67.976562 105.773438 68.214844 106.132812 " fill-opacity="1" fill-rule="nonzero"/></g></g></g><g clip-path="url(#1c963a9abf)"><g clip-path="url(#77acfc47e7)"><path fill="#a6873a" d="M 200.757812 89.253906 L 205.027344 89.253906 L 205.027344 93.527344 L 200.757812 93.527344 Z M 200.757812 89.253906 " fill-opacity="1" fill-rule="nonzero"/></g></g><g clip-path="url(#cc353aeaab)"><g clip-path="url(#b6268f0967)"><path fill="#a6873a" d="M 456.410156 89.253906 L 460.679688 89.253906 L 460.679688 93.527344 L 456.410156 93.527344 Z M 456.410156 89.253906 " fill-opacity="1" fill-rule="nonzero"/></g></g><g fill="#a6873a" fill-opacity="1"><g transform="translate(213.471187, 98.026153)"><g><path d="M 6.359375 -8.578125 L 6.359375 -7.046875 L 2.59375 -7.046875 L 2.59375 -1.5625 L 7.21875 -1.5625 L 7.21875 0 L 0.875 0 L 0.875 -15.40625 L 7.21875 -15.40625 L 7.21875 -13.84375 L 2.59375 -13.84375 L 2.59375 -8.578125 Z M 6.359375 -8.578125 "/></g></g></g><g fill="#a6873a" fill-opacity="1"><g transform="translate(223.369775, 98.026153)"><g><path d="M 4.109375 -15.546875 C 5.285156 -15.546875 6.148438 -15.195312 6.703125 -14.5 C 7.265625 -13.8125 7.546875 -12.878906 7.546875 -11.703125 L 7.546875 -11.28125 L 5.921875 -11.28125 L 5.921875 -11.796875 C 5.921875 -12.492188 5.78125 -13.03125 5.5 -13.40625 C 5.21875 -13.789062 4.769531 -13.984375 4.15625 -13.984375 C 3.539062 -13.984375 3.09375 -13.789062 2.8125 -13.40625 C 2.53125 -13.03125 2.390625 -12.5 2.390625 -11.8125 C 2.390625 -11.238281 2.519531 -10.738281 2.78125 -10.3125 C 3.039062 -9.894531 3.359375 -9.503906 3.734375 -9.140625 C 4.117188 -8.785156 4.535156 -8.429688 4.984375 -8.078125 C 5.429688 -7.734375 5.84375 -7.359375 6.21875 -6.953125 C 6.601562 -6.546875 6.921875 -6.082031 7.171875 -5.5625 C 7.429688 -5.039062 7.5625 -4.421875 7.5625 -3.703125 C 7.5625 -2.523438 7.28125 -1.585938 6.71875 -0.890625 C 6.15625 -0.191406 5.28125 0.15625 4.09375 0.15625 C 2.90625 0.15625 2.03125 -0.191406 1.46875 -0.890625 C 0.914062 -1.585938 0.640625 -2.523438 0.640625 -3.703125 L 0.640625 -4.578125 L 2.25 -4.578125 L 2.25 -3.609375 C 2.25 -2.898438 2.394531 -2.351562 2.6875 -1.96875 C 2.976562 -1.59375 3.429688 -1.40625 4.046875 -1.40625 C 4.660156 -1.40625 5.113281 -1.59375 5.40625 -1.96875 C 5.707031 -2.351562 5.859375 -2.898438 5.859375 -3.609375 C 5.859375 -4.179688 5.726562 -4.675781 5.46875 -5.09375 C 5.207031 -5.507812 4.882812 -5.894531 4.5 -6.25 C 4.125 -6.613281 3.71875 -6.96875 3.28125 -7.3125 C 2.84375 -7.65625 2.429688 -8.03125 2.046875 -8.4375 C 1.660156 -8.851562 1.335938 -9.320312 1.078125 -9.84375 C 0.828125 -10.363281 0.703125 -10.984375 0.703125 -11.703125 C 0.703125 -12.890625 0.976562 -13.828125 1.53125 -14.515625 C 2.09375 -15.203125 2.953125 -15.546875 4.109375 -15.546875 Z M 4.109375 -15.546875 "/></g></g></g><g fill="#a6873a" fill-opacity="1"><g transform="translate(233.53231, 98.026153)"><g><path d="M 4.25 -15.40625 C 5.46875 -15.40625 6.347656 -15.066406 6.890625 -14.390625 C 7.429688 -13.722656 7.703125 -12.804688 7.703125 -11.640625 L 7.703125 -9.796875 C 7.703125 -8.554688 7.410156 -7.625 6.828125 -7 C 6.253906 -6.382812 5.347656 -6.078125 4.109375 -6.078125 L 2.59375 -6.078125 L 2.59375 0 L 0.875 0 L 0.875 -15.40625 Z M 4.109375 -7.609375 C 4.753906 -7.609375 5.226562 -7.765625 5.53125 -8.078125 C 5.84375 -8.398438 6 -8.9375 6 -9.6875 L 6 -11.71875 C 6 -12.425781 5.863281 -12.957031 5.59375 -13.3125 C 5.320312 -13.664062 4.875 -13.84375 4.25 -13.84375 L 2.59375 -13.84375 L 2.59375 -7.609375 Z M 4.109375 -7.609375 "/></g></g></g><g fill="#a6873a" fill-opacity="1"><g transform="translate(243.738845, 98.026153)"><g><path d="M 6.359375 -8.578125 L 6.359375 -7.046875 L 2.59375 -7.046875 L 2.59375 -1.5625 L 7.21875 -1.5625 L 7.21875 0 L 0.875 0 L 0.875 -15.40625 L 7.21875 -15.40625 L 7.21875 -13.84375 L 2.59375 -13.84375 L 2.59375 -8.578125 Z M 6.359375 -8.578125 "/></g></g></g><g fill="#a6873a" fill-opacity="1"><g transform="translate(253.637435, 98.026153)"><g><path d="M 4.203125 -15.546875 C 5.390625 -15.546875 6.265625 -15.191406 6.828125 -14.484375 C 7.390625 -13.785156 7.671875 -12.851562 7.671875 -11.6875 L 7.671875 -10.296875 L 6.046875 -10.296875 L 6.046875 -11.765625 C 6.046875 -12.472656 5.898438 -13.019531 5.609375 -13.40625 C 5.328125 -13.789062 4.875 -13.984375 4.25 -13.984375 C 3.632812 -13.984375 3.175781 -13.789062 2.875 -13.40625 C 2.582031 -13.019531 2.4375 -12.472656 2.4375 -11.765625 L 2.4375 -3.625 C 2.4375 -2.925781 2.582031 -2.378906 2.875 -1.984375 C 3.175781 -1.597656 3.632812 -1.40625 4.25 -1.40625 C 4.875 -1.40625 5.328125 -1.597656 5.609375 -1.984375 C 5.898438 -2.378906 6.046875 -2.925781 6.046875 -3.625 L 6.046875 -5.625 L 7.671875 -5.625 L 7.671875 -3.71875 C 7.671875 -2.539062 7.390625 -1.597656 6.828125 -0.890625 C 6.265625 -0.191406 5.390625 0.15625 4.203125 0.15625 C 3.023438 0.15625 2.15625 -0.191406 1.59375 -0.890625 C 1.03125 -1.597656 0.75 -2.539062 0.75 -3.71875 L 0.75 -11.6875 C 0.75 -12.269531 0.816406 -12.796875 0.953125 -13.265625 C 1.097656 -13.742188 1.3125 -14.148438 1.59375 -14.484375 C 1.882812 -14.828125 2.242188 -15.085938 2.671875 -15.265625 C 3.109375 -15.453125 3.617188 -15.546875 4.203125 -15.546875 Z M 4.203125 -15.546875 "/></g></g></g><g fill="#a6873a" fill-opacity="1"><g transform="translate(263.975947, 98.026153)"><g><path d="M 2.59375 -15.40625 L 2.59375 0 L 0.875 0 L 0.875 -15.40625 Z M 2.59375 -15.40625 "/></g></g></g><g fill="#a6873a" fill-opacity="1"><g transform="translate(269.431322, 98.026153)"><g><path d="M 2.625 -3.109375 L 2.03125 0 L 0.4375 0 L 3.390625 -15.40625 L 5.875 -15.40625 L 8.828125 0 L 7.109375 0 L 6.515625 -3.109375 Z M 2.84375 -4.578125 L 6.265625 -4.578125 L 4.53125 -13.46875 Z M 2.84375 -4.578125 "/></g></g></g><g fill="#a6873a" fill-opacity="1"><g transform="translate(280.69367, 98.026153)"><g><path d="M 0.875 0 L 0.875 -15.40625 L 2.59375 -15.40625 L 2.59375 -1.5625 L 7 -1.5625 L 7 0 Z M 0.875 0 "/></g></g></g><g fill="#a6873a" fill-opacity="1"><g transform="translate(290.08635, 98.026153)"><g><path d="M 2.59375 -15.40625 L 2.59375 0 L 0.875 0 L 0.875 -15.40625 Z M 2.59375 -15.40625 "/></g></g></g><g fill="#a6873a" fill-opacity="1"><g transform="translate(295.541725, 98.026153)"><g><path d="M 4.109375 -15.546875 C 5.285156 -15.546875 6.148438 -15.195312 6.703125 -14.5 C 7.265625 -13.8125 7.546875 -12.878906 7.546875 -11.703125 L 7.546875 -11.28125 L 5.921875 -11.28125 L 5.921875 -11.796875 C 5.921875 -12.492188 5.78125 -13.03125 5.5 -13.40625 C 5.21875 -13.789062 4.769531 -13.984375 4.15625 -13.984375 C 3.539062 -13.984375 3.09375 -13.789062 2.8125 -13.40625 C 2.53125 -13.03125 2.390625 -12.5 2.390625 -11.8125 C 2.390625 -11.238281 2.519531 -10.738281 2.78125 -10.3125 C 3.039062 -9.894531 3.359375 -9.503906 3.734375 -9.140625 C 4.117188 -8.785156 4.535156 -8.429688 4.984375 -8.078125 C 5.429688 -7.734375 5.84375 -7.359375 6.21875 -6.953125 C 6.601562 -6.546875 6.921875 -6.082031 7.171875 -5.5625 C 7.429688 -5.039062 7.5625 -4.421875 7.5625 -3.703125 C 7.5625 -2.523438 7.28125 -1.585938 6.71875 -0.890625 C 6.15625 -0.191406 5.28125 0.15625 4.09375 0.15625 C 2.90625 0.15625 2.03125 -0.191406 1.46875 -0.890625 C 0.914062 -1.585938 0.640625 -2.523438 0.640625 -3.703125 L 0.640625 -4.578125 L 2.25 -4.578125 L 2.25 -3.609375 C 2.25 -2.898438 2.394531 -2.351562 2.6875 -1.96875 C 2.976562 -1.59375 3.429688 -1.40625 4.046875 -1.40625 C 4.660156 -1.40625 5.113281 -1.59375 5.40625 -1.96875 C 5.707031 -2.351562 5.859375 -2.898438 5.859375 -3.609375 C 5.859375 -4.179688 5.726562 -4.675781 5.46875 -5.09375 C 5.207031 -5.507812 4.882812 -5.894531 4.5 -6.25 C 4.125 -6.613281 3.71875 -6.96875 3.28125 -7.3125 C 2.84375 -7.65625 2.429688 -8.03125 2.046875 -8.4375 C 1.660156 -8.851562 1.335938 -9.320312 1.078125 -9.84375 C 0.828125 -10.363281 0.703125 -10.984375 0.703125 -11.703125 C 0.703125 -12.890625 0.976562 -13.828125 1.53125 -14.515625 C 2.09375 -15.203125 2.953125 -15.546875 4.109375 -15.546875 Z M 4.109375 -15.546875 "/></g></g></g><g fill="#a6873a" fill-opacity="1"><g transform="translate(305.704261, 98.026153)"><g><path d="M 3.125 0 L 3.125 -13.84375 L 0.28125 -13.84375 L 0.28125 -15.40625 L 7.671875 -15.40625 L 7.671875 -13.84375 L 4.84375 -13.84375 L 4.84375 0 Z M 3.125 0 "/></g></g></g><g fill="#a6873a" fill-opacity="1"><g transform="translate(315.668832, 98.026153)"><g><path d="M 2.625 -3.109375 L 2.03125 0 L 0.4375 0 L 3.390625 -15.40625 L 5.875 -15.40625 L 8.828125 0 L 7.109375 0 L 6.515625 -3.109375 Z M 2.84375 -4.578125 L 6.265625 -4.578125 L 4.53125 -13.46875 Z M 2.84375 -4.578125 "/></g></g></g><g fill="#a6873a" fill-opacity="1"><g transform="translate(326.931179, 98.026153)"><g/></g></g><g fill="#a6873a" fill-opacity="1"><g transform="translate(332.320568, 98.026153)"><g><path d="M 6.359375 -8.578125 L 6.359375 -7.046875 L 2.59375 -7.046875 L 2.59375 -1.5625 L 7.21875 -1.5625 L 7.21875 0 L 0.875 0 L 0.875 -15.40625 L 7.21875 -15.40625 L 7.21875 -13.84375 L 2.59375 -13.84375 L 2.59375 -8.578125 Z M 6.359375 -8.578125 "/></g></g></g><g fill="#a6873a" fill-opacity="1"><g transform="translate(342.219158, 98.026153)"><g><path d="M 6.5625 -0.015625 L 4.90625 -0.015625 L 2.359375 -12.28125 L 2.359375 0 L 0.859375 0 L 0.859375 -15.40625 L 3.25 -15.40625 L 5.78125 -3.109375 L 8.234375 -15.40625 L 10.625 -15.40625 L 10.625 0 L 9 0 L 9 -12.390625 Z M 6.5625 -0.015625 "/></g></g></g><g fill="#a6873a" fill-opacity="1"><g transform="translate(355.703112, 98.026153)"><g/></g></g><g fill="#a6873a" fill-opacity="1"><g transform="translate(361.092501, 98.026153)"><g><path d="M 2.59375 -15.40625 L 2.59375 0 L 0.875 0 L 0.875 -15.40625 Z M 2.59375 -15.40625 "/></g></g></g><g fill="#a6873a" fill-opacity="1"><g transform="translate(366.547876, 98.026153)"><g><path d="M 6.5625 -0.015625 L 4.90625 -0.015625 L 2.359375 -12.28125 L 2.359375 0 L 0.859375 0 L 0.859375 -15.40625 L 3.25 -15.40625 L 5.78125 -3.109375 L 8.234375 -15.40625 L 10.625 -15.40625 L 10.625 0 L 9 0 L 9 -12.390625 Z M 6.5625 -0.015625 "/></g></g></g><g fill="#a6873a" fill-opacity="1"><g transform="translate(380.031831, 98.026153)"><g><path d="M 2.59375 -15.40625 L 2.59375 0 L 0.875 0 L 0.875 -15.40625 Z M 2.59375 -15.40625 "/></g></g></g><g fill="#a6873a" fill-opacity="1"><g transform="translate(385.487206, 98.026153)"><g><path d="M 4.203125 -15.546875 C 5.390625 -15.546875 6.265625 -15.191406 6.828125 -14.484375 C 7.390625 -13.785156 7.671875 -12.851562 7.671875 -11.6875 L 7.671875 -10.359375 L 6.046875 -10.359375 L 6.046875 -11.765625 C 6.046875 -12.472656 5.898438 -13.019531 5.609375 -13.40625 C 5.328125 -13.789062 4.875 -13.984375 4.25 -13.984375 C 3.632812 -13.984375 3.175781 -13.789062 2.875 -13.40625 C 2.582031 -13.019531 2.4375 -12.472656 2.4375 -11.765625 L 2.4375 -3.625 C 2.4375 -2.925781 2.582031 -2.378906 2.875 -1.984375 C 3.175781 -1.597656 3.632812 -1.40625 4.25 -1.40625 C 4.875 -1.40625 5.328125 -1.597656 5.609375 -1.984375 C 5.898438 -2.378906 6.046875 -2.925781 6.046875 -3.625 L 6.046875 -6.703125 L 4.46875 -6.703125 L 4.46875 -8.25 L 7.671875 -8.25 L 7.671875 -3.71875 C 7.671875 -2.539062 7.390625 -1.597656 6.828125 -0.890625 C 6.265625 -0.191406 5.390625 0.15625 4.203125 0.15625 C 3.023438 0.15625 2.15625 -0.191406 1.59375 -0.890625 C 1.03125 -1.597656 0.75 -2.539062 0.75 -3.71875 L 0.75 -11.6875 C 0.75 -12.269531 0.816406 -12.796875 0.953125 -13.265625 C 1.097656 -13.742188 1.3125 -14.148438 1.59375 -14.484375 C 1.882812 -14.828125 2.242188 -15.085938 2.671875 -15.265625 C 3.109375 -15.453125 3.617188 -15.546875 4.203125 -15.546875 Z M 4.203125 -15.546875 "/></g></g></g><g fill="#a6873a" fill-opacity="1"><g transform="translate(395.891704, 98.026153)"><g><path d="M 4.3125 -15.40625 C 5.53125 -15.40625 6.40625 -15.101562 6.9375 -14.5 C 7.476562 -13.894531 7.75 -13.019531 7.75 -11.875 L 7.75 -10.625 C 7.75 -9.769531 7.59375 -9.078125 7.28125 -8.546875 C 6.96875 -8.023438 6.484375 -7.660156 5.828125 -7.453125 C 6.535156 -7.253906 7.035156 -6.878906 7.328125 -6.328125 C 7.617188 -5.773438 7.765625 -5.082031 7.765625 -4.25 L 7.765625 -1.84375 C 7.765625 -1.507812 7.78125 -1.179688 7.8125 -0.859375 C 7.84375 -0.546875 7.929688 -0.257812 8.078125 0 L 6.34375 0 C 6.238281 -0.21875 6.160156 -0.453125 6.109375 -0.703125 C 6.066406 -0.960938 6.046875 -1.351562 6.046875 -1.875 L 6.046875 -4.296875 C 6.046875 -5.160156 5.851562 -5.753906 5.46875 -6.078125 C 5.082031 -6.410156 4.53125 -6.578125 3.8125 -6.578125 L 2.59375 -6.578125 L 2.59375 0 L 0.875 0 L 0.875 -15.40625 Z M 3.875 -8.140625 C 4.5625 -8.140625 5.09375 -8.28125 5.46875 -8.5625 C 5.851562 -8.851562 6.046875 -9.414062 6.046875 -10.25 L 6.046875 -11.71875 C 6.046875 -12.425781 5.910156 -12.957031 5.640625 -13.3125 C 5.367188 -13.664062 4.910156 -13.84375 4.265625 -13.84375 L 2.59375 -13.84375 L 2.59375 -8.140625 Z M 3.875 -8.140625 "/></g></g></g><g fill="#a6873a" fill-opacity="1"><g transform="translate(406.538154, 98.026153)"><g><path d="M 2.625 -3.109375 L 2.03125 0 L 0.4375 0 L 3.390625 -15.40625 L 5.875 -15.40625 L 8.828125 0 L 7.109375 0 L 6.515625 -3.109375 Z M 2.84375 -4.578125 L 6.265625 -4.578125 L 4.53125 -13.46875 Z M 2.84375 -4.578125 "/></g></g></g><g fill="#a6873a" fill-opacity="1"><g transform="translate(417.80049, 98.026153)"><g><path d="M 4.203125 -15.546875 C 5.390625 -15.546875 6.265625 -15.191406 6.828125 -14.484375 C 7.390625 -13.785156 7.671875 -12.851562 7.671875 -11.6875 L 7.671875 -10.296875 L 6.046875 -10.296875 L 6.046875 -11.765625 C 6.046875 -12.472656 5.898438 -13.019531 5.609375 -13.40625 C 5.328125 -13.789062 4.875 -13.984375 4.25 -13.984375 C 3.632812 -13.984375 3.175781 -13.789062 2.875 -13.40625 C 2.582031 -13.019531 2.4375 -12.472656 2.4375 -11.765625 L 2.4375 -3.625 C 2.4375 -2.925781 2.582031 -2.378906 2.875 -1.984375 C 3.175781 -1.597656 3.632812 -1.40625 4.25 -1.40625 C 4.875 -1.40625 5.328125 -1.597656 5.609375 -1.984375 C 5.898438 -2.378906 6.046875 -2.925781 6.046875 -3.625 L 6.046875 -5.625 L 7.671875 -5.625 L 7.671875 -3.71875 C 7.671875 -2.613281 7.414062 -1.710938 6.90625 -1.015625 C 6.40625 -0.328125 5.628906 0.0507812 4.578125 0.125 L 4.578125 0.8125 C 5.085938 0.8125 5.484375 0.910156 5.765625 1.109375 C 6.054688 1.304688 6.203125 1.582031 6.203125 1.9375 C 6.203125 2.375 6.019531 2.71875 5.65625 2.96875 C 5.289062 3.21875 4.773438 3.34375 4.109375 3.34375 C 3.460938 3.34375 2.960938 3.222656 2.609375 2.984375 C 2.265625 2.742188 2.09375 2.410156 2.09375 1.984375 L 2.09375 1.796875 L 3.21875 1.796875 L 3.21875 1.953125 C 3.21875 2.335938 3.515625 2.550781 4.109375 2.59375 C 4.742188 2.59375 5.0625 2.359375 5.0625 1.890625 C 5.0625 1.453125 4.703125 1.234375 3.984375 1.234375 L 3.78125 1.234375 L 3.78125 0.125 C 2.738281 0.0507812 1.972656 -0.332031 1.484375 -1.03125 C 0.992188 -1.738281 0.75 -2.632812 0.75 -3.71875 L 0.75 -11.6875 C 0.75 -12.269531 0.816406 -12.796875 0.953125 -13.265625 C 1.097656 -13.742188 1.3125 -14.148438 1.59375 -14.484375 C 1.882812 -14.828125 2.242188 -15.085938 2.671875 -15.265625 C 3.109375 -15.453125 3.617188 -15.546875 4.203125 -15.546875 Z M 4.203125 -15.546875 "/></g></g></g><g fill="#a6873a" fill-opacity="1"><g transform="translate(428.13899, 98.026153)"><g><path d="M 3.546875 -18.171875 C 3.765625 -18.171875 3.960938 -18.132812 4.140625 -18.0625 C 4.328125 -18 4.5 -17.921875 4.65625 -17.828125 C 4.8125 -17.742188 4.960938 -17.671875 5.109375 -17.609375 C 5.253906 -17.546875 5.40625 -17.515625 5.5625 -17.515625 C 5.757812 -17.523438 5.925781 -17.578125 6.0625 -17.671875 C 6.195312 -17.765625 6.328125 -17.929688 6.453125 -18.171875 L 7.296875 -17.578125 C 7.128906 -17.148438 6.910156 -16.832031 6.640625 -16.625 C 6.378906 -16.425781 6.078125 -16.328125 5.734375 -16.328125 C 5.515625 -16.328125 5.316406 -16.359375 5.140625 -16.421875 C 4.972656 -16.484375 4.8125 -16.554688 4.65625 -16.640625 C 4.5 -16.722656 4.347656 -16.796875 4.203125 -16.859375 C 4.054688 -16.929688 3.894531 -16.96875 3.71875 -16.96875 C 3.507812 -16.96875 3.332031 -16.914062 3.1875 -16.8125 C 3.039062 -16.71875 2.910156 -16.546875 2.796875 -16.296875 L 1.9375 -16.890625 C 2.113281 -17.347656 2.335938 -17.671875 2.609375 -17.859375 C 2.890625 -18.054688 3.203125 -18.160156 3.546875 -18.171875 Z M 2.625 -3.109375 L 2.03125 0 L 0.4375 0 L 3.390625 -15.40625 L 5.875 -15.40625 L 8.828125 0 L 7.109375 0 L 6.515625 -3.109375 Z M 2.84375 -4.578125 L 6.265625 -4.578125 L 4.53125 -13.46875 Z M 2.84375 -4.578125 "/></g></g></g><g fill="#a6873a" fill-opacity="1"><g transform="translate(439.401326, 98.026153)"><g><path d="M 0.75 -11.6875 C 0.75 -12.875 1.035156 -13.8125 1.609375 -14.5 C 2.191406 -15.195312 3.078125 -15.546875 4.265625 -15.546875 C 5.453125 -15.546875 6.335938 -15.195312 6.921875 -14.5 C 7.515625 -13.8125 7.8125 -12.875 7.8125 -11.6875 L 7.8125 -3.71875 C 7.8125 -2.539062 7.515625 -1.597656 6.921875 -0.890625 C 6.335938 -0.191406 5.453125 0.15625 4.265625 0.15625 C 3.078125 0.15625 2.191406 -0.191406 1.609375 -0.890625 C 1.035156 -1.597656 0.75 -2.539062 0.75 -3.71875 Z M 2.4375 -3.625 C 2.4375 -2.925781 2.585938 -2.378906 2.890625 -1.984375 C 3.191406 -1.597656 3.648438 -1.40625 4.265625 -1.40625 C 4.898438 -1.40625 5.363281 -1.597656 5.65625 -1.984375 C 5.945312 -2.378906 6.09375 -2.925781 6.09375 -3.625 L 6.09375 -11.765625 C 6.09375 -12.472656 5.945312 -13.019531 5.65625 -13.40625 C 5.363281 -13.789062 4.898438 -13.984375 4.265625 -13.984375 C 3.648438 -13.984375 3.191406 -13.789062 2.890625 -13.40625 C 2.585938 -13.019531 2.4375 -12.472656 2.4375 -11.765625 Z M 2.4375 -3.625 "/></g></g></g><g fill="#383325" fill-opacity="1"><g transform="translate(201.372893, 67.211111)"><g><path d="M 18.253906 -5.117188 C 17.84375 -4.351562 15.527344 -1.03125 10.898438 -1.03125 C 6.28125 -1.03125 2.523438 -5.339844 2.523438 -10.632812 C 2.523438 -15.941406 6.28125 -20.246094 10.898438 -20.246094 C 14.597656 -20.246094 16.882812 -18.300781 16.484375 -16.085938 L 18.816406 -18.136719 C 17.695312 -18.625 15.511719 -21.144531 11.03125 -21.144531 C 5.277344 -21.144531 0.605469 -16.425781 0.605469 -10.601562 C 0.605469 -4.792969 5.277344 -0.0585938 11.03125 -0.0585938 C 15.378906 -0.0585938 18.109375 -3.347656 18.253906 -5.117188 Z M 18.253906 -5.117188 "/></g></g></g><g fill="#383325" fill-opacity="1"><g transform="translate(221.485955, 67.211111)"><g><path d="M 15.335938 -2.257812 L 11.488281 -8.007812 C 17.3125 -8.875 18.992188 -11.457031 18.992188 -14.40625 C 18.992188 -18.726562 15.1875 -21.128906 10.394531 -21.128906 L 0.605469 -21.144531 C 0.605469 -21.144531 1.738281 -20.953125 1.738281 -18.890625 L 1.738281 -2.257812 C 1.738281 -0.175781 0.605469 0 0.605469 0 L 4.6875 0 C 4.6875 0 3.570312 -0.148438 3.554688 -2.257812 L 3.554688 -7.695312 L 6.679688 -7.695312 C 7.816406 -7.695312 8.847656 -7.726562 9.792969 -7.816406 L 13.507812 -2.257812 C 14.90625 -0.148438 13.890625 0 13.890625 0 L 17.976562 0 C 17.976562 0 16.734375 -0.175781 15.335938 -2.257812 Z M 6.679688 -8.507812 L 3.554688 -8.507812 L 3.554688 -18.875 C 3.554688 -19.464844 3.65625 -20.214844 4.585938 -20.214844 L 10.394531 -20.214844 C 14.171875 -20.214844 16.957031 -17.796875 16.957031 -14.496094 C 16.957031 -11.25 14.378906 -8.597656 6.679688 -8.507812 Z M 6.679688 -8.507812 "/></g></g></g><g fill="#383325" fill-opacity="1"><g transform="translate(241.775951, 67.211111)"><g><path d="M 0.605469 -21.144531 C 0.605469 -21.144531 1.726562 -20.953125 1.726562 -18.890625 L 1.726562 -2.257812 C 1.726562 -0.175781 0.605469 0 0.605469 0 L 4.6875 0 C 4.6875 0 3.570312 -0.148438 3.554688 -2.257812 L 3.554688 -18.875 C 3.570312 -20.996094 4.6875 -21.144531 4.6875 -21.144531 Z M 0.605469 -21.144531 "/></g></g></g><g fill="#383325" fill-opacity="1"><g transform="translate(247.749097, 67.211111)"><g><path d="M 16.515625 -5.898438 C 16.425781 -3.90625 14.582031 -0.914062 9.4375 -0.914062 C 4.289062 -0.914062 2.859375 -6.855469 2.859375 -6.855469 L 0.605469 -5.191406 C 0.605469 -5.191406 2.773438 0 9.394531 0 C 16.734375 0 18.578125 -3.390625 18.683594 -5.925781 C 18.960938 -12.667969 3.289062 -10.972656 3.507812 -16.132812 C 3.613281 -18.757812 5.796875 -20.40625 9.671875 -20.40625 C 14.289062 -20.40625 15.292969 -17.148438 15.292969 -17.148438 L 16.972656 -19.109375 C 16.972656 -19.109375 13.917969 -21.144531 9.703125 -21.144531 C 5.484375 -21.144531 2.003906 -19.214844 1.859375 -15.910156 C 1.59375 -9.480469 16.734375 -11.441406 16.515625 -5.898438 Z M 16.515625 -5.898438 "/></g></g></g><g fill="#383325" fill-opacity="1"><g transform="translate(268.009602, 67.211111)"><g><path d="M 0.605469 -21.128906 L 0.605469 -17.695312 C 0.605469 -17.695312 1.371094 -20.214844 5.734375 -20.214844 L 7.476562 -20.214844 C 7.59375 -19.890625 7.683594 -19.464844 7.683594 -18.890625 L 7.683594 -2.257812 C 7.683594 -0.175781 6.5625 0 6.5625 0 L 10.644531 0 C 10.644531 0 9.511719 -0.148438 9.511719 -2.257812 L 9.511719 -18.875 C 9.511719 -19.464844 9.597656 -19.890625 9.71875 -20.214844 L 11.488281 -20.214844 C 15.867188 -20.214844 16.617188 -17.695312 16.617188 -17.695312 L 16.617188 -21.128906 Z M 0.605469 -21.128906 "/></g></g></g><g fill="#383325" fill-opacity="1"><g transform="translate(285.940484, 67.211111)"><g><path d="M 0.605469 -21.144531 C 0.605469 -21.144531 1.726562 -20.953125 1.726562 -18.890625 L 1.726562 -2.257812 C 1.726562 -0.175781 0.605469 0 0.605469 0 L 4.6875 0 C 4.6875 0 3.570312 -0.148438 3.554688 -2.257812 L 3.554688 -18.875 C 3.570312 -20.996094 4.6875 -21.144531 4.6875 -21.144531 Z M 0.605469 -21.144531 "/></g></g></g><g fill="#383325" fill-opacity="1"><g transform="translate(291.913626, 67.211111)"><g><path d="M 16.972656 0 L 21.058594 0 C 21.058594 0 19.878906 -0.148438 19.023438 -2.257812 L 11.515625 -21.144531 L 10.160156 -21.144531 L 2.640625 -2.257812 C 1.785156 -0.148438 0.605469 0 0.605469 0 L 3.714844 0 C 3.714844 0 2.652344 -0.175781 3.496094 -2.257812 L 5.796875 -8.023438 L 14.894531 -8.023438 L 17.195312 -2.257812 C 18.035156 -0.175781 16.972656 0 16.972656 0 Z M 6.015625 -8.566406 C 6.015625 -8.566406 10.277344 -19.257812 10.320312 -19.421875 C 10.394531 -19.257812 14.671875 -8.566406 14.671875 -8.566406 Z M 6.015625 -8.566406 "/></g></g></g><g fill="#383325" fill-opacity="1"><g transform="translate(314.253097, 67.211111)"><g><path d="M 5.117188 -21.144531 L 0.605469 -21.144531 C 0.605469 -21.144531 1.726562 -20.953125 1.726562 -18.890625 L 1.726562 -2.257812 C 1.726562 -0.175781 0.605469 0 0.605469 0 L 3.714844 0 C 3.714844 0 2.59375 -0.148438 2.582031 -2.257812 L 2.582031 -18.875 C 2.582031 -19.300781 2.640625 -19.65625 2.714844 -19.9375 C 2.933594 -19.65625 3.171875 -19.300781 3.40625 -18.890625 L 13.847656 0 L 14.703125 0 L 14.703125 -18.875 C 14.714844 -20.996094 15.835938 -21.144531 15.835938 -21.144531 L 12.726562 -21.144531 C 12.726562 -21.144531 13.859375 -20.953125 13.859375 -18.890625 L 13.859375 -3.273438 L 5.234375 -18.875 C 4.070312 -20.996094 5.117188 -21.144531 5.117188 -21.144531 Z M 5.117188 -21.144531 "/></g></g></g><g fill="#383325" fill-opacity="1"><g transform="translate(331.402524, 67.211111)"><g><path d="M 10.25 -10.46875 L 10.25 -14.90625 C 10.25 -14.90625 9.703125 -12.917969 5.101562 -12.917969 L 3.554688 -12.917969 L 3.554688 -18.875 C 3.554688 -19.464844 3.539062 -20.214844 4.511719 -20.214844 C 4.511719 -20.214844 5.589844 -20.214844 9.40625 -20.214844 C 14.804688 -20.214844 15.453125 -18.226562 15.453125 -18.226562 L 15.453125 -21.128906 L 0.605469 -21.144531 C 0.605469 -21.144531 1.726562 -20.953125 1.726562 -18.890625 L 1.726562 -2.257812 C 1.726562 -0.175781 0.605469 0 0.605469 0 L 15.453125 0 L 15.453125 -2.90625 C 15.453125 -2.90625 14.804688 -0.914062 9.40625 -0.914062 C 5.589844 -0.914062 4.511719 -0.914062 4.511719 -0.914062 C 3.613281 -0.914062 3.554688 -1.667969 3.554688 -2.257812 L 3.554688 -12.445312 L 5.101562 -12.460938 C 9.703125 -12.460938 10.25 -10.46875 10.25 -10.46875 Z M 10.25 -10.46875 "/></g></g></g><g fill="#383325" fill-opacity="1"><g transform="translate(348.168596, 67.211111)"><g/></g></g><g fill="#383325" fill-opacity="1"><g transform="translate(356.441871, 67.211111)"><g><path d="M 15.335938 -2.257812 L 11.488281 -8.007812 C 17.3125 -8.875 18.992188 -11.457031 18.992188 -14.40625 C 18.992188 -18.726562 15.1875 -21.128906 10.394531 -21.128906 L 0.605469 -21.144531 C 0.605469 -21.144531 1.738281 -20.953125 1.738281 -18.890625 L 1.738281 -2.257812 C 1.738281 -0.175781 0.605469 0 0.605469 0 L 4.6875 0 C 4.6875 0 3.570312 -0.148438 3.554688 -2.257812 L 3.554688 -7.695312 L 6.679688 -7.695312 C 7.816406 -7.695312 8.847656 -7.726562 9.792969 -7.816406 L 13.507812 -2.257812 C 14.90625 -0.148438 13.890625 0 13.890625 0 L 17.976562 0 C 17.976562 0 16.734375 -0.175781 15.335938 -2.257812 Z M 6.679688 -8.507812 L 3.554688 -8.507812 L 3.554688 -18.875 C 3.554688 -19.464844 3.65625 -20.214844 4.585938 -20.214844 L 10.394531 -20.214844 C 14.171875 -20.214844 16.957031 -17.796875 16.957031 -14.496094 C 16.957031 -11.25 14.378906 -8.597656 6.679688 -8.507812 Z M 6.679688 -8.507812 "/></g></g></g><g fill="#383325" fill-opacity="1"><g transform="translate(376.731873, 67.211111)"><g><path d="M 11.03125 -21.144531 C 5.277344 -21.144531 0.605469 -16.425781 0.605469 -10.601562 C 0.605469 -4.792969 5.277344 -0.0585938 11.03125 -0.0585938 C 16.796875 -0.0585938 21.453125 -4.792969 21.453125 -10.601562 C 21.453125 -16.425781 16.796875 -21.144531 11.03125 -21.144531 Z M 11.03125 -0.929688 C 6.3125 -0.929688 2.476562 -5.25 2.476562 -10.574219 C 2.476562 -15.894531 6.3125 -20.230469 11.03125 -20.230469 C 15.75 -20.230469 19.582031 -15.894531 19.582031 -10.574219 C 19.582031 -5.25 15.75 -0.929688 11.03125 -0.929688 Z M 11.03125 -0.929688 "/></g></g></g><g fill="#383325" fill-opacity="1"><g transform="translate(399.498933, 67.211111)"><g><path d="M 18.253906 -5.117188 C 17.84375 -4.351562 15.527344 -1.03125 10.898438 -1.03125 C 6.28125 -1.03125 2.523438 -5.339844 2.523438 -10.632812 C 2.523438 -15.941406 6.28125 -20.246094 10.898438 -20.246094 C 14.597656 -20.246094 16.882812 -18.300781 16.484375 -16.085938 L 18.816406 -18.136719 C 17.695312 -18.625 15.511719 -21.144531 11.03125 -21.144531 C 5.277344 -21.144531 0.605469 -16.425781 0.605469 -10.601562 C 0.605469 -4.792969 5.277344 -0.0585938 11.03125 -0.0585938 C 15.378906 -0.0585938 18.109375 -3.347656 18.253906 -5.117188 Z M 18.253906 -5.117188 "/></g></g></g><g fill="#383325" fill-opacity="1"><g transform="translate(419.611992, 67.211111)"><g><path d="M 3.554688 -8.023438 L 14.539062 -8.023438 L 14.539062 -2.257812 C 14.539062 -0.175781 13.402344 0 13.402344 0 L 17.488281 0 C 17.488281 0 16.367188 -0.148438 16.367188 -2.257812 L 16.367188 -18.875 C 16.367188 -20.996094 17.488281 -21.144531 17.488281 -21.144531 L 13.402344 -21.144531 C 13.402344 -21.144531 14.539062 -20.953125 14.539062 -18.890625 L 14.539062 -8.566406 L 3.554688 -8.566406 L 3.554688 -18.875 C 3.570312 -20.996094 4.6875 -21.144531 4.6875 -21.144531 L 0.605469 -21.144531 C 0.605469 -21.144531 1.726562 -20.953125 1.726562 -18.890625 L 1.726562 -2.257812 C 1.726562 -0.175781 0.605469 0 0.605469 0 L 4.6875 0 C 4.6875 0 3.570312 -0.148438 3.554688 -2.257812 Z M 3.554688 -8.023438 "/></g></g></g><g fill="#383325" fill-opacity="1"><g transform="translate(438.398052, 67.211111)"><g><path d="M 16.972656 0 L 21.058594 0 C 21.058594 0 19.878906 -0.148438 19.023438 -2.257812 L 11.515625 -21.144531 L 10.160156 -21.144531 L 2.640625 -2.257812 C 1.785156 -0.148438 0.605469 0 0.605469 0 L 3.714844 0 C 3.714844 0 2.652344 -0.175781 3.496094 -2.257812 L 5.796875 -8.023438 L 14.894531 -8.023438 L 17.195312 -2.257812 C 18.035156 -0.175781 16.972656 0 16.972656 0 Z M 6.015625 -8.566406 C 6.015625 -8.566406 10.277344 -19.257812 10.320312 -19.421875 C 10.394531 -19.257812 14.671875 -8.566406 14.671875 -8.566406 Z M 6.015625 -8.566406 "/></g></g></g></svg>