<svg xmlns="http://www.w3.org/2000/svg" xmlns:xlink="http://www.w3.org/1999/xlink" width="800" zoomAndPan="magnify" viewBox="0 0 600 149.999998" height="200" preserveAspectRatio="xMidYMid meet" version="1.0"><defs><g/><clipPath id="a50884faf7"><path d="M 115 111 L 116 111 L 116 112 L 115 112 Z M 115 111 " clip-rule="nonzero"/></clipPath><clipPath id="7d089949da"><path d="M 72.398438 57.417969 L 231.515625 78.445312 L 222.96875 143.132812 L 63.851562 122.105469 Z M 72.398438 57.417969 " clip-rule="nonzero"/></clipPath><clipPath id="e65ea25e95"><path d="M 72.398438 57.417969 L 231.515625 78.445312 L 222.96875 143.132812 L 63.851562 122.105469 Z M 72.398438 57.417969 " clip-rule="nonzero"/></clipPath><clipPath id="6af93e15a3"><path d="M 97 109 L 98 109 L 98 110 L 97 110 Z M 97 109 " clip-rule="nonzero"/></clipPath><clipPath id="16f7effa15"><path d="M 72.398438 57.417969 L 231.515625 78.445312 L 222.96875 143.132812 L 63.851562 122.105469 Z M 72.398438 57.417969 " clip-rule="nonzero"/></clipPath><clipPath id="adb0e7cc68"><path d="M 72.398438 57.417969 L 231.515625 78.445312 L 222.96875 143.132812 L 63.851562 122.105469 Z M 72.398438 57.417969 " clip-rule="nonzero"/></clipPath><clipPath id="4da001d994"><path d="M 197 74 L 231 74 L 231 109 L 197 109 Z M 197 74 " clip-rule="nonzero"/></clipPath><clipPath id="5bc0edc969"><path d="M 72.398438 57.417969 L 231.515625 78.445312 L 222.96875 143.132812 L 63.851562 122.105469 Z M 72.398438 57.417969 " clip-rule="nonzero"/></clipPath><clipPath id="5b4af97572"><path d="M 72.398438 57.417969 L 231.515625 78.445312 L 222.96875 143.132812 L 63.851562 122.105469 Z M 72.398438 57.417969 " clip-rule="nonzero"/></clipPath><clipPath id="178b9d2101"><path d="M 201.542969 74.484375 L 231.695312 78.46875 L 227.234375 112.226562 L 197.082031 108.242188 Z M 201.542969 74.484375 " clip-rule="nonzero"/></clipPath><clipPath id="28585a4f66"><path d="M 201.542969 74.484375 L 231.53125 78.445312 L 227.070312 112.207031 L 197.082031 108.242188 Z M 201.542969 74.484375 " clip-rule="nonzero"/></clipPath><clipPath id="0cebbb893e"><path d="M 67 84 L 149 84 L 149 116 L 67 116 Z M 67 84 " clip-rule="nonzero"/></clipPath><clipPath id="b5763f02f9"><path d="M 72.398438 57.417969 L 231.515625 78.445312 L 222.96875 143.132812 L 63.851562 122.105469 Z M 72.398438 57.417969 " clip-rule="nonzero"/></clipPath><clipPath id="7aa4b1231f"><path d="M 72.398438 57.417969 L 231.515625 78.445312 L 222.96875 143.132812 L 63.851562 122.105469 Z M 72.398438 57.417969 " clip-rule="nonzero"/></clipPath><clipPath id="cb16c07ba9"><path d="M 197 74 L 231 74 L 231 109 L 197 109 Z M 197 74 " clip-rule="nonzero"/></clipPath><clipPath id="9a9280a1fb"><path d="M 72.398438 57.417969 L 231.515625 78.445312 L 222.96875 143.132812 L 63.851562 122.105469 Z M 72.398438 57.417969 " clip-rule="nonzero"/></clipPath><clipPath id="a0ea738400"><path d="M 72.398438 57.417969 L 231.515625 78.445312 L 222.96875 143.132812 L 63.851562 122.105469 Z M 72.398438 57.417969 " clip-rule="nonzero"/></clipPath><clipPath id="f7d0549902"><path d="M 201.542969 74.484375 L 231.695312 78.46875 L 227.234375 112.226562 L 197.082031 108.242188 Z M 201.542969 74.484375 " clip-rule="nonzero"/></clipPath><clipPath id="f6e9ec23e7"><path d="M 201.542969 74.484375 L 231.53125 78.445312 L 227.070312 112.207031 L 197.082031 108.242188 Z M 201.542969 74.484375 " clip-rule="nonzero"/></clipPath><clipPath id="2a126945b1"><path d="M 67 84 L 149 84 L 149 116 L 67 116 Z M 67 84 " clip-rule="nonzero"/></clipPath><clipPath id="b6f71b01f6"><path d="M 72.398438 57.417969 L 231.515625 78.445312 L 222.96875 143.132812 L 63.851562 122.105469 Z M 72.398438 57.417969 " clip-rule="nonzero"/></clipPath><clipPath id="93a0556519"><path d="M 72.398438 57.417969 L 231.515625 78.445312 L 222.96875 143.132812 L 63.851562 122.105469 Z M 72.398438 57.417969 " clip-rule="nonzero"/></clipPath><clipPath id="9f97af9d3c"><path d="M 172 136 L 173 136 L 173 137 L 172 137 Z M 172 136 " clip-rule="nonzero"/></clipPath><clipPath id="146a9a0330"><path d="M 72.398438 57.417969 L 231.515625 78.445312 L 222.96875 143.132812 L 63.851562 122.105469 Z M 72.398438 57.417969 " clip-rule="nonzero"/></clipPath><clipPath id="897fa69c2d"><path d="M 72.398438 57.417969 L 231.515625 78.445312 L 222.96875 143.132812 L 63.851562 122.105469 Z M 72.398438 57.417969 " clip-rule="nonzero"/></clipPath><clipPath id="7a8822af0e"><path d="M 172.402344 135.996094 L 172.730469 136.042969 L 172.6875 136.367188 L 172.359375 136.324219 Z M 172.402344 135.996094 " clip-rule="nonzero"/></clipPath><clipPath id="1c4d0b3b85"><path d="M 172.402344 135.996094 L 172.730469 136.042969 L 172.714844 136.183594 L 172.386719 136.140625 Z M 172.402344 135.996094 " clip-rule="nonzero"/></clipPath><clipPath id="100c813f1c"><path d="M 147 88 L 196 88 L 196 134 L 147 134 Z M 147 88 " clip-rule="nonzero"/></clipPath><clipPath id="b4edafbc2d"><path d="M 72.398438 57.417969 L 231.515625 78.445312 L 222.96875 143.132812 L 63.851562 122.105469 Z M 72.398438 57.417969 " clip-rule="nonzero"/></clipPath><clipPath id="ef5b71948d"><path d="M 72.398438 57.417969 L 231.515625 78.445312 L 222.96875 143.132812 L 63.851562 122.105469 Z M 72.398438 57.417969 " clip-rule="nonzero"/></clipPath><clipPath id="86945ec774"><path d="M 178 99 L 183 99 L 183 105 L 178 105 Z M 178 99 " clip-rule="nonzero"/></clipPath><clipPath id="fa36268f6e"><path d="M 179.589844 98.804688 L 183.980469 103.636719 L 181.566406 105.832031 L 177.171875 101 Z M 179.589844 98.804688 " clip-rule="nonzero"/></clipPath><clipPath id="7f9096fefb"><path d="M 182.882812 102.429688 L 180.6875 100.011719 L 178.378906 99.902344 L 178.269531 102.210938 L 180.46875 104.625 L 182.773438 104.734375 Z M 182.882812 102.429688 " clip-rule="nonzero"/></clipPath><clipPath id="09f49da117"><path d="M 281.339844 85.128906 L 284.785156 85.128906 L 284.785156 88.570312 L 281.339844 88.570312 Z M 281.339844 85.128906 " clip-rule="nonzero"/></clipPath><clipPath id="268bd421f5"><path d="M 283.0625 85.128906 C 282.113281 85.128906 281.339844 85.898438 281.339844 86.847656 C 281.339844 87.800781 282.113281 88.570312 283.0625 88.570312 C 284.015625 88.570312 284.785156 87.800781 284.785156 86.847656 C 284.785156 85.898438 284.015625 85.128906 283.0625 85.128906 Z M 283.0625 85.128906 " clip-rule="nonzero"/></clipPath><clipPath id="1945fdaf6b"><path d="M 487.550781 85.128906 L 490.992188 85.128906 L 490.992188 88.570312 L 487.550781 88.570312 Z M 487.550781 85.128906 " clip-rule="nonzero"/></clipPath><clipPath id="9a3ef091c3"><path d="M 489.273438 85.128906 C 488.320312 85.128906 487.550781 85.898438 487.550781 86.847656 C 487.550781 87.800781 488.320312 88.570312 489.273438 88.570312 C 490.222656 88.570312 490.992188 87.800781 490.992188 86.847656 C 490.992188 85.898438 490.222656 85.128906 489.273438 85.128906 Z M 489.273438 85.128906 " clip-rule="nonzero"/></clipPath></defs><path stroke-linecap="round" transform="matrix(0, -0.75, 0.75, 0, 255.085977, 113.039057)" fill="none" stroke-linejoin="miter" d="M 1.999993 1.999947 L 99.453123 1.999947 " stroke="#3a2620" stroke-width="4" stroke-opacity="1" stroke-miterlimit="4"/><g fill="#3a2620" fill-opacity="1"><g transform="translate(84.983906, 75.433195)"><g><path d="M 35.367188 1.402344 C 44.332031 1.402344 50.496094 0 56.097656 -1.820312 L 56.097656 -11.207031 L 55.328125 -11.207031 C 55.328125 -11.207031 50.914062 0.558594 35.367188 0.558594 C 21.851562 0.558594 10.503906 -14.566406 10.503906 -35.015625 C 10.503906 -55.46875 20.871094 -70.59375 35.367188 -70.59375 C 47.0625 -70.59375 52.738281 -65.621094 52.738281 -57.289062 C 52.738281 -47.0625 33.054688 -42.929688 33.054688 -30.605469 C 33.054688 -27.382812 35.367188 -23.25 39.148438 -24.09375 C 37.75 -25.28125 37.046875 -26.472656 37.046875 -28.644531 C 37.046875 -36.980469 56.867188 -42.160156 56.867188 -56.726562 C 56.867188 -63.101562 51.40625 -71.4375 35.367188 -71.4375 C 17.929688 -71.4375 4.203125 -56.027344 4.203125 -35.015625 C 4.203125 -14.007812 17.929688 1.402344 35.367188 1.402344 Z M 35.367188 1.402344 "/></g></g></g><g fill="#3a2620" fill-opacity="1"><g transform="translate(128.835861, 104.900199)"><g><path d="M 1.859375 0 L 18.539062 0 L 18.539062 -0.621094 C 13.207031 -0.621094 12.832031 -5.023438 12.832031 -17.234375 L 12.832031 -60.386719 C 16.617188 -61.75 19.589844 -62.371094 24.179688 -62.371094 C 35.710938 -62.371094 42.964844 -56.046875 42.964844 -45.753906 C 42.964844 -38.316406 37.941406 -30.6875 30.191406 -30.6875 C 24.425781 -30.6875 21.574219 -34.222656 17.917969 -34.222656 C 16.800781 -34.222656 15.746094 -33.601562 15.746094 -32.113281 C 15.746094 -27.898438 22.320312 -27.652344 28.332031 -18.597656 C 38.128906 -3.90625 39.863281 0 42.714844 0 L 52.203125 0 L 52.203125 -0.621094 C 45.132812 -0.621094 39.367188 -11.65625 34.472656 -19.28125 C 29.449219 -27.09375 16.367188 -27.960938 16.367188 -31.992188 C 16.367188 -33.417969 17.421875 -33.601562 18.164062 -33.601562 C 20.769531 -33.601562 24.738281 -29.636719 30.566406 -29.636719 C 41.351562 -29.636719 48.296875 -37.324219 48.296875 -45.816406 C 48.296875 -55.921875 40.917969 -63.238281 27.714844 -63.238281 C 20.519531 -63.238281 16.121094 -62 9.300781 -62 L 1.859375 -62 L 1.859375 -61.378906 C 7.191406 -61.378906 7.5625 -56.976562 7.5625 -44.761719 L 7.5625 -17.234375 C 7.5625 -5.023438 7.191406 -0.621094 1.859375 -0.621094 Z M 1.859375 0 "/></g></g></g><g clip-path="url(#a50884faf7)"><g clip-path="url(#7d089949da)"><g clip-path="url(#e65ea25e95)"><path fill="#3a2620" d="M 115.519531 111.324219 L 115.523438 111.324219 C 115.523438 111.316406 115.523438 111.304688 115.523438 111.292969 L 115.519531 111.292969 C 115.519531 111.304688 115.519531 111.316406 115.519531 111.324219 " fill-opacity="1" fill-rule="nonzero"/></g></g></g><g clip-path="url(#6af93e15a3)"><g clip-path="url(#16f7effa15)"><g clip-path="url(#adb0e7cc68)"><path fill="#3a2620" d="M 97.167969 109.097656 C 97.167969 109.101562 97.167969 109.105469 97.167969 109.105469 L 97.171875 109.101562 L 97.167969 109.097656 " fill-opacity="1" fill-rule="nonzero"/></g></g></g><g clip-path="url(#4da001d994)"><g clip-path="url(#5bc0edc969)"><g clip-path="url(#5b4af97572)"><g clip-path="url(#178b9d2101)"><g clip-path="url(#28585a4f66)"><path fill="#3a2620" d="M 197.835938 104.121094 C 197.839844 104.128906 197.847656 104.132812 197.851562 104.140625 C 197.90625 104.230469 197.945312 104.308594 198.027344 104.40625 C 198.027344 104.40625 198.027344 104.40625 198.027344 104.410156 C 198.257812 104.820312 198.3125 105.222656 198.359375 105.609375 C 198.453125 106.355469 198.296875 107.042969 198.007812 107.679688 C 197.957031 107.789062 197.886719 107.890625 197.828125 107.996094 C 197.824219 108.003906 197.820312 108.007812 197.820312 108.011719 C 197.832031 108.007812 197.84375 108.007812 197.855469 108.003906 C 198.144531 107.929688 198.429688 107.851562 198.714844 107.773438 C 198.714844 107.773438 198.714844 107.773438 198.71875 107.773438 C 199.597656 107.535156 200.476562 107.289062 201.355469 107.03125 C 203.613281 106.375 205.859375 105.660156 208.089844 104.875 C 210.402344 104.046875 212.699219 103.160156 214.957031 102.140625 C 217.210938 101.125 219.4375 100.011719 221.582031 98.695312 C 222.652344 98.035156 223.707031 97.328125 224.71875 96.539062 C 225.730469 95.746094 226.707031 94.882812 227.597656 93.875 C 228.042969 93.375 228.460938 92.832031 228.835938 92.246094 C 229.210938 91.65625 229.546875 91.015625 229.792969 90.316406 C 230.039062 89.625 230.199219 88.867188 230.222656 88.097656 C 230.226562 87.90625 230.222656 87.710938 230.210938 87.519531 L 230.199219 87.375 L 230.183594 87.214844 L 230.152344 86.945312 C 230.089844 86.558594 230.003906 86.1875 229.878906 85.828125 C 229.640625 85.105469 229.285156 84.449219 228.871094 83.867188 C 228.457031 83.28125 227.984375 82.773438 227.488281 82.3125 C 226.492188 81.398438 225.402344 80.679688 224.285156 80.066406 C 222.050781 78.84375 219.703125 78 217.34375 77.308594 C 214.980469 76.621094 212.589844 76.113281 210.1875 75.691406 C 207.789062 75.28125 205.375 74.96875 202.957031 74.753906 L 202.90625 75.101562 C 205.269531 75.625 207.617188 76.179688 209.9375 76.824219 C 212.257812 77.453125 214.546875 78.179688 216.773438 79.023438 C 217.882812 79.445312 218.976562 79.898438 220.039062 80.40625 C 221.101562 80.910156 222.132812 81.457031 223.09375 82.078125 C 224.054688 82.695312 224.957031 83.378906 225.695312 84.152344 C 226.429688 84.925781 227 85.777344 227.230469 86.652344 C 227.289062 86.867188 227.328125 87.089844 227.347656 87.300781 L 227.359375 87.484375 L 227.363281 87.632812 C 227.363281 87.742188 227.355469 87.851562 227.347656 87.960938 C 227.3125 88.394531 227.199219 88.835938 227.019531 89.269531 C 226.660156 90.144531 226.03125 90.984375 225.285156 91.757812 C 224.539062 92.535156 223.671875 93.25 222.75 93.90625 C 221.824219 94.566406 220.851562 95.183594 219.839844 95.753906 C 217.820312 96.898438 215.6875 97.902344 213.511719 98.816406 C 211.332031 99.722656 209.109375 100.566406 206.855469 101.332031 C 205.726562 101.710938 204.597656 102.09375 203.457031 102.449219 C 202.816406 102.65625 202.167969 102.851562 201.519531 103.046875 C 201.023438 103.195312 200.527344 103.34375 200.03125 103.492188 C 199.359375 103.691406 198.683594 103.882812 198.007812 104.074219 C 198.003906 104.078125 197.996094 104.078125 197.992188 104.078125 C 197.941406 104.09375 197.886719 104.109375 197.835938 104.121094 " fill-opacity="1" fill-rule="nonzero"/></g></g></g></g></g><g clip-path="url(#0cebbb893e)"><g clip-path="url(#b5763f02f9)"><g clip-path="url(#7aa4b1231f)"><path fill="#3a2620" d="M 67.144531 99.9375 C 67.117188 100.703125 67.226562 101.476562 67.457031 102.199219 C 67.691406 102.921875 68.039062 103.585938 68.441406 104.179688 C 69.261719 105.367188 70.277344 106.296875 71.335938 107.082031 C 72.402344 107.867188 73.519531 108.511719 74.652344 109.089844 C 75.789062 109.664062 76.949219 110.152344 78.117188 110.597656 C 80.457031 111.488281 82.839844 112.179688 85.238281 112.75 C 86.4375 113.03125 87.640625 113.285156 88.847656 113.507812 C 90.050781 113.734375 91.261719 113.933594 92.472656 114.105469 C 94.367188 114.382812 96.261719 114.601562 98.15625 114.773438 C 99.386719 114.886719 100.617188 114.980469 101.84375 115.0625 C 103.578125 115.175781 105.3125 115.261719 107.046875 115.328125 C 109.949219 115.4375 112.847656 115.496094 115.742188 115.523438 C 116.917969 115.535156 118.089844 115.542969 119.265625 115.546875 C 120.046875 115.550781 120.824219 115.554688 121.605469 115.554688 C 126.453125 115.558594 131.296875 115.507812 136.140625 115.398438 C 139.375 115.320312 142.640625 115.230469 145.878906 115.109375 C 146.828125 115.074219 147.710938 115.023438 148.753906 114.992188 L 148.753906 114.984375 L 148.867188 114.5 L 148.035156 113.28125 C 147.386719 113.289062 146.691406 113.394531 146.117188 113.46875 L 146.117188 113.460938 C 142.8125 113.792969 139.449219 114.050781 136.121094 114.21875 C 131.300781 114.464844 126.453125 114.550781 121.625 114.421875 C 121.460938 114.417969 121.292969 114.414062 121.128906 114.410156 C 120.957031 114.402344 120.78125 114.398438 120.609375 114.394531 C 120.4375 114.390625 120.265625 114.382812 120.09375 114.378906 C 120.015625 114.375 119.941406 114.371094 119.863281 114.367188 C 119.746094 114.363281 119.660156 114.363281 119.546875 114.359375 C 119.429688 114.351562 119.320312 114.347656 119.226562 114.347656 C 119.039062 114.332031 119.027344 114.339844 118.945312 114.332031 C 118.742188 114.324219 118.519531 114.316406 118.3125 114.304688 C 118.3125 114.304688 118.300781 114.304688 118.296875 114.304688 C 118.007812 114.289062 117.707031 114.277344 117.410156 114.257812 C 117.117188 114.242188 116.824219 114.203125 116.53125 114.1875 C 116.238281 114.167969 115.941406 114.148438 115.648438 114.109375 L 115.644531 114.109375 C 112.808594 114.019531 110.003906 113.6875 107.199219 113.363281 C 105.222656 113.140625 103.257812 112.851562 101.289062 112.589844 L 101.285156 112.589844 C 100.054688 112.425781 98.824219 112.265625 97.605469 112.007812 L 97.589844 112.007812 C 96.035156 111.800781 94.496094 111.492188 92.960938 111.199219 C 92.375 111.085938 91.789062 110.980469 91.203125 110.859375 C 90.621094 110.738281 90.035156 110.625 89.453125 110.492188 C 88.292969 110.238281 87.132812 109.980469 85.980469 109.6875 C 83.679688 109.109375 81.40625 108.464844 79.210938 107.667969 C 78.113281 107.269531 77.042969 106.824219 76.007812 106.332031 C 74.976562 105.839844 73.980469 105.289062 73.082031 104.660156 C 72.1875 104.03125 71.375 103.320312 70.792969 102.53125 C 70.214844 101.734375 69.886719 100.886719 69.878906 99.996094 C 69.867188 99.105469 70.199219 98.167969 70.738281 97.273438 C 71.28125 96.375 72.027344 95.535156 72.84375 94.75 C 73.667969 93.964844 74.578125 93.242188 75.53125 92.5625 C 76.480469 91.878906 77.476562 91.242188 78.496094 90.632812 C 80.535156 89.414062 82.675781 88.324219 84.84375 87.292969 C 87.019531 86.269531 89.234375 85.308594 91.472656 84.378906 L 91.359375 84.046875 C 89.007812 84.648438 86.675781 85.34375 84.375 86.15625 C 82.078125 86.964844 79.808594 87.886719 77.597656 88.976562 C 75.394531 90.078125 73.230469 91.332031 71.265625 92.976562 C 70.285156 93.808594 69.355469 94.742188 68.578125 95.878906 C 68.195312 96.445312 67.851562 97.066406 67.59375 97.75 C 67.339844 98.429688 67.175781 99.171875 67.144531 99.9375 " fill-opacity="1" fill-rule="nonzero"/></g></g></g><g clip-path="url(#cb16c07ba9)"><g clip-path="url(#9a9280a1fb)"><g clip-path="url(#a0ea738400)"><g clip-path="url(#f7d0549902)"><g clip-path="url(#f6e9ec23e7)"><path fill="#3a2620" d="M 197.835938 104.121094 C 197.839844 104.128906 197.847656 104.132812 197.851562 104.140625 C 197.90625 104.230469 197.945312 104.308594 198.027344 104.40625 C 198.027344 104.40625 198.027344 104.40625 198.027344 104.410156 C 198.257812 104.820312 198.3125 105.222656 198.359375 105.609375 C 198.453125 106.355469 198.296875 107.042969 198.007812 107.679688 C 197.957031 107.789062 197.886719 107.890625 197.828125 107.996094 C 197.824219 108.003906 197.820312 108.007812 197.820312 108.011719 C 197.832031 108.007812 197.84375 108.007812 197.855469 108.003906 C 198.144531 107.929688 198.429688 107.851562 198.714844 107.773438 C 198.714844 107.773438 198.714844 107.773438 198.71875 107.773438 C 199.597656 107.535156 200.476562 107.289062 201.355469 107.03125 C 203.613281 106.375 205.859375 105.660156 208.089844 104.875 C 210.402344 104.046875 212.699219 103.160156 214.957031 102.140625 C 217.210938 101.125 219.4375 100.011719 221.582031 98.695312 C 222.652344 98.035156 223.707031 97.328125 224.71875 96.539062 C 225.730469 95.746094 226.707031 94.882812 227.597656 93.875 C 228.042969 93.375 228.460938 92.832031 228.835938 92.246094 C 229.210938 91.65625 229.546875 91.015625 229.792969 90.316406 C 230.039062 89.625 230.199219 88.867188 230.222656 88.097656 C 230.226562 87.90625 230.222656 87.710938 230.210938 87.519531 L 230.199219 87.375 L 230.183594 87.214844 L 230.152344 86.945312 C 230.089844 86.558594 230.003906 86.1875 229.878906 85.828125 C 229.640625 85.105469 229.285156 84.449219 228.871094 83.867188 C 228.457031 83.28125 227.984375 82.773438 227.488281 82.3125 C 226.492188 81.398438 225.402344 80.679688 224.285156 80.066406 C 222.050781 78.84375 219.703125 78 217.34375 77.308594 C 214.980469 76.621094 212.589844 76.113281 210.1875 75.691406 C 207.789062 75.28125 205.375 74.96875 202.957031 74.753906 L 202.90625 75.101562 C 205.269531 75.625 207.617188 76.179688 209.9375 76.824219 C 212.257812 77.453125 214.546875 78.179688 216.773438 79.023438 C 217.882812 79.445312 218.976562 79.898438 220.039062 80.40625 C 221.101562 80.910156 222.132812 81.457031 223.09375 82.078125 C 224.054688 82.695312 224.957031 83.378906 225.695312 84.152344 C 226.429688 84.925781 227 85.777344 227.230469 86.652344 C 227.289062 86.867188 227.328125 87.089844 227.347656 87.300781 L 227.359375 87.484375 L 227.363281 87.632812 C 227.363281 87.742188 227.355469 87.851562 227.347656 87.960938 C 227.3125 88.394531 227.199219 88.835938 227.019531 89.269531 C 226.660156 90.144531 226.03125 90.984375 225.285156 91.757812 C 224.539062 92.535156 223.671875 93.25 222.75 93.90625 C 221.824219 94.566406 220.851562 95.183594 219.839844 95.753906 C 217.820312 96.898438 215.6875 97.902344 213.511719 98.816406 C 211.332031 99.722656 209.109375 100.566406 206.855469 101.332031 C 205.726562 101.710938 204.597656 102.09375 203.457031 102.449219 C 202.816406 102.65625 202.167969 102.851562 201.519531 103.046875 C 201.023438 103.195312 200.527344 103.34375 200.03125 103.492188 C 199.359375 103.691406 198.683594 103.882812 198.007812 104.074219 C 198.003906 104.078125 197.996094 104.078125 197.992188 104.078125 C 197.941406 104.09375 197.886719 104.109375 197.835938 104.121094 " fill-opacity="1" fill-rule="nonzero"/></g></g></g></g></g><g clip-path="url(#2a126945b1)"><g clip-path="url(#b6f71b01f6)"><g clip-path="url(#93a0556519)"><path fill="#3a2620" d="M 67.144531 99.9375 C 67.117188 100.703125 67.226562 101.476562 67.457031 102.199219 C 67.691406 102.921875 68.039062 103.585938 68.441406 104.179688 C 69.261719 105.367188 70.277344 106.296875 71.335938 107.082031 C 72.402344 107.867188 73.519531 108.511719 74.652344 109.089844 C 75.789062 109.664062 76.949219 110.152344 78.117188 110.597656 C 80.457031 111.488281 82.839844 112.179688 85.238281 112.75 C 86.4375 113.03125 87.640625 113.285156 88.847656 113.507812 C 90.050781 113.734375 91.261719 113.933594 92.472656 114.105469 C 94.367188 114.382812 96.261719 114.601562 98.15625 114.773438 C 99.386719 114.886719 100.617188 114.980469 101.84375 115.0625 C 103.578125 115.175781 105.3125 115.261719 107.046875 115.328125 C 109.949219 115.4375 112.847656 115.496094 115.742188 115.523438 C 116.917969 115.535156 118.089844 115.542969 119.265625 115.546875 C 120.046875 115.550781 120.824219 115.554688 121.605469 115.554688 C 126.453125 115.558594 131.296875 115.507812 136.140625 115.398438 C 139.375 115.320312 142.640625 115.230469 145.878906 115.109375 C 146.828125 115.074219 147.710938 115.023438 148.753906 114.992188 L 148.753906 114.984375 L 148.867188 114.5 L 148.035156 113.28125 C 147.386719 113.289062 146.726562 113.402344 146.070312 113.46875 C 142.75 113.796875 139.425781 114.054688 136.09375 114.222656 C 131.277344 114.46875 126.445312 114.550781 121.621094 114.425781 C 121.28125 114.417969 120.945312 114.40625 120.605469 114.394531 C 120.433594 114.390625 120.265625 114.382812 120.09375 114.378906 C 120.015625 114.375 119.9375 114.371094 119.863281 114.367188 C 119.746094 114.363281 119.628906 114.359375 119.515625 114.355469 C 119.398438 114.351562 119.289062 114.347656 119.171875 114.339844 C 119.085938 114.335938 119 114.335938 118.914062 114.328125 C 118.707031 114.320312 118.503906 114.3125 118.300781 114.304688 C 118.296875 114.300781 118.292969 114.304688 118.289062 114.304688 C 117.996094 114.289062 117.703125 114.273438 117.40625 114.257812 C 117.113281 114.242188 116.824219 114.203125 116.53125 114.1875 C 116.234375 114.167969 115.941406 114.148438 115.648438 114.109375 L 115.644531 114.109375 C 112.808594 114.019531 110.003906 113.6875 107.199219 113.363281 C 105.222656 113.140625 103.257812 112.851562 101.289062 112.589844 L 101.285156 112.589844 C 100.054688 112.425781 98.824219 112.265625 97.605469 112.007812 L 97.589844 112.007812 C 96.035156 111.800781 94.496094 111.492188 92.960938 111.199219 C 92.375 111.085938 91.789062 110.980469 91.203125 110.859375 C 90.621094 110.738281 90.035156 110.625 89.453125 110.492188 C 88.292969 110.238281 87.132812 109.980469 85.980469 109.6875 C 83.679688 109.109375 81.40625 108.464844 79.210938 107.667969 C 78.113281 107.269531 77.042969 106.824219 76.007812 106.332031 C 74.976562 105.839844 73.980469 105.289062 73.082031 104.660156 C 72.1875 104.03125 71.375 103.320312 70.792969 102.53125 C 70.214844 101.734375 69.886719 100.886719 69.878906 99.996094 C 69.867188 99.105469 70.199219 98.167969 70.738281 97.273438 C 71.28125 96.375 72.027344 95.535156 72.84375 94.75 C 73.667969 93.964844 74.578125 93.242188 75.53125 92.5625 C 76.480469 91.878906 77.476562 91.242188 78.496094 90.632812 C 80.535156 89.414062 82.675781 88.324219 84.84375 87.292969 C 87.019531 86.269531 89.234375 85.308594 91.472656 84.378906 L 91.359375 84.046875 C 89.007812 84.648438 86.675781 85.34375 84.375 86.15625 C 82.078125 86.964844 79.808594 87.886719 77.597656 88.976562 C 75.394531 90.078125 73.230469 91.332031 71.265625 92.976562 C 70.285156 93.808594 69.355469 94.742188 68.578125 95.878906 C 68.195312 96.445312 67.851562 97.066406 67.59375 97.75 C 67.339844 98.429688 67.175781 99.171875 67.144531 99.9375 " fill-opacity="1" fill-rule="nonzero"/></g></g></g><g clip-path="url(#9f97af9d3c)"><g clip-path="url(#146a9a0330)"><g clip-path="url(#897fa69c2d)"><g clip-path="url(#7a8822af0e)"><g clip-path="url(#1c4d0b3b85)"><path fill="#3a2620" d="M 172.421875 136.121094 C 172.421875 136.125 172.421875 136.128906 172.417969 136.128906 C 172.417969 136.136719 172.417969 136.140625 172.417969 136.144531 L 172.457031 136.136719 C 172.445312 136.128906 172.433594 136.125 172.421875 136.121094 " fill-opacity="1" fill-rule="nonzero"/></g></g></g></g></g><g clip-path="url(#100c813f1c)"><g clip-path="url(#b4edafbc2d)"><g clip-path="url(#ef5b71948d)"><path fill="#3a2620" d="M 147.542969 107.460938 L 149.425781 110.269531 L 149.933594 111.03125 L 151.183594 112.898438 L 151.578125 113.484375 C 151.691406 113.652344 151.800781 114.253906 151.757812 114.449219 L 151.679688 114.84375 C 151.6875 114.84375 151.707031 114.84375 151.707031 114.839844 L 151.707031 114.847656 L 151.046875 117.6875 L 151.046875 117.691406 L 150.15625 121.523438 C 150.039062 122.035156 150.332031 122.382812 150.8125 122.292969 C 151.296875 122.203125 151.878906 121.738281 152.109375 121.261719 L 153.90625 117.535156 L 153.90625 117.53125 L 155.105469 115.027344 L 159.839844 114.328125 L 160.183594 114.277344 L 160.1875 114.273438 L 173.660156 112.289062 L 173.550781 112.773438 L 173.550781 112.785156 L 173.59375 112.796875 L 173.070312 115.703125 L 173.066406 115.722656 L 169.402344 133.042969 C 169.328125 133.402344 169.402344 133.703125 169.679688 133.738281 L 169.695312 133.742188 C 169.800781 133.753906 169.925781 133.757812 170.0625 133.730469 L 172.226562 133.324219 C 172.730469 133.234375 173.304688 132.78125 173.5 132.308594 L 175.363281 127.835938 C 175.488281 127.871094 175.609375 127.816406 175.746094 127.789062 L 176.699219 127.613281 L 176.953125 127.566406 C 177.457031 127.472656 177.835938 127.101562 177.742188 126.597656 L 177.675781 126.230469 C 177.644531 126.070312 177.570312 125.914062 177.464844 125.777344 C 177.246094 125.488281 176.890625 125.296875 176.546875 125.363281 L 176.328125 125.402344 L 177.980469 121.523438 C 178.105469 121.554688 178.253906 121.628906 178.386719 121.605469 L 178.886719 121.511719 L 179.5625 121.386719 C 180.0625 121.296875 180.410156 120.792969 180.316406 120.289062 L 180.25 119.921875 C 180.1875 119.59375 179.941406 119.273438 179.640625 119.117188 C 179.476562 119.035156 179.296875 118.996094 179.125 119.03125 L 178.941406 119.0625 L 180.785156 114.671875 L 180.867188 114.476562 L 182.160156 111.398438 L 182.339844 110.964844 L 189.109375 110.046875 L 189.164062 110.042969 C 190.722656 109.808594 193.621094 108.566406 194.910156 107.269531 C 195.355469 106.828125 195.609375 106.378906 195.554688 105.960938 C 195.507812 105.566406 195.191406 105.242188 194.714844 104.976562 C 193.191406 104.121094 190.003906 103.875 188.410156 104.113281 C 188.382812 104.117188 185.90625 104.664062 182.285156 105.472656 C 182.167969 105.5 182.046875 105.527344 181.925781 105.554688 C 181.742188 105.597656 181.558594 105.636719 181.371094 105.679688 L 181.152344 105.453125 L 181.011719 105.300781 L 179.039062 103.214844 L 175.273438 99.242188 L 175.457031 99.207031 C 175.960938 99.117188 176.3125 98.644531 176.21875 98.140625 L 176.152344 97.777344 C 176.058594 97.273438 175.582031 97.070312 175.078125 97.164062 L 173.90625 97.382812 C 173.769531 97.40625 173.628906 97.371094 173.523438 97.449219 L 170.566406 94.257812 L 170.785156 94.21875 C 171.285156 94.125 171.648438 93.675781 171.554688 93.175781 L 171.488281 92.808594 C 171.398438 92.304688 170.878906 91.921875 170.375 92.015625 L 169.167969 92.238281 C 169.03125 92.261719 168.910156 92.320312 168.804688 92.394531 L 165.46875 88.878906 C 165.113281 88.507812 164.40625 88.238281 163.902344 88.332031 L 161.738281 88.730469 C 161.238281 88.824219 161.058594 89.292969 161.335938 89.726562 L 170.523438 104.046875 L 172.375 106.933594 L 172.808594 107.609375 C 172.539062 107.667969 172.269531 107.726562 172.003906 107.785156 C 164.667969 109.429688 157.085938 111.125 154.460938 111.710938 L 152.535156 109.898438 L 150.355469 107.847656 L 149.457031 107 C 149.074219 106.636719 148.367188 106.414062 147.886719 106.503906 C 147.402344 106.59375 147.25 107.023438 147.542969 107.460938 " fill-opacity="1" fill-rule="nonzero"/><path fill="#3a2620" d="M 147.542969 107.460938 L 149.425781 110.269531 L 149.933594 111.03125 L 151.183594 112.898438 L 151.578125 113.484375 C 151.691406 113.652344 151.816406 114.253906 151.773438 114.453125 L 151.707031 114.839844 L 151.707031 114.847656 L 151.046875 117.6875 L 151.046875 117.691406 L 150.15625 121.523438 C 150.039062 122.035156 150.332031 122.382812 150.8125 122.292969 C 151.296875 122.203125 151.878906 121.738281 152.109375 121.261719 L 153.90625 117.535156 L 153.90625 117.53125 L 155.105469 115.027344 L 159.839844 114.328125 L 160.183594 114.277344 L 160.1875 114.273438 L 173.660156 112.289062 L 173.550781 112.773438 L 173.550781 112.785156 L 173.59375 112.796875 L 173.070312 115.703125 L 173.066406 115.722656 L 169.402344 133.042969 C 169.328125 133.402344 169.402344 133.703125 169.679688 133.738281 L 169.695312 133.742188 C 169.800781 133.753906 169.925781 133.757812 170.0625 133.730469 L 172.226562 133.324219 C 172.730469 133.234375 173.304688 132.78125 173.5 132.308594 L 175.363281 127.835938 C 175.488281 127.871094 175.609375 127.816406 175.746094 127.789062 L 176.699219 127.613281 L 176.953125 127.566406 C 177.457031 127.472656 177.835938 127.101562 177.742188 126.597656 L 177.675781 126.230469 C 177.644531 126.070312 177.570312 125.914062 177.464844 125.777344 C 177.246094 125.488281 176.890625 125.296875 176.546875 125.363281 L 176.328125 125.402344 L 177.980469 121.523438 C 178.105469 121.554688 178.253906 121.628906 178.386719 121.605469 L 178.886719 121.511719 L 179.5625 121.386719 C 180.0625 121.296875 180.410156 120.792969 180.316406 120.289062 L 180.25 119.921875 C 180.1875 119.59375 179.941406 119.273438 179.640625 119.117188 C 179.476562 119.035156 179.296875 118.996094 179.125 119.03125 L 178.941406 119.0625 L 180.785156 114.671875 L 180.867188 114.476562 L 182.160156 111.398438 L 182.339844 110.964844 L 189.109375 110.046875 L 189.164062 110.042969 C 190.722656 109.808594 193.621094 108.566406 194.910156 107.269531 C 195.355469 106.828125 195.609375 106.378906 195.554688 105.960938 C 195.507812 105.566406 195.191406 105.242188 194.714844 104.976562 C 193.191406 104.121094 190.003906 103.875 188.410156 104.113281 C 188.382812 104.117188 185.90625 104.664062 182.285156 105.472656 C 182.167969 105.5 182.046875 105.527344 181.925781 105.554688 C 181.742188 105.597656 181.558594 105.636719 181.371094 105.679688 L 181.152344 105.453125 L 181.011719 105.300781 L 179.039062 103.214844 L 175.273438 99.242188 L 175.457031 99.207031 C 175.960938 99.117188 176.3125 98.644531 176.21875 98.140625 L 176.152344 97.777344 C 176.058594 97.273438 175.582031 97.070312 175.078125 97.164062 L 173.90625 97.382812 C 173.769531 97.40625 173.628906 97.371094 173.523438 97.449219 L 170.566406 94.257812 L 170.785156 94.21875 C 171.285156 94.125 171.648438 93.675781 171.554688 93.175781 L 171.488281 92.808594 C 171.398438 92.304688 170.878906 91.921875 170.375 92.015625 L 169.167969 92.238281 C 169.03125 92.261719 168.910156 92.320312 168.804688 92.394531 L 165.46875 88.878906 C 165.113281 88.507812 164.40625 88.238281 163.902344 88.332031 L 161.738281 88.730469 C 161.238281 88.824219 161.058594 89.292969 161.335938 89.726562 L 170.523438 104.046875 L 172.375 106.933594 L 172.808594 107.609375 C 172.539062 107.667969 172.269531 107.726562 172.003906 107.785156 C 164.667969 109.429688 157.085938 111.125 154.460938 111.710938 L 152.535156 109.898438 L 150.355469 107.847656 L 149.457031 107 C 149.074219 106.636719 148.367188 106.414062 147.886719 106.503906 C 147.402344 106.59375 147.25 107.023438 147.542969 107.460938 " fill-opacity="1" fill-rule="nonzero"/></g></g></g><g clip-path="url(#86945ec774)"><g clip-path="url(#fa36268f6e)"><g clip-path="url(#7f9096fefb)"><path fill="#ffffff" d="M 179.589844 98.804688 L 183.980469 103.636719 L 181.566406 105.832031 L 177.171875 101 Z M 179.589844 98.804688 " fill-opacity="1" fill-rule="nonzero"/></g></g></g><g clip-path="url(#09f49da117)"><g clip-path="url(#268bd421f5)"><path fill="#a6873a" d="M 281.339844 85.128906 L 284.785156 85.128906 L 284.785156 88.570312 L 281.339844 88.570312 Z M 281.339844 85.128906 " fill-opacity="1" fill-rule="nonzero"/></g></g><g clip-path="url(#1945fdaf6b)"><g clip-path="url(#9a3ef091c3)"><path fill="#a6873a" d="M 487.550781 85.128906 L 490.992188 85.128906 L 490.992188 88.570312 L 487.550781 88.570312 Z M 487.550781 85.128906 " fill-opacity="1" fill-rule="nonzero"/></g></g><g fill="#a6873a" fill-opacity="1"><g transform="translate(295.851336, 92.504621)"><g><path d="M 4.953125 -6.671875 L 4.953125 -5.484375 L 2.015625 -5.484375 L 2.015625 -1.21875 L 5.609375 -1.21875 L 5.609375 0 L 0.6875 0 L 0.6875 -11.984375 L 5.609375 -11.984375 L 5.609375 -10.765625 L 2.015625 -10.765625 L 2.015625 -6.671875 Z M 4.953125 -6.671875 "/></g></g></g><g fill="#a6873a" fill-opacity="1"><g transform="translate(303.556575, 92.504621)"><g><path d="M 3.203125 -12.109375 C 4.117188 -12.109375 4.789062 -11.835938 5.21875 -11.296875 C 5.65625 -10.753906 5.875 -10.023438 5.875 -9.109375 L 5.875 -8.78125 L 4.609375 -8.78125 L 4.609375 -9.171875 C 4.609375 -9.722656 4.5 -10.144531 4.28125 -10.4375 C 4.0625 -10.738281 3.710938 -10.890625 3.234375 -10.890625 C 2.753906 -10.890625 2.40625 -10.738281 2.1875 -10.4375 C 1.96875 -10.144531 1.859375 -9.734375 1.859375 -9.203125 C 1.859375 -8.753906 1.957031 -8.363281 2.15625 -8.03125 C 2.363281 -7.695312 2.613281 -7.390625 2.90625 -7.109375 C 3.207031 -6.835938 3.53125 -6.566406 3.875 -6.296875 C 4.226562 -6.023438 4.550781 -5.726562 4.84375 -5.40625 C 5.144531 -5.09375 5.394531 -4.734375 5.59375 -4.328125 C 5.789062 -3.921875 5.890625 -3.4375 5.890625 -2.875 C 5.890625 -1.957031 5.671875 -1.226562 5.234375 -0.6875 C 4.796875 -0.144531 4.113281 0.125 3.1875 0.125 C 2.257812 0.125 1.578125 -0.144531 1.140625 -0.6875 C 0.710938 -1.226562 0.5 -1.957031 0.5 -2.875 L 0.5 -3.5625 L 1.75 -3.5625 L 1.75 -2.8125 C 1.75 -2.257812 1.863281 -1.832031 2.09375 -1.53125 C 2.320312 -1.238281 2.675781 -1.09375 3.15625 -1.09375 C 3.632812 -1.09375 3.988281 -1.238281 4.21875 -1.53125 C 4.445312 -1.832031 4.5625 -2.257812 4.5625 -2.8125 C 4.5625 -3.25 4.457031 -3.628906 4.25 -3.953125 C 4.050781 -4.285156 3.800781 -4.59375 3.5 -4.875 C 3.207031 -5.15625 2.890625 -5.425781 2.546875 -5.6875 C 2.203125 -5.957031 1.878906 -6.253906 1.578125 -6.578125 C 1.285156 -6.898438 1.039062 -7.257812 0.84375 -7.65625 C 0.644531 -8.0625 0.546875 -8.546875 0.546875 -9.109375 C 0.546875 -10.035156 0.757812 -10.765625 1.1875 -11.296875 C 1.625 -11.835938 2.296875 -12.109375 3.203125 -12.109375 Z M 3.203125 -12.109375 "/></g></g></g><g fill="#a6873a" fill-opacity="1"><g transform="translate(311.467275, 92.504621)"><g><path d="M 3.3125 -11.984375 C 4.25 -11.984375 4.929688 -11.722656 5.359375 -11.203125 C 5.785156 -10.679688 6 -9.96875 6 -9.0625 L 6 -7.625 C 6 -6.664062 5.769531 -5.941406 5.3125 -5.453125 C 4.863281 -4.960938 4.160156 -4.71875 3.203125 -4.71875 L 2.015625 -4.71875 L 2.015625 0 L 0.6875 0 L 0.6875 -11.984375 Z M 3.203125 -5.921875 C 3.703125 -5.921875 4.070312 -6.039062 4.3125 -6.28125 C 4.550781 -6.53125 4.671875 -6.945312 4.671875 -7.53125 L 4.671875 -9.125 C 4.671875 -9.675781 4.566406 -10.085938 4.359375 -10.359375 C 4.148438 -10.628906 3.800781 -10.765625 3.3125 -10.765625 L 2.015625 -10.765625 L 2.015625 -5.921875 Z M 3.203125 -5.921875 "/></g></g></g><g fill="#a6873a" fill-opacity="1"><g transform="translate(319.412214, 92.504621)"><g><path d="M 4.953125 -6.671875 L 4.953125 -5.484375 L 2.015625 -5.484375 L 2.015625 -1.21875 L 5.609375 -1.21875 L 5.609375 0 L 0.6875 0 L 0.6875 -11.984375 L 5.609375 -11.984375 L 5.609375 -10.765625 L 2.015625 -10.765625 L 2.015625 -6.671875 Z M 4.953125 -6.671875 "/></g></g></g><g fill="#a6873a" fill-opacity="1"><g transform="translate(327.117452, 92.504621)"><g><path d="M 3.265625 -12.109375 C 4.191406 -12.109375 4.875 -11.832031 5.3125 -11.28125 C 5.757812 -10.738281 5.984375 -10.007812 5.984375 -9.09375 L 5.984375 -8.015625 L 4.703125 -8.015625 L 4.703125 -9.15625 C 4.703125 -9.707031 4.59375 -10.132812 4.375 -10.4375 C 4.15625 -10.738281 3.800781 -10.890625 3.3125 -10.890625 C 2.820312 -10.890625 2.460938 -10.738281 2.234375 -10.4375 C 2.015625 -10.132812 1.90625 -9.707031 1.90625 -9.15625 L 1.90625 -2.828125 C 1.90625 -2.273438 2.015625 -1.847656 2.234375 -1.546875 C 2.460938 -1.242188 2.820312 -1.09375 3.3125 -1.09375 C 3.800781 -1.09375 4.15625 -1.242188 4.375 -1.546875 C 4.59375 -1.847656 4.703125 -2.273438 4.703125 -2.828125 L 4.703125 -4.390625 L 5.984375 -4.390625 L 5.984375 -2.890625 C 5.984375 -1.984375 5.757812 -1.253906 5.3125 -0.703125 C 4.875 -0.148438 4.191406 0.125 3.265625 0.125 C 2.359375 0.125 1.679688 -0.148438 1.234375 -0.703125 C 0.796875 -1.253906 0.578125 -1.984375 0.578125 -2.890625 L 0.578125 -9.09375 C 0.578125 -9.550781 0.628906 -9.960938 0.734375 -10.328125 C 0.847656 -10.703125 1.015625 -11.019531 1.234375 -11.28125 C 1.460938 -11.539062 1.742188 -11.742188 2.078125 -11.890625 C 2.410156 -12.035156 2.804688 -12.109375 3.265625 -12.109375 Z M 3.265625 -12.109375 "/></g></g></g><g fill="#a6873a" fill-opacity="1"><g transform="translate(335.165122, 92.504621)"><g><path d="M 2.015625 -11.984375 L 2.015625 0 L 0.6875 0 L 0.6875 -11.984375 Z M 2.015625 -11.984375 "/></g></g></g><g fill="#a6873a" fill-opacity="1"><g transform="translate(339.411883, 92.504621)"><g><path d="M 2.03125 -2.421875 L 1.578125 0 L 0.34375 0 L 2.640625 -11.984375 L 4.578125 -11.984375 L 6.859375 0 L 5.53125 0 L 5.0625 -2.421875 Z M 2.203125 -3.5625 L 4.875 -3.5625 L 3.53125 -10.484375 Z M 2.203125 -3.5625 "/></g></g></g><g fill="#a6873a" fill-opacity="1"><g transform="translate(348.178639, 92.504621)"><g><path d="M 0.6875 0 L 0.6875 -11.984375 L 2.015625 -11.984375 L 2.015625 -1.21875 L 5.453125 -1.21875 L 5.453125 0 Z M 0.6875 0 "/></g></g></g><g fill="#a6873a" fill-opacity="1"><g transform="translate(355.490089, 92.504621)"><g><path d="M 2.015625 -11.984375 L 2.015625 0 L 0.6875 0 L 0.6875 -11.984375 Z M 2.015625 -11.984375 "/></g></g></g><g fill="#a6873a" fill-opacity="1"><g transform="translate(359.736851, 92.504621)"><g><path d="M 3.203125 -12.109375 C 4.117188 -12.109375 4.789062 -11.835938 5.21875 -11.296875 C 5.65625 -10.753906 5.875 -10.023438 5.875 -9.109375 L 5.875 -8.78125 L 4.609375 -8.78125 L 4.609375 -9.171875 C 4.609375 -9.722656 4.5 -10.144531 4.28125 -10.4375 C 4.0625 -10.738281 3.710938 -10.890625 3.234375 -10.890625 C 2.753906 -10.890625 2.40625 -10.738281 2.1875 -10.4375 C 1.96875 -10.144531 1.859375 -9.734375 1.859375 -9.203125 C 1.859375 -8.753906 1.957031 -8.363281 2.15625 -8.03125 C 2.363281 -7.695312 2.613281 -7.390625 2.90625 -7.109375 C 3.207031 -6.835938 3.53125 -6.566406 3.875 -6.296875 C 4.226562 -6.023438 4.550781 -5.726562 4.84375 -5.40625 C 5.144531 -5.09375 5.394531 -4.734375 5.59375 -4.328125 C 5.789062 -3.921875 5.890625 -3.4375 5.890625 -2.875 C 5.890625 -1.957031 5.671875 -1.226562 5.234375 -0.6875 C 4.796875 -0.144531 4.113281 0.125 3.1875 0.125 C 2.257812 0.125 1.578125 -0.144531 1.140625 -0.6875 C 0.710938 -1.226562 0.5 -1.957031 0.5 -2.875 L 0.5 -3.5625 L 1.75 -3.5625 L 1.75 -2.8125 C 1.75 -2.257812 1.863281 -1.832031 2.09375 -1.53125 C 2.320312 -1.238281 2.675781 -1.09375 3.15625 -1.09375 C 3.632812 -1.09375 3.988281 -1.238281 4.21875 -1.53125 C 4.445312 -1.832031 4.5625 -2.257812 4.5625 -2.8125 C 4.5625 -3.25 4.457031 -3.628906 4.25 -3.953125 C 4.050781 -4.285156 3.800781 -4.59375 3.5 -4.875 C 3.207031 -5.15625 2.890625 -5.425781 2.546875 -5.6875 C 2.203125 -5.957031 1.878906 -6.253906 1.578125 -6.578125 C 1.285156 -6.898438 1.039062 -7.257812 0.84375 -7.65625 C 0.644531 -8.0625 0.546875 -8.546875 0.546875 -9.109375 C 0.546875 -10.035156 0.757812 -10.765625 1.1875 -11.296875 C 1.625 -11.835938 2.296875 -12.109375 3.203125 -12.109375 Z M 3.203125 -12.109375 "/></g></g></g><g fill="#a6873a" fill-opacity="1"><g transform="translate(367.64755, 92.504621)"><g><path d="M 2.4375 0 L 2.4375 -10.765625 L 0.21875 -10.765625 L 0.21875 -11.984375 L 5.984375 -11.984375 L 5.984375 -10.765625 L 3.765625 -10.765625 L 3.765625 0 Z M 2.4375 0 "/></g></g></g><g fill="#a6873a" fill-opacity="1"><g transform="translate(375.404148, 92.504621)"><g><path d="M 2.03125 -2.421875 L 1.578125 0 L 0.34375 0 L 2.640625 -11.984375 L 4.578125 -11.984375 L 6.859375 0 L 5.53125 0 L 5.0625 -2.421875 Z M 2.203125 -3.5625 L 4.875 -3.5625 L 3.53125 -10.484375 Z M 2.203125 -3.5625 "/></g></g></g><g fill="#a6873a" fill-opacity="1"><g transform="translate(384.170904, 92.504621)"><g/></g></g><g fill="#a6873a" fill-opacity="1"><g transform="translate(388.366294, 92.504621)"><g><path d="M 4.953125 -6.671875 L 4.953125 -5.484375 L 2.015625 -5.484375 L 2.015625 -1.21875 L 5.609375 -1.21875 L 5.609375 0 L 0.6875 0 L 0.6875 -11.984375 L 5.609375 -11.984375 L 5.609375 -10.765625 L 2.015625 -10.765625 L 2.015625 -6.671875 Z M 4.953125 -6.671875 "/></g></g></g><g fill="#a6873a" fill-opacity="1"><g transform="translate(396.071532, 92.504621)"><g><path d="M 5.109375 -0.015625 L 3.8125 -0.015625 L 1.828125 -9.5625 L 1.828125 0 L 0.671875 0 L 0.671875 -11.984375 L 2.53125 -11.984375 L 4.5 -2.421875 L 6.40625 -11.984375 L 8.265625 -11.984375 L 8.265625 0 L 7 0 L 7 -9.640625 Z M 5.109375 -0.015625 "/></g></g></g><g fill="#a6873a" fill-opacity="1"><g transform="translate(406.567521, 92.504621)"><g/></g></g><g fill="#a6873a" fill-opacity="1"><g transform="translate(410.76291, 92.504621)"><g><path d="M 2.015625 -11.984375 L 2.015625 0 L 0.6875 0 L 0.6875 -11.984375 Z M 2.015625 -11.984375 "/></g></g></g><g fill="#a6873a" fill-opacity="1"><g transform="translate(415.009672, 92.504621)"><g><path d="M 5.109375 -0.015625 L 3.8125 -0.015625 L 1.828125 -9.5625 L 1.828125 0 L 0.671875 0 L 0.671875 -11.984375 L 2.53125 -11.984375 L 4.5 -2.421875 L 6.40625 -11.984375 L 8.265625 -11.984375 L 8.265625 0 L 7 0 L 7 -9.640625 Z M 5.109375 -0.015625 "/></g></g></g><g fill="#a6873a" fill-opacity="1"><g transform="translate(425.50566, 92.504621)"><g><path d="M 2.015625 -11.984375 L 2.015625 0 L 0.6875 0 L 0.6875 -11.984375 Z M 2.015625 -11.984375 "/></g></g></g><g fill="#a6873a" fill-opacity="1"><g transform="translate(429.752421, 92.504621)"><g><path d="M 3.265625 -12.109375 C 4.191406 -12.109375 4.875 -11.832031 5.3125 -11.28125 C 5.757812 -10.738281 5.984375 -10.007812 5.984375 -9.09375 L 5.984375 -8.0625 L 4.703125 -8.0625 L 4.703125 -9.15625 C 4.703125 -9.707031 4.59375 -10.132812 4.375 -10.4375 C 4.15625 -10.738281 3.800781 -10.890625 3.3125 -10.890625 C 2.820312 -10.890625 2.460938 -10.738281 2.234375 -10.4375 C 2.015625 -10.132812 1.90625 -9.707031 1.90625 -9.15625 L 1.90625 -2.828125 C 1.90625 -2.273438 2.015625 -1.847656 2.234375 -1.546875 C 2.460938 -1.242188 2.820312 -1.09375 3.3125 -1.09375 C 3.800781 -1.09375 4.15625 -1.242188 4.375 -1.546875 C 4.59375 -1.847656 4.703125 -2.273438 4.703125 -2.828125 L 4.703125 -5.21875 L 3.46875 -5.21875 L 3.46875 -6.421875 L 5.984375 -6.421875 L 5.984375 -2.890625 C 5.984375 -1.984375 5.757812 -1.253906 5.3125 -0.703125 C 4.875 -0.148438 4.191406 0.125 3.265625 0.125 C 2.359375 0.125 1.679688 -0.148438 1.234375 -0.703125 C 0.796875 -1.253906 0.578125 -1.984375 0.578125 -2.890625 L 0.578125 -9.09375 C 0.578125 -9.550781 0.628906 -9.960938 0.734375 -10.328125 C 0.847656 -10.703125 1.015625 -11.019531 1.234375 -11.28125 C 1.460938 -11.539062 1.742188 -11.742188 2.078125 -11.890625 C 2.410156 -12.035156 2.804688 -12.109375 3.265625 -12.109375 Z M 3.265625 -12.109375 "/></g></g></g><g fill="#a6873a" fill-opacity="1"><g transform="translate(437.851449, 92.504621)"><g><path d="M 3.359375 -11.984375 C 4.304688 -11.984375 4.988281 -11.75 5.40625 -11.28125 C 5.820312 -10.8125 6.03125 -10.132812 6.03125 -9.25 L 6.03125 -8.265625 C 6.03125 -7.609375 5.910156 -7.070312 5.671875 -6.65625 C 5.429688 -6.25 5.050781 -5.96875 4.53125 -5.8125 C 5.082031 -5.644531 5.472656 -5.347656 5.703125 -4.921875 C 5.929688 -4.492188 6.046875 -3.957031 6.046875 -3.3125 L 6.046875 -1.4375 C 6.046875 -1.175781 6.054688 -0.921875 6.078125 -0.671875 C 6.097656 -0.429688 6.164062 -0.207031 6.28125 0 L 4.9375 0 C 4.851562 -0.164062 4.789062 -0.347656 4.75 -0.546875 C 4.71875 -0.753906 4.703125 -1.054688 4.703125 -1.453125 L 4.703125 -3.34375 C 4.703125 -4.007812 4.550781 -4.472656 4.25 -4.734375 C 3.945312 -4.992188 3.519531 -5.125 2.96875 -5.125 L 2.015625 -5.125 L 2.015625 0 L 0.6875 0 L 0.6875 -11.984375 Z M 3.015625 -6.34375 C 3.546875 -6.34375 3.957031 -6.453125 4.25 -6.671875 C 4.550781 -6.890625 4.703125 -7.328125 4.703125 -7.984375 L 4.703125 -9.125 C 4.703125 -9.675781 4.597656 -10.085938 4.390625 -10.359375 C 4.179688 -10.628906 3.828125 -10.765625 3.328125 -10.765625 L 2.015625 -10.765625 L 2.015625 -6.34375 Z M 3.015625 -6.34375 "/></g></g></g><g fill="#a6873a" fill-opacity="1"><g transform="translate(446.138805, 92.504621)"><g><path d="M 2.03125 -2.421875 L 1.578125 0 L 0.34375 0 L 2.640625 -11.984375 L 4.578125 -11.984375 L 6.859375 0 L 5.53125 0 L 5.0625 -2.421875 Z M 2.203125 -3.5625 L 4.875 -3.5625 L 3.53125 -10.484375 Z M 2.203125 -3.5625 "/></g></g></g><g fill="#a6873a" fill-opacity="1"><g transform="translate(454.905561, 92.504621)"><g><path d="M 3.265625 -12.109375 C 4.191406 -12.109375 4.875 -11.832031 5.3125 -11.28125 C 5.757812 -10.738281 5.984375 -10.007812 5.984375 -9.09375 L 5.984375 -8.015625 L 4.703125 -8.015625 L 4.703125 -9.15625 C 4.703125 -9.707031 4.59375 -10.132812 4.375 -10.4375 C 4.15625 -10.738281 3.800781 -10.890625 3.3125 -10.890625 C 2.820312 -10.890625 2.460938 -10.738281 2.234375 -10.4375 C 2.015625 -10.132812 1.90625 -9.707031 1.90625 -9.15625 L 1.90625 -2.828125 C 1.90625 -2.273438 2.015625 -1.847656 2.234375 -1.546875 C 2.460938 -1.242188 2.820312 -1.09375 3.3125 -1.09375 C 3.800781 -1.09375 4.15625 -1.242188 4.375 -1.546875 C 4.59375 -1.847656 4.703125 -2.273438 4.703125 -2.828125 L 4.703125 -4.390625 L 5.984375 -4.390625 L 5.984375 -2.890625 C 5.984375 -2.035156 5.785156 -1.335938 5.390625 -0.796875 C 4.992188 -0.253906 4.382812 0.046875 3.5625 0.109375 L 3.5625 0.640625 C 3.957031 0.640625 4.265625 0.710938 4.484375 0.859375 C 4.710938 1.015625 4.828125 1.226562 4.828125 1.5 C 4.828125 1.84375 4.679688 2.113281 4.390625 2.3125 C 4.109375 2.507812 3.710938 2.609375 3.203125 2.609375 C 2.703125 2.609375 2.3125 2.507812 2.03125 2.3125 C 1.757812 2.125 1.625 1.867188 1.625 1.546875 L 1.625 1.40625 L 2.5 1.40625 L 2.5 1.53125 C 2.5 1.820312 2.734375 1.984375 3.203125 2.015625 C 3.691406 2.015625 3.9375 1.832031 3.9375 1.46875 C 3.9375 1.125 3.65625 0.953125 3.09375 0.953125 L 2.953125 0.953125 L 2.953125 0.109375 C 2.140625 0.046875 1.539062 -0.253906 1.15625 -0.796875 C 0.769531 -1.347656 0.578125 -2.046875 0.578125 -2.890625 L 0.578125 -9.09375 C 0.578125 -9.550781 0.628906 -9.960938 0.734375 -10.328125 C 0.847656 -10.703125 1.015625 -11.019531 1.234375 -11.28125 C 1.460938 -11.539062 1.742188 -11.742188 2.078125 -11.890625 C 2.410156 -12.035156 2.804688 -12.109375 3.265625 -12.109375 Z M 3.265625 -12.109375 "/></g></g></g><g fill="#a6873a" fill-opacity="1"><g transform="translate(462.953231, 92.504621)"><g><path d="M 2.75 -14.140625 C 2.925781 -14.140625 3.082031 -14.113281 3.21875 -14.0625 C 3.363281 -14.007812 3.492188 -13.945312 3.609375 -13.875 C 3.734375 -13.8125 3.851562 -13.753906 3.96875 -13.703125 C 4.082031 -13.648438 4.203125 -13.625 4.328125 -13.625 C 4.484375 -13.644531 4.613281 -13.691406 4.71875 -13.765625 C 4.820312 -13.835938 4.921875 -13.960938 5.015625 -14.140625 L 5.6875 -13.6875 C 5.550781 -13.351562 5.378906 -13.101562 5.171875 -12.9375 C 4.960938 -12.78125 4.726562 -12.703125 4.46875 -12.703125 C 4.300781 -12.703125 4.144531 -12.726562 4 -12.78125 C 3.863281 -12.832031 3.734375 -12.890625 3.609375 -12.953125 C 3.492188 -13.015625 3.378906 -13.070312 3.265625 -13.125 C 3.148438 -13.175781 3.023438 -13.203125 2.890625 -13.203125 C 2.734375 -13.203125 2.597656 -13.164062 2.484375 -13.09375 C 2.367188 -13.019531 2.265625 -12.882812 2.171875 -12.6875 L 1.5 -13.15625 C 1.644531 -13.507812 1.820312 -13.757812 2.03125 -13.90625 C 2.25 -14.050781 2.488281 -14.128906 2.75 -14.140625 Z M 2.03125 -2.421875 L 1.578125 0 L 0.34375 0 L 2.640625 -11.984375 L 4.578125 -11.984375 L 6.859375 0 L 5.53125 0 L 5.0625 -2.421875 Z M 2.203125 -3.5625 L 4.875 -3.5625 L 3.53125 -10.484375 Z M 2.203125 -3.5625 "/></g></g></g><g fill="#a6873a" fill-opacity="1"><g transform="translate(471.719987, 92.504621)"><g><path d="M 0.578125 -9.09375 C 0.578125 -10.019531 0.800781 -10.753906 1.25 -11.296875 C 1.707031 -11.835938 2.398438 -12.109375 3.328125 -12.109375 C 4.242188 -12.109375 4.929688 -11.835938 5.390625 -11.296875 C 5.847656 -10.753906 6.078125 -10.019531 6.078125 -9.09375 L 6.078125 -2.890625 C 6.078125 -1.984375 5.847656 -1.253906 5.390625 -0.703125 C 4.929688 -0.148438 4.242188 0.125 3.328125 0.125 C 2.398438 0.125 1.707031 -0.148438 1.25 -0.703125 C 0.800781 -1.253906 0.578125 -1.984375 0.578125 -2.890625 Z M 1.90625 -2.828125 C 1.90625 -2.273438 2.019531 -1.847656 2.25 -1.546875 C 2.488281 -1.242188 2.847656 -1.09375 3.328125 -1.09375 C 3.816406 -1.09375 4.175781 -1.242188 4.40625 -1.546875 C 4.632812 -1.847656 4.75 -2.273438 4.75 -2.828125 L 4.75 -9.15625 C 4.75 -9.707031 4.632812 -10.132812 4.40625 -10.4375 C 4.175781 -10.738281 3.816406 -10.890625 3.328125 -10.890625 C 2.847656 -10.890625 2.488281 -10.738281 2.25 -10.4375 C 2.019531 -10.132812 1.90625 -9.707031 1.90625 -9.15625 Z M 1.90625 -2.828125 "/></g></g></g><g fill="#261913" fill-opacity="1"><g transform="translate(281.853246, 71.060989)"><g><path d="M 14.726562 -4.128906 C 14.390625 -3.507812 12.523438 -0.832031 8.789062 -0.832031 C 5.066406 -0.832031 2.035156 -4.304688 2.035156 -8.574219 C 2.035156 -12.859375 5.066406 -16.332031 8.789062 -16.332031 C 11.777344 -16.332031 13.617188 -14.761719 13.296875 -12.976562 L 15.175781 -14.628906 C 14.273438 -15.023438 12.511719 -17.054688 8.898438 -17.054688 C 4.257812 -17.054688 0.488281 -13.25 0.488281 -8.550781 C 0.488281 -3.867188 4.257812 -0.046875 8.898438 -0.046875 C 12.40625 -0.046875 14.605469 -2.699219 14.726562 -4.128906 Z M 14.726562 -4.128906 "/></g></g></g><g fill="#261913" fill-opacity="1"><g transform="translate(298.073214, 71.060989)"><g><path d="M 12.371094 -1.820312 L 9.265625 -6.457031 C 13.964844 -7.160156 15.320312 -9.242188 15.320312 -11.621094 C 15.320312 -15.105469 12.25 -17.042969 8.386719 -17.042969 L 0.488281 -17.054688 C 0.488281 -17.054688 1.402344 -16.902344 1.402344 -15.238281 L 1.402344 -1.820312 C 1.402344 -0.144531 0.488281 0 0.488281 0 L 3.78125 0 C 3.78125 0 2.878906 -0.117188 2.867188 -1.820312 L 2.867188 -6.207031 L 5.386719 -6.207031 C 6.304688 -6.207031 7.136719 -6.234375 7.898438 -6.304688 L 10.894531 -1.820312 C 12.023438 -0.117188 11.203125 0 11.203125 0 L 14.5 0 C 14.5 0 13.5 -0.144531 12.371094 -1.820312 Z M 5.386719 -6.863281 L 2.867188 -6.863281 L 2.867188 -15.226562 C 2.867188 -15.699219 2.949219 -16.308594 3.699219 -16.308594 L 8.386719 -16.308594 C 11.429688 -16.308594 13.679688 -14.355469 13.679688 -11.691406 C 13.679688 -9.074219 11.597656 -6.933594 5.386719 -6.863281 Z M 5.386719 -6.863281 "/></g></g></g><g fill="#261913" fill-opacity="1"><g transform="translate(314.435867, 71.060989)"><g><path d="M 0.488281 -17.054688 C 0.488281 -17.054688 1.390625 -16.902344 1.390625 -15.238281 L 1.390625 -1.820312 C 1.390625 -0.144531 0.488281 0 0.488281 0 L 3.78125 0 C 3.78125 0 2.878906 -0.117188 2.867188 -1.820312 L 2.867188 -15.226562 C 2.878906 -16.9375 3.78125 -17.054688 3.78125 -17.054688 Z M 0.488281 -17.054688 "/></g></g></g><g fill="#261913" fill-opacity="1"><g transform="translate(319.252925, 71.060989)"><g><path d="M 13.320312 -4.757812 C 13.25 -3.152344 11.761719 -0.738281 7.613281 -0.738281 C 3.460938 -0.738281 2.308594 -5.53125 2.308594 -5.53125 L 0.488281 -4.1875 C 0.488281 -4.1875 2.234375 0 7.578125 0 C 13.5 0 14.988281 -2.734375 15.070312 -4.78125 C 15.296875 -10.21875 2.652344 -8.847656 2.832031 -13.011719 C 2.914062 -15.128906 4.675781 -16.460938 7.800781 -16.460938 C 11.527344 -16.460938 12.335938 -13.832031 12.335938 -13.832031 L 13.691406 -15.414062 C 13.691406 -15.414062 11.226562 -17.054688 7.828125 -17.054688 C 4.425781 -17.054688 1.617188 -15.5 1.5 -12.835938 C 1.285156 -7.648438 13.5 -9.230469 13.320312 -4.757812 Z M 13.320312 -4.757812 "/></g></g></g><g fill="#261913" fill-opacity="1"><g transform="translate(335.591797, 71.060989)"><g><path d="M 0.488281 -17.042969 L 0.488281 -14.273438 C 0.488281 -14.273438 1.105469 -16.308594 4.625 -16.308594 L 6.03125 -16.308594 C 6.125 -16.046875 6.195312 -15.699219 6.195312 -15.238281 L 6.195312 -1.820312 C 6.195312 -0.144531 5.292969 0 5.292969 0 L 8.585938 0 C 8.585938 0 7.671875 -0.117188 7.671875 -1.820312 L 7.671875 -15.226562 C 7.671875 -15.699219 7.742188 -16.046875 7.839844 -16.308594 L 9.265625 -16.308594 C 12.796875 -16.308594 13.40625 -14.273438 13.40625 -14.273438 L 13.40625 -17.042969 Z M 0.488281 -17.042969 "/></g></g></g><g fill="#261913" fill-opacity="1"><g transform="translate(350.051988, 71.060989)"><g><path d="M 0.488281 -17.054688 C 0.488281 -17.054688 1.390625 -16.902344 1.390625 -15.238281 L 1.390625 -1.820312 C 1.390625 -0.144531 0.488281 0 0.488281 0 L 3.78125 0 C 3.78125 0 2.878906 -0.117188 2.867188 -1.820312 L 2.867188 -15.226562 C 2.878906 -16.9375 3.78125 -17.054688 3.78125 -17.054688 Z M 0.488281 -17.054688 "/></g></g></g><g fill="#261913" fill-opacity="1"><g transform="translate(354.869049, 71.060989)"><g><path d="M 13.691406 0 L 16.984375 0 C 16.984375 0 16.035156 -0.117188 15.34375 -1.820312 L 9.289062 -17.054688 L 8.195312 -17.054688 L 2.128906 -1.820312 C 1.4375 -0.117188 0.488281 0 0.488281 0 L 2.996094 0 C 2.996094 0 2.140625 -0.144531 2.820312 -1.820312 L 4.675781 -6.46875 L 12.011719 -6.46875 L 13.867188 -1.820312 C 14.546875 -0.144531 13.691406 0 13.691406 0 Z M 4.851562 -6.910156 C 4.851562 -6.910156 8.289062 -15.535156 8.324219 -15.664062 C 8.386719 -15.535156 11.835938 -6.910156 11.835938 -6.910156 Z M 4.851562 -6.910156 "/></g></g></g><g fill="#261913" fill-opacity="1"><g transform="translate(372.884466, 71.060989)"><g><path d="M 4.128906 -17.054688 L 0.488281 -17.054688 C 0.488281 -17.054688 1.390625 -16.902344 1.390625 -15.238281 L 1.390625 -1.820312 C 1.390625 -0.144531 0.488281 0 0.488281 0 L 2.996094 0 C 2.996094 0 2.09375 -0.117188 2.082031 -1.820312 L 2.082031 -15.226562 C 2.082031 -15.570312 2.128906 -15.855469 2.1875 -16.082031 C 2.367188 -15.855469 2.558594 -15.570312 2.746094 -15.238281 L 11.167969 0 L 11.859375 0 L 11.859375 -15.226562 C 11.871094 -16.9375 12.773438 -17.054688 12.773438 -17.054688 L 10.265625 -17.054688 C 10.265625 -17.054688 11.179688 -16.902344 11.179688 -15.238281 L 11.179688 -2.640625 L 4.222656 -15.226562 C 3.28125 -16.9375 4.128906 -17.054688 4.128906 -17.054688 Z M 4.128906 -17.054688 "/></g></g></g><g fill="#261913" fill-opacity="1"><g transform="translate(386.714458, 71.060989)"><g><path d="M 8.265625 -8.445312 L 8.265625 -12.023438 C 8.265625 -12.023438 7.828125 -10.417969 4.117188 -10.417969 L 2.867188 -10.417969 L 2.867188 -15.226562 C 2.867188 -15.699219 2.855469 -16.308594 3.640625 -16.308594 C 3.640625 -16.308594 4.507812 -16.308594 7.589844 -16.308594 C 11.941406 -16.308594 12.464844 -14.703125 12.464844 -14.703125 L 12.464844 -17.042969 L 0.488281 -17.054688 C 0.488281 -17.054688 1.390625 -16.902344 1.390625 -15.238281 L 1.390625 -1.820312 C 1.390625 -0.144531 0.488281 0 0.488281 0 L 12.464844 0 L 12.464844 -2.34375 C 12.464844 -2.34375 11.941406 -0.738281 7.589844 -0.738281 C 4.507812 -0.738281 3.640625 -0.738281 3.640625 -0.738281 C 2.914062 -0.738281 2.867188 -1.34375 2.867188 -1.820312 L 2.867188 -10.039062 L 4.117188 -10.050781 C 7.828125 -10.050781 8.265625 -8.445312 8.265625 -8.445312 Z M 8.265625 -8.445312 "/></g></g></g><g fill="#261913" fill-opacity="1"><g transform="translate(400.2353, 71.060989)"><g/></g></g><g fill="#261913" fill-opacity="1"><g transform="translate(406.907266, 71.060989)"><g><path d="M 12.371094 -1.820312 L 9.265625 -6.457031 C 13.964844 -7.160156 15.320312 -9.242188 15.320312 -11.621094 C 15.320312 -15.105469 12.25 -17.042969 8.386719 -17.042969 L 0.488281 -17.054688 C 0.488281 -17.054688 1.402344 -16.902344 1.402344 -15.238281 L 1.402344 -1.820312 C 1.402344 -0.144531 0.488281 0 0.488281 0 L 3.78125 0 C 3.78125 0 2.878906 -0.117188 2.867188 -1.820312 L 2.867188 -6.207031 L 5.386719 -6.207031 C 6.304688 -6.207031 7.136719 -6.234375 7.898438 -6.304688 L 10.894531 -1.820312 C 12.023438 -0.117188 11.203125 0 11.203125 0 L 14.5 0 C 14.5 0 13.5 -0.144531 12.371094 -1.820312 Z M 5.386719 -6.863281 L 2.867188 -6.863281 L 2.867188 -15.226562 C 2.867188 -15.699219 2.949219 -16.308594 3.699219 -16.308594 L 8.386719 -16.308594 C 11.429688 -16.308594 13.679688 -14.355469 13.679688 -11.691406 C 13.679688 -9.074219 11.597656 -6.933594 5.386719 -6.863281 Z M 5.386719 -6.863281 "/></g></g></g><g fill="#261913" fill-opacity="1"><g transform="translate(423.269922, 71.060989)"><g><path d="M 8.898438 -17.054688 C 4.257812 -17.054688 0.488281 -13.25 0.488281 -8.550781 C 0.488281 -3.867188 4.257812 -0.046875 8.898438 -0.046875 C 13.546875 -0.046875 17.304688 -3.867188 17.304688 -8.550781 C 17.304688 -13.25 13.546875 -17.054688 8.898438 -17.054688 Z M 8.898438 -0.75 C 5.089844 -0.75 2 -4.234375 2 -8.527344 C 2 -12.820312 5.089844 -16.320312 8.898438 -16.320312 C 12.703125 -16.320312 15.796875 -12.820312 15.796875 -8.527344 C 15.796875 -4.234375 12.703125 -0.75 8.898438 -0.75 Z M 8.898438 -0.75 "/></g></g></g><g fill="#261913" fill-opacity="1"><g transform="translate(441.630168, 71.060989)"><g><path d="M 14.726562 -4.128906 C 14.390625 -3.507812 12.523438 -0.832031 8.789062 -0.832031 C 5.066406 -0.832031 2.035156 -4.304688 2.035156 -8.574219 C 2.035156 -12.859375 5.066406 -16.332031 8.789062 -16.332031 C 11.777344 -16.332031 13.617188 -14.761719 13.296875 -12.976562 L 15.175781 -14.628906 C 14.273438 -15.023438 12.511719 -17.054688 8.898438 -17.054688 C 4.257812 -17.054688 0.488281 -13.25 0.488281 -8.550781 C 0.488281 -3.867188 4.257812 -0.046875 8.898438 -0.046875 C 12.40625 -0.046875 14.605469 -2.699219 14.726562 -4.128906 Z M 14.726562 -4.128906 "/></g></g></g><g fill="#261913" fill-opacity="1"><g transform="translate(457.850139, 71.060989)"><g><path d="M 2.867188 -6.46875 L 11.726562 -6.46875 L 11.726562 -1.820312 C 11.726562 -0.144531 10.8125 0 10.8125 0 L 14.105469 0 C 14.105469 0 13.203125 -0.117188 13.203125 -1.820312 L 13.203125 -15.226562 C 13.203125 -16.9375 14.105469 -17.054688 14.105469 -17.054688 L 10.8125 -17.054688 C 10.8125 -17.054688 11.726562 -16.902344 11.726562 -15.238281 L 11.726562 -6.910156 L 2.867188 -6.910156 L 2.867188 -15.226562 C 2.878906 -16.9375 3.78125 -17.054688 3.78125 -17.054688 L 0.488281 -17.054688 C 0.488281 -17.054688 1.390625 -16.902344 1.390625 -15.238281 L 1.390625 -1.820312 C 1.390625 -0.144531 0.488281 0 0.488281 0 L 3.78125 0 C 3.78125 0 2.878906 -0.117188 2.867188 -1.820312 Z M 2.867188 -6.46875 "/></g></g></g><g fill="#261913" fill-opacity="1"><g transform="translate(472.999974, 71.060989)"><g><path d="M 13.691406 0 L 16.984375 0 C 16.984375 0 16.035156 -0.117188 15.34375 -1.820312 L 9.289062 -17.054688 L 8.195312 -17.054688 L 2.128906 -1.820312 C 1.4375 -0.117188 0.488281 0 0.488281 0 L 2.996094 0 C 2.996094 0 2.140625 -0.144531 2.820312 -1.820312 L 4.675781 -6.46875 L 12.011719 -6.46875 L 13.867188 -1.820312 C 14.546875 -0.144531 13.691406 0 13.691406 0 Z M 4.851562 -6.910156 C 4.851562 -6.910156 8.289062 -15.535156 8.324219 -15.664062 C 8.386719 -15.535156 11.835938 -6.910156 11.835938 -6.910156 Z M 4.851562 -6.910156 "/></g></g></g></svg>