<svg xmlns="http://www.w3.org/2000/svg" xmlns:xlink="http://www.w3.org/1999/xlink" width="700" zoomAndPan="magnify" viewBox="0 0 525 149.999998" height="200" preserveAspectRatio="xMidYMid meet" version="1.0"><defs><g/><clipPath id="5d3423f6d0"><path d="M 78 119 L 79 119 L 79 120 L 78 120 Z M 78 119 " clip-rule="nonzero"/></clipPath><clipPath id="7a6825c4fb"><path d="M 7.90625 62.910156 L 155.867188 82.460938 L 148.007812 141.945312 L 0.046875 122.394531 Z M 7.90625 62.910156 " clip-rule="nonzero"/></clipPath><clipPath id="bddd3f89fd"><path d="M 7.90625 62.910156 L 155.867188 82.460938 L 148.007812 141.945312 L 0.046875 122.394531 Z M 7.90625 62.910156 " clip-rule="nonzero"/></clipPath><clipPath id="1925d11f47"><path d="M 124 79 L 155 79 L 155 110 L 124 110 Z M 124 79 " clip-rule="nonzero"/></clipPath><clipPath id="bd68ac2105"><path d="M 7.90625 62.910156 L 155.867188 82.460938 L 148.007812 141.945312 L 0.046875 122.394531 Z M 7.90625 62.910156 " clip-rule="nonzero"/></clipPath><clipPath id="4014138157"><path d="M 7.90625 62.910156 L 155.867188 82.460938 L 148.007812 141.945312 L 0.046875 122.394531 Z M 7.90625 62.910156 " clip-rule="nonzero"/></clipPath><clipPath id="98eb58630d"><path d="M 127.921875 78.769531 L 155.945312 82.472656 L 151.796875 113.84375 L 123.777344 110.140625 Z M 127.921875 78.769531 " clip-rule="nonzero"/></clipPath><clipPath id="7d1f1a1866"><path d="M 127.921875 78.769531 L 155.792969 82.449219 L 151.644531 113.824219 L 123.777344 110.140625 Z M 127.921875 78.769531 " clip-rule="nonzero"/></clipPath><clipPath id="0679c2a7a9"><path d="M 3 87 L 79 87 L 79 117 L 3 117 Z M 3 87 " clip-rule="nonzero"/></clipPath><clipPath id="69320edc9d"><path d="M 7.90625 62.910156 L 155.867188 82.460938 L 148.007812 141.945312 L 0.046875 122.394531 Z M 7.90625 62.910156 " clip-rule="nonzero"/></clipPath><clipPath id="b459b44357"><path d="M 7.90625 62.910156 L 155.867188 82.460938 L 148.007812 141.945312 L 0.046875 122.394531 Z M 7.90625 62.910156 " clip-rule="nonzero"/></clipPath><clipPath id="3d5a770353"><path d="M 124 79 L 155 79 L 155 110 L 124 110 Z M 124 79 " clip-rule="nonzero"/></clipPath><clipPath id="7b3a6d6912"><path d="M 7.90625 62.910156 L 155.867188 82.460938 L 148.007812 141.945312 L 0.046875 122.394531 Z M 7.90625 62.910156 " clip-rule="nonzero"/></clipPath><clipPath id="275ebf4a5c"><path d="M 7.90625 62.910156 L 155.867188 82.460938 L 148.007812 141.945312 L 0.046875 122.394531 Z M 7.90625 62.910156 " clip-rule="nonzero"/></clipPath><clipPath id="4759df0124"><path d="M 127.921875 78.769531 L 155.945312 82.472656 L 151.796875 113.84375 L 123.777344 110.140625 Z M 127.921875 78.769531 " clip-rule="nonzero"/></clipPath><clipPath id="9523631847"><path d="M 127.921875 78.769531 L 155.792969 82.449219 L 151.644531 113.824219 L 123.777344 110.140625 Z M 127.921875 78.769531 " clip-rule="nonzero"/></clipPath><clipPath id="9c33081dd7"><path d="M 3 87 L 79 87 L 79 117 L 3 117 Z M 3 87 " clip-rule="nonzero"/></clipPath><clipPath id="de591ddf81"><path d="M 7.90625 62.910156 L 155.867188 82.460938 L 148.007812 141.945312 L 0.046875 122.394531 Z M 7.90625 62.910156 " clip-rule="nonzero"/></clipPath><clipPath id="5bc2114292"><path d="M 7.90625 62.910156 L 155.867188 82.460938 L 148.007812 141.945312 L 0.046875 122.394531 Z M 7.90625 62.910156 " clip-rule="nonzero"/></clipPath><clipPath id="cae213dee4"><path d="M 100 136 L 101 136 L 101 137 L 100 137 Z M 100 136 " clip-rule="nonzero"/></clipPath><clipPath id="db982e3b22"><path d="M 7.90625 62.910156 L 155.867188 82.460938 L 148.007812 141.945312 L 0.046875 122.394531 Z M 7.90625 62.910156 " clip-rule="nonzero"/></clipPath><clipPath id="8025d7f3d8"><path d="M 7.90625 62.910156 L 155.867188 82.460938 L 148.007812 141.945312 L 0.046875 122.394531 Z M 7.90625 62.910156 " clip-rule="nonzero"/></clipPath><clipPath id="8a478f657a"><path d="M 100.84375 135.929688 L 101.148438 135.972656 L 101.109375 136.277344 L 100.804688 136.234375 Z M 100.84375 135.929688 " clip-rule="nonzero"/></clipPath><clipPath id="2894cc0536"><path d="M 100.84375 135.929688 L 101.148438 135.972656 L 101.132812 136.101562 L 100.828125 136.0625 Z M 100.84375 135.929688 " clip-rule="nonzero"/></clipPath><clipPath id="fd6532e0ff"><path d="M 77 91 L 123 91 L 123 134 L 77 134 Z M 77 91 " clip-rule="nonzero"/></clipPath><clipPath id="ca2b00d04f"><path d="M 7.90625 62.910156 L 155.867188 82.460938 L 148.007812 141.945312 L 0.046875 122.394531 Z M 7.90625 62.910156 " clip-rule="nonzero"/></clipPath><clipPath id="b9c84d5d09"><path d="M 7.90625 62.910156 L 155.867188 82.460938 L 148.007812 141.945312 L 0.046875 122.394531 Z M 7.90625 62.910156 " clip-rule="nonzero"/></clipPath><clipPath id="b43a313499"><path d="M 228.789062 90.683594 L 233.65625 90.683594 L 233.65625 95.550781 L 228.789062 95.550781 Z M 228.789062 90.683594 " clip-rule="nonzero"/></clipPath><clipPath id="dbd1fe7b5a"><path d="M 231.222656 90.683594 C 229.878906 90.683594 228.789062 91.773438 228.789062 93.117188 C 228.789062 94.460938 229.878906 95.550781 231.222656 95.550781 C 232.566406 95.550781 233.65625 94.460938 233.65625 93.117188 C 233.65625 91.773438 232.566406 90.683594 231.222656 90.683594 Z M 231.222656 90.683594 " clip-rule="nonzero"/></clipPath><clipPath id="0733f9b537"><path d="M 520.132812 90.683594 L 525 90.683594 L 525 95.550781 L 520.132812 95.550781 Z M 520.132812 90.683594 " clip-rule="nonzero"/></clipPath><clipPath id="2e65c1574e"><path d="M 522.566406 90.683594 C 521.222656 90.683594 520.132812 91.773438 520.132812 93.117188 C 520.132812 94.460938 521.222656 95.550781 522.566406 95.550781 C 523.910156 95.550781 525 94.460938 525 93.117188 C 525 91.773438 523.910156 90.683594 522.566406 90.683594 Z M 522.566406 90.683594 " clip-rule="nonzero"/></clipPath></defs><path stroke-linecap="round" transform="matrix(0, -0.75, 0.75, 0, 192.590412, 115.869137)" fill="none" stroke-linejoin="miter" d="M 1.502599 1.499242 L 107.48698 1.499242 " stroke="#383325" stroke-width="3" stroke-opacity="1" stroke-miterlimit="4"/><g fill="#383325" fill-opacity="1"><g transform="translate(19.601242, 79.651905)"><g><path d="M 32.871094 1.300781 C 41.199219 1.300781 46.929688 0 52.136719 -1.691406 L 52.136719 -10.414062 L 51.417969 -10.414062 C 51.417969 -10.414062 47.320312 0.519531 32.871094 0.519531 C 20.308594 0.519531 9.761719 -13.539062 9.761719 -32.542969 C 9.761719 -51.550781 19.394531 -65.609375 32.871094 -65.609375 C 43.738281 -65.609375 49.011719 -60.988281 49.011719 -53.242188 C 49.011719 -43.738281 30.722656 -39.898438 30.722656 -28.445312 C 30.722656 -25.449219 32.871094 -21.609375 36.382812 -22.390625 C 35.082031 -23.496094 34.433594 -24.601562 34.433594 -26.621094 C 34.433594 -34.367188 52.851562 -39.183594 52.851562 -52.722656 C 52.851562 -58.644531 47.773438 -66.390625 32.871094 -66.390625 C 16.664062 -66.390625 3.90625 -52.070312 3.90625 -32.542969 C 3.90625 -13.019531 16.664062 1.300781 32.871094 1.300781 Z M 32.871094 1.300781 "/></g></g></g><g fill="#383325" fill-opacity="1"><g transform="translate(60.355887, 107.037606)"><g><path d="M 1.730469 0 L 17.226562 0 L 17.226562 -0.578125 C 12.273438 -0.578125 11.925781 -4.667969 11.925781 -16.019531 L 11.925781 -56.121094 C 15.441406 -57.390625 18.207031 -57.964844 22.472656 -57.964844 C 33.1875 -57.964844 39.929688 -52.085938 39.929688 -42.523438 C 39.929688 -35.609375 35.261719 -28.523438 28.0625 -28.523438 C 22.703125 -28.523438 20.050781 -31.804688 16.652344 -31.804688 C 15.613281 -31.804688 14.636719 -31.230469 14.636719 -29.847656 C 14.636719 -25.929688 20.742188 -25.699219 26.332031 -17.285156 C 35.4375 -3.628906 37.050781 0 39.699219 0 L 48.515625 0 L 48.515625 -0.578125 C 41.945312 -0.578125 36.589844 -10.832031 32.035156 -17.917969 C 27.367188 -25.179688 15.210938 -25.984375 15.210938 -29.730469 C 15.210938 -31.058594 16.191406 -31.230469 16.882812 -31.230469 C 19.300781 -31.230469 22.988281 -27.542969 28.40625 -27.542969 C 38.433594 -27.542969 44.886719 -34.6875 44.886719 -42.582031 C 44.886719 -51.972656 38.027344 -58.773438 25.753906 -58.773438 C 19.070312 -58.773438 14.980469 -57.621094 8.644531 -57.621094 L 1.730469 -57.621094 L 1.730469 -57.042969 C 6.683594 -57.042969 7.03125 -52.953125 7.03125 -41.601562 L 7.03125 -16.019531 C 7.03125 -4.667969 6.683594 -0.578125 1.730469 -0.578125 Z M 1.730469 0 "/></g></g></g><g clip-path="url(#5d3423f6d0)"><g clip-path="url(#7a6825c4fb)"><g clip-path="url(#bddd3f89fd)"><path fill="#383325" d="M 78.210938 119.039062 L 78.214844 119.027344 L 78.210938 119.027344 Z M 78.210938 119.039062 " fill-opacity="1" fill-rule="nonzero"/></g></g></g><g clip-path="url(#1925d11f47)"><g clip-path="url(#bd68ac2105)"><g clip-path="url(#4014138157)"><g clip-path="url(#98eb58630d)"><g clip-path="url(#7d1f1a1866)"><path fill="#383325" d="M 124.480469 106.3125 C 124.480469 106.316406 124.488281 106.320312 124.492188 106.324219 C 124.542969 106.410156 124.578125 106.484375 124.65625 106.574219 C 124.65625 106.574219 124.65625 106.574219 124.65625 106.578125 C 124.867188 106.960938 124.921875 107.332031 124.964844 107.691406 C 125.054688 108.386719 124.910156 109.027344 124.636719 109.617188 C 124.59375 109.714844 124.527344 109.8125 124.472656 109.910156 C 124.46875 109.917969 124.464844 109.921875 124.464844 109.925781 C 124.476562 109.921875 124.484375 109.921875 124.496094 109.917969 C 124.765625 109.847656 125.03125 109.777344 125.292969 109.703125 C 125.296875 109.703125 125.296875 109.703125 125.296875 109.703125 C 126.117188 109.480469 126.933594 109.253906 127.75 109.015625 C 129.847656 108.40625 131.9375 107.742188 134.003906 107.007812 C 136.15625 106.238281 138.289062 105.417969 140.386719 104.46875 C 142.480469 103.527344 144.550781 102.492188 146.542969 101.265625 C 147.539062 100.652344 148.519531 99.996094 149.460938 99.261719 C 150.398438 98.527344 151.308594 97.722656 152.136719 96.789062 C 152.546875 96.324219 152.9375 95.820312 153.285156 95.273438 C 153.632812 94.726562 153.945312 94.128906 154.175781 93.484375 C 154.40625 92.839844 154.554688 92.136719 154.574219 91.417969 C 154.578125 91.238281 154.574219 91.058594 154.5625 90.882812 L 154.554688 90.746094 L 154.539062 90.597656 L 154.507812 90.347656 C 154.453125 89.988281 154.371094 89.644531 154.253906 89.308594 C 154.03125 88.640625 153.703125 88.03125 153.316406 87.488281 C 152.933594 86.945312 152.496094 86.472656 152.035156 86.042969 C 151.105469 85.195312 150.09375 84.527344 149.058594 83.957031 C 146.976562 82.820312 144.800781 82.039062 142.605469 81.394531 C 140.410156 80.753906 138.1875 80.28125 135.957031 79.890625 C 133.726562 79.511719 131.484375 79.21875 129.238281 79.019531 L 129.191406 79.339844 C 131.382812 79.828125 133.566406 80.347656 135.722656 80.941406 C 137.878906 81.53125 140.007812 82.203125 142.074219 82.984375 C 143.105469 83.378906 144.125 83.800781 145.109375 84.269531 C 146.097656 84.738281 147.054688 85.25 147.949219 85.824219 C 148.84375 86.398438 149.679688 87.035156 150.367188 87.753906 C 151.050781 88.46875 151.578125 89.265625 151.792969 90.074219 C 151.847656 90.273438 151.882812 90.484375 151.902344 90.679688 L 151.914062 90.847656 L 151.914062 90.988281 C 151.914062 91.089844 151.910156 91.1875 151.902344 91.289062 C 151.867188 91.695312 151.765625 92.105469 151.597656 92.507812 C 151.261719 93.320312 150.679688 94.101562 149.988281 94.820312 C 149.292969 95.542969 148.484375 96.207031 147.628906 96.820312 C 146.769531 97.433594 145.863281 98.003906 144.925781 98.535156 C 143.046875 99.597656 141.066406 100.53125 139.042969 101.382812 C 137.019531 102.222656 134.953125 103.003906 132.859375 103.714844 C 131.8125 104.070312 130.761719 104.425781 129.703125 104.757812 C 129.105469 104.949219 128.503906 105.128906 127.902344 105.3125 C 127.441406 105.449219 126.980469 105.585938 126.519531 105.722656 C 125.894531 105.910156 125.265625 106.089844 124.636719 106.265625 C 124.632812 106.269531 124.628906 106.269531 124.621094 106.269531 C 124.574219 106.285156 124.527344 106.296875 124.480469 106.3125 " fill-opacity="1" fill-rule="nonzero"/></g></g></g></g></g><g clip-path="url(#0679c2a7a9)"><g clip-path="url(#69320edc9d)"><g clip-path="url(#b459b44357)"><path fill="#383325" d="M 3.03125 102.421875 C 3.003906 103.132812 3.109375 103.851562 3.324219 104.523438 C 3.539062 105.195312 3.863281 105.8125 4.238281 106.363281 C 5 107.46875 5.945312 108.328125 6.925781 109.058594 C 7.917969 109.789062 8.953125 110.390625 10.011719 110.925781 C 11.066406 111.460938 12.144531 111.914062 13.230469 112.328125 C 15.402344 113.15625 17.617188 113.796875 19.84375 114.324219 C 20.960938 114.589844 22.078125 114.828125 23.199219 115.03125 C 24.320312 115.246094 25.445312 115.425781 26.570312 115.589844 C 28.328125 115.84375 30.089844 116.046875 31.851562 116.210938 C 32.992188 116.3125 34.136719 116.402344 35.277344 116.476562 C 36.890625 116.582031 38.5 116.660156 40.113281 116.722656 C 42.808594 116.824219 45.5 116.878906 48.191406 116.90625 C 49.285156 116.917969 50.375 116.925781 51.464844 116.929688 C 52.191406 116.933594 52.914062 116.933594 53.640625 116.933594 C 58.144531 116.9375 62.648438 116.890625 67.148438 116.789062 C 70.15625 116.714844 73.1875 116.632812 76.195312 116.519531 C 77.078125 116.484375 77.898438 116.441406 78.867188 116.414062 L 78.871094 116.40625 L 78.972656 115.953125 L 78.203125 114.820312 L 78.199219 114.820312 C 77.597656 114.828125 76.953125 114.925781 76.417969 114.996094 L 76.417969 114.988281 C 73.347656 115.296875 70.222656 115.535156 67.128906 115.691406 C 62.648438 115.921875 58.144531 116 53.660156 115.882812 C 53.507812 115.878906 53.351562 115.875 53.199219 115.867188 C 53.039062 115.863281 52.875 115.859375 52.71875 115.855469 C 52.554688 115.851562 52.394531 115.847656 52.234375 115.839844 C 52.164062 115.835938 52.09375 115.832031 52.023438 115.832031 C 51.914062 115.828125 51.835938 115.828125 51.726562 115.824219 C 51.621094 115.816406 51.515625 115.8125 51.429688 115.8125 C 51.253906 115.796875 51.246094 115.804688 51.171875 115.800781 C 50.980469 115.792969 50.773438 115.78125 50.582031 115.773438 C 50.582031 115.773438 50.570312 115.773438 50.566406 115.773438 C 50.296875 115.757812 50.019531 115.746094 49.742188 115.730469 C 49.472656 115.714844 49.199219 115.679688 48.925781 115.664062 C 48.652344 115.644531 48.378906 115.628906 48.105469 115.59375 L 48.101562 115.589844 C 45.46875 115.507812 42.859375 115.199219 40.253906 114.898438 C 38.417969 114.6875 36.589844 114.421875 34.761719 114.179688 L 34.757812 114.179688 C 33.613281 114.027344 32.46875 113.878906 31.339844 113.640625 C 31.339844 113.640625 31.339844 113.640625 31.335938 113.640625 L 31.324219 113.636719 C 29.878906 113.445312 28.449219 113.160156 27.023438 112.886719 C 26.480469 112.78125 25.933594 112.683594 25.390625 112.570312 C 24.847656 112.460938 24.304688 112.351562 23.765625 112.230469 C 22.683594 111.992188 21.605469 111.753906 20.535156 111.484375 C 18.398438 110.945312 16.285156 110.347656 14.246094 109.605469 C 13.226562 109.234375 12.230469 108.820312 11.269531 108.367188 C 10.308594 107.90625 9.386719 107.394531 8.550781 106.808594 C 7.71875 106.226562 6.964844 105.566406 6.425781 104.832031 C 5.886719 104.09375 5.578125 103.304688 5.574219 102.476562 C 5.5625 101.648438 5.871094 100.777344 6.371094 99.945312 C 6.875 99.109375 7.566406 98.328125 8.332031 97.601562 C 9.09375 96.875 9.941406 96.199219 10.828125 95.566406 C 11.707031 94.933594 12.636719 94.339844 13.582031 93.773438 C 15.476562 92.644531 17.464844 91.628906 19.480469 90.671875 C 21.5 89.71875 23.5625 88.828125 25.636719 87.964844 L 25.535156 87.652344 C 23.347656 88.210938 21.183594 88.859375 19.046875 89.613281 C 16.910156 90.367188 14.800781 91.222656 12.746094 92.238281 C 10.699219 93.261719 8.691406 94.425781 6.859375 95.953125 C 5.953125 96.726562 5.085938 97.59375 4.367188 98.648438 C 4.007812 99.175781 3.6875 99.753906 3.453125 100.386719 C 3.214844 101.019531 3.058594 101.710938 3.03125 102.421875 " fill-opacity="1" fill-rule="nonzero"/></g></g></g><g clip-path="url(#3d5a770353)"><g clip-path="url(#7b3a6d6912)"><g clip-path="url(#275ebf4a5c)"><g clip-path="url(#4759df0124)"><g clip-path="url(#9523631847)"><path fill="#383325" d="M 124.480469 106.3125 C 124.480469 106.316406 124.488281 106.320312 124.492188 106.324219 C 124.542969 106.410156 124.578125 106.484375 124.65625 106.574219 C 124.65625 106.574219 124.65625 106.574219 124.65625 106.578125 C 124.867188 106.960938 124.921875 107.332031 124.964844 107.691406 C 125.054688 108.386719 124.910156 109.027344 124.636719 109.617188 C 124.59375 109.714844 124.527344 109.8125 124.472656 109.910156 C 124.46875 109.917969 124.464844 109.921875 124.464844 109.925781 C 124.476562 109.921875 124.484375 109.921875 124.496094 109.917969 C 124.765625 109.847656 125.03125 109.777344 125.292969 109.703125 C 125.296875 109.703125 125.296875 109.703125 125.296875 109.703125 C 126.117188 109.480469 126.933594 109.253906 127.75 109.015625 C 129.847656 108.40625 131.9375 107.742188 134.003906 107.007812 C 136.15625 106.238281 138.289062 105.417969 140.386719 104.46875 C 142.480469 103.527344 144.550781 102.492188 146.542969 101.265625 C 147.539062 100.652344 148.519531 99.996094 149.460938 99.261719 C 150.398438 98.527344 151.308594 97.722656 152.136719 96.789062 C 152.546875 96.324219 152.9375 95.820312 153.285156 95.273438 C 153.632812 94.726562 153.945312 94.128906 154.175781 93.484375 C 154.40625 92.839844 154.554688 92.136719 154.574219 91.417969 C 154.578125 91.238281 154.574219 91.058594 154.5625 90.882812 L 154.554688 90.746094 L 154.539062 90.597656 L 154.507812 90.347656 C 154.453125 89.988281 154.371094 89.644531 154.253906 89.308594 C 154.03125 88.640625 153.703125 88.03125 153.316406 87.488281 C 152.933594 86.945312 152.496094 86.472656 152.035156 86.042969 C 151.105469 85.195312 150.09375 84.527344 149.058594 83.957031 C 146.976562 82.820312 144.800781 82.039062 142.605469 81.394531 C 140.410156 80.753906 138.1875 80.28125 135.957031 79.890625 C 133.726562 79.511719 131.484375 79.21875 129.238281 79.019531 L 129.191406 79.339844 C 131.382812 79.828125 133.566406 80.347656 135.722656 80.941406 C 137.878906 81.53125 140.007812 82.203125 142.074219 82.984375 C 143.105469 83.378906 144.125 83.800781 145.109375 84.269531 C 146.097656 84.738281 147.054688 85.25 147.949219 85.824219 C 148.84375 86.398438 149.679688 87.035156 150.367188 87.753906 C 151.050781 88.46875 151.578125 89.265625 151.792969 90.074219 C 151.847656 90.273438 151.882812 90.484375 151.902344 90.679688 L 151.914062 90.847656 L 151.914062 90.988281 C 151.914062 91.089844 151.910156 91.1875 151.902344 91.289062 C 151.867188 91.695312 151.765625 92.105469 151.597656 92.507812 C 151.261719 93.320312 150.679688 94.101562 149.988281 94.820312 C 149.292969 95.542969 148.484375 96.207031 147.628906 96.820312 C 146.769531 97.433594 145.863281 98.003906 144.925781 98.535156 C 143.046875 99.597656 141.066406 100.53125 139.042969 101.382812 C 137.019531 102.222656 134.953125 103.003906 132.859375 103.714844 C 131.8125 104.070312 130.761719 104.425781 129.703125 104.757812 C 129.105469 104.949219 128.503906 105.128906 127.902344 105.3125 C 127.441406 105.449219 126.980469 105.585938 126.519531 105.722656 C 125.894531 105.910156 125.265625 106.089844 124.636719 106.265625 C 124.632812 106.269531 124.628906 106.269531 124.621094 106.269531 C 124.574219 106.285156 124.527344 106.296875 124.480469 106.3125 " fill-opacity="1" fill-rule="nonzero"/></g></g></g></g></g><g clip-path="url(#9c33081dd7)"><g clip-path="url(#de591ddf81)"><g clip-path="url(#5bc2114292)"><path fill="#383325" d="M 3.03125 102.421875 C 3.003906 103.132812 3.109375 103.851562 3.324219 104.523438 C 3.539062 105.195312 3.863281 105.8125 4.238281 106.363281 C 5 107.46875 5.945312 108.328125 6.925781 109.058594 C 7.917969 109.789062 8.953125 110.390625 10.011719 110.925781 C 11.066406 111.460938 12.144531 111.914062 13.230469 112.328125 C 15.402344 113.15625 17.617188 113.796875 19.84375 114.324219 C 20.960938 114.589844 22.078125 114.828125 23.199219 115.03125 C 24.320312 115.246094 25.445312 115.425781 26.570312 115.589844 C 28.328125 115.84375 30.089844 116.046875 31.851562 116.210938 C 32.992188 116.3125 34.136719 116.402344 35.277344 116.476562 C 36.890625 116.582031 38.5 116.660156 40.113281 116.722656 C 42.808594 116.824219 45.5 116.878906 48.191406 116.90625 C 49.285156 116.917969 50.375 116.925781 51.464844 116.929688 C 52.191406 116.933594 52.914062 116.933594 53.640625 116.933594 C 58.144531 116.9375 62.648438 116.890625 67.148438 116.789062 C 70.15625 116.714844 73.1875 116.632812 76.195312 116.519531 C 77.078125 116.484375 77.898438 116.441406 78.867188 116.414062 L 78.871094 116.40625 L 78.972656 115.953125 L 78.203125 114.820312 L 78.199219 114.820312 C 77.597656 114.828125 76.984375 114.933594 76.375 114.996094 C 73.289062 115.300781 70.203125 115.539062 67.105469 115.695312 C 62.625 115.925781 58.136719 116.003906 53.65625 115.882812 C 53.339844 115.875 53.027344 115.867188 52.714844 115.855469 C 52.554688 115.851562 52.394531 115.847656 52.234375 115.839844 C 52.164062 115.835938 52.089844 115.835938 52.023438 115.832031 C 51.914062 115.828125 51.804688 115.824219 51.699219 115.820312 C 51.589844 115.816406 51.488281 115.8125 51.378906 115.808594 C 51.300781 115.804688 51.21875 115.800781 51.140625 115.796875 C 50.949219 115.789062 50.757812 115.78125 50.566406 115.773438 C 50.566406 115.769531 50.5625 115.769531 50.558594 115.769531 C 50.285156 115.757812 50.011719 115.742188 49.738281 115.730469 C 49.46875 115.714844 49.195312 115.679688 48.925781 115.664062 C 48.652344 115.644531 48.378906 115.628906 48.105469 115.59375 L 48.101562 115.589844 C 45.46875 115.507812 42.859375 115.199219 40.253906 114.898438 C 38.417969 114.6875 36.589844 114.421875 34.761719 114.179688 L 34.757812 114.179688 C 33.613281 114.027344 32.46875 113.878906 31.339844 113.640625 C 31.339844 113.640625 31.339844 113.640625 31.335938 113.640625 L 31.324219 113.636719 C 29.878906 113.445312 28.449219 113.160156 27.023438 112.886719 C 26.480469 112.78125 25.933594 112.683594 25.390625 112.570312 C 24.847656 112.460938 24.304688 112.351562 23.765625 112.230469 C 22.683594 111.992188 21.605469 111.753906 20.535156 111.484375 C 18.398438 110.945312 16.285156 110.347656 14.246094 109.605469 C 13.226562 109.234375 12.230469 108.820312 11.269531 108.367188 C 10.308594 107.90625 9.386719 107.394531 8.550781 106.808594 C 7.71875 106.226562 6.964844 105.566406 6.425781 104.832031 C 5.886719 104.09375 5.578125 103.304688 5.574219 102.476562 C 5.5625 101.648438 5.871094 100.777344 6.371094 99.945312 C 6.875 99.109375 7.566406 98.328125 8.332031 97.601562 C 9.09375 96.875 9.941406 96.199219 10.828125 95.566406 C 11.707031 94.933594 12.636719 94.339844 13.582031 93.773438 C 15.476562 92.644531 17.464844 91.628906 19.480469 90.671875 C 21.5 89.71875 23.5625 88.828125 25.636719 87.964844 L 25.535156 87.652344 C 23.347656 88.210938 21.183594 88.859375 19.046875 89.613281 C 16.910156 90.367188 14.800781 91.222656 12.746094 92.238281 C 10.699219 93.261719 8.691406 94.425781 6.859375 95.953125 C 5.953125 96.726562 5.085938 97.59375 4.367188 98.648438 C 4.007812 99.175781 3.6875 99.753906 3.453125 100.386719 C 3.214844 101.019531 3.058594 101.710938 3.03125 102.421875 " fill-opacity="1" fill-rule="nonzero"/></g></g></g><g clip-path="url(#cae213dee4)"><g clip-path="url(#db982e3b22)"><g clip-path="url(#8025d7f3d8)"><g clip-path="url(#8a478f657a)"><g clip-path="url(#2894cc0536)"><path fill="#383325" d="M 100.863281 136.046875 C 100.859375 136.050781 100.859375 136.054688 100.859375 136.054688 C 100.859375 136.058594 100.859375 136.0625 100.859375 136.066406 L 100.894531 136.058594 C 100.886719 136.054688 100.875 136.050781 100.863281 136.046875 " fill-opacity="1" fill-rule="nonzero"/></g></g></g></g></g><g clip-path="url(#fd6532e0ff)"><g clip-path="url(#ca2b00d04f)"><g clip-path="url(#b9c84d5d09)"><path fill="#383325" d="M 77.742188 109.414062 L 79.492188 112.023438 L 79.964844 112.730469 L 81.128906 114.464844 L 81.496094 115.011719 C 81.597656 115.167969 81.703125 115.722656 81.660156 115.90625 L 81.589844 116.273438 C 81.597656 116.273438 81.613281 116.273438 81.613281 116.269531 L 81.613281 116.277344 L 81 118.917969 L 81 118.921875 L 80.171875 122.480469 C 80.0625 122.957031 80.335938 123.277344 80.78125 123.195312 C 81.230469 123.109375 81.773438 122.679688 81.984375 122.238281 L 83.65625 118.773438 L 84.769531 116.441406 L 89.167969 115.792969 L 89.488281 115.746094 L 89.492188 115.746094 L 102.015625 113.898438 L 101.910156 114.351562 L 101.914062 114.359375 L 101.953125 114.371094 L 101.464844 117.074219 L 101.460938 117.089844 L 98.054688 133.183594 C 97.984375 133.519531 98.054688 133.796875 98.3125 133.832031 L 98.328125 133.832031 C 98.425781 133.847656 98.542969 133.847656 98.667969 133.824219 L 100.679688 133.449219 C 101.148438 133.363281 101.683594 132.941406 101.863281 132.5 L 103.59375 128.347656 C 103.710938 128.378906 103.824219 128.328125 103.953125 128.300781 L 104.835938 128.136719 L 105.074219 128.09375 C 105.542969 128.007812 105.894531 127.664062 105.808594 127.195312 L 105.742188 126.855469 C 105.714844 126.707031 105.644531 126.558594 105.550781 126.433594 C 105.34375 126.167969 105.011719 125.988281 104.695312 126.046875 L 104.492188 126.085938 L 106.027344 122.480469 C 106.144531 122.507812 106.28125 122.582031 106.40625 122.558594 L 106.871094 122.46875 L 107.496094 122.355469 C 107.964844 122.269531 108.285156 121.800781 108.199219 121.332031 L 108.136719 120.992188 C 108.078125 120.6875 107.851562 120.390625 107.570312 120.246094 C 107.417969 120.167969 107.253906 120.132812 107.089844 120.164062 L 106.921875 120.191406 L 108.632812 116.113281 L 108.710938 115.933594 L 109.910156 113.070312 L 110.078125 112.667969 L 116.367188 111.816406 L 116.417969 111.8125 C 117.867188 111.59375 120.5625 110.4375 121.761719 109.234375 C 122.171875 108.824219 122.40625 108.40625 122.359375 108.015625 C 122.3125 107.652344 122.019531 107.351562 121.578125 107.101562 C 120.164062 106.308594 117.203125 106.082031 115.71875 106.300781 C 115.691406 106.304688 113.390625 106.816406 110.027344 107.566406 C 109.917969 107.59375 109.808594 107.617188 109.695312 107.640625 C 109.523438 107.679688 109.351562 107.71875 109.175781 107.757812 L 108.84375 107.40625 L 107.007812 105.46875 L 103.511719 101.777344 L 103.679688 101.746094 C 104.148438 101.65625 104.476562 101.222656 104.390625 100.753906 L 104.328125 100.414062 C 104.242188 99.945312 103.796875 99.757812 103.332031 99.84375 L 102.242188 100.046875 C 102.117188 100.070312 101.984375 100.039062 101.886719 100.109375 L 99.136719 97.140625 L 99.339844 97.105469 C 99.808594 97.019531 100.144531 96.605469 100.058594 96.136719 L 99.996094 95.796875 C 99.910156 95.328125 99.429688 94.972656 98.960938 95.058594 L 97.835938 95.265625 C 97.710938 95.289062 97.597656 95.34375 97.5 95.414062 L 94.398438 92.144531 C 94.074219 91.800781 93.414062 91.550781 92.945312 91.636719 L 90.9375 92.007812 C 90.46875 92.09375 90.304688 92.53125 90.5625 92.933594 L 99.097656 106.242188 L 100.816406 108.921875 L 101.21875 109.550781 C 100.972656 109.605469 100.722656 109.660156 100.472656 109.714844 C 93.65625 111.242188 86.609375 112.816406 84.171875 113.363281 L 82.382812 111.679688 L 80.359375 109.769531 L 79.523438 108.984375 C 79.164062 108.648438 78.507812 108.441406 78.0625 108.523438 C 77.613281 108.605469 77.472656 109.007812 77.742188 109.414062 " fill-opacity="1" fill-rule="nonzero"/><path fill="#383325" d="M 77.742188 109.414062 L 79.492188 112.023438 L 79.964844 112.730469 L 81.128906 114.464844 L 81.496094 115.011719 C 81.597656 115.167969 81.714844 115.726562 81.671875 115.910156 L 81.613281 116.269531 L 81.613281 116.277344 L 81 118.917969 L 81 118.921875 L 80.171875 122.480469 C 80.0625 122.957031 80.335938 123.277344 80.78125 123.195312 C 81.230469 123.109375 81.773438 122.679688 81.984375 122.238281 L 83.65625 118.773438 L 84.769531 116.441406 L 89.167969 115.792969 L 89.488281 115.746094 L 89.492188 115.746094 L 102.015625 113.898438 L 101.910156 114.351562 L 101.914062 114.359375 L 101.953125 114.371094 L 101.464844 117.074219 L 101.460938 117.089844 L 98.054688 133.183594 C 97.984375 133.519531 98.054688 133.796875 98.3125 133.832031 L 98.328125 133.832031 C 98.425781 133.847656 98.542969 133.847656 98.667969 133.824219 L 100.679688 133.449219 C 101.148438 133.363281 101.683594 132.941406 101.863281 132.5 L 103.59375 128.347656 C 103.710938 128.378906 103.824219 128.328125 103.953125 128.300781 L 104.835938 128.136719 L 105.074219 128.09375 C 105.542969 128.007812 105.894531 127.664062 105.808594 127.195312 L 105.742188 126.855469 C 105.714844 126.707031 105.644531 126.558594 105.550781 126.433594 C 105.34375 126.167969 105.011719 125.988281 104.695312 126.046875 L 104.492188 126.085938 L 106.027344 122.480469 C 106.144531 122.507812 106.28125 122.582031 106.40625 122.558594 L 106.871094 122.46875 L 107.496094 122.355469 C 107.964844 122.269531 108.285156 121.800781 108.199219 121.332031 L 108.136719 120.992188 C 108.078125 120.6875 107.851562 120.390625 107.570312 120.246094 C 107.417969 120.167969 107.253906 120.132812 107.089844 120.164062 L 106.921875 120.191406 L 108.632812 116.113281 L 108.710938 115.933594 L 109.910156 113.070312 L 110.078125 112.667969 L 116.367188 111.816406 L 116.417969 111.8125 C 117.867188 111.59375 120.5625 110.4375 121.761719 109.234375 C 122.171875 108.824219 122.40625 108.40625 122.359375 108.015625 C 122.3125 107.652344 122.019531 107.351562 121.578125 107.101562 C 120.164062 106.308594 117.203125 106.082031 115.71875 106.300781 C 115.691406 106.304688 113.390625 106.816406 110.027344 107.566406 C 109.917969 107.59375 109.808594 107.617188 109.695312 107.640625 C 109.523438 107.679688 109.351562 107.71875 109.175781 107.757812 L 108.84375 107.40625 L 107.007812 105.46875 L 103.511719 101.777344 L 103.679688 101.746094 C 104.148438 101.65625 104.476562 101.222656 104.390625 100.753906 L 104.328125 100.414062 C 104.242188 99.945312 103.796875 99.757812 103.332031 99.84375 L 102.242188 100.046875 C 102.117188 100.070312 101.984375 100.039062 101.886719 100.109375 L 99.136719 97.140625 L 99.339844 97.105469 C 99.808594 97.019531 100.144531 96.605469 100.058594 96.136719 L 99.996094 95.796875 C 99.910156 95.328125 99.429688 94.972656 98.960938 95.058594 L 97.835938 95.265625 C 97.710938 95.289062 97.597656 95.34375 97.5 95.414062 L 94.398438 92.144531 C 94.074219 91.800781 93.414062 91.550781 92.945312 91.636719 L 90.9375 92.007812 C 90.46875 92.09375 90.304688 92.53125 90.5625 92.933594 L 99.097656 106.242188 L 100.816406 108.921875 L 101.21875 109.550781 C 100.972656 109.605469 100.722656 109.660156 100.472656 109.714844 C 93.65625 111.242188 86.609375 112.816406 84.171875 113.363281 L 82.382812 111.679688 L 80.359375 109.769531 L 79.523438 108.984375 C 79.164062 108.648438 78.507812 108.441406 78.0625 108.523438 C 77.613281 108.605469 77.472656 109.007812 77.742188 109.414062 " fill-opacity="1" fill-rule="nonzero"/></g></g></g><g clip-path="url(#b43a313499)"><g clip-path="url(#dbd1fe7b5a)"><path fill="#a6873a" d="M 228.789062 90.683594 L 233.65625 90.683594 L 233.65625 95.550781 L 228.789062 95.550781 Z M 228.789062 90.683594 " fill-opacity="1" fill-rule="nonzero"/></g></g><g clip-path="url(#0733f9b537)"><g clip-path="url(#2e65c1574e)"><path fill="#a6873a" d="M 520.132812 90.683594 L 525 90.683594 L 525 95.550781 L 520.132812 95.550781 Z M 520.132812 90.683594 " fill-opacity="1" fill-rule="nonzero"/></g></g><g fill="#a6873a" fill-opacity="1"><g transform="translate(248.261416, 99.493415)"><g><path d="M 7.9375 0 L 1.546875 0 L 1.546875 -11.421875 L 7.9375 -11.421875 L 7.9375 -10.15625 L 2.984375 -10.15625 L 2.984375 -6.59375 L 7.640625 -6.59375 L 7.640625 -5.34375 L 2.984375 -5.34375 L 2.984375 -1.265625 L 7.9375 -1.265625 Z M 7.9375 0 "/></g></g></g><g fill="#a6873a" fill-opacity="1"><g transform="translate(258.595274, 99.493415)"><g><path d="M 8.03125 -3.0625 C 8.03125 -2.039062 7.660156 -1.25 6.921875 -0.6875 C 6.191406 -0.125 5.203125 0.15625 3.953125 0.15625 C 3.304688 0.15625 2.710938 0.109375 2.171875 0.015625 C 1.628906 -0.078125 1.175781 -0.210938 0.8125 -0.390625 L 0.8125 -1.765625 C 1.195312 -1.585938 1.675781 -1.429688 2.25 -1.296875 C 2.820312 -1.160156 3.410156 -1.09375 4.015625 -1.09375 C 4.859375 -1.09375 5.5 -1.253906 5.9375 -1.578125 C 6.375 -1.910156 6.59375 -2.359375 6.59375 -2.921875 C 6.59375 -3.296875 6.507812 -3.609375 6.34375 -3.859375 C 6.1875 -4.117188 5.910156 -4.351562 5.515625 -4.5625 C 5.117188 -4.78125 4.582031 -5.019531 3.90625 -5.28125 C 2.925781 -5.632812 2.1875 -6.066406 1.6875 -6.578125 C 1.195312 -7.085938 0.953125 -7.785156 0.953125 -8.671875 C 0.953125 -9.265625 1.109375 -9.78125 1.421875 -10.21875 C 1.734375 -10.65625 2.160156 -10.988281 2.703125 -11.21875 C 3.242188 -11.457031 3.878906 -11.578125 4.609375 -11.578125 C 5.222656 -11.578125 5.789062 -11.519531 6.3125 -11.40625 C 6.84375 -11.289062 7.328125 -11.132812 7.765625 -10.9375 L 7.3125 -9.71875 C 6.914062 -9.882812 6.484375 -10.023438 6.015625 -10.140625 C 5.546875 -10.253906 5.066406 -10.3125 4.578125 -10.3125 C 3.859375 -10.3125 3.316406 -10.160156 2.953125 -9.859375 C 2.597656 -9.554688 2.421875 -9.15625 2.421875 -8.65625 C 2.421875 -8.269531 2.5 -7.945312 2.65625 -7.6875 C 2.8125 -7.4375 3.070312 -7.207031 3.4375 -7 C 3.800781 -6.789062 4.289062 -6.578125 4.90625 -6.359375 C 5.582031 -6.109375 6.148438 -5.84375 6.609375 -5.5625 C 7.078125 -5.28125 7.429688 -4.941406 7.671875 -4.546875 C 7.910156 -4.148438 8.03125 -3.65625 8.03125 -3.0625 Z M 8.03125 -3.0625 "/></g></g></g><g fill="#a6873a" fill-opacity="1"><g transform="translate(268.817151, 99.493415)"><g><path d="M 4.578125 -11.421875 C 6.066406 -11.421875 7.148438 -11.125 7.828125 -10.53125 C 8.515625 -9.945312 8.859375 -9.125 8.859375 -8.0625 C 8.859375 -7.4375 8.71875 -6.847656 8.4375 -6.296875 C 8.15625 -5.742188 7.679688 -5.296875 7.015625 -4.953125 C 6.347656 -4.617188 5.441406 -4.453125 4.296875 -4.453125 L 2.984375 -4.453125 L 2.984375 0 L 1.546875 0 L 1.546875 -11.421875 Z M 4.453125 -10.1875 L 2.984375 -10.1875 L 2.984375 -5.6875 L 4.140625 -5.6875 C 5.234375 -5.6875 6.046875 -5.859375 6.578125 -6.203125 C 7.109375 -6.554688 7.375 -7.15625 7.375 -8 C 7.375 -8.738281 7.132812 -9.285156 6.65625 -9.640625 C 6.1875 -10.003906 5.453125 -10.1875 4.453125 -10.1875 Z M 4.453125 -10.1875 "/></g></g></g><g fill="#a6873a" fill-opacity="1"><g transform="translate(279.934815, 99.493415)"><g><path d="M 7.9375 0 L 1.546875 0 L 1.546875 -11.421875 L 7.9375 -11.421875 L 7.9375 -10.15625 L 2.984375 -10.15625 L 2.984375 -6.59375 L 7.640625 -6.59375 L 7.640625 -5.34375 L 2.984375 -5.34375 L 2.984375 -1.265625 L 7.9375 -1.265625 Z M 7.9375 0 "/></g></g></g><g fill="#a6873a" fill-opacity="1"><g transform="translate(290.268672, 99.493415)"><g><path d="M 6.453125 -10.3125 C 5.222656 -10.3125 4.253906 -9.898438 3.546875 -9.078125 C 2.847656 -8.265625 2.5 -7.144531 2.5 -5.71875 C 2.5 -4.289062 2.828125 -3.164062 3.484375 -2.34375 C 4.140625 -1.519531 5.125 -1.109375 6.4375 -1.109375 C 6.925781 -1.109375 7.394531 -1.148438 7.84375 -1.234375 C 8.289062 -1.316406 8.734375 -1.421875 9.171875 -1.546875 L 9.171875 -0.296875 C 8.742188 -0.140625 8.300781 -0.0234375 7.84375 0.046875 C 7.394531 0.117188 6.851562 0.15625 6.21875 0.15625 C 5.0625 0.15625 4.09375 -0.0820312 3.3125 -0.5625 C 2.53125 -1.039062 1.941406 -1.722656 1.546875 -2.609375 C 1.160156 -3.492188 0.96875 -4.535156 0.96875 -5.734375 C 0.96875 -6.878906 1.175781 -7.890625 1.59375 -8.765625 C 2.019531 -9.648438 2.644531 -10.335938 3.46875 -10.828125 C 4.289062 -11.328125 5.289062 -11.578125 6.46875 -11.578125 C 7.664062 -11.578125 8.710938 -11.351562 9.609375 -10.90625 L 9.046875 -9.703125 C 8.691406 -9.859375 8.296875 -10 7.859375 -10.125 C 7.429688 -10.25 6.960938 -10.3125 6.453125 -10.3125 Z M 6.453125 -10.3125 "/></g></g></g><g fill="#a6873a" fill-opacity="1"><g transform="translate(301.818235, 99.493415)"><g><path d="M 4.765625 0 L 0.640625 0 L 0.640625 -0.828125 L 1.984375 -1.140625 L 1.984375 -10.265625 L 0.640625 -10.59375 L 0.640625 -11.421875 L 4.765625 -11.421875 L 4.765625 -10.59375 L 3.421875 -10.265625 L 3.421875 -1.140625 L 4.765625 -0.828125 Z M 4.765625 0 "/></g></g></g><g fill="#a6873a" fill-opacity="1"><g transform="translate(308.68093, 99.493415)"><g><path d="M 8.71875 0 L 7.34375 -3.53125 L 2.8125 -3.53125 L 1.453125 0 L 0 0 L 4.46875 -11.46875 L 5.765625 -11.46875 L 10.203125 0 Z M 6.90625 -4.8125 L 5.625 -8.265625 C 5.59375 -8.359375 5.539062 -8.515625 5.46875 -8.734375 C 5.394531 -8.960938 5.320312 -9.195312 5.25 -9.4375 C 5.1875 -9.675781 5.132812 -9.859375 5.09375 -9.984375 C 5 -9.648438 4.90625 -9.328125 4.8125 -9.015625 C 4.726562 -8.703125 4.65625 -8.453125 4.59375 -8.265625 L 3.296875 -4.8125 Z M 6.90625 -4.8125 "/></g></g></g><g fill="#a6873a" fill-opacity="1"><g transform="translate(320.342465, 99.493415)"><g><path d="M 1.546875 0 L 1.546875 -11.421875 L 2.984375 -11.421875 L 2.984375 -1.28125 L 7.984375 -1.28125 L 7.984375 0 Z M 1.546875 0 "/></g></g></g><g fill="#a6873a" fill-opacity="1"><g transform="translate(330.164442, 99.493415)"><g><path d="M 4.765625 0 L 0.640625 0 L 0.640625 -0.828125 L 1.984375 -1.140625 L 1.984375 -10.265625 L 0.640625 -10.59375 L 0.640625 -11.421875 L 4.765625 -11.421875 L 4.765625 -10.59375 L 3.421875 -10.265625 L 3.421875 -1.140625 L 4.765625 -0.828125 Z M 4.765625 0 "/></g></g></g><g fill="#a6873a" fill-opacity="1"><g transform="translate(337.027137, 99.493415)"><g><path d="M 8.03125 -3.0625 C 8.03125 -2.039062 7.660156 -1.25 6.921875 -0.6875 C 6.191406 -0.125 5.203125 0.15625 3.953125 0.15625 C 3.304688 0.15625 2.710938 0.109375 2.171875 0.015625 C 1.628906 -0.078125 1.175781 -0.210938 0.8125 -0.390625 L 0.8125 -1.765625 C 1.195312 -1.585938 1.675781 -1.429688 2.25 -1.296875 C 2.820312 -1.160156 3.410156 -1.09375 4.015625 -1.09375 C 4.859375 -1.09375 5.5 -1.253906 5.9375 -1.578125 C 6.375 -1.910156 6.59375 -2.359375 6.59375 -2.921875 C 6.59375 -3.296875 6.507812 -3.609375 6.34375 -3.859375 C 6.1875 -4.117188 5.910156 -4.351562 5.515625 -4.5625 C 5.117188 -4.78125 4.582031 -5.019531 3.90625 -5.28125 C 2.925781 -5.632812 2.1875 -6.066406 1.6875 -6.578125 C 1.195312 -7.085938 0.953125 -7.785156 0.953125 -8.671875 C 0.953125 -9.265625 1.109375 -9.78125 1.421875 -10.21875 C 1.734375 -10.65625 2.160156 -10.988281 2.703125 -11.21875 C 3.242188 -11.457031 3.878906 -11.578125 4.609375 -11.578125 C 5.222656 -11.578125 5.789062 -11.519531 6.3125 -11.40625 C 6.84375 -11.289062 7.328125 -11.132812 7.765625 -10.9375 L 7.3125 -9.71875 C 6.914062 -9.882812 6.484375 -10.023438 6.015625 -10.140625 C 5.546875 -10.253906 5.066406 -10.3125 4.578125 -10.3125 C 3.859375 -10.3125 3.316406 -10.160156 2.953125 -9.859375 C 2.597656 -9.554688 2.421875 -9.15625 2.421875 -8.65625 C 2.421875 -8.269531 2.5 -7.945312 2.65625 -7.6875 C 2.8125 -7.4375 3.070312 -7.207031 3.4375 -7 C 3.800781 -6.789062 4.289062 -6.578125 4.90625 -6.359375 C 5.582031 -6.109375 6.148438 -5.84375 6.609375 -5.5625 C 7.078125 -5.28125 7.429688 -4.941406 7.671875 -4.546875 C 7.910156 -4.148438 8.03125 -3.65625 8.03125 -3.0625 Z M 8.03125 -3.0625 "/></g></g></g><g fill="#a6873a" fill-opacity="1"><g transform="translate(347.249016, 99.493415)"><g><path d="M 5.171875 0 L 3.734375 0 L 3.734375 -10.15625 L 0.15625 -10.15625 L 0.15625 -11.421875 L 8.71875 -11.421875 L 8.71875 -10.15625 L 5.171875 -10.15625 Z M 5.171875 0 "/></g></g></g><g fill="#a6873a" fill-opacity="1"><g transform="translate(357.582871, 99.493415)"><g><path d="M 8.71875 0 L 7.34375 -3.53125 L 2.8125 -3.53125 L 1.453125 0 L 0 0 L 4.46875 -11.46875 L 5.765625 -11.46875 L 10.203125 0 Z M 6.90625 -4.8125 L 5.625 -8.265625 C 5.59375 -8.359375 5.539062 -8.515625 5.46875 -8.734375 C 5.394531 -8.960938 5.320312 -9.195312 5.25 -9.4375 C 5.1875 -9.675781 5.132812 -9.859375 5.09375 -9.984375 C 5 -9.648438 4.90625 -9.328125 4.8125 -9.015625 C 4.726562 -8.703125 4.65625 -8.453125 4.59375 -8.265625 L 3.296875 -4.8125 Z M 6.90625 -4.8125 "/></g></g></g><g fill="#a6873a" fill-opacity="1"><g transform="translate(369.2444, 99.493415)"><g/></g></g><g fill="#a6873a" fill-opacity="1"><g transform="translate(373.483714, 99.493415)"><g><path d="M 7.9375 0 L 1.546875 0 L 1.546875 -11.421875 L 7.9375 -11.421875 L 7.9375 -10.15625 L 2.984375 -10.15625 L 2.984375 -6.59375 L 7.640625 -6.59375 L 7.640625 -5.34375 L 2.984375 -5.34375 L 2.984375 -1.265625 L 7.9375 -1.265625 Z M 7.9375 0 "/></g></g></g><g fill="#a6873a" fill-opacity="1"><g transform="translate(383.817568, 99.493415)"><g><path d="M 6.59375 0 L 2.828125 -10.015625 L 2.765625 -10.015625 C 2.796875 -9.679688 2.820312 -9.234375 2.84375 -8.671875 C 2.863281 -8.117188 2.875 -7.535156 2.875 -6.921875 L 2.875 0 L 1.546875 0 L 1.546875 -11.421875 L 3.6875 -11.421875 L 7.203125 -2.0625 L 7.265625 -2.0625 L 10.84375 -11.421875 L 12.953125 -11.421875 L 12.953125 0 L 11.53125 0 L 11.53125 -7.03125 C 11.53125 -7.582031 11.539062 -8.128906 11.5625 -8.671875 C 11.59375 -9.210938 11.617188 -9.65625 11.640625 -10 L 11.578125 -10 L 7.78125 0 Z M 6.59375 0 "/></g></g></g><g fill="#a6873a" fill-opacity="1"><g transform="translate(399.766065, 99.493415)"><g/></g></g><g fill="#a6873a" fill-opacity="1"><g transform="translate(404.00538, 99.493415)"><g><path d="M 4.765625 0 L 0.640625 0 L 0.640625 -0.828125 L 1.984375 -1.140625 L 1.984375 -10.265625 L 0.640625 -10.59375 L 0.640625 -11.421875 L 4.765625 -11.421875 L 4.765625 -10.59375 L 3.421875 -10.265625 L 3.421875 -1.140625 L 4.765625 -0.828125 Z M 4.765625 0 "/></g></g></g><g fill="#a6873a" fill-opacity="1"><g transform="translate(410.868069, 99.493415)"><g><path d="M 6.59375 0 L 2.828125 -10.015625 L 2.765625 -10.015625 C 2.796875 -9.679688 2.820312 -9.234375 2.84375 -8.671875 C 2.863281 -8.117188 2.875 -7.535156 2.875 -6.921875 L 2.875 0 L 1.546875 0 L 1.546875 -11.421875 L 3.6875 -11.421875 L 7.203125 -2.0625 L 7.265625 -2.0625 L 10.84375 -11.421875 L 12.953125 -11.421875 L 12.953125 0 L 11.53125 0 L 11.53125 -7.03125 C 11.53125 -7.582031 11.539062 -8.128906 11.5625 -8.671875 C 11.59375 -9.210938 11.617188 -9.65625 11.640625 -10 L 11.578125 -10 L 7.78125 0 Z M 6.59375 0 "/></g></g></g><g fill="#a6873a" fill-opacity="1"><g transform="translate(426.816566, 99.493415)"><g><path d="M 4.765625 0 L 0.640625 0 L 0.640625 -0.828125 L 1.984375 -1.140625 L 1.984375 -10.265625 L 0.640625 -10.59375 L 0.640625 -11.421875 L 4.765625 -11.421875 L 4.765625 -10.59375 L 3.421875 -10.265625 L 3.421875 -1.140625 L 4.765625 -0.828125 Z M 4.765625 0 "/></g></g></g><g fill="#a6873a" fill-opacity="1"><g transform="translate(433.679256, 99.493415)"><g><path d="M 6.515625 -6.03125 L 10.46875 -6.03125 L 10.46875 -0.4375 C 9.84375 -0.226562 9.210938 -0.078125 8.578125 0.015625 C 7.953125 0.109375 7.242188 0.15625 6.453125 0.15625 C 5.265625 0.15625 4.265625 -0.078125 3.453125 -0.546875 C 2.640625 -1.023438 2.019531 -1.703125 1.59375 -2.578125 C 1.175781 -3.460938 0.96875 -4.507812 0.96875 -5.71875 C 0.96875 -6.894531 1.203125 -7.921875 1.671875 -8.796875 C 2.140625 -9.679688 2.816406 -10.363281 3.703125 -10.84375 C 4.585938 -11.332031 5.648438 -11.578125 6.890625 -11.578125 C 7.535156 -11.578125 8.140625 -11.519531 8.703125 -11.40625 C 9.273438 -11.289062 9.804688 -11.125 10.296875 -10.90625 L 9.765625 -9.65625 C 9.359375 -9.832031 8.898438 -9.984375 8.390625 -10.109375 C 7.878906 -10.242188 7.351562 -10.3125 6.8125 -10.3125 C 5.445312 -10.3125 4.382812 -9.898438 3.625 -9.078125 C 2.863281 -8.253906 2.484375 -7.132812 2.484375 -5.71875 C 2.484375 -4.8125 2.628906 -4.003906 2.921875 -3.296875 C 3.210938 -2.597656 3.671875 -2.054688 4.296875 -1.671875 C 4.929688 -1.285156 5.757812 -1.09375 6.78125 -1.09375 C 7.28125 -1.09375 7.707031 -1.117188 8.0625 -1.171875 C 8.414062 -1.222656 8.738281 -1.285156 9.03125 -1.359375 L 9.03125 -4.75 L 6.515625 -4.75 Z M 6.515625 -6.03125 "/></g></g></g><g fill="#a6873a" fill-opacity="1"><g transform="translate(446.764441, 99.493415)"><g><path d="M 4.703125 -11.421875 C 6.117188 -11.421875 7.164062 -11.148438 7.84375 -10.609375 C 8.519531 -10.078125 8.859375 -9.265625 8.859375 -8.171875 C 8.859375 -7.566406 8.742188 -7.0625 8.515625 -6.65625 C 8.296875 -6.25 8.015625 -5.921875 7.671875 -5.671875 C 7.328125 -5.429688 6.960938 -5.25 6.578125 -5.125 L 9.71875 0 L 8.03125 0 L 5.265625 -4.71875 L 2.984375 -4.71875 L 2.984375 0 L 1.546875 0 L 1.546875 -11.421875 Z M 4.625 -10.171875 L 2.984375 -10.171875 L 2.984375 -5.9375 L 4.703125 -5.9375 C 5.628906 -5.9375 6.304688 -6.117188 6.734375 -6.484375 C 7.160156 -6.859375 7.375 -7.398438 7.375 -8.109375 C 7.375 -8.859375 7.148438 -9.390625 6.703125 -9.703125 C 6.253906 -10.015625 5.5625 -10.171875 4.625 -10.171875 Z M 4.625 -10.171875 "/></g></g></g><g fill="#a6873a" fill-opacity="1"><g transform="translate(458.154036, 99.493415)"><g><path d="M 8.71875 0 L 7.34375 -3.53125 L 2.8125 -3.53125 L 1.453125 0 L 0 0 L 4.46875 -11.46875 L 5.765625 -11.46875 L 10.203125 0 Z M 6.90625 -4.8125 L 5.625 -8.265625 C 5.59375 -8.359375 5.539062 -8.515625 5.46875 -8.734375 C 5.394531 -8.960938 5.320312 -9.195312 5.25 -9.4375 C 5.1875 -9.675781 5.132812 -9.859375 5.09375 -9.984375 C 5 -9.648438 4.90625 -9.328125 4.8125 -9.015625 C 4.726562 -8.703125 4.65625 -8.453125 4.59375 -8.265625 L 3.296875 -4.8125 Z M 6.90625 -4.8125 "/></g></g></g><g fill="#a6873a" fill-opacity="1"><g transform="translate(469.815565, 99.493415)"><g><path d="M 6.453125 -10.3125 C 5.222656 -10.3125 4.253906 -9.898438 3.546875 -9.078125 C 2.847656 -8.265625 2.5 -7.144531 2.5 -5.71875 C 2.5 -4.289062 2.828125 -3.164062 3.484375 -2.34375 C 4.140625 -1.519531 5.125 -1.109375 6.4375 -1.109375 C 6.925781 -1.109375 7.394531 -1.148438 7.84375 -1.234375 C 8.289062 -1.316406 8.734375 -1.421875 9.171875 -1.546875 L 9.171875 -0.296875 C 8.742188 -0.140625 8.300781 -0.0234375 7.84375 0.046875 C 7.394531 0.117188 6.851562 0.15625 6.21875 0.15625 C 5.0625 0.15625 4.09375 -0.0820312 3.3125 -0.5625 C 2.53125 -1.039062 1.941406 -1.722656 1.546875 -2.609375 C 1.160156 -3.492188 0.96875 -4.535156 0.96875 -5.734375 C 0.96875 -6.878906 1.175781 -7.890625 1.59375 -8.765625 C 2.019531 -9.648438 2.644531 -10.335938 3.46875 -10.828125 C 4.289062 -11.328125 5.289062 -11.578125 6.46875 -11.578125 C 7.664062 -11.578125 8.710938 -11.351562 9.609375 -10.90625 L 9.046875 -9.703125 C 8.691406 -9.859375 8.296875 -10 7.859375 -10.125 C 7.429688 -10.25 6.960938 -10.3125 6.453125 -10.3125 Z M 7.5625 2.21875 C 7.5625 2.726562 7.363281 3.125 6.96875 3.40625 C 6.570312 3.695312 5.984375 3.84375 5.203125 3.84375 C 4.859375 3.84375 4.585938 3.816406 4.390625 3.765625 L 4.390625 2.875 C 4.492188 2.894531 4.625 2.910156 4.78125 2.921875 C 4.9375 2.941406 5.09375 2.953125 5.25 2.953125 C 5.625 2.953125 5.910156 2.898438 6.109375 2.796875 C 6.316406 2.703125 6.421875 2.519531 6.421875 2.25 C 6.421875 1.976562 6.28125 1.773438 6 1.640625 C 5.71875 1.515625 5.375 1.425781 4.96875 1.375 L 5.65625 0 L 6.59375 0 L 6.171875 0.84375 C 6.554688 0.925781 6.882812 1.070312 7.15625 1.28125 C 7.425781 1.5 7.5625 1.8125 7.5625 2.21875 Z M 7.5625 2.21875 "/></g></g></g><g fill="#a6873a" fill-opacity="1"><g transform="translate(481.365124, 99.493415)"><g><path d="M 8.71875 0 L 7.34375 -3.53125 L 2.8125 -3.53125 L 1.453125 0 L 0 0 L 4.46875 -11.46875 L 5.765625 -11.46875 L 10.203125 0 Z M 6.90625 -4.8125 L 5.625 -8.265625 C 5.59375 -8.359375 5.539062 -8.515625 5.46875 -8.734375 C 5.394531 -8.960938 5.320312 -9.195312 5.25 -9.4375 C 5.1875 -9.675781 5.132812 -9.859375 5.09375 -9.984375 C 5 -9.648438 4.90625 -9.328125 4.8125 -9.015625 C 4.726562 -8.703125 4.65625 -8.453125 4.59375 -8.265625 L 3.296875 -4.8125 Z M 2.140625 -12.546875 C 2.203125 -13.171875 2.382812 -13.664062 2.6875 -14.03125 C 2.988281 -14.40625 3.394531 -14.59375 3.90625 -14.59375 C 4.21875 -14.59375 4.515625 -14.515625 4.796875 -14.359375 C 5.085938 -14.203125 5.359375 -14.046875 5.609375 -13.890625 C 5.867188 -13.742188 6.109375 -13.671875 6.328125 -13.671875 C 6.578125 -13.671875 6.765625 -13.75 6.890625 -13.90625 C 7.023438 -14.0625 7.132812 -14.296875 7.21875 -14.609375 L 8.015625 -14.609375 C 7.953125 -13.972656 7.769531 -13.472656 7.46875 -13.109375 C 7.164062 -12.742188 6.765625 -12.5625 6.265625 -12.5625 C 5.960938 -12.5625 5.671875 -12.632812 5.390625 -12.78125 C 5.109375 -12.925781 4.835938 -13.078125 4.578125 -13.234375 C 4.316406 -13.390625 4.070312 -13.46875 3.84375 -13.46875 C 3.582031 -13.46875 3.382812 -13.390625 3.25 -13.234375 C 3.125 -13.078125 3.023438 -12.847656 2.953125 -12.546875 Z M 2.140625 -12.546875 "/></g></g></g><g fill="#a6873a" fill-opacity="1"><g transform="translate(493.026653, 99.493415)"><g><path d="M 11.515625 -5.734375 C 11.515625 -4.546875 11.3125 -3.507812 10.90625 -2.625 C 10.507812 -1.75 9.921875 -1.066406 9.140625 -0.578125 C 8.359375 -0.0859375 7.394531 0.15625 6.25 0.15625 C 5.070312 0.15625 4.085938 -0.0859375 3.296875 -0.578125 C 2.515625 -1.066406 1.929688 -1.753906 1.546875 -2.640625 C 1.160156 -3.523438 0.96875 -4.5625 0.96875 -5.75 C 0.96875 -6.90625 1.160156 -7.921875 1.546875 -8.796875 C 1.929688 -9.679688 2.515625 -10.367188 3.296875 -10.859375 C 4.085938 -11.347656 5.078125 -11.59375 6.265625 -11.59375 C 7.410156 -11.59375 8.367188 -11.347656 9.140625 -10.859375 C 9.921875 -10.378906 10.507812 -9.695312 10.90625 -8.8125 C 11.3125 -7.9375 11.515625 -6.910156 11.515625 -5.734375 Z M 2.5 -5.734375 C 2.5 -4.285156 2.800781 -3.148438 3.40625 -2.328125 C 4.007812 -1.503906 4.957031 -1.09375 6.25 -1.09375 C 7.539062 -1.09375 8.488281 -1.503906 9.09375 -2.328125 C 9.695312 -3.148438 10 -4.285156 10 -5.734375 C 10 -7.171875 9.695312 -8.296875 9.09375 -9.109375 C 8.5 -9.929688 7.554688 -10.34375 6.265625 -10.34375 C 4.960938 -10.34375 4.007812 -9.929688 3.40625 -9.109375 C 2.800781 -8.296875 2.5 -7.171875 2.5 -5.734375 Z M 2.5 -5.734375 "/></g></g></g><g fill="#a6873a" fill-opacity="1"><g transform="translate(506.96453, 99.493415)"><g/></g></g><g fill="#383325" fill-opacity="1"><g transform="translate(229.488339, 74.451027)"><g><path d="M 20.804688 -5.832031 C 20.332031 -4.957031 17.695312 -1.175781 12.417969 -1.175781 C 7.160156 -1.175781 2.875 -6.082031 2.875 -12.117188 C 2.875 -18.164062 7.160156 -23.074219 12.417969 -23.074219 C 16.636719 -23.074219 19.242188 -20.855469 18.789062 -18.332031 L 21.441406 -20.667969 C 20.164062 -21.222656 17.679688 -24.097656 12.570312 -24.097656 C 6.015625 -24.097656 0.6875 -18.71875 0.6875 -12.082031 C 0.6875 -5.460938 6.015625 -0.0664062 12.570312 -0.0664062 C 17.527344 -0.0664062 20.636719 -3.816406 20.804688 -5.832031 Z M 20.804688 -5.832031 "/></g></g></g><g fill="#383325" fill-opacity="1"><g transform="translate(252.409568, 74.451027)"><g><path d="M 17.476562 -2.570312 L 13.089844 -9.125 C 19.726562 -10.117188 21.644531 -13.058594 21.644531 -16.417969 C 21.644531 -21.339844 17.308594 -24.082031 11.847656 -24.082031 L 0.6875 -24.097656 C 0.6875 -24.097656 1.984375 -23.878906 1.984375 -21.527344 L 1.984375 -2.570312 C 1.984375 -0.203125 0.6875 0 0.6875 0 L 5.34375 0 C 5.34375 0 4.066406 -0.167969 4.050781 -2.570312 L 4.050781 -8.773438 L 7.613281 -8.773438 C 8.90625 -8.773438 10.082031 -8.804688 11.15625 -8.90625 L 15.394531 -2.570312 C 16.988281 -0.167969 15.828125 0 15.828125 0 L 20.484375 0 C 20.484375 0 19.074219 -0.203125 17.476562 -2.570312 Z M 7.613281 -9.695312 L 4.050781 -9.695312 L 4.050781 -21.507812 C 4.050781 -22.183594 4.167969 -23.039062 5.226562 -23.039062 L 11.847656 -23.039062 C 16.148438 -23.039062 19.324219 -20.28125 19.324219 -16.519531 C 19.324219 -12.820312 16.382812 -9.796875 7.613281 -9.695312 Z M 7.613281 -9.695312 "/></g></g></g><g fill="#383325" fill-opacity="1"><g transform="translate(275.532433, 74.451027)"><g><path d="M 0.6875 -24.097656 C 0.6875 -24.097656 1.964844 -23.878906 1.964844 -21.527344 L 1.964844 -2.570312 C 1.964844 -0.203125 0.6875 0 0.6875 0 L 5.34375 0 C 5.34375 0 4.066406 -0.167969 4.050781 -2.570312 L 4.050781 -21.507812 C 4.066406 -23.929688 5.34375 -24.097656 5.34375 -24.097656 Z M 0.6875 -24.097656 "/></g></g></g><g fill="#383325" fill-opacity="1"><g transform="translate(282.339545, 74.451027)"><g><path d="M 18.820312 -6.722656 C 18.71875 -4.453125 16.621094 -1.042969 10.753906 -1.042969 C 4.890625 -1.042969 3.261719 -7.8125 3.261719 -7.8125 L 0.6875 -5.914062 C 0.6875 -5.914062 3.160156 0 10.703125 0 C 19.074219 0 21.171875 -3.863281 21.292969 -6.753906 C 21.609375 -14.433594 3.746094 -12.503906 4 -18.382812 C 4.117188 -21.375 6.605469 -23.257812 11.023438 -23.257812 C 16.285156 -23.257812 17.425781 -19.542969 17.425781 -19.542969 L 19.34375 -21.777344 C 19.34375 -21.777344 15.863281 -24.097656 11.058594 -24.097656 C 6.25 -24.097656 2.285156 -21.894531 2.117188 -18.132812 C 1.816406 -10.804688 19.074219 -13.039062 18.820312 -6.722656 Z M 18.820312 -6.722656 "/></g></g></g><g fill="#383325" fill-opacity="1"><g transform="translate(305.428802, 74.451027)"><g><path d="M 0.6875 -24.082031 L 0.6875 -20.164062 C 0.6875 -20.164062 1.5625 -23.039062 6.535156 -23.039062 L 8.519531 -23.039062 C 8.652344 -22.667969 8.753906 -22.183594 8.753906 -21.527344 L 8.753906 -2.570312 C 8.753906 -0.203125 7.476562 0 7.476562 0 L 12.132812 0 C 12.132812 0 10.839844 -0.167969 10.839844 -2.570312 L 10.839844 -21.507812 C 10.839844 -22.183594 10.941406 -22.667969 11.074219 -23.039062 L 13.089844 -23.039062 C 18.082031 -23.039062 18.9375 -20.164062 18.9375 -20.164062 L 18.9375 -24.082031 Z M 0.6875 -24.082031 "/></g></g></g><g fill="#383325" fill-opacity="1"><g transform="translate(325.863177, 74.451027)"><g><path d="M 0.6875 -24.097656 C 0.6875 -24.097656 1.964844 -23.878906 1.964844 -21.527344 L 1.964844 -2.570312 C 1.964844 -0.203125 0.6875 0 0.6875 0 L 5.34375 0 C 5.34375 0 4.066406 -0.167969 4.050781 -2.570312 L 4.050781 -21.507812 C 4.066406 -23.929688 5.34375 -24.097656 5.34375 -24.097656 Z M 0.6875 -24.097656 "/></g></g></g><g fill="#383325" fill-opacity="1"><g transform="translate(332.670283, 74.451027)"><g><path d="M 19.34375 0 L 23.996094 0 C 23.996094 0 22.652344 -0.167969 21.675781 -2.570312 L 13.125 -24.097656 L 11.578125 -24.097656 L 3.007812 -2.570312 C 2.035156 -0.167969 0.6875 0 0.6875 0 L 4.234375 0 C 4.234375 0 3.023438 -0.203125 3.984375 -2.570312 L 6.605469 -9.140625 L 16.972656 -9.140625 L 19.59375 -2.570312 C 20.550781 -0.203125 19.34375 0 19.34375 0 Z M 6.855469 -9.761719 C 6.855469 -9.761719 11.710938 -21.945312 11.761719 -22.132812 C 11.847656 -21.945312 16.71875 -9.761719 16.71875 -9.761719 Z M 6.855469 -9.761719 "/></g></g></g><g fill="#383325" fill-opacity="1"><g transform="translate(358.128769, 74.451027)"><g><path d="M 5.832031 -24.097656 L 0.6875 -24.097656 C 0.6875 -24.097656 1.964844 -23.878906 1.964844 -21.527344 L 1.964844 -2.570312 C 1.964844 -0.203125 0.6875 0 0.6875 0 L 4.234375 0 C 4.234375 0 2.957031 -0.167969 2.941406 -2.570312 L 2.941406 -21.507812 C 2.941406 -21.996094 3.007812 -22.398438 3.09375 -22.71875 C 3.34375 -22.398438 3.613281 -21.996094 3.882812 -21.527344 L 15.78125 0 L 16.753906 0 L 16.753906 -21.507812 C 16.769531 -23.929688 18.046875 -24.097656 18.046875 -24.097656 L 14.503906 -24.097656 C 14.503906 -24.097656 15.796875 -23.878906 15.796875 -21.527344 L 15.796875 -3.730469 L 5.964844 -21.507812 C 4.636719 -23.929688 5.832031 -24.097656 5.832031 -24.097656 Z M 5.832031 -24.097656 "/></g></g></g><g fill="#383325" fill-opacity="1"><g transform="translate(377.672583, 74.451027)"><g><path d="M 11.679688 -11.929688 L 11.679688 -16.988281 C 11.679688 -16.988281 11.058594 -14.71875 5.8125 -14.71875 L 4.050781 -14.71875 L 4.050781 -21.507812 C 4.050781 -22.183594 4.03125 -23.039062 5.140625 -23.039062 C 5.140625 -23.039062 6.367188 -23.039062 10.722656 -23.039062 C 16.871094 -23.039062 17.609375 -20.769531 17.609375 -20.769531 L 17.609375 -24.082031 L 0.6875 -24.097656 C 0.6875 -24.097656 1.964844 -23.878906 1.964844 -21.527344 L 1.964844 -2.570312 C 1.964844 -0.203125 0.6875 0 0.6875 0 L 17.609375 0 L 17.609375 -3.308594 C 17.609375 -3.308594 16.871094 -1.042969 10.722656 -1.042969 C 6.367188 -1.042969 5.140625 -1.042969 5.140625 -1.042969 C 4.117188 -1.042969 4.050781 -1.898438 4.050781 -2.570312 L 4.050781 -14.183594 L 5.8125 -14.199219 C 11.058594 -14.199219 11.679688 -11.929688 11.679688 -11.929688 Z M 11.679688 -11.929688 "/></g></g></g><g fill="#383325" fill-opacity="1"><g transform="translate(396.779519, 74.451027)"><g/></g></g><g fill="#383325" fill-opacity="1"><g transform="translate(406.2079, 74.451027)"><g><path d="M 17.476562 -2.570312 L 13.089844 -9.125 C 19.726562 -10.117188 21.644531 -13.058594 21.644531 -16.417969 C 21.644531 -21.339844 17.308594 -24.082031 11.847656 -24.082031 L 0.6875 -24.097656 C 0.6875 -24.097656 1.984375 -23.878906 1.984375 -21.527344 L 1.984375 -2.570312 C 1.984375 -0.203125 0.6875 0 0.6875 0 L 5.34375 0 C 5.34375 0 4.066406 -0.167969 4.050781 -2.570312 L 4.050781 -8.773438 L 7.613281 -8.773438 C 8.90625 -8.773438 10.082031 -8.804688 11.15625 -8.90625 L 15.394531 -2.570312 C 16.988281 -0.167969 15.828125 0 15.828125 0 L 20.484375 0 C 20.484375 0 19.074219 -0.203125 17.476562 -2.570312 Z M 7.613281 -9.695312 L 4.050781 -9.695312 L 4.050781 -21.507812 C 4.050781 -22.183594 4.167969 -23.039062 5.226562 -23.039062 L 11.847656 -23.039062 C 16.148438 -23.039062 19.324219 -20.28125 19.324219 -16.519531 C 19.324219 -12.820312 16.382812 -9.796875 7.613281 -9.695312 Z M 7.613281 -9.695312 "/></g></g></g><g fill="#383325" fill-opacity="1"><g transform="translate(429.330773, 74.451027)"><g><path d="M 12.570312 -24.097656 C 6.015625 -24.097656 0.6875 -18.71875 0.6875 -12.082031 C 0.6875 -5.460938 6.015625 -0.0664062 12.570312 -0.0664062 C 19.140625 -0.0664062 24.449219 -5.460938 24.449219 -12.082031 C 24.449219 -18.71875 19.140625 -24.097656 12.570312 -24.097656 Z M 12.570312 -1.058594 C 7.191406 -1.058594 2.824219 -5.980469 2.824219 -12.046875 C 2.824219 -18.113281 7.191406 -23.054688 12.570312 -23.054688 C 17.945312 -23.054688 22.316406 -18.113281 22.316406 -12.046875 C 22.316406 -5.980469 17.945312 -1.058594 12.570312 -1.058594 Z M 12.570312 -1.058594 "/></g></g></g><g fill="#383325" fill-opacity="1"><g transform="translate(455.276548, 74.451027)"><g><path d="M 20.804688 -5.832031 C 20.332031 -4.957031 17.695312 -1.175781 12.417969 -1.175781 C 7.160156 -1.175781 2.875 -6.082031 2.875 -12.117188 C 2.875 -18.164062 7.160156 -23.074219 12.417969 -23.074219 C 16.636719 -23.074219 19.242188 -20.855469 18.789062 -18.332031 L 21.441406 -20.667969 C 20.164062 -21.222656 17.679688 -24.097656 12.570312 -24.097656 C 6.015625 -24.097656 0.6875 -18.71875 0.6875 -12.082031 C 0.6875 -5.460938 6.015625 -0.0664062 12.570312 -0.0664062 C 17.527344 -0.0664062 20.636719 -3.816406 20.804688 -5.832031 Z M 20.804688 -5.832031 "/></g></g></g><g fill="#383325" fill-opacity="1"><g transform="translate(478.197774, 74.451027)"><g><path d="M 4.050781 -9.140625 L 16.570312 -9.140625 L 16.570312 -2.570312 C 16.570312 -0.203125 15.273438 0 15.273438 0 L 19.929688 0 C 19.929688 0 18.652344 -0.167969 18.652344 -2.570312 L 18.652344 -21.507812 C 18.652344 -23.929688 19.929688 -24.097656 19.929688 -24.097656 L 15.273438 -24.097656 C 15.273438 -24.097656 16.570312 -23.878906 16.570312 -21.527344 L 16.570312 -9.761719 L 4.050781 -9.761719 L 4.050781 -21.507812 C 4.066406 -23.929688 5.34375 -24.097656 5.34375 -24.097656 L 0.6875 -24.097656 C 0.6875 -24.097656 1.964844 -23.878906 1.964844 -21.527344 L 1.964844 -2.570312 C 1.964844 -0.203125 0.6875 0 0.6875 0 L 5.34375 0 C 5.34375 0 4.066406 -0.167969 4.050781 -2.570312 Z M 4.050781 -9.140625 "/></g></g></g><g fill="#383325" fill-opacity="1"><g transform="translate(499.606726, 74.451027)"><g><path d="M 19.34375 0 L 23.996094 0 C 23.996094 0 22.652344 -0.167969 21.675781 -2.570312 L 13.125 -24.097656 L 11.578125 -24.097656 L 3.007812 -2.570312 C 2.035156 -0.167969 0.6875 0 0.6875 0 L 4.234375 0 C 4.234375 0 3.023438 -0.203125 3.984375 -2.570312 L 6.605469 -9.140625 L 16.972656 -9.140625 L 19.59375 -2.570312 C 20.550781 -0.203125 19.34375 0 19.34375 0 Z M 6.855469 -9.761719 C 6.855469 -9.761719 11.710938 -21.945312 11.761719 -22.132812 C 11.847656 -21.945312 16.71875 -9.761719 16.71875 -9.761719 Z M 6.855469 -9.761719 "/></g></g></g></svg>