<svg xmlns="http://www.w3.org/2000/svg" xmlns:xlink="http://www.w3.org/1999/xlink" width="500" zoomAndPan="magnify" viewBox="0 0 375 374.999991" height="500" preserveAspectRatio="xMidYMid meet" version="1.0"><defs><g/><clipPath id="be516660cc"><path d="M 187 295 L 188 295 L 188 296 L 187 296 Z M 187 295 " clip-rule="nonzero"/></clipPath><clipPath id="0283ba5a86"><path d="M 18.992188 161.09375 L 375.148438 208.152344 L 356.183594 351.65625 L 0.03125 304.59375 Z M 18.992188 161.09375 " clip-rule="nonzero"/></clipPath><clipPath id="68e8338efe"><path d="M 18.992188 161.09375 L 375.148438 208.152344 L 356.183594 351.65625 L 0.03125 304.59375 Z M 18.992188 161.09375 " clip-rule="nonzero"/></clipPath><clipPath id="79cf563913"><path d="M 115 281 L 116 281 L 116 282 L 115 282 Z M 115 281 " clip-rule="nonzero"/></clipPath><clipPath id="c76c51af2d"><path d="M 18.992188 161.09375 L 375.148438 208.152344 L 356.183594 351.65625 L 0.03125 304.59375 Z M 18.992188 161.09375 " clip-rule="nonzero"/></clipPath><clipPath id="7b29ca2f2a"><path d="M 18.992188 161.09375 L 375.148438 208.152344 L 356.183594 351.65625 L 0.03125 304.59375 Z M 18.992188 161.09375 " clip-rule="nonzero"/></clipPath><clipPath id="fa344b4813"><path d="M 74 276 L 75 276 L 75 277 L 74 277 Z M 74 276 " clip-rule="nonzero"/></clipPath><clipPath id="666c5ffc01"><path d="M 18.992188 161.09375 L 375.148438 208.152344 L 356.183594 351.65625 L 0.03125 304.59375 Z M 18.992188 161.09375 " clip-rule="nonzero"/></clipPath><clipPath id="612b99283e"><path d="M 18.992188 161.09375 L 375.148438 208.152344 L 356.183594 351.65625 L 0.03125 304.59375 Z M 18.992188 161.09375 " clip-rule="nonzero"/></clipPath><clipPath id="e2e4d206e4"><path d="M 299 199 L 372 199 L 372 275 L 299 275 Z M 299 199 " clip-rule="nonzero"/></clipPath><clipPath id="0b0d5ba3fd"><path d="M 18.992188 161.09375 L 375.148438 208.152344 L 356.183594 351.65625 L 0.03125 304.59375 Z M 18.992188 161.09375 " clip-rule="nonzero"/></clipPath><clipPath id="73aa0e00a5"><path d="M 18.992188 161.09375 L 375.148438 208.152344 L 356.183594 351.65625 L 0.03125 304.59375 Z M 18.992188 161.09375 " clip-rule="nonzero"/></clipPath><clipPath id="6c48d30e3e"><path d="M 307.355469 199.195312 L 374.6875 208.089844 L 364.726562 283.472656 L 297.398438 274.574219 Z M 307.355469 199.195312 " clip-rule="nonzero"/></clipPath><clipPath id="16e4102256"><path d="M 307.355469 199.195312 L 374.320312 208.042969 L 364.359375 283.421875 L 297.398438 274.574219 Z M 307.355469 199.195312 " clip-rule="nonzero"/></clipPath><clipPath id="c114153f17"><path d="M 7 220 L 190 220 L 190 291 L 7 291 Z M 7 220 " clip-rule="nonzero"/></clipPath><clipPath id="45dff276f2"><path d="M 18.992188 161.09375 L 375.148438 208.152344 L 356.183594 351.65625 L 0.03125 304.59375 Z M 18.992188 161.09375 " clip-rule="nonzero"/></clipPath><clipPath id="58cf35dd4d"><path d="M 18.992188 161.09375 L 375.148438 208.152344 L 356.183594 351.65625 L 0.03125 304.59375 Z M 18.992188 161.09375 " clip-rule="nonzero"/></clipPath><clipPath id="091a60c7d6"><path d="M 299 199 L 372 199 L 372 275 L 299 275 Z M 299 199 " clip-rule="nonzero"/></clipPath><clipPath id="ac79b730aa"><path d="M 18.992188 161.09375 L 375.148438 208.152344 L 356.183594 351.65625 L 0.03125 304.59375 Z M 18.992188 161.09375 " clip-rule="nonzero"/></clipPath><clipPath id="16a36a056c"><path d="M 18.992188 161.09375 L 375.148438 208.152344 L 356.183594 351.65625 L 0.03125 304.59375 Z M 18.992188 161.09375 " clip-rule="nonzero"/></clipPath><clipPath id="5839d40322"><path d="M 307.355469 199.195312 L 374.6875 208.089844 L 364.726562 283.472656 L 297.398438 274.574219 Z M 307.355469 199.195312 " clip-rule="nonzero"/></clipPath><clipPath id="47edd71bb7"><path d="M 307.355469 199.195312 L 374.320312 208.042969 L 364.359375 283.421875 L 297.398438 274.574219 Z M 307.355469 199.195312 " clip-rule="nonzero"/></clipPath><clipPath id="e737cbc8e4"><path d="M 7 220 L 190 220 L 190 291 L 7 291 Z M 7 220 " clip-rule="nonzero"/></clipPath><clipPath id="84b89684f3"><path d="M 18.992188 161.09375 L 375.148438 208.152344 L 356.183594 351.65625 L 0.03125 304.59375 Z M 18.992188 161.09375 " clip-rule="nonzero"/></clipPath><clipPath id="acbacb730f"><path d="M 18.992188 161.09375 L 375.148438 208.152344 L 356.183594 351.65625 L 0.03125 304.59375 Z M 18.992188 161.09375 " clip-rule="nonzero"/></clipPath><clipPath id="cf9aaac900"><path d="M 242 336 L 243 336 L 243 337 L 242 337 Z M 242 336 " clip-rule="nonzero"/></clipPath><clipPath id="23437009fa"><path d="M 18.992188 161.09375 L 375.148438 208.152344 L 356.183594 351.65625 L 0.03125 304.59375 Z M 18.992188 161.09375 " clip-rule="nonzero"/></clipPath><clipPath id="ceabccb10b"><path d="M 18.992188 161.09375 L 375.148438 208.152344 L 356.183594 351.65625 L 0.03125 304.59375 Z M 18.992188 161.09375 " clip-rule="nonzero"/></clipPath><clipPath id="77574dd937"><path d="M 242.296875 336.546875 L 243.027344 336.640625 L 242.933594 337.375 L 242.199219 337.277344 Z M 242.296875 336.546875 " clip-rule="nonzero"/></clipPath><clipPath id="69d940cea2"><path d="M 242.296875 336.546875 L 243.027344 336.640625 L 242.988281 336.957031 L 242.253906 336.859375 Z M 242.296875 336.546875 " clip-rule="nonzero"/></clipPath><clipPath id="ce4787066c"><path d="M 186 230 L 295 230 L 295 332 L 186 332 Z M 186 230 " clip-rule="nonzero"/></clipPath><clipPath id="6ee9095dfd"><path d="M 18.992188 161.09375 L 375.148438 208.152344 L 356.183594 351.65625 L 0.03125 304.59375 Z M 18.992188 161.09375 " clip-rule="nonzero"/></clipPath><clipPath id="57b1ad07fd"><path d="M 18.992188 161.09375 L 375.148438 208.152344 L 356.183594 351.65625 L 0.03125 304.59375 Z M 18.992188 161.09375 " clip-rule="nonzero"/></clipPath></defs><g fill="#383325" fill-opacity="1"><g transform="translate(47.092465, 201.78028)"><g><path d="M 78.972656 3.128906 C 98.988281 3.128906 112.75 0 125.261719 -4.066406 L 125.261719 -25.019531 L 123.542969 -25.019531 C 123.542969 -25.019531 113.691406 1.25 78.972656 1.25 C 48.792969 1.25 23.457031 -32.527344 23.457031 -78.191406 C 23.457031 -123.855469 46.601562 -157.632812 78.972656 -157.632812 C 105.089844 -157.632812 117.757812 -146.53125 117.757812 -127.921875 C 117.757812 -105.089844 73.8125 -95.863281 73.8125 -68.339844 C 73.8125 -61.144531 78.972656 -51.917969 87.417969 -53.796875 C 84.289062 -56.453125 82.726562 -59.113281 82.726562 -63.960938 C 82.726562 -82.570312 126.984375 -94.140625 126.984375 -126.667969 C 126.984375 -140.902344 114.785156 -159.511719 78.972656 -159.511719 C 40.035156 -159.511719 9.382812 -125.105469 9.382812 -78.191406 C 9.382812 -31.277344 40.035156 3.128906 78.972656 3.128906 Z M 78.972656 3.128906 "/></g></g></g><g fill="#383325" fill-opacity="1"><g transform="translate(145.006519, 266.953203)"><g><path d="M 4.152344 0 L 41.390625 0 L 41.390625 -1.382812 C 29.484375 -1.382812 28.65625 -11.214844 28.65625 -38.484375 L 28.65625 -134.832031 C 37.101562 -137.878906 43.746094 -139.261719 53.988281 -139.261719 C 79.738281 -139.261719 95.933594 -125.140625 95.933594 -102.164062 C 95.933594 -85.550781 84.71875 -68.523438 67.417969 -68.523438 C 54.542969 -68.523438 48.175781 -76.414062 40.007812 -76.414062 C 37.515625 -76.414062 35.160156 -75.03125 35.160156 -71.707031 C 35.160156 -62.292969 49.835938 -61.742188 63.261719 -41.53125 C 85.136719 -8.722656 89.011719 0 95.378906 0 L 116.558594 0 L 116.558594 -1.382812 C 100.777344 -1.382812 87.902344 -26.023438 76.96875 -43.050781 C 65.753906 -60.496094 36.546875 -62.433594 36.546875 -71.429688 C 36.546875 -74.613281 38.898438 -75.03125 40.558594 -75.03125 C 46.375 -75.03125 55.234375 -66.171875 68.246094 -66.171875 C 92.332031 -66.171875 107.839844 -83.335938 107.839844 -102.300781 C 107.839844 -124.867188 91.363281 -141.199219 61.878906 -141.199219 C 45.820312 -141.199219 35.992188 -138.429688 20.765625 -138.429688 L 4.152344 -138.429688 L 4.152344 -137.046875 C 16.058594 -137.046875 16.886719 -127.21875 16.886719 -99.949219 L 16.886719 -38.484375 C 16.886719 -11.214844 16.058594 -1.382812 4.152344 -1.382812 Z M 4.152344 0 "/></g></g></g><g clip-path="url(#be516660cc)"><g clip-path="url(#0283ba5a86)"><g clip-path="url(#68e8338efe)"><path fill="#383325" d="M 187.910156 295.957031 L 187.917969 295.925781 L 187.914062 295.925781 Z M 187.910156 295.957031 " fill-opacity="1" fill-rule="nonzero"/></g></g></g><g clip-path="url(#79cf563913)"><g clip-path="url(#c76c51af2d)"><g clip-path="url(#7b29ca2f2a)"><path fill="#383325" d="M 115.289062 281.453125 C 115.289062 281.433594 115.289062 281.40625 115.292969 281.382812 L 115.289062 281.382812 C 115.289062 281.40625 115.289062 281.433594 115.289062 281.453125 " fill-opacity="1" fill-rule="nonzero"/></g></g></g><g clip-path="url(#fa344b4813)"><g clip-path="url(#666c5ffc01)"><g clip-path="url(#612b99283e)"><path fill="#383325" d="M 74.3125 276.484375 C 74.3125 276.488281 74.3125 276.496094 74.3125 276.496094 L 74.316406 276.488281 L 74.3125 276.484375 " fill-opacity="1" fill-rule="nonzero"/></g></g></g><g clip-path="url(#e2e4d206e4)"><g clip-path="url(#0b0d5ba3fd)"><g clip-path="url(#73aa0e00a5)"><g clip-path="url(#6c48d30e3e)"><g clip-path="url(#16e4102256)"><path fill="#383325" d="M 299.082031 265.375 C 299.089844 265.382812 299.105469 265.398438 299.113281 265.410156 C 299.234375 265.613281 299.324219 265.792969 299.507812 266.007812 C 299.507812 266.007812 299.507812 266.007812 299.507812 266.011719 C 300.019531 266.933594 300.144531 267.828125 300.253906 268.691406 C 300.464844 270.359375 300.113281 271.898438 299.460938 273.316406 C 299.355469 273.558594 299.199219 273.789062 299.066406 274.023438 C 299.058594 274.039062 299.050781 274.050781 299.046875 274.058594 C 299.074219 274.050781 299.101562 274.046875 299.128906 274.035156 C 299.769531 273.871094 300.40625 273.699219 301.042969 273.527344 C 301.046875 273.527344 301.046875 273.523438 301.050781 273.523438 C 303.015625 272.992188 304.980469 272.445312 306.9375 271.871094 C 311.984375 270.40625 317 268.808594 321.972656 267.050781 C 327.136719 265.203125 332.269531 263.226562 337.304688 260.949219 C 342.339844 258.683594 347.316406 256.195312 352.097656 253.25 C 354.492188 251.777344 356.847656 250.207031 359.109375 248.4375 C 361.367188 246.675781 363.550781 244.742188 365.535156 242.496094 C 366.527344 241.375 367.460938 240.164062 368.300781 238.851562 C 369.136719 237.535156 369.882812 236.105469 370.433594 234.550781 C 370.988281 233 371.34375 231.316406 371.390625 229.589844 C 371.40625 229.160156 371.394531 228.730469 371.371094 228.300781 L 371.347656 227.976562 L 371.3125 227.621094 L 371.234375 227.023438 C 371.101562 226.15625 370.90625 225.328125 370.632812 224.523438 C 370.09375 222.914062 369.300781 221.449219 368.375 220.144531 C 367.453125 218.84375 366.402344 217.703125 365.292969 216.675781 C 363.066406 214.640625 360.632812 213.03125 358.140625 211.65625 C 353.144531 208.925781 347.910156 207.050781 342.640625 205.503906 C 337.363281 203.964844 332.023438 202.832031 326.664062 201.890625 C 321.300781 200.976562 315.917969 200.277344 310.519531 199.796875 L 310.402344 200.570312 C 315.675781 201.742188 320.921875 202.984375 326.101562 204.417969 C 331.28125 205.828125 336.394531 207.445312 341.363281 209.328125 C 343.84375 210.273438 346.289062 211.289062 348.660156 212.414062 C 351.027344 213.542969 353.332031 214.765625 355.480469 216.148438 C 357.625 217.527344 359.636719 219.0625 361.289062 220.785156 C 362.929688 222.507812 364.195312 224.417969 364.710938 226.363281 C 364.84375 226.84375 364.929688 227.34375 364.972656 227.8125 L 365.003906 228.21875 L 365.007812 228.554688 C 365.007812 228.796875 364.996094 229.039062 364.976562 229.285156 C 364.894531 230.257812 364.648438 231.238281 364.242188 232.207031 C 363.441406 234.160156 362.035156 236.035156 360.371094 237.769531 C 358.707031 239.503906 356.765625 241.097656 354.707031 242.566406 C 352.644531 244.039062 350.46875 245.414062 348.214844 246.691406 C 343.703125 249.242188 338.945312 251.488281 334.082031 253.527344 C 329.210938 255.554688 324.25 257.429688 319.21875 259.140625 C 316.699219 259.992188 314.179688 260.839844 311.636719 261.640625 C 310.199219 262.097656 308.753906 262.535156 307.304688 262.972656 C 306.199219 263.304688 305.09375 263.632812 303.984375 263.960938 C 302.484375 264.40625 300.976562 264.839844 299.46875 265.265625 C 299.453125 265.273438 299.441406 265.273438 299.429688 265.277344 C 299.3125 265.308594 299.199219 265.34375 299.082031 265.375 " fill-opacity="1" fill-rule="nonzero"/></g></g></g></g></g><g clip-path="url(#c114153f17)"><g clip-path="url(#45dff276f2)"><g clip-path="url(#58cf35dd4d)"><path fill="#383325" d="M 7.273438 256.027344 C 7.207031 257.734375 7.453125 259.46875 7.972656 261.082031 C 8.492188 262.695312 9.269531 264.175781 10.171875 265.503906 C 11.996094 268.15625 14.269531 270.226562 16.632812 271.980469 C 19.007812 273.730469 21.503906 275.175781 24.039062 276.460938 C 26.574219 277.746094 29.167969 278.835938 31.773438 279.832031 C 37 281.816406 42.316406 283.363281 47.671875 284.632812 C 50.347656 285.261719 53.03125 285.835938 55.726562 286.328125 C 58.421875 286.839844 61.125 287.277344 63.828125 287.667969 C 68.050781 288.28125 72.285156 288.769531 76.519531 289.15625 C 79.257812 289.40625 82.007812 289.617188 84.753906 289.796875 C 88.625 290.054688 92.496094 290.242188 96.367188 290.394531 C 102.84375 290.632812 109.316406 290.765625 115.78125 290.832031 C 118.40625 290.859375 121.027344 290.875 123.648438 290.886719 C 125.394531 290.894531 127.132812 290.898438 128.875 290.898438 C 139.695312 290.910156 150.511719 290.796875 161.332031 290.550781 C 168.554688 290.375 175.839844 290.175781 183.070312 289.902344 C 185.191406 289.824219 187.15625 289.710938 189.492188 289.644531 L 189.492188 289.628906 L 189.742188 288.542969 L 187.886719 285.820312 L 187.882812 285.820312 C 186.4375 285.839844 184.890625 286.074219 183.601562 286.242188 L 183.605469 286.222656 C 176.226562 286.960938 168.71875 287.539062 161.28125 287.917969 C 150.519531 288.46875 139.695312 288.652344 128.917969 288.371094 C 128.550781 288.363281 128.175781 288.351562 127.808594 288.339844 C 127.425781 288.328125 127.035156 288.320312 126.652344 288.304688 C 126.269531 288.296875 125.882812 288.285156 125.5 288.269531 C 125.328125 288.261719 125.152344 288.253906 124.984375 288.25 C 124.726562 288.242188 124.535156 288.238281 124.277344 288.226562 C 124.015625 288.214844 123.765625 288.203125 123.558594 288.203125 L 123.558594 288.207031 C 123.140625 288.164062 123.117188 288.183594 122.9375 288.171875 C 122.480469 288.152344 121.980469 288.132812 121.527344 288.113281 C 121.519531 288.109375 121.496094 288.109375 121.488281 288.105469 C 120.835938 288.074219 120.171875 288.042969 119.507812 288.003906 C 118.855469 287.972656 118.203125 287.882812 117.542969 287.84375 C 116.890625 287.804688 116.226562 287.761719 115.574219 287.675781 L 115.5625 287.671875 C 109.234375 287.46875 102.96875 286.734375 96.703125 286.011719 C 92.292969 285.503906 87.90625 284.863281 83.515625 284.28125 L 83.503906 284.28125 C 80.753906 283.917969 78.003906 283.554688 75.289062 282.980469 C 75.285156 282.980469 75.285156 282.980469 75.28125 282.980469 L 75.25 282.976562 C 71.78125 282.519531 68.347656 281.828125 64.917969 281.171875 C 63.609375 280.921875 62.296875 280.683594 60.996094 280.414062 C 59.691406 280.148438 58.386719 279.886719 57.085938 279.601562 C 54.492188 279.027344 51.898438 278.449219 49.328125 277.800781 C 44.195312 276.511719 39.113281 275.070312 34.214844 273.292969 C 31.769531 272.402344 29.375 271.40625 27.066406 270.308594 C 24.757812 269.210938 22.539062 267.976562 20.535156 266.574219 C 18.53125 265.167969 16.71875 263.585938 15.421875 261.816406 C 14.128906 260.042969 13.390625 258.144531 13.382812 256.15625 C 13.351562 254.171875 14.089844 252.078125 15.296875 250.078125 C 16.507812 248.070312 18.171875 246.195312 20 244.449219 C 21.839844 242.695312 23.875 241.082031 26 239.5625 C 28.117188 238.03125 30.34375 236.613281 32.621094 235.253906 C 37.175781 232.53125 41.945312 230.101562 46.792969 227.800781 C 51.648438 225.511719 56.597656 223.367188 61.589844 221.292969 L 61.339844 220.546875 C 56.089844 221.886719 50.882812 223.445312 45.75 225.257812 C 40.613281 227.0625 35.550781 229.125 30.613281 231.558594 C 25.691406 234.015625 20.863281 236.816406 16.46875 240.488281 C 14.285156 242.339844 12.207031 244.429688 10.476562 246.964844 C 9.617188 248.226562 8.847656 249.617188 8.28125 251.140625 C 7.707031 252.660156 7.339844 254.320312 7.273438 256.027344 " fill-opacity="1" fill-rule="nonzero"/></g></g></g><g clip-path="url(#091a60c7d6)"><g clip-path="url(#ac79b730aa)"><g clip-path="url(#16a36a056c)"><g clip-path="url(#5839d40322)"><g clip-path="url(#47edd71bb7)"><path fill="#383325" d="M 299.082031 265.375 C 299.089844 265.382812 299.105469 265.398438 299.113281 265.410156 C 299.234375 265.613281 299.324219 265.792969 299.507812 266.007812 C 299.507812 266.007812 299.507812 266.007812 299.507812 266.011719 C 300.019531 266.933594 300.144531 267.828125 300.253906 268.691406 C 300.464844 270.359375 300.113281 271.898438 299.460938 273.316406 C 299.355469 273.558594 299.199219 273.789062 299.066406 274.023438 C 299.058594 274.039062 299.050781 274.050781 299.046875 274.058594 C 299.074219 274.050781 299.101562 274.046875 299.128906 274.035156 C 299.769531 273.871094 300.40625 273.699219 301.042969 273.527344 C 301.046875 273.527344 301.046875 273.523438 301.050781 273.523438 C 303.015625 272.992188 304.980469 272.445312 306.9375 271.871094 C 311.984375 270.40625 317 268.808594 321.972656 267.050781 C 327.136719 265.203125 332.269531 263.226562 337.304688 260.949219 C 342.339844 258.683594 347.316406 256.195312 352.097656 253.25 C 354.492188 251.777344 356.847656 250.207031 359.109375 248.4375 C 361.367188 246.675781 363.550781 244.742188 365.535156 242.496094 C 366.527344 241.375 367.460938 240.164062 368.300781 238.851562 C 369.136719 237.535156 369.882812 236.105469 370.433594 234.550781 C 370.988281 233 371.34375 231.316406 371.390625 229.589844 C 371.40625 229.160156 371.394531 228.730469 371.371094 228.300781 L 371.347656 227.976562 L 371.3125 227.621094 L 371.234375 227.023438 C 371.101562 226.15625 370.90625 225.328125 370.632812 224.523438 C 370.09375 222.914062 369.300781 221.449219 368.375 220.144531 C 367.453125 218.84375 366.402344 217.703125 365.292969 216.675781 C 363.066406 214.640625 360.632812 213.03125 358.140625 211.65625 C 353.144531 208.925781 347.910156 207.050781 342.640625 205.503906 C 337.363281 203.964844 332.023438 202.832031 326.664062 201.890625 C 321.300781 200.976562 315.917969 200.277344 310.519531 199.796875 L 310.402344 200.570312 C 315.675781 201.742188 320.921875 202.984375 326.101562 204.417969 C 331.28125 205.828125 336.394531 207.445312 341.363281 209.328125 C 343.84375 210.273438 346.289062 211.289062 348.660156 212.414062 C 351.027344 213.542969 353.332031 214.765625 355.480469 216.148438 C 357.625 217.527344 359.636719 219.0625 361.289062 220.785156 C 362.929688 222.507812 364.195312 224.417969 364.710938 226.363281 C 364.84375 226.84375 364.929688 227.34375 364.972656 227.8125 L 365.003906 228.21875 L 365.007812 228.554688 C 365.007812 228.796875 364.996094 229.039062 364.976562 229.285156 C 364.894531 230.257812 364.648438 231.238281 364.242188 232.207031 C 363.441406 234.160156 362.035156 236.035156 360.371094 237.769531 C 358.707031 239.503906 356.765625 241.097656 354.707031 242.566406 C 352.644531 244.039062 350.46875 245.414062 348.214844 246.691406 C 343.703125 249.242188 338.945312 251.488281 334.082031 253.527344 C 329.210938 255.554688 324.25 257.429688 319.21875 259.140625 C 316.699219 259.992188 314.179688 260.839844 311.636719 261.640625 C 310.199219 262.097656 308.753906 262.535156 307.304688 262.972656 C 306.199219 263.304688 305.09375 263.632812 303.984375 263.960938 C 302.484375 264.40625 300.976562 264.839844 299.46875 265.265625 C 299.453125 265.273438 299.441406 265.273438 299.429688 265.277344 C 299.3125 265.308594 299.199219 265.34375 299.082031 265.375 " fill-opacity="1" fill-rule="nonzero"/></g></g></g></g></g><g clip-path="url(#e737cbc8e4)"><g clip-path="url(#84b89684f3)"><g clip-path="url(#acbacb730f)"><path fill="#383325" d="M 7.273438 256.027344 C 7.207031 257.734375 7.453125 259.46875 7.972656 261.082031 C 8.492188 262.695312 9.269531 264.175781 10.171875 265.503906 C 11.996094 268.15625 14.269531 270.226562 16.632812 271.980469 C 19.007812 273.730469 21.503906 275.175781 24.039062 276.460938 C 26.574219 277.746094 29.167969 278.835938 31.773438 279.832031 C 37 281.816406 42.316406 283.363281 47.671875 284.632812 C 50.347656 285.261719 53.03125 285.835938 55.726562 286.328125 C 58.421875 286.839844 61.125 287.277344 63.828125 287.667969 C 68.050781 288.28125 72.285156 288.769531 76.519531 289.15625 C 79.257812 289.40625 82.007812 289.617188 84.753906 289.796875 C 88.625 290.054688 92.496094 290.242188 96.367188 290.394531 C 102.84375 290.632812 109.316406 290.765625 115.78125 290.832031 C 118.40625 290.859375 121.027344 290.875 123.648438 290.886719 C 125.394531 290.894531 127.132812 290.898438 128.875 290.898438 C 139.695312 290.910156 150.511719 290.796875 161.332031 290.550781 C 168.554688 290.375 175.839844 290.175781 183.070312 289.902344 C 185.191406 289.824219 187.15625 289.710938 189.492188 289.644531 L 189.492188 289.628906 L 189.742188 288.542969 L 187.886719 285.820312 L 187.882812 285.820312 C 186.4375 285.839844 184.960938 286.09375 183.496094 286.238281 C 176.085938 286.976562 168.664062 287.550781 161.226562 287.925781 C 150.464844 288.476562 139.679688 288.660156 128.90625 288.378906 C 128.152344 288.359375 127.398438 288.335938 126.644531 288.308594 C 126.257812 288.296875 125.878906 288.285156 125.496094 288.269531 C 125.324219 288.261719 125.152344 288.257812 124.984375 288.25 C 124.722656 288.238281 124.460938 288.230469 124.203125 288.21875 C 123.949219 288.210938 123.699219 288.199219 123.445312 288.191406 C 123.25 288.183594 123.058594 288.175781 122.867188 288.164062 C 122.40625 288.144531 121.949219 288.125 121.492188 288.105469 C 121.484375 288.101562 121.480469 288.105469 121.472656 288.105469 C 120.816406 288.070312 120.15625 288.039062 119.5 288.003906 C 118.847656 287.96875 118.195312 287.882812 117.539062 287.84375 C 116.882812 287.804688 116.226562 287.761719 115.574219 287.675781 L 115.5625 287.671875 C 109.234375 287.46875 102.96875 286.734375 96.703125 286.011719 C 92.292969 285.503906 87.90625 284.863281 83.515625 284.28125 L 83.503906 284.28125 C 80.753906 283.917969 78.003906 283.554688 75.289062 282.980469 C 75.285156 282.980469 75.285156 282.980469 75.28125 282.980469 L 75.25 282.976562 C 71.78125 282.519531 68.347656 281.828125 64.917969 281.171875 C 63.609375 280.921875 62.296875 280.683594 60.996094 280.414062 C 59.691406 280.148438 58.386719 279.886719 57.085938 279.601562 C 54.492188 279.027344 51.898438 278.449219 49.328125 277.800781 C 44.195312 276.511719 39.113281 275.070312 34.214844 273.292969 C 31.769531 272.402344 29.375 271.40625 27.066406 270.308594 C 24.757812 269.210938 22.539062 267.976562 20.535156 266.574219 C 18.53125 265.167969 16.71875 263.585938 15.421875 261.816406 C 14.128906 260.042969 13.390625 258.144531 13.382812 256.15625 C 13.351562 254.171875 14.089844 252.078125 15.296875 250.078125 C 16.507812 248.070312 18.171875 246.195312 20 244.449219 C 21.839844 242.695312 23.875 241.082031 26 239.5625 C 28.117188 238.03125 30.34375 236.613281 32.621094 235.253906 C 37.175781 232.53125 41.945312 230.101562 46.792969 227.800781 C 51.648438 225.511719 56.597656 223.367188 61.589844 221.292969 L 61.339844 220.546875 C 56.089844 221.886719 50.882812 223.445312 45.75 225.257812 C 40.613281 227.0625 35.550781 229.125 30.613281 231.558594 C 25.691406 234.015625 20.863281 236.816406 16.46875 240.488281 C 14.285156 242.339844 12.207031 244.429688 10.476562 246.964844 C 9.617188 248.226562 8.847656 249.617188 8.28125 251.140625 C 7.707031 252.660156 7.339844 254.320312 7.273438 256.027344 " fill-opacity="1" fill-rule="nonzero"/></g></g></g><g clip-path="url(#cf9aaac900)"><g clip-path="url(#23437009fa)"><g clip-path="url(#ceabccb10b)"><g clip-path="url(#77574dd937)"><g clip-path="url(#69d940cea2)"><path fill="#383325" d="M 242.335938 336.820312 C 242.335938 336.832031 242.332031 336.835938 242.332031 336.839844 C 242.332031 336.851562 242.332031 336.859375 242.328125 336.871094 L 242.417969 336.851562 C 242.390625 336.839844 242.363281 336.832031 242.335938 336.820312 " fill-opacity="1" fill-rule="nonzero"/></g></g></g></g></g><g clip-path="url(#ce4787066c)"><g clip-path="url(#6ee9095dfd)"><g clip-path="url(#57b1ad07fd)"><path fill="#383325" d="M 186.785156 272.828125 L 190.988281 279.101562 L 192.128906 280.800781 L 194.917969 284.964844 L 195.800781 286.277344 C 196.050781 286.652344 196.296875 287.992188 196.199219 288.433594 L 196.027344 289.308594 C 196.046875 289.308594 196.082031 289.308594 196.082031 289.308594 L 196.082031 289.320312 L 194.609375 295.664062 L 194.609375 295.671875 L 192.625 304.222656 C 192.363281 305.371094 193.015625 306.140625 194.089844 305.941406 C 195.164062 305.742188 196.472656 304.707031 196.980469 303.644531 L 200.992188 295.320312 L 200.992188 295.316406 L 203.667969 289.71875 L 214.238281 288.160156 L 215.007812 288.046875 L 215.019531 288.042969 L 245.105469 283.609375 L 244.859375 284.691406 L 244.859375 284.714844 L 244.953125 284.738281 L 243.785156 291.234375 L 243.777344 291.273438 L 235.59375 329.945312 C 235.425781 330.753906 235.59375 331.417969 236.214844 331.5 L 236.25 331.503906 C 236.488281 331.535156 236.765625 331.542969 237.070312 331.484375 L 241.902344 330.578125 C 243.027344 330.375 244.308594 329.363281 244.746094 328.304688 L 248.902344 318.324219 C 249.183594 318.398438 249.457031 318.273438 249.761719 318.214844 L 251.886719 317.820312 L 252.457031 317.714844 C 253.582031 317.507812 254.425781 316.679688 254.21875 315.554688 L 254.066406 314.738281 C 254 314.375 253.832031 314.027344 253.597656 313.722656 C 253.105469 313.082031 252.3125 312.65625 251.550781 312.800781 L 251.0625 312.890625 L 254.746094 304.222656 C 255.027344 304.292969 255.359375 304.464844 255.660156 304.410156 L 256.773438 304.203125 L 258.277344 303.921875 C 259.402344 303.71875 260.175781 302.59375 259.964844 301.472656 L 259.8125 300.652344 C 259.679688 299.921875 259.128906 299.207031 258.453125 298.855469 C 258.089844 298.667969 257.691406 298.585938 257.304688 298.660156 L 256.898438 298.730469 L 261.007812 288.929688 L 261.195312 288.492188 L 264.078125 281.617188 L 264.484375 280.648438 L 279.59375 278.601562 L 279.714844 278.589844 C 283.199219 278.066406 289.667969 275.292969 292.550781 272.402344 C 293.542969 271.414062 294.109375 270.410156 293.988281 269.472656 C 293.882812 268.601562 293.175781 267.871094 292.113281 267.277344 C 288.714844 265.371094 281.597656 264.820312 278.035156 265.351562 C 277.972656 265.363281 272.441406 266.585938 264.359375 268.390625 C 264.09375 268.453125 263.832031 268.511719 263.558594 268.570312 C 263.152344 268.664062 262.734375 268.757812 262.316406 268.847656 L 261.832031 268.34375 L 261.511719 268.007812 L 257.109375 263.351562 L 248.703125 254.476562 L 249.109375 254.402344 C 250.238281 254.191406 251.023438 253.144531 250.816406 252.019531 L 250.664062 251.203125 C 250.457031 250.078125 249.390625 249.628906 248.269531 249.835938 L 245.648438 250.320312 C 245.347656 250.375 245.035156 250.300781 244.796875 250.46875 L 238.195312 243.34375 L 238.679688 243.257812 C 239.800781 243.046875 240.613281 242.050781 240.40625 240.925781 L 240.253906 240.109375 C 240.046875 238.988281 238.894531 238.128906 237.769531 238.335938 L 235.070312 238.839844 C 234.765625 238.894531 234.492188 239.023438 234.257812 239.191406 L 226.808594 231.335938 C 226.023438 230.507812 224.4375 229.90625 223.316406 230.113281 L 218.488281 231.011719 C 217.363281 231.214844 216.964844 232.265625 217.585938 233.230469 L 238.097656 265.207031 L 242.230469 271.648438 L 243.199219 273.15625 C 242.597656 273.289062 242 273.417969 241.402344 273.554688 C 225.023438 277.21875 208.09375 281.011719 202.234375 282.320312 L 197.9375 278.273438 L 193.070312 273.6875 L 191.0625 271.796875 C 190.207031 270.988281 188.625 270.492188 187.550781 270.6875 C 186.476562 270.886719 186.132812 271.851562 186.785156 272.828125 " fill-opacity="1" fill-rule="nonzero"/><path fill="#383325" d="M 186.785156 272.828125 L 190.988281 279.101562 L 192.128906 280.800781 L 194.917969 284.964844 L 195.800781 286.277344 C 196.050781 286.652344 196.328125 287.996094 196.230469 288.4375 L 196.082031 289.308594 L 196.082031 289.320312 L 194.609375 295.664062 L 194.609375 295.671875 L 192.625 304.222656 C 192.363281 305.371094 193.015625 306.140625 194.089844 305.941406 C 195.164062 305.742188 196.472656 304.707031 196.980469 303.644531 L 200.992188 295.320312 L 200.992188 295.316406 L 203.667969 289.71875 L 214.238281 288.160156 L 215.007812 288.046875 L 215.019531 288.042969 L 245.105469 283.609375 L 244.859375 284.691406 L 244.859375 284.714844 L 244.953125 284.738281 L 243.785156 291.234375 L 243.777344 291.273438 L 235.59375 329.945312 C 235.425781 330.753906 235.59375 331.417969 236.214844 331.5 L 236.25 331.503906 C 236.488281 331.535156 236.765625 331.542969 237.070312 331.484375 L 241.902344 330.578125 C 243.027344 330.375 244.308594 329.363281 244.746094 328.304688 L 248.902344 318.324219 C 249.183594 318.398438 249.457031 318.273438 249.761719 318.214844 L 251.886719 317.820312 L 252.457031 317.714844 C 253.582031 317.507812 254.425781 316.679688 254.21875 315.554688 L 254.066406 314.738281 C 254 314.375 253.832031 314.027344 253.597656 313.722656 C 253.105469 313.082031 252.3125 312.65625 251.550781 312.800781 L 251.0625 312.890625 L 254.746094 304.222656 C 255.027344 304.292969 255.359375 304.464844 255.660156 304.410156 L 256.773438 304.203125 L 258.277344 303.921875 C 259.402344 303.71875 260.175781 302.59375 259.964844 301.472656 L 259.8125 300.652344 C 259.679688 299.921875 259.128906 299.207031 258.453125 298.855469 C 258.089844 298.667969 257.691406 298.585938 257.304688 298.660156 L 256.898438 298.730469 L 261.007812 288.929688 L 261.195312 288.492188 L 264.078125 281.617188 L 264.484375 280.648438 L 279.59375 278.601562 L 279.714844 278.589844 C 283.199219 278.066406 289.667969 275.292969 292.550781 272.402344 C 293.542969 271.414062 294.109375 270.410156 293.988281 269.472656 C 293.882812 268.601562 293.175781 267.871094 292.113281 267.277344 C 288.714844 265.371094 281.597656 264.820312 278.035156 265.351562 C 277.972656 265.363281 272.441406 266.585938 264.359375 268.390625 C 264.09375 268.453125 263.832031 268.511719 263.558594 268.570312 C 263.152344 268.664062 262.734375 268.757812 262.316406 268.847656 L 261.832031 268.34375 L 261.511719 268.007812 L 257.109375 263.351562 L 248.703125 254.476562 L 249.109375 254.402344 C 250.238281 254.191406 251.023438 253.144531 250.816406 252.019531 L 250.664062 251.203125 C 250.457031 250.078125 249.390625 249.628906 248.269531 249.835938 L 245.648438 250.320312 C 245.347656 250.375 245.035156 250.300781 244.796875 250.46875 L 238.195312 243.34375 L 238.679688 243.257812 C 239.800781 243.046875 240.613281 242.050781 240.40625 240.925781 L 240.253906 240.109375 C 240.046875 238.988281 238.894531 238.128906 237.769531 238.335938 L 235.070312 238.839844 C 234.765625 238.894531 234.492188 239.023438 234.257812 239.191406 L 226.808594 231.335938 C 226.023438 230.507812 224.4375 229.90625 223.316406 230.113281 L 218.488281 231.011719 C 217.363281 231.214844 216.964844 232.265625 217.585938 233.230469 L 238.097656 265.207031 L 242.230469 271.648438 L 243.199219 273.15625 C 242.597656 273.289062 242 273.417969 241.402344 273.554688 C 225.023438 277.21875 208.09375 281.011719 202.234375 282.320312 L 197.9375 278.273438 L 193.070312 273.6875 L 191.0625 271.796875 C 190.207031 270.988281 188.625 270.492188 187.550781 270.6875 C 186.476562 270.886719 186.132812 271.851562 186.785156 272.828125 " fill-opacity="1" fill-rule="nonzero"/></g></g></g></svg>