<svg xmlns="http://www.w3.org/2000/svg" xmlns:xlink="http://www.w3.org/1999/xlink" width="500" zoomAndPan="magnify" viewBox="0 0 375 374.999991" height="500" preserveAspectRatio="xMidYMid meet" version="1.0"><defs><g/><clipPath id="e76f8ef6ac"><path d="M 187 229 L 188 229 L 188 230 L 187 230 Z M 187 229 " clip-rule="nonzero"/></clipPath><clipPath id="058cc2c83f"><path d="M 115.335938 171.601562 L 267.761719 191.742188 L 259.609375 253.457031 L 107.183594 233.316406 Z M 115.335938 171.601562 " clip-rule="nonzero"/></clipPath><clipPath id="bfa2913634"><path d="M 115.335938 171.601562 L 267.761719 191.742188 L 259.609375 253.457031 L 107.183594 233.316406 Z M 115.335938 171.601562 " clip-rule="nonzero"/></clipPath><clipPath id="0f9da67be7"><path d="M 235 188 L 267 188 L 267 220 L 235 220 Z M 235 188 " clip-rule="nonzero"/></clipPath><clipPath id="7dac5233bb"><path d="M 115.335938 171.601562 L 267.761719 191.742188 L 259.609375 253.457031 L 107.183594 233.316406 Z M 115.335938 171.601562 " clip-rule="nonzero"/></clipPath><clipPath id="c6b3358613"><path d="M 115.335938 171.601562 L 267.761719 191.742188 L 259.609375 253.457031 L 107.183594 233.316406 Z M 115.335938 171.601562 " clip-rule="nonzero"/></clipPath><clipPath id="8273a0247e"><path d="M 238.820312 187.917969 L 267.652344 191.726562 L 263.390625 224.007812 L 234.554688 220.199219 Z M 238.820312 187.917969 " clip-rule="nonzero"/></clipPath><clipPath id="291ef2686e"><path d="M 238.820312 187.917969 L 267.496094 191.707031 L 263.230469 223.988281 L 234.554688 220.199219 Z M 238.820312 187.917969 " clip-rule="nonzero"/></clipPath><clipPath id="8fe846e752"><path d="M 110 197 L 189 197 L 189 228 L 110 228 Z M 110 197 " clip-rule="nonzero"/></clipPath><clipPath id="5218cb6616"><path d="M 115.335938 171.601562 L 267.761719 191.742188 L 259.609375 253.457031 L 107.183594 233.316406 Z M 115.335938 171.601562 " clip-rule="nonzero"/></clipPath><clipPath id="e6712a93c3"><path d="M 115.335938 171.601562 L 267.761719 191.742188 L 259.609375 253.457031 L 107.183594 233.316406 Z M 115.335938 171.601562 " clip-rule="nonzero"/></clipPath><clipPath id="cd2cfc6514"><path d="M 235 188 L 267 188 L 267 220 L 235 220 Z M 235 188 " clip-rule="nonzero"/></clipPath><clipPath id="f934167a1c"><path d="M 115.335938 171.601562 L 267.761719 191.742188 L 259.609375 253.457031 L 107.183594 233.316406 Z M 115.335938 171.601562 " clip-rule="nonzero"/></clipPath><clipPath id="d2734b3519"><path d="M 115.335938 171.601562 L 267.761719 191.742188 L 259.609375 253.457031 L 107.183594 233.316406 Z M 115.335938 171.601562 " clip-rule="nonzero"/></clipPath><clipPath id="fd9da36caa"><path d="M 238.820312 187.917969 L 267.652344 191.726562 L 263.390625 224.007812 L 234.554688 220.199219 Z M 238.820312 187.917969 " clip-rule="nonzero"/></clipPath><clipPath id="e0ffd55e33"><path d="M 238.820312 187.917969 L 267.496094 191.707031 L 263.230469 223.988281 L 234.554688 220.199219 Z M 238.820312 187.917969 " clip-rule="nonzero"/></clipPath><clipPath id="a1ecc711af"><path d="M 110 197 L 189 197 L 189 228 L 110 228 Z M 110 197 " clip-rule="nonzero"/></clipPath><clipPath id="089e6fe001"><path d="M 115.335938 171.601562 L 267.761719 191.742188 L 259.609375 253.457031 L 107.183594 233.316406 Z M 115.335938 171.601562 " clip-rule="nonzero"/></clipPath><clipPath id="8c94ba31e7"><path d="M 115.335938 171.601562 L 267.761719 191.742188 L 259.609375 253.457031 L 107.183594 233.316406 Z M 115.335938 171.601562 " clip-rule="nonzero"/></clipPath><clipPath id="932f595779"><path d="M 210 246 L 212 246 L 212 247 L 210 247 Z M 210 246 " clip-rule="nonzero"/></clipPath><clipPath id="660bf07744"><path d="M 115.335938 171.601562 L 267.761719 191.742188 L 259.609375 253.457031 L 107.183594 233.316406 Z M 115.335938 171.601562 " clip-rule="nonzero"/></clipPath><clipPath id="570270bb2a"><path d="M 115.335938 171.601562 L 267.761719 191.742188 L 259.609375 253.457031 L 107.183594 233.316406 Z M 115.335938 171.601562 " clip-rule="nonzero"/></clipPath><clipPath id="6f277e4f4b"><path d="M 210.960938 246.734375 L 211.273438 246.777344 L 211.234375 247.089844 L 210.917969 247.046875 Z M 210.960938 246.734375 " clip-rule="nonzero"/></clipPath><clipPath id="37e994582f"><path d="M 210.960938 246.734375 L 211.273438 246.777344 L 211.257812 246.910156 L 210.945312 246.871094 Z M 210.960938 246.734375 " clip-rule="nonzero"/></clipPath><clipPath id="31c8caa033"><path d="M 187 201 L 234 201 L 234 245 L 187 245 Z M 187 201 " clip-rule="nonzero"/></clipPath><clipPath id="45f84465e6"><path d="M 115.335938 171.601562 L 267.761719 191.742188 L 259.609375 253.457031 L 107.183594 233.316406 Z M 115.335938 171.601562 " clip-rule="nonzero"/></clipPath><clipPath id="90bf04ffe2"><path d="M 115.335938 171.601562 L 267.761719 191.742188 L 259.609375 253.457031 L 107.183594 233.316406 Z M 115.335938 171.601562 " clip-rule="nonzero"/></clipPath></defs><g fill="#3a2620" fill-opacity="1"><g transform="translate(127.371164, 187.001369)"><g><path d="M 33.820312 1.339844 C 42.390625 1.339844 48.285156 0 53.640625 -1.742188 L 53.640625 -10.714844 L 52.90625 -10.714844 C 52.90625 -10.714844 48.683594 0.535156 33.820312 0.535156 C 20.894531 0.535156 10.046875 -13.929688 10.046875 -33.484375 C 10.046875 -53.039062 19.957031 -67.503906 33.820312 -67.503906 C 45.003906 -67.503906 50.425781 -62.75 50.425781 -54.78125 C 50.425781 -45.003906 31.609375 -41.050781 31.609375 -29.265625 C 31.609375 -26.183594 33.820312 -22.234375 37.433594 -23.035156 C 36.09375 -24.175781 35.425781 -25.3125 35.425781 -27.390625 C 35.425781 -35.359375 54.378906 -40.3125 54.378906 -54.242188 C 54.378906 -60.335938 49.152344 -68.308594 33.820312 -68.308594 C 17.144531 -68.308594 4.019531 -53.574219 4.019531 -33.484375 C 4.019531 -13.394531 17.144531 1.339844 33.820312 1.339844 Z M 33.820312 1.339844 "/></g></g></g><g fill="#3a2620" fill-opacity="1"><g transform="translate(169.30237, 215.17768)"><g><path d="M 1.777344 0 L 17.726562 0 L 17.726562 -0.59375 C 12.628906 -0.59375 12.273438 -4.800781 12.273438 -16.480469 L 12.273438 -57.742188 C 15.886719 -59.046875 18.734375 -59.636719 23.121094 -59.636719 C 34.148438 -59.636719 41.082031 -53.589844 41.082031 -43.75 C 41.082031 -36.636719 36.28125 -29.34375 28.871094 -29.34375 C 23.355469 -29.34375 20.628906 -32.722656 17.132812 -32.722656 C 16.066406 -32.722656 15.058594 -32.132812 15.058594 -30.707031 C 15.058594 -26.675781 21.339844 -26.441406 27.09375 -17.785156 C 36.457031 -3.734375 38.117188 0 40.847656 0 L 49.914062 0 L 49.914062 -0.59375 C 43.15625 -0.59375 37.644531 -11.144531 32.960938 -18.4375 C 28.160156 -25.90625 15.652344 -26.738281 15.652344 -30.589844 C 15.652344 -31.953125 16.660156 -32.132812 17.371094 -32.132812 C 19.859375 -32.132812 23.652344 -28.335938 29.226562 -28.335938 C 39.542969 -28.335938 46.179688 -35.6875 46.179688 -43.808594 C 46.179688 -53.472656 39.125 -60.46875 26.5 -60.46875 C 19.621094 -60.46875 15.414062 -59.28125 8.890625 -59.28125 L 1.777344 -59.28125 L 1.777344 -58.691406 C 6.875 -58.691406 7.234375 -54.480469 7.234375 -42.800781 L 7.234375 -16.480469 C 7.234375 -4.800781 6.875 -0.59375 1.777344 -0.59375 Z M 1.777344 0 "/></g></g></g><g clip-path="url(#e76f8ef6ac)"><g clip-path="url(#058cc2c83f)"><g clip-path="url(#bfa2913634)"><path fill="#3a2620" d="M 187.671875 229.355469 L 187.675781 229.339844 L 187.671875 229.339844 Z M 187.671875 229.355469 " fill-opacity="1" fill-rule="nonzero"/></g></g></g><g clip-path="url(#0f9da67be7)"><g clip-path="url(#7dac5233bb)"><g clip-path="url(#c6b3358613)"><g clip-path="url(#8273a0247e)"><g clip-path="url(#291ef2686e)"><path fill="#3a2620" d="M 235.277344 216.257812 C 235.28125 216.261719 235.289062 216.269531 235.292969 216.273438 C 235.34375 216.359375 235.382812 216.4375 235.460938 216.53125 C 235.679688 216.925781 235.734375 217.308594 235.78125 217.679688 C 235.871094 218.394531 235.71875 219.050781 235.441406 219.660156 C 235.394531 219.761719 235.328125 219.863281 235.269531 219.960938 C 235.269531 219.96875 235.265625 219.972656 235.261719 219.976562 C 235.273438 219.972656 235.285156 219.972656 235.296875 219.96875 C 235.574219 219.898438 235.84375 219.824219 236.117188 219.75 C 236.117188 219.75 236.117188 219.75 236.121094 219.75 C 236.960938 219.519531 237.804688 219.285156 238.644531 219.039062 C 240.804688 218.414062 242.953125 217.730469 245.082031 216.976562 C 247.292969 216.183594 249.488281 215.339844 251.648438 214.363281 C 253.804688 213.394531 255.933594 212.328125 257.980469 211.066406 C 259.007812 210.4375 260.015625 209.761719 260.984375 209.007812 C 261.949219 208.25 262.882812 207.421875 263.734375 206.460938 C 264.160156 205.980469 264.558594 205.460938 264.917969 204.902344 C 265.277344 204.335938 265.597656 203.726562 265.832031 203.058594 C 266.070312 202.394531 266.222656 201.671875 266.242188 200.933594 C 266.25 200.75 266.246094 200.566406 266.234375 200.382812 L 266.222656 200.242188 L 266.207031 200.089844 L 266.175781 199.835938 C 266.117188 199.464844 266.035156 199.109375 265.917969 198.765625 C 265.6875 198.074219 265.347656 197.449219 264.953125 196.890625 C 264.554688 196.332031 264.105469 195.84375 263.628906 195.402344 C 262.675781 194.53125 261.636719 193.84375 260.566406 193.253906 C 258.429688 192.085938 256.1875 191.28125 253.929688 190.621094 C 251.671875 189.960938 249.382812 189.476562 247.089844 189.074219 C 244.792969 188.679688 242.488281 188.382812 240.175781 188.175781 L 240.125 188.507812 C 242.382812 189.007812 244.628906 189.542969 246.847656 190.15625 C 249.066406 190.757812 251.257812 191.453125 253.382812 192.257812 C 254.445312 192.664062 255.492188 193.097656 256.507812 193.578125 C 257.523438 194.0625 258.507812 194.585938 259.429688 195.179688 C 260.347656 195.769531 261.207031 196.425781 261.914062 197.164062 C 262.621094 197.902344 263.160156 198.71875 263.382812 199.554688 C 263.4375 199.757812 263.476562 199.972656 263.492188 200.171875 L 263.507812 200.347656 L 263.507812 200.492188 C 263.507812 200.59375 263.503906 200.699219 263.496094 200.804688 C 263.460938 201.222656 263.355469 201.640625 263.179688 202.054688 C 262.839844 202.890625 262.234375 203.695312 261.523438 204.4375 C 260.8125 205.179688 259.980469 205.863281 259.097656 206.492188 C 258.214844 207.121094 257.28125 207.710938 256.320312 208.257812 C 254.386719 209.351562 252.347656 210.3125 250.265625 211.1875 C 248.179688 212.050781 246.054688 212.855469 243.902344 213.589844 C 242.824219 213.953125 241.742188 214.316406 240.652344 214.660156 C 240.039062 214.855469 239.421875 215.042969 238.800781 215.230469 C 238.328125 215.371094 237.851562 215.511719 237.378906 215.652344 C 236.734375 215.84375 236.089844 216.03125 235.441406 216.210938 C 235.4375 216.214844 235.433594 216.214844 235.425781 216.214844 C 235.378906 216.230469 235.328125 216.246094 235.277344 216.257812 " fill-opacity="1" fill-rule="nonzero"/></g></g></g></g></g><g clip-path="url(#8fe846e752)"><g clip-path="url(#5218cb6616)"><g clip-path="url(#e6712a93c3)"><path fill="#3a2620" d="M 110.316406 212.257812 C 110.289062 212.988281 110.394531 213.726562 110.617188 214.421875 C 110.839844 215.113281 111.171875 215.746094 111.558594 216.3125 C 112.339844 217.449219 113.3125 218.335938 114.324219 219.085938 C 115.34375 219.835938 116.410156 220.457031 117.496094 221.003906 C 118.582031 221.554688 119.695312 222.023438 120.808594 222.449219 C 123.046875 223.300781 125.324219 223.960938 127.617188 224.503906 C 128.765625 224.773438 129.914062 225.019531 131.066406 225.230469 C 132.222656 225.449219 133.378906 225.636719 134.535156 225.804688 C 136.34375 226.066406 138.15625 226.277344 139.96875 226.441406 C 141.144531 226.550781 142.320312 226.640625 143.496094 226.714844 C 145.15625 226.824219 146.8125 226.90625 148.472656 226.972656 C 151.242188 227.074219 154.015625 227.132812 156.785156 227.160156 C 157.90625 227.171875 159.03125 227.179688 160.152344 227.183594 C 160.898438 227.1875 161.644531 227.1875 162.390625 227.1875 C 167.023438 227.195312 171.65625 227.144531 176.289062 227.039062 C 179.382812 226.964844 182.503906 226.878906 185.597656 226.761719 C 186.507812 226.726562 187.347656 226.679688 188.347656 226.652344 L 188.347656 226.644531 L 188.457031 226.179688 L 187.660156 225.015625 C 187.042969 225.023438 186.378906 225.121094 185.828125 225.195312 L 185.828125 225.183594 C 182.667969 225.503906 179.453125 225.75 176.269531 225.910156 C 171.660156 226.148438 167.023438 226.226562 162.410156 226.105469 C 162.253906 226.101562 162.089844 226.097656 161.933594 226.09375 C 161.769531 226.089844 161.605469 226.082031 161.441406 226.078125 C 161.273438 226.074219 161.109375 226.070312 160.945312 226.0625 C 160.871094 226.058594 160.796875 226.054688 160.722656 226.054688 C 160.613281 226.050781 160.53125 226.050781 160.421875 226.042969 C 160.308594 226.039062 160.203125 226.035156 160.113281 226.035156 C 159.9375 226.019531 159.925781 226.023438 159.847656 226.019531 C 159.652344 226.011719 159.441406 226.003906 159.242188 225.996094 C 159.242188 225.992188 159.230469 225.992188 159.226562 225.992188 C 158.949219 225.980469 158.664062 225.964844 158.378906 225.949219 C 158.101562 225.933594 157.820312 225.898438 157.539062 225.878906 C 157.257812 225.863281 156.976562 225.84375 156.695312 225.808594 L 156.691406 225.808594 C 153.980469 225.71875 151.296875 225.40625 148.613281 225.09375 C 146.726562 224.878906 144.847656 224.601562 142.964844 224.355469 L 142.960938 224.355469 C 141.785156 224.199219 140.609375 224.042969 139.445312 223.796875 C 139.441406 223.796875 139.441406 223.796875 139.441406 223.796875 L 139.429688 223.796875 C 137.941406 223.601562 136.472656 223.304688 135.003906 223.023438 C 134.441406 222.914062 133.878906 222.8125 133.324219 222.699219 C 132.765625 222.585938 132.207031 222.472656 131.648438 222.351562 C 130.539062 222.105469 129.429688 221.855469 128.328125 221.578125 C 126.128906 221.027344 123.953125 220.410156 121.855469 219.648438 C 120.808594 219.265625 119.78125 218.839844 118.792969 218.371094 C 117.804688 217.902344 116.855469 217.375 115.996094 216.773438 C 115.140625 216.171875 114.363281 215.492188 113.808594 214.734375 C 113.253906 213.976562 112.9375 213.164062 112.933594 212.3125 C 112.921875 211.460938 113.238281 210.5625 113.753906 209.707031 C 114.273438 208.847656 114.984375 208.046875 115.769531 207.296875 C 116.554688 206.546875 117.425781 205.855469 118.335938 205.203125 C 119.246094 204.550781 120.199219 203.941406 121.171875 203.359375 C 123.125 202.195312 125.167969 201.152344 127.242188 200.167969 C 129.320312 199.1875 131.441406 198.269531 133.578125 197.378906 L 133.472656 197.0625 C 131.222656 197.636719 128.992188 198.304688 126.792969 199.078125 C 124.597656 199.851562 122.425781 200.734375 120.3125 201.777344 C 118.203125 202.832031 116.136719 204.027344 114.257812 205.601562 C 113.320312 206.394531 112.429688 207.289062 111.691406 208.375 C 111.320312 208.914062 110.992188 209.511719 110.75 210.164062 C 110.503906 210.8125 110.347656 211.523438 110.316406 212.257812 " fill-opacity="1" fill-rule="nonzero"/></g></g></g><g clip-path="url(#cd2cfc6514)"><g clip-path="url(#f934167a1c)"><g clip-path="url(#d2734b3519)"><g clip-path="url(#fd9da36caa)"><g clip-path="url(#e0ffd55e33)"><path fill="#3a2620" d="M 235.277344 216.257812 C 235.28125 216.261719 235.289062 216.269531 235.292969 216.273438 C 235.34375 216.359375 235.382812 216.4375 235.460938 216.53125 C 235.679688 216.925781 235.734375 217.308594 235.78125 217.679688 C 235.871094 218.394531 235.71875 219.050781 235.441406 219.660156 C 235.394531 219.761719 235.328125 219.863281 235.269531 219.960938 C 235.269531 219.96875 235.265625 219.972656 235.261719 219.976562 C 235.273438 219.972656 235.285156 219.972656 235.296875 219.96875 C 235.574219 219.898438 235.84375 219.824219 236.117188 219.75 C 236.117188 219.75 236.117188 219.75 236.121094 219.75 C 236.960938 219.519531 237.804688 219.285156 238.644531 219.039062 C 240.804688 218.414062 242.953125 217.730469 245.082031 216.976562 C 247.292969 216.183594 249.488281 215.339844 251.648438 214.363281 C 253.804688 213.394531 255.933594 212.328125 257.980469 211.066406 C 259.007812 210.4375 260.015625 209.761719 260.984375 209.007812 C 261.949219 208.25 262.882812 207.421875 263.734375 206.460938 C 264.160156 205.980469 264.558594 205.460938 264.917969 204.902344 C 265.277344 204.335938 265.597656 203.726562 265.832031 203.058594 C 266.070312 202.394531 266.222656 201.671875 266.242188 200.933594 C 266.25 200.75 266.246094 200.566406 266.234375 200.382812 L 266.222656 200.242188 L 266.207031 200.089844 L 266.175781 199.835938 C 266.117188 199.464844 266.035156 199.109375 265.917969 198.765625 C 265.6875 198.074219 265.347656 197.449219 264.953125 196.890625 C 264.554688 196.332031 264.105469 195.84375 263.628906 195.402344 C 262.675781 194.53125 261.636719 193.84375 260.566406 193.253906 C 258.429688 192.085938 256.1875 191.28125 253.929688 190.621094 C 251.671875 189.960938 249.382812 189.476562 247.089844 189.074219 C 244.792969 188.679688 242.488281 188.382812 240.175781 188.175781 L 240.125 188.507812 C 242.382812 189.007812 244.628906 189.542969 246.847656 190.15625 C 249.066406 190.757812 251.257812 191.453125 253.382812 192.257812 C 254.445312 192.664062 255.492188 193.097656 256.507812 193.578125 C 257.523438 194.0625 258.507812 194.585938 259.429688 195.179688 C 260.347656 195.769531 261.207031 196.425781 261.914062 197.164062 C 262.621094 197.902344 263.160156 198.71875 263.382812 199.554688 C 263.4375 199.757812 263.476562 199.972656 263.492188 200.171875 L 263.507812 200.347656 L 263.507812 200.492188 C 263.507812 200.59375 263.503906 200.699219 263.496094 200.804688 C 263.460938 201.222656 263.355469 201.640625 263.179688 202.054688 C 262.839844 202.890625 262.234375 203.695312 261.523438 204.4375 C 260.8125 205.179688 259.980469 205.863281 259.097656 206.492188 C 258.214844 207.121094 257.28125 207.710938 256.320312 208.257812 C 254.386719 209.351562 252.347656 210.3125 250.265625 211.1875 C 248.179688 212.050781 246.054688 212.855469 243.902344 213.589844 C 242.824219 213.953125 241.742188 214.316406 240.652344 214.660156 C 240.039062 214.855469 239.421875 215.042969 238.800781 215.230469 C 238.328125 215.371094 237.851562 215.511719 237.378906 215.652344 C 236.734375 215.84375 236.089844 216.03125 235.441406 216.210938 C 235.4375 216.214844 235.433594 216.214844 235.425781 216.214844 C 235.378906 216.230469 235.328125 216.246094 235.277344 216.257812 " fill-opacity="1" fill-rule="nonzero"/></g></g></g></g></g><g clip-path="url(#a1ecc711af)"><g clip-path="url(#089e6fe001)"><g clip-path="url(#8c94ba31e7)"><path fill="#3a2620" d="M 110.316406 212.257812 C 110.289062 212.988281 110.394531 213.726562 110.617188 214.421875 C 110.839844 215.113281 111.171875 215.746094 111.558594 216.3125 C 112.339844 217.449219 113.3125 218.335938 114.324219 219.085938 C 115.34375 219.835938 116.410156 220.457031 117.496094 221.003906 C 118.582031 221.554688 119.695312 222.023438 120.808594 222.449219 C 123.046875 223.300781 125.324219 223.960938 127.617188 224.503906 C 128.765625 224.773438 129.914062 225.019531 131.066406 225.230469 C 132.222656 225.449219 133.378906 225.636719 134.535156 225.804688 C 136.34375 226.066406 138.15625 226.277344 139.96875 226.441406 C 141.144531 226.550781 142.320312 226.640625 143.496094 226.714844 C 145.15625 226.824219 146.8125 226.90625 148.472656 226.972656 C 151.242188 227.074219 154.015625 227.132812 156.785156 227.160156 C 157.90625 227.171875 159.03125 227.179688 160.152344 227.183594 C 160.898438 227.1875 161.644531 227.1875 162.390625 227.1875 C 167.023438 227.195312 171.65625 227.144531 176.289062 227.039062 C 179.382812 226.964844 182.503906 226.878906 185.597656 226.761719 C 186.507812 226.726562 187.347656 226.679688 188.347656 226.652344 L 188.347656 226.644531 L 188.457031 226.179688 L 187.660156 225.015625 C 187.042969 225.023438 186.410156 225.132812 185.78125 225.191406 C 182.609375 225.507812 179.429688 225.753906 176.246094 225.914062 C 171.636719 226.152344 167.019531 226.230469 162.40625 226.109375 C 162.082031 226.101562 161.757812 226.089844 161.4375 226.078125 C 161.269531 226.074219 161.109375 226.070312 160.945312 226.0625 C 160.871094 226.058594 160.796875 226.058594 160.722656 226.054688 C 160.613281 226.050781 160.5 226.046875 160.390625 226.039062 C 160.28125 226.039062 160.175781 226.03125 160.066406 226.027344 C 159.980469 226.023438 159.902344 226.023438 159.816406 226.015625 C 159.621094 226.007812 159.425781 226 159.230469 225.992188 C 159.226562 225.992188 159.222656 225.992188 159.21875 225.992188 C 158.941406 225.976562 158.65625 225.964844 158.375 225.949219 C 158.097656 225.933594 157.816406 225.898438 157.539062 225.878906 C 157.257812 225.863281 156.976562 225.84375 156.695312 225.808594 L 156.691406 225.808594 C 153.980469 225.71875 151.296875 225.40625 148.613281 225.09375 C 146.726562 224.878906 144.847656 224.601562 142.964844 224.355469 L 142.960938 224.355469 C 141.785156 224.199219 140.609375 224.042969 139.445312 223.796875 C 139.441406 223.796875 139.441406 223.796875 139.441406 223.796875 L 139.429688 223.796875 C 137.941406 223.601562 136.472656 223.304688 135.003906 223.023438 C 134.441406 222.914062 133.878906 222.8125 133.324219 222.699219 C 132.765625 222.585938 132.207031 222.472656 131.648438 222.351562 C 130.539062 222.105469 129.429688 221.855469 128.328125 221.578125 C 126.128906 221.027344 123.953125 220.410156 121.855469 219.648438 C 120.808594 219.265625 119.78125 218.839844 118.792969 218.371094 C 117.804688 217.902344 116.855469 217.375 115.996094 216.773438 C 115.140625 216.171875 114.363281 215.492188 113.808594 214.734375 C 113.253906 213.976562 112.9375 213.164062 112.933594 212.3125 C 112.921875 211.460938 113.238281 210.5625 113.753906 209.707031 C 114.273438 208.847656 114.984375 208.046875 115.769531 207.296875 C 116.554688 206.546875 117.425781 205.855469 118.335938 205.203125 C 119.246094 204.550781 120.199219 203.941406 121.171875 203.359375 C 123.125 202.195312 125.167969 201.152344 127.242188 200.167969 C 129.320312 199.1875 131.441406 198.269531 133.578125 197.378906 L 133.472656 197.0625 C 131.222656 197.636719 128.992188 198.304688 126.792969 199.078125 C 124.597656 199.851562 122.425781 200.734375 120.3125 201.777344 C 118.203125 202.832031 116.136719 204.027344 114.257812 205.601562 C 113.320312 206.394531 112.429688 207.289062 111.691406 208.375 C 111.320312 208.914062 110.992188 209.511719 110.75 210.164062 C 110.503906 210.8125 110.347656 211.523438 110.316406 212.257812 " fill-opacity="1" fill-rule="nonzero"/></g></g></g><g clip-path="url(#932f595779)"><g clip-path="url(#660bf07744)"><g clip-path="url(#570270bb2a)"><g clip-path="url(#6f277e4f4b)"><g clip-path="url(#37e994582f)"><path fill="#3a2620" d="M 210.976562 246.851562 C 210.976562 246.859375 210.976562 246.859375 210.976562 246.863281 C 210.976562 246.867188 210.976562 246.871094 210.976562 246.875 L 211.011719 246.867188 C 211 246.863281 210.988281 246.855469 210.976562 246.851562 " fill-opacity="1" fill-rule="nonzero"/></g></g></g></g></g><g clip-path="url(#31c8caa033)"><g clip-path="url(#45f84465e6)"><g clip-path="url(#90bf04ffe2)"><path fill="#3a2620" d="M 187.191406 219.449219 L 188.988281 222.136719 L 189.476562 222.863281 L 190.671875 224.648438 L 191.050781 225.207031 C 191.15625 225.371094 191.261719 225.941406 191.222656 226.132812 L 191.148438 226.507812 C 191.15625 226.507812 191.171875 226.507812 191.171875 226.507812 L 191.171875 226.511719 L 190.539062 229.226562 L 190.539062 229.234375 L 189.691406 232.894531 C 189.578125 233.386719 189.859375 233.714844 190.316406 233.628906 C 190.777344 233.542969 191.335938 233.101562 191.554688 232.648438 L 193.273438 229.082031 L 193.273438 229.078125 L 194.421875 226.683594 L 198.945312 226.015625 L 199.273438 225.96875 L 199.28125 225.964844 L 212.164062 224.066406 L 212.058594 224.53125 L 212.058594 224.539062 L 212.097656 224.550781 L 211.597656 227.332031 L 211.597656 227.347656 L 208.089844 243.910156 C 208.019531 244.253906 208.089844 244.539062 208.355469 244.574219 L 208.371094 244.578125 C 208.472656 244.589844 208.59375 244.59375 208.722656 244.570312 L 210.792969 244.179688 C 211.273438 244.09375 211.824219 243.660156 212.011719 243.207031 L 213.789062 238.933594 C 213.910156 238.964844 214.027344 238.910156 214.15625 238.886719 L 215.066406 238.71875 L 215.3125 238.671875 C 215.792969 238.582031 216.15625 238.230469 216.066406 237.746094 L 216 237.398438 C 215.972656 237.242188 215.902344 237.09375 215.800781 236.964844 C 215.589844 236.6875 215.25 236.503906 214.925781 236.566406 L 214.714844 236.605469 L 216.292969 232.894531 C 216.414062 232.925781 216.554688 233 216.683594 232.972656 L 217.160156 232.886719 L 217.804688 232.765625 C 218.285156 232.675781 218.617188 232.195312 218.527344 231.714844 L 218.460938 231.367188 C 218.40625 231.050781 218.167969 230.746094 217.878906 230.597656 C 217.722656 230.515625 217.554688 230.480469 217.386719 230.511719 L 217.214844 230.542969 L 218.972656 226.34375 L 219.054688 226.15625 L 220.289062 223.214844 L 220.460938 222.800781 L 226.933594 221.921875 L 226.984375 221.917969 C 228.476562 221.691406 231.246094 220.507812 232.480469 219.269531 C 232.90625 218.84375 233.148438 218.414062 233.097656 218.015625 C 233.050781 217.640625 232.75 217.328125 232.292969 217.074219 C 230.839844 216.257812 227.789062 216.019531 226.265625 216.25 C 226.238281 216.253906 223.871094 216.777344 220.410156 217.550781 C 220.296875 217.578125 220.183594 217.601562 220.066406 217.628906 C 219.890625 217.667969 219.714844 217.707031 219.535156 217.746094 L 219.328125 217.53125 L 219.191406 217.386719 L 217.304688 215.390625 L 213.707031 211.589844 L 213.878906 211.558594 C 214.363281 211.46875 214.699219 211.019531 214.609375 210.539062 L 214.542969 210.191406 C 214.453125 209.707031 214 209.515625 213.519531 209.605469 L 212.398438 209.8125 C 212.269531 209.835938 212.132812 209.804688 212.03125 209.875 L 209.203125 206.824219 L 209.414062 206.785156 C 209.894531 206.695312 210.242188 206.269531 210.152344 205.789062 L 210.085938 205.4375 C 210 204.957031 209.503906 204.589844 209.023438 204.679688 L 207.867188 204.894531 C 207.738281 204.917969 207.621094 204.972656 207.519531 205.046875 L 204.328125 201.683594 C 203.992188 201.328125 203.3125 201.070312 202.832031 201.160156 L 200.765625 201.542969 C 200.285156 201.628906 200.113281 202.082031 200.378906 202.492188 L 209.164062 216.1875 L 210.933594 218.945312 L 211.347656 219.589844 C 211.089844 219.648438 210.832031 219.703125 210.578125 219.761719 C 203.566406 221.332031 196.3125 222.953125 193.804688 223.515625 L 191.964844 221.78125 L 189.878906 219.816406 L 189.019531 219.007812 C 188.652344 218.660156 187.976562 218.449219 187.519531 218.535156 C 187.058594 218.617188 186.910156 219.03125 187.191406 219.449219 " fill-opacity="1" fill-rule="nonzero"/><path fill="#3a2620" d="M 187.191406 219.449219 L 188.988281 222.136719 L 189.476562 222.863281 L 190.671875 224.648438 L 191.050781 225.207031 C 191.15625 225.371094 191.277344 225.945312 191.234375 226.132812 L 191.171875 226.507812 L 191.171875 226.511719 L 190.539062 229.226562 L 190.539062 229.234375 L 189.691406 232.894531 C 189.578125 233.386719 189.859375 233.714844 190.316406 233.628906 C 190.777344 233.542969 191.335938 233.101562 191.554688 232.648438 L 193.273438 229.082031 L 193.273438 229.078125 L 194.421875 226.683594 L 198.945312 226.015625 L 199.273438 225.96875 L 199.28125 225.964844 L 212.164062 224.066406 L 212.058594 224.53125 L 212.058594 224.539062 L 212.097656 224.550781 L 211.597656 227.332031 L 211.597656 227.347656 L 208.089844 243.910156 C 208.019531 244.253906 208.089844 244.539062 208.355469 244.574219 L 208.371094 244.578125 C 208.472656 244.589844 208.59375 244.59375 208.722656 244.570312 L 210.792969 244.179688 C 211.273438 244.09375 211.824219 243.660156 212.011719 243.207031 L 213.789062 238.933594 C 213.910156 238.964844 214.027344 238.910156 214.15625 238.886719 L 215.066406 238.71875 L 215.3125 238.671875 C 215.792969 238.582031 216.15625 238.230469 216.066406 237.746094 L 216 237.398438 C 215.972656 237.242188 215.902344 237.09375 215.800781 236.964844 C 215.589844 236.6875 215.25 236.503906 214.925781 236.566406 L 214.714844 236.605469 L 216.292969 232.894531 C 216.414062 232.925781 216.554688 233 216.683594 232.972656 L 217.160156 232.886719 L 217.804688 232.765625 C 218.285156 232.675781 218.617188 232.195312 218.527344 231.714844 L 218.460938 231.367188 C 218.40625 231.050781 218.167969 230.746094 217.878906 230.597656 C 217.722656 230.515625 217.554688 230.480469 217.386719 230.511719 L 217.214844 230.542969 L 218.972656 226.34375 L 219.054688 226.15625 L 220.289062 223.214844 L 220.460938 222.800781 L 226.933594 221.921875 L 226.984375 221.917969 C 228.476562 221.691406 231.246094 220.507812 232.480469 219.269531 C 232.90625 218.84375 233.148438 218.414062 233.097656 218.015625 C 233.050781 217.640625 232.75 217.328125 232.292969 217.074219 C 230.839844 216.257812 227.789062 216.019531 226.265625 216.25 C 226.238281 216.253906 223.871094 216.777344 220.410156 217.550781 C 220.296875 217.578125 220.183594 217.601562 220.066406 217.628906 C 219.890625 217.667969 219.714844 217.707031 219.535156 217.746094 L 219.328125 217.53125 L 219.191406 217.386719 L 217.304688 215.390625 L 213.707031 211.589844 L 213.878906 211.558594 C 214.363281 211.46875 214.699219 211.019531 214.609375 210.539062 L 214.542969 210.191406 C 214.453125 209.707031 214 209.515625 213.519531 209.605469 L 212.398438 209.8125 C 212.269531 209.835938 212.132812 209.804688 212.03125 209.875 L 209.203125 206.824219 L 209.414062 206.785156 C 209.894531 206.695312 210.242188 206.269531 210.152344 205.789062 L 210.085938 205.4375 C 210 204.957031 209.503906 204.589844 209.023438 204.679688 L 207.867188 204.894531 C 207.738281 204.917969 207.621094 204.972656 207.519531 205.046875 L 204.328125 201.683594 C 203.992188 201.328125 203.3125 201.070312 202.832031 201.160156 L 200.765625 201.542969 C 200.285156 201.628906 200.113281 202.082031 200.378906 202.492188 L 209.164062 216.1875 L 210.933594 218.945312 L 211.347656 219.589844 C 211.089844 219.648438 210.832031 219.703125 210.578125 219.761719 C 203.566406 221.332031 196.3125 222.953125 193.804688 223.515625 L 191.964844 221.78125 L 189.878906 219.816406 L 189.019531 219.007812 C 188.652344 218.660156 187.976562 218.449219 187.519531 218.535156 C 187.058594 218.617188 186.910156 219.03125 187.191406 219.449219 " fill-opacity="1" fill-rule="nonzero"/></g></g></g></svg>