<svg xmlns="http://www.w3.org/2000/svg" xmlns:xlink="http://www.w3.org/1999/xlink" width="700" zoomAndPan="magnify" viewBox="0 0 525 149.999998" height="200" preserveAspectRatio="xMidYMid meet" version="1.0"><defs><g/><clipPath id="77d81a16c4"><path d="M 42 109 L 43 109 L 43 110 L 42 110 Z M 42 109 " clip-rule="nonzero"/></clipPath><clipPath id="9f0eecc7fe"><path d="M 6.9375 65.320312 L 136.699219 82.46875 L 129.726562 135.222656 L -0.0351562 118.074219 Z M 6.9375 65.320312 " clip-rule="nonzero"/></clipPath><clipPath id="dc689ea0f0"><path d="M 6.9375 65.320312 L 136.699219 82.46875 L 129.726562 135.222656 L -0.0351562 118.074219 Z M 6.9375 65.320312 " clip-rule="nonzero"/></clipPath><clipPath id="6582e359a9"><path d="M 109 79 L 136 79 L 136 107 L 109 107 Z M 109 79 " clip-rule="nonzero"/></clipPath><clipPath id="2475a1cf03"><path d="M 6.9375 65.320312 L 136.699219 82.46875 L 129.726562 135.222656 L -0.0351562 118.074219 Z M 6.9375 65.320312 " clip-rule="nonzero"/></clipPath><clipPath id="8a2e487fcf"><path d="M 6.9375 65.320312 L 136.699219 82.46875 L 129.726562 135.222656 L -0.0351562 118.074219 Z M 6.9375 65.320312 " clip-rule="nonzero"/></clipPath><clipPath id="0341099882"><path d="M 112.253906 79.238281 L 136.84375 82.488281 L 133.207031 110.019531 L 108.617188 106.769531 Z M 112.253906 79.238281 " clip-rule="nonzero"/></clipPath><clipPath id="e7f8f1944b"><path d="M 112.253906 79.238281 L 136.710938 82.46875 L 133.074219 110 L 108.617188 106.769531 Z M 112.253906 79.238281 " clip-rule="nonzero"/></clipPath><clipPath id="11c262f54c"><path d="M 2 87 L 70 87 L 70 113 L 2 113 Z M 2 87 " clip-rule="nonzero"/></clipPath><clipPath id="8796e4305e"><path d="M 6.9375 65.320312 L 136.699219 82.46875 L 129.726562 135.222656 L -0.0351562 118.074219 Z M 6.9375 65.320312 " clip-rule="nonzero"/></clipPath><clipPath id="10440b2b97"><path d="M 6.9375 65.320312 L 136.699219 82.46875 L 129.726562 135.222656 L -0.0351562 118.074219 Z M 6.9375 65.320312 " clip-rule="nonzero"/></clipPath><clipPath id="5b115a5255"><path d="M 109 79 L 136 79 L 136 107 L 109 107 Z M 109 79 " clip-rule="nonzero"/></clipPath><clipPath id="0446047a27"><path d="M 6.9375 65.320312 L 136.699219 82.46875 L 129.726562 135.222656 L -0.0351562 118.074219 Z M 6.9375 65.320312 " clip-rule="nonzero"/></clipPath><clipPath id="a19f53fb52"><path d="M 6.9375 65.320312 L 136.699219 82.46875 L 129.726562 135.222656 L -0.0351562 118.074219 Z M 6.9375 65.320312 " clip-rule="nonzero"/></clipPath><clipPath id="aebd3780b0"><path d="M 112.253906 79.238281 L 136.84375 82.488281 L 133.207031 110.019531 L 108.617188 106.769531 Z M 112.253906 79.238281 " clip-rule="nonzero"/></clipPath><clipPath id="4a38e23651"><path d="M 112.253906 79.238281 L 136.710938 82.46875 L 133.074219 110 L 108.617188 106.769531 Z M 112.253906 79.238281 " clip-rule="nonzero"/></clipPath><clipPath id="09bed4a12b"><path d="M 2 87 L 70 87 L 70 113 L 2 113 Z M 2 87 " clip-rule="nonzero"/></clipPath><clipPath id="ea422fa20d"><path d="M 6.9375 65.320312 L 136.699219 82.46875 L 129.726562 135.222656 L -0.0351562 118.074219 Z M 6.9375 65.320312 " clip-rule="nonzero"/></clipPath><clipPath id="cc11bd07cd"><path d="M 6.9375 65.320312 L 136.699219 82.46875 L 129.726562 135.222656 L -0.0351562 118.074219 Z M 6.9375 65.320312 " clip-rule="nonzero"/></clipPath><clipPath id="08c318d43c"><path d="M 88 129 L 89 129 L 89 130 L 88 130 Z M 88 129 " clip-rule="nonzero"/></clipPath><clipPath id="84d3d4ccc9"><path d="M 6.9375 65.320312 L 136.699219 82.46875 L 129.726562 135.222656 L -0.0351562 118.074219 Z M 6.9375 65.320312 " clip-rule="nonzero"/></clipPath><clipPath id="8e5b0e72df"><path d="M 6.9375 65.320312 L 136.699219 82.46875 L 129.726562 135.222656 L -0.0351562 118.074219 Z M 6.9375 65.320312 " clip-rule="nonzero"/></clipPath><clipPath id="f114ca0af5"><path d="M 88.492188 129.402344 L 88.757812 129.4375 L 88.722656 129.707031 L 88.457031 129.671875 Z M 88.492188 129.402344 " clip-rule="nonzero"/></clipPath><clipPath id="47d1e2540b"><path d="M 88.492188 129.402344 L 88.757812 129.4375 L 88.742188 129.554688 L 88.476562 129.519531 Z M 88.492188 129.402344 " clip-rule="nonzero"/></clipPath><clipPath id="af23186880"><path d="M 68 90 L 108 90 L 108 128 L 68 128 Z M 68 90 " clip-rule="nonzero"/></clipPath><clipPath id="c96ca9b709"><path d="M 6.9375 65.320312 L 136.699219 82.46875 L 129.726562 135.222656 L -0.0351562 118.074219 Z M 6.9375 65.320312 " clip-rule="nonzero"/></clipPath><clipPath id="79c4c1cbc9"><path d="M 6.9375 65.320312 L 136.699219 82.46875 L 129.726562 135.222656 L -0.0351562 118.074219 Z M 6.9375 65.320312 " clip-rule="nonzero"/></clipPath><clipPath id="a5d7c0e6e8"><path d="M 198.003906 94.65625 L 203.058594 94.65625 L 203.058594 99.714844 L 198.003906 99.714844 Z M 198.003906 94.65625 " clip-rule="nonzero"/></clipPath><clipPath id="9a11e4e183"><path d="M 200.53125 94.65625 C 199.136719 94.65625 198.003906 95.789062 198.003906 97.183594 C 198.003906 98.582031 199.136719 99.714844 200.53125 99.714844 C 201.929688 99.714844 203.058594 98.582031 203.058594 97.183594 C 203.058594 95.789062 201.929688 94.65625 200.53125 94.65625 Z M 200.53125 94.65625 " clip-rule="nonzero"/></clipPath><clipPath id="1350164447"><path d="M 500.605469 94.65625 L 505.660156 94.65625 L 505.660156 99.714844 L 500.605469 99.714844 Z M 500.605469 94.65625 " clip-rule="nonzero"/></clipPath><clipPath id="5473901979"><path d="M 503.132812 94.65625 C 501.738281 94.65625 500.605469 95.789062 500.605469 97.183594 C 500.605469 98.582031 501.738281 99.714844 503.132812 99.714844 C 504.53125 99.714844 505.660156 98.582031 505.660156 97.183594 C 505.660156 95.789062 504.53125 94.65625 503.132812 94.65625 Z M 503.132812 94.65625 " clip-rule="nonzero"/></clipPath></defs><path stroke-linecap="round" transform="matrix(0.000000001309, -0.75, 0.75, 0.000000001309, 166.502587, 103.757809)" fill="none" stroke-linejoin="miter" d="M 1.499995 1.50176 L 75.192708 1.501759 " stroke="#383325" stroke-width="3" stroke-opacity="1" stroke-miterlimit="4"/><g fill="#383325" fill-opacity="1"><g transform="translate(17.199823, 80.012145)"><g><path d="M 28.84375 1.140625 C 36.152344 1.140625 41.179688 0 45.75 -1.484375 L 45.75 -9.136719 L 45.121094 -9.136719 C 45.121094 -9.136719 41.523438 0.457031 28.84375 0.457031 C 17.820312 0.457031 8.566406 -11.878906 8.566406 -28.558594 C 8.566406 -45.234375 17.019531 -57.570312 28.84375 -57.570312 C 38.378906 -57.570312 43.007812 -53.515625 43.007812 -46.71875 C 43.007812 -38.378906 26.957031 -35.011719 26.957031 -24.957031 C 26.957031 -22.332031 28.84375 -18.960938 31.925781 -19.648438 C 30.785156 -20.617188 30.214844 -21.589844 30.214844 -23.359375 C 30.214844 -30.15625 46.375 -34.382812 46.375 -46.261719 C 46.375 -51.460938 41.921875 -58.257812 28.84375 -58.257812 C 14.621094 -58.257812 3.425781 -45.691406 3.425781 -28.558594 C 3.425781 -11.421875 14.621094 1.140625 28.84375 1.140625 Z M 28.84375 1.140625 "/></g></g></g><g fill="#383325" fill-opacity="1"><g transform="translate(52.961468, 104.042728)"><g><path d="M 1.515625 0 L 15.117188 0 L 15.117188 -0.503906 C 10.769531 -0.503906 10.464844 -4.09375 10.464844 -14.054688 L 10.464844 -49.246094 C 13.550781 -50.359375 15.976562 -50.863281 19.71875 -50.863281 C 29.121094 -50.863281 35.039062 -45.707031 35.039062 -37.3125 C 35.039062 -31.246094 30.941406 -25.027344 24.621094 -25.027344 C 19.921875 -25.027344 17.59375 -27.910156 14.613281 -27.910156 C 13.703125 -27.910156 12.84375 -27.402344 12.84375 -26.191406 C 12.84375 -22.753906 18.203125 -22.550781 23.105469 -15.167969 C 31.09375 -3.183594 32.511719 0 34.835938 0 L 42.570312 0 L 42.570312 -0.503906 C 36.808594 -0.503906 32.105469 -9.503906 28.113281 -15.722656 C 24.015625 -22.09375 13.347656 -22.800781 13.347656 -26.089844 C 13.347656 -27.25 14.207031 -27.402344 14.8125 -27.402344 C 16.9375 -27.402344 20.171875 -24.167969 24.925781 -24.167969 C 33.722656 -24.167969 39.386719 -30.4375 39.386719 -37.363281 C 39.386719 -45.605469 33.371094 -51.570312 22.601562 -51.570312 C 16.734375 -51.570312 13.144531 -50.558594 7.585938 -50.558594 L 1.515625 -50.558594 L 1.515625 -50.054688 C 5.863281 -50.054688 6.167969 -46.464844 6.167969 -36.503906 L 6.167969 -14.054688 C 6.167969 -4.09375 5.863281 -0.503906 1.515625 -0.503906 Z M 1.515625 0 "/></g></g></g><g clip-path="url(#77d81a16c4)"><g clip-path="url(#9f0eecc7fe)"><g clip-path="url(#dc689ea0f0)"><path fill="#383325" d="M 42.101562 109.28125 L 42.105469 109.28125 C 42.105469 109.273438 42.105469 109.265625 42.105469 109.257812 L 42.101562 109.253906 C 42.101562 109.265625 42.101562 109.273438 42.101562 109.28125 " fill-opacity="1" fill-rule="nonzero"/></g></g></g><g clip-path="url(#6582e359a9)"><g clip-path="url(#2475a1cf03)"><g clip-path="url(#8a2e487fcf)"><g clip-path="url(#0341099882)"><g clip-path="url(#e7f8f1944b)"><path fill="#383325" d="M 109.230469 103.410156 C 109.234375 103.414062 109.238281 103.417969 109.242188 103.421875 C 109.289062 103.496094 109.320312 103.5625 109.386719 103.640625 C 109.574219 103.976562 109.621094 104.304688 109.660156 104.621094 C 109.738281 105.230469 109.609375 105.792969 109.371094 106.308594 C 109.332031 106.398438 109.273438 106.484375 109.226562 106.570312 C 109.222656 106.574219 109.21875 106.578125 109.21875 106.582031 C 109.230469 106.578125 109.238281 106.578125 109.25 106.574219 C 109.484375 106.511719 109.714844 106.449219 109.949219 106.386719 C 110.667969 106.191406 111.386719 105.992188 112.101562 105.78125 C 113.945312 105.246094 115.777344 104.664062 117.59375 104.023438 C 119.476562 103.347656 121.351562 102.625 123.191406 101.792969 C 125.03125 100.964844 126.847656 100.058594 128.59375 98.980469 C 129.46875 98.441406 130.328125 97.867188 131.15625 97.222656 C 131.980469 96.578125 132.777344 95.871094 133.503906 95.054688 C 133.867188 94.644531 134.207031 94.203125 134.511719 93.722656 C 134.820312 93.242188 135.089844 92.71875 135.292969 92.152344 C 135.496094 91.585938 135.625 90.96875 135.640625 90.339844 C 135.648438 90.183594 135.644531 90.023438 135.632812 89.867188 L 135.625 89.75 L 135.613281 89.621094 L 135.585938 89.402344 C 135.535156 89.085938 135.464844 88.78125 135.363281 88.488281 C 135.167969 87.902344 134.878906 87.367188 134.539062 86.890625 C 134.203125 86.414062 133.820312 85.996094 133.414062 85.621094 C 132.601562 84.878906 131.710938 84.292969 130.800781 83.789062 C 128.976562 82.792969 127.066406 82.105469 125.140625 81.542969 C 123.214844 80.980469 121.261719 80.566406 119.304688 80.222656 C 117.347656 79.886719 115.378906 79.632812 113.410156 79.457031 L 113.367188 79.742188 C 115.292969 80.167969 117.207031 80.621094 119.101562 81.144531 C 120.992188 81.660156 122.859375 82.25 124.671875 82.9375 C 125.578125 83.285156 126.472656 83.65625 127.339844 84.066406 C 128.203125 84.476562 129.046875 84.925781 129.832031 85.429688 C 130.613281 85.933594 131.347656 86.492188 131.953125 87.125 C 132.550781 87.75 133.015625 88.449219 133.203125 89.160156 C 133.25 89.335938 133.28125 89.519531 133.296875 89.6875 L 133.308594 89.839844 L 133.308594 89.960938 C 133.308594 90.050781 133.304688 90.136719 133.300781 90.226562 C 133.269531 90.582031 133.179688 90.941406 133.03125 91.296875 C 132.738281 92.007812 132.226562 92.695312 131.617188 93.324219 C 131.007812 93.960938 130.300781 94.542969 129.546875 95.078125 C 128.792969 95.617188 128 96.117188 127.175781 96.585938 C 125.527344 97.515625 123.789062 98.335938 122.015625 99.082031 C 120.238281 99.820312 118.421875 100.507812 116.585938 101.132812 C 115.667969 101.441406 114.746094 101.753906 113.816406 102.042969 C 113.292969 102.210938 112.765625 102.371094 112.234375 102.53125 C 111.832031 102.652344 111.425781 102.773438 111.023438 102.894531 C 110.472656 103.054688 109.925781 103.214844 109.371094 103.371094 C 109.367188 103.371094 109.363281 103.371094 109.359375 103.375 C 109.316406 103.382812 109.273438 103.398438 109.230469 103.410156 " fill-opacity="1" fill-rule="nonzero"/></g></g></g></g></g><g clip-path="url(#11c262f54c)"><g clip-path="url(#8796e4305e)"><g clip-path="url(#10440b2b97)"><path fill="#383325" d="M 2.652344 99.996094 C 2.628906 100.617188 2.71875 101.25 2.90625 101.839844 C 3.097656 102.429688 3.382812 102.972656 3.710938 103.457031 C 4.378906 104.425781 5.207031 105.179688 6.070312 105.820312 C 6.9375 106.460938 7.847656 106.988281 8.773438 107.457031 C 9.699219 107.929688 10.648438 108.324219 11.601562 108.691406 C 13.507812 109.414062 15.449219 109.980469 17.40625 110.441406 C 18.382812 110.671875 19.363281 110.882812 20.347656 111.0625 C 21.332031 111.25 22.320312 111.410156 23.308594 111.550781 C 24.851562 111.777344 26.394531 111.953125 27.941406 112.09375 C 28.945312 112.1875 29.949219 112.261719 30.949219 112.328125 C 32.363281 112.421875 33.777344 112.492188 35.191406 112.546875 C 37.558594 112.636719 39.921875 112.683594 42.285156 112.707031 C 43.242188 112.714844 44.199219 112.722656 45.15625 112.726562 C 45.792969 112.730469 46.429688 112.730469 47.066406 112.730469 C 51.015625 112.734375 54.96875 112.695312 58.917969 112.605469 C 61.558594 112.539062 64.21875 112.46875 66.859375 112.367188 C 67.632812 112.339844 68.351562 112.296875 69.203125 112.273438 L 69.207031 112.265625 L 69.296875 111.871094 L 68.617188 110.875 C 68.089844 110.882812 67.523438 110.96875 67.054688 111.03125 L 67.054688 111.023438 C 64.359375 111.292969 61.617188 111.503906 58.902344 111.640625 C 54.96875 111.84375 51.015625 111.910156 47.082031 111.808594 C 46.949219 111.804688 46.808594 111.800781 46.675781 111.796875 C 46.535156 111.792969 46.394531 111.789062 46.253906 111.785156 C 46.113281 111.78125 45.972656 111.777344 45.832031 111.769531 C 45.769531 111.769531 45.707031 111.765625 45.644531 111.761719 C 45.550781 111.761719 45.480469 111.757812 45.386719 111.753906 C 45.289062 111.75 45.199219 111.746094 45.125 111.746094 C 44.972656 111.734375 44.964844 111.738281 44.898438 111.734375 C 44.730469 111.730469 44.546875 111.71875 44.382812 111.714844 C 44.378906 111.710938 44.371094 111.710938 44.367188 111.710938 C 44.128906 111.699219 43.886719 111.6875 43.644531 111.675781 C 43.40625 111.664062 43.167969 111.628906 42.925781 111.617188 C 42.6875 111.601562 42.445312 111.585938 42.207031 111.554688 L 42.203125 111.554688 C 39.890625 111.476562 37.601562 111.210938 35.316406 110.945312 C 33.703125 110.761719 32.101562 110.527344 30.5 110.316406 L 30.492188 110.3125 C 29.488281 110.179688 28.484375 110.046875 27.492188 109.839844 L 27.480469 109.839844 C 26.210938 109.671875 24.957031 109.417969 23.707031 109.179688 C 23.226562 109.085938 22.75 109 22.273438 108.902344 C 21.796875 108.804688 21.320312 108.710938 20.84375 108.605469 C 19.898438 108.394531 18.949219 108.183594 18.011719 107.949219 C 16.136719 107.476562 14.28125 106.949219 12.492188 106.300781 C 11.597656 105.976562 10.722656 105.613281 9.878906 105.210938 C 9.039062 104.808594 8.226562 104.359375 7.496094 103.847656 C 6.765625 103.332031 6.101562 102.753906 5.628906 102.109375 C 5.15625 101.460938 4.886719 100.769531 4.882812 100.042969 C 4.871094 99.316406 5.140625 98.550781 5.582031 97.820312 C 6.023438 97.089844 6.632812 96.40625 7.300781 95.765625 C 7.972656 95.125 8.714844 94.535156 9.492188 93.980469 C 10.265625 93.421875 11.078125 92.902344 11.910156 92.40625 C 13.574219 91.414062 15.316406 90.527344 17.085938 89.683594 C 18.859375 88.847656 20.667969 88.066406 22.492188 87.308594 L 22.398438 87.035156 C 20.480469 87.527344 18.578125 88.09375 16.703125 88.757812 C 14.828125 89.414062 12.980469 90.167969 11.175781 91.058594 C 9.378906 91.957031 7.617188 92.976562 6.011719 94.320312 C 5.214844 94.996094 4.453125 95.757812 3.824219 96.683594 C 3.507812 97.148438 3.226562 97.652344 3.019531 98.210938 C 2.808594 98.765625 2.675781 99.371094 2.652344 99.996094 " fill-opacity="1" fill-rule="nonzero"/></g></g></g><g clip-path="url(#5b115a5255)"><g clip-path="url(#0446047a27)"><g clip-path="url(#a19f53fb52)"><g clip-path="url(#aebd3780b0)"><g clip-path="url(#4a38e23651)"><path fill="#383325" d="M 109.230469 103.410156 C 109.234375 103.414062 109.238281 103.417969 109.242188 103.421875 C 109.289062 103.496094 109.320312 103.5625 109.386719 103.640625 C 109.574219 103.976562 109.621094 104.304688 109.660156 104.621094 C 109.738281 105.230469 109.609375 105.792969 109.371094 106.308594 C 109.332031 106.398438 109.273438 106.484375 109.226562 106.570312 C 109.222656 106.574219 109.21875 106.578125 109.21875 106.582031 C 109.230469 106.578125 109.238281 106.578125 109.25 106.574219 C 109.484375 106.511719 109.714844 106.449219 109.949219 106.386719 C 110.667969 106.191406 111.386719 105.992188 112.101562 105.78125 C 113.945312 105.246094 115.777344 104.664062 117.59375 104.023438 C 119.476562 103.347656 121.351562 102.625 123.191406 101.792969 C 125.03125 100.964844 126.847656 100.058594 128.59375 98.980469 C 129.46875 98.441406 130.328125 97.867188 131.15625 97.222656 C 131.980469 96.578125 132.777344 95.871094 133.503906 95.054688 C 133.867188 94.644531 134.207031 94.203125 134.511719 93.722656 C 134.820312 93.242188 135.089844 92.71875 135.292969 92.152344 C 135.496094 91.585938 135.625 90.96875 135.640625 90.339844 C 135.648438 90.183594 135.644531 90.023438 135.632812 89.867188 L 135.625 89.75 L 135.613281 89.621094 L 135.585938 89.402344 C 135.535156 89.085938 135.464844 88.78125 135.363281 88.488281 C 135.167969 87.902344 134.878906 87.367188 134.539062 86.890625 C 134.203125 86.414062 133.820312 85.996094 133.414062 85.621094 C 132.601562 84.878906 131.710938 84.292969 130.800781 83.789062 C 128.976562 82.792969 127.066406 82.105469 125.140625 81.542969 C 123.214844 80.980469 121.261719 80.566406 119.304688 80.222656 C 117.347656 79.886719 115.378906 79.632812 113.410156 79.457031 L 113.367188 79.742188 C 115.292969 80.167969 117.207031 80.621094 119.101562 81.144531 C 120.992188 81.660156 122.859375 82.25 124.671875 82.9375 C 125.578125 83.285156 126.472656 83.65625 127.339844 84.066406 C 128.203125 84.476562 129.046875 84.925781 129.832031 85.429688 C 130.613281 85.933594 131.347656 86.492188 131.953125 87.125 C 132.550781 87.75 133.015625 88.449219 133.203125 89.160156 C 133.25 89.335938 133.28125 89.519531 133.296875 89.6875 L 133.308594 89.839844 L 133.308594 89.960938 C 133.308594 90.050781 133.304688 90.136719 133.300781 90.226562 C 133.269531 90.582031 133.179688 90.941406 133.03125 91.296875 C 132.738281 92.007812 132.226562 92.695312 131.617188 93.324219 C 131.007812 93.960938 130.300781 94.542969 129.546875 95.078125 C 128.792969 95.617188 128 96.117188 127.175781 96.585938 C 125.527344 97.515625 123.789062 98.335938 122.015625 99.082031 C 120.238281 99.820312 118.421875 100.507812 116.585938 101.132812 C 115.667969 101.441406 114.746094 101.753906 113.816406 102.042969 C 113.292969 102.210938 112.765625 102.371094 112.234375 102.53125 C 111.832031 102.652344 111.425781 102.773438 111.023438 102.894531 C 110.472656 103.054688 109.925781 103.214844 109.371094 103.371094 C 109.367188 103.371094 109.363281 103.371094 109.359375 103.375 C 109.316406 103.382812 109.273438 103.398438 109.230469 103.410156 " fill-opacity="1" fill-rule="nonzero"/></g></g></g></g></g><g clip-path="url(#09bed4a12b)"><g clip-path="url(#ea422fa20d)"><g clip-path="url(#cc11bd07cd)"><path fill="#383325" d="M 2.652344 99.996094 C 2.628906 100.617188 2.71875 101.25 2.90625 101.839844 C 3.097656 102.429688 3.382812 102.972656 3.710938 103.457031 C 4.378906 104.425781 5.207031 105.179688 6.070312 105.820312 C 6.9375 106.460938 7.847656 106.988281 8.773438 107.457031 C 9.699219 107.929688 10.648438 108.324219 11.601562 108.691406 C 13.507812 109.414062 15.449219 109.980469 17.40625 110.441406 C 18.382812 110.671875 19.363281 110.882812 20.347656 111.0625 C 21.332031 111.25 22.320312 111.410156 23.308594 111.550781 C 24.851562 111.777344 26.394531 111.953125 27.941406 112.09375 C 28.945312 112.1875 29.949219 112.261719 30.949219 112.328125 C 32.363281 112.421875 33.777344 112.492188 35.191406 112.546875 C 37.558594 112.636719 39.921875 112.683594 42.285156 112.707031 C 43.242188 112.714844 44.199219 112.722656 45.15625 112.726562 C 45.792969 112.730469 46.429688 112.730469 47.066406 112.730469 C 51.015625 112.734375 54.96875 112.695312 58.917969 112.605469 C 61.558594 112.539062 64.21875 112.46875 66.859375 112.367188 C 67.632812 112.339844 68.351562 112.296875 69.203125 112.273438 L 69.207031 112.265625 L 69.296875 111.871094 L 68.617188 110.875 C 68.089844 110.882812 67.550781 110.976562 67.015625 111.03125 C 64.308594 111.296875 61.597656 111.507812 58.882812 111.644531 C 54.949219 111.847656 51.011719 111.914062 47.078125 111.808594 C 46.800781 111.804688 46.527344 111.796875 46.25 111.785156 C 46.109375 111.78125 45.972656 111.777344 45.832031 111.769531 C 45.769531 111.769531 45.707031 111.765625 45.644531 111.761719 C 45.550781 111.761719 45.453125 111.757812 45.359375 111.753906 C 45.265625 111.75 45.175781 111.746094 45.082031 111.742188 C 45.011719 111.738281 44.941406 111.738281 44.871094 111.730469 C 44.703125 111.726562 44.535156 111.71875 44.367188 111.710938 C 44.367188 111.710938 44.363281 111.710938 44.359375 111.710938 C 44.121094 111.699219 43.882812 111.6875 43.640625 111.675781 C 43.402344 111.660156 43.164062 111.628906 42.925781 111.617188 C 42.6875 111.601562 42.445312 111.585938 42.207031 111.554688 L 42.203125 111.554688 C 39.890625 111.476562 37.601562 111.210938 35.316406 110.945312 C 33.703125 110.761719 32.101562 110.527344 30.5 110.316406 L 30.492188 110.3125 C 29.488281 110.179688 28.484375 110.046875 27.492188 109.839844 L 27.480469 109.839844 C 26.210938 109.671875 24.957031 109.417969 23.707031 109.179688 C 23.226562 109.085938 22.75 109 22.273438 108.902344 C 21.796875 108.804688 21.320312 108.710938 20.84375 108.605469 C 19.898438 108.394531 18.949219 108.183594 18.011719 107.949219 C 16.136719 107.476562 14.28125 106.949219 12.492188 106.300781 C 11.597656 105.976562 10.722656 105.613281 9.878906 105.210938 C 9.039062 104.808594 8.226562 104.359375 7.496094 103.847656 C 6.765625 103.332031 6.101562 102.753906 5.628906 102.109375 C 5.15625 101.460938 4.886719 100.769531 4.882812 100.042969 C 4.871094 99.316406 5.140625 98.550781 5.582031 97.820312 C 6.023438 97.089844 6.632812 96.40625 7.300781 95.765625 C 7.972656 95.125 8.714844 94.535156 9.492188 93.980469 C 10.265625 93.421875 11.078125 92.902344 11.910156 92.40625 C 13.574219 91.414062 15.316406 90.527344 17.085938 89.683594 C 18.859375 88.847656 20.667969 88.066406 22.492188 87.308594 L 22.398438 87.035156 C 20.480469 87.527344 18.578125 88.09375 16.703125 88.757812 C 14.828125 89.414062 12.980469 90.167969 11.175781 91.058594 C 9.378906 91.957031 7.617188 92.976562 6.011719 94.320312 C 5.214844 94.996094 4.453125 95.757812 3.824219 96.683594 C 3.507812 97.148438 3.226562 97.652344 3.019531 98.210938 C 2.808594 98.765625 2.675781 99.371094 2.652344 99.996094 " fill-opacity="1" fill-rule="nonzero"/></g></g></g><g clip-path="url(#08c318d43c)"><g clip-path="url(#84d3d4ccc9)"><g clip-path="url(#8e5b0e72df)"><g clip-path="url(#f114ca0af5)"><g clip-path="url(#47d1e2540b)"><path fill="#383325" d="M 88.503906 129.503906 C 88.503906 129.507812 88.503906 129.511719 88.503906 129.511719 C 88.503906 129.515625 88.503906 129.519531 88.503906 129.523438 L 88.535156 129.515625 C 88.527344 129.511719 88.515625 129.507812 88.503906 129.503906 " fill-opacity="1" fill-rule="nonzero"/></g></g></g></g></g><g clip-path="url(#af23186880)"><g clip-path="url(#c96ca9b709)"><g clip-path="url(#79c4c1cbc9)"><path fill="#383325" d="M 68.214844 106.132812 L 69.75 108.421875 L 70.167969 109.042969 L 71.1875 110.5625 L 71.507812 111.042969 C 71.601562 111.179688 71.691406 111.667969 71.65625 111.832031 L 71.59375 112.152344 C 71.597656 112.148438 71.613281 112.152344 71.613281 112.148438 L 71.613281 112.15625 L 71.074219 114.472656 L 71.074219 114.476562 L 70.351562 117.597656 C 70.253906 118.015625 70.492188 118.296875 70.882812 118.226562 C 71.277344 118.152344 71.753906 117.773438 71.941406 117.386719 L 73.40625 114.347656 L 73.40625 114.34375 L 74.382812 112.300781 L 78.242188 111.730469 L 78.523438 111.691406 L 78.527344 111.6875 L 89.515625 110.070312 L 89.425781 110.464844 L 89.429688 110.472656 L 89.460938 110.480469 L 89.035156 112.855469 L 89.03125 112.867188 L 86.042969 126.992188 C 85.980469 127.289062 86.042969 127.53125 86.269531 127.5625 L 86.28125 127.5625 C 86.371094 127.574219 86.472656 127.574219 86.582031 127.554688 L 88.347656 127.222656 C 88.757812 127.148438 89.226562 126.78125 89.386719 126.394531 L 90.902344 122.75 C 91.007812 122.773438 91.105469 122.730469 91.21875 122.707031 L 91.992188 122.5625 L 92.203125 122.527344 C 92.613281 122.449219 92.921875 122.148438 92.84375 121.738281 L 92.789062 121.4375 C 92.765625 121.304688 92.703125 121.179688 92.621094 121.066406 C 92.4375 120.835938 92.148438 120.679688 91.871094 120.730469 L 91.691406 120.761719 L 93.039062 117.597656 C 93.140625 117.625 93.261719 117.6875 93.371094 117.667969 L 93.777344 117.589844 L 94.328125 117.488281 C 94.738281 117.414062 95.019531 117.003906 94.945312 116.59375 L 94.890625 116.292969 C 94.839844 116.027344 94.640625 115.765625 94.390625 115.636719 C 94.261719 115.570312 94.113281 115.539062 93.972656 115.566406 L 93.824219 115.589844 L 95.324219 112.011719 L 95.394531 111.851562 L 96.445312 109.34375 L 96.59375 108.988281 L 102.113281 108.238281 L 102.160156 108.234375 C 103.429688 108.042969 105.792969 107.03125 106.847656 105.976562 C 107.207031 105.613281 107.414062 105.246094 107.371094 104.90625 C 107.332031 104.585938 107.074219 104.320312 106.6875 104.105469 C 105.445312 103.40625 102.84375 103.207031 101.542969 103.402344 C 101.519531 103.40625 99.5 103.851562 96.550781 104.511719 C 96.453125 104.535156 96.355469 104.554688 96.257812 104.578125 C 96.109375 104.609375 95.957031 104.644531 95.804688 104.679688 L 95.625 104.492188 L 95.511719 104.371094 L 93.902344 102.667969 L 90.832031 99.429688 L 90.980469 99.402344 C 91.390625 99.324219 91.679688 98.941406 91.601562 98.53125 L 91.546875 98.234375 C 91.472656 97.824219 91.082031 97.65625 90.671875 97.734375 L 89.714844 97.910156 C 89.605469 97.929688 89.492188 97.902344 89.40625 97.964844 L 86.992188 95.363281 L 87.171875 95.332031 C 87.582031 95.253906 87.878906 94.890625 87.800781 94.480469 L 87.746094 94.179688 C 87.671875 93.769531 87.25 93.457031 86.835938 93.535156 L 85.851562 93.71875 C 85.742188 93.738281 85.640625 93.785156 85.554688 93.84375 L 82.835938 90.976562 C 82.546875 90.675781 81.96875 90.453125 81.558594 90.53125 L 79.796875 90.859375 C 79.382812 90.933594 79.238281 91.316406 79.464844 91.667969 L 86.957031 103.347656 L 88.46875 105.699219 L 88.820312 106.25 C 88.601562 106.300781 88.382812 106.347656 88.164062 106.398438 C 82.183594 107.734375 76 109.121094 73.859375 109.597656 L 72.289062 108.121094 L 70.511719 106.445312 L 69.777344 105.753906 C 69.464844 105.460938 68.886719 105.277344 68.496094 105.351562 C 68.101562 105.421875 67.976562 105.773438 68.214844 106.132812 " fill-opacity="1" fill-rule="nonzero"/><path fill="#383325" d="M 68.214844 106.132812 L 69.75 108.421875 L 70.167969 109.042969 L 71.1875 110.5625 L 71.507812 111.042969 C 71.601562 111.179688 71.703125 111.671875 71.667969 111.832031 L 71.613281 112.148438 L 71.613281 112.15625 L 71.074219 114.472656 L 71.074219 114.476562 L 70.351562 117.597656 C 70.253906 118.015625 70.492188 118.296875 70.882812 118.226562 C 71.277344 118.152344 71.753906 117.773438 71.941406 117.386719 L 73.40625 114.347656 L 73.40625 114.34375 L 74.382812 112.300781 L 78.242188 111.730469 L 78.523438 111.691406 L 78.527344 111.6875 L 89.515625 110.070312 L 89.425781 110.464844 L 89.429688 110.472656 L 89.460938 110.480469 L 89.035156 112.855469 L 89.03125 112.867188 L 86.042969 126.992188 C 85.980469 127.289062 86.042969 127.53125 86.269531 127.5625 L 86.28125 127.5625 C 86.371094 127.574219 86.472656 127.574219 86.582031 127.554688 L 88.347656 127.222656 C 88.757812 127.148438 89.226562 126.78125 89.386719 126.394531 L 90.902344 122.75 C 91.007812 122.773438 91.105469 122.730469 91.21875 122.707031 L 91.992188 122.5625 L 92.203125 122.527344 C 92.613281 122.449219 92.921875 122.148438 92.84375 121.738281 L 92.789062 121.4375 C 92.765625 121.304688 92.703125 121.179688 92.621094 121.066406 C 92.4375 120.835938 92.148438 120.679688 91.871094 120.730469 L 91.691406 120.761719 L 93.039062 117.597656 C 93.140625 117.625 93.261719 117.6875 93.371094 117.667969 L 93.777344 117.589844 L 94.328125 117.488281 C 94.738281 117.414062 95.019531 117.003906 94.945312 116.59375 L 94.890625 116.292969 C 94.839844 116.027344 94.640625 115.765625 94.390625 115.636719 C 94.261719 115.570312 94.113281 115.539062 93.972656 115.566406 L 93.824219 115.589844 L 95.324219 112.011719 L 95.394531 111.851562 L 96.445312 109.34375 L 96.59375 108.988281 L 102.113281 108.238281 L 102.160156 108.234375 C 103.429688 108.042969 105.792969 107.03125 106.847656 105.976562 C 107.207031 105.613281 107.414062 105.246094 107.371094 104.90625 C 107.332031 104.585938 107.074219 104.320312 106.6875 104.105469 C 105.445312 103.40625 102.84375 103.207031 101.542969 103.402344 C 101.519531 103.40625 99.5 103.851562 96.550781 104.511719 C 96.453125 104.535156 96.355469 104.554688 96.257812 104.578125 C 96.109375 104.609375 95.957031 104.644531 95.804688 104.679688 L 95.625 104.492188 L 95.511719 104.371094 L 93.902344 102.667969 L 90.832031 99.429688 L 90.980469 99.402344 C 91.390625 99.324219 91.679688 98.941406 91.601562 98.53125 L 91.546875 98.234375 C 91.472656 97.824219 91.082031 97.65625 90.671875 97.734375 L 89.714844 97.910156 C 89.605469 97.929688 89.492188 97.902344 89.40625 97.964844 L 86.992188 95.363281 L 87.171875 95.332031 C 87.582031 95.253906 87.878906 94.890625 87.800781 94.480469 L 87.746094 94.179688 C 87.671875 93.769531 87.25 93.457031 86.835938 93.535156 L 85.851562 93.71875 C 85.742188 93.738281 85.640625 93.785156 85.554688 93.84375 L 82.835938 90.976562 C 82.546875 90.675781 81.96875 90.453125 81.558594 90.53125 L 79.796875 90.859375 C 79.382812 90.933594 79.238281 91.316406 79.464844 91.667969 L 86.957031 103.347656 L 88.46875 105.699219 L 88.820312 106.25 C 88.601562 106.300781 88.382812 106.347656 88.164062 106.398438 C 82.183594 107.734375 76 109.121094 73.859375 109.597656 L 72.289062 108.121094 L 70.511719 106.445312 L 69.777344 105.753906 C 69.464844 105.460938 68.886719 105.277344 68.496094 105.351562 C 68.101562 105.421875 67.976562 105.773438 68.214844 106.132812 " fill-opacity="1" fill-rule="nonzero"/></g></g></g><g clip-path="url(#a5d7c0e6e8)"><g clip-path="url(#9a11e4e183)"><path fill="#a6873a" d="M 198.003906 94.65625 L 203.058594 94.65625 L 203.058594 99.714844 L 198.003906 99.714844 Z M 198.003906 94.65625 " fill-opacity="1" fill-rule="nonzero"/></g></g><g clip-path="url(#1350164447)"><g clip-path="url(#5473901979)"><path fill="#a6873a" d="M 500.605469 94.65625 L 505.660156 94.65625 L 505.660156 99.714844 L 500.605469 99.714844 Z M 500.605469 94.65625 " fill-opacity="1" fill-rule="nonzero"/></g></g><g fill="#a6873a" fill-opacity="1"><g transform="translate(219.298301, 105.478563)"><g><path d="M 7.265625 -9.796875 L 7.265625 -8.046875 L 2.96875 -8.046875 L 2.96875 -1.78125 L 8.234375 -1.78125 L 8.234375 0 L 1 0 L 1 -17.59375 L 8.234375 -17.59375 L 8.234375 -15.796875 L 2.96875 -15.796875 L 2.96875 -9.796875 Z M 7.265625 -9.796875 "/></g></g></g><g fill="#a6873a" fill-opacity="1"><g transform="translate(230.605402, 105.478563)"><g><path d="M 4.703125 -17.765625 C 6.035156 -17.765625 7.019531 -17.363281 7.65625 -16.5625 C 8.300781 -15.769531 8.625 -14.703125 8.625 -13.359375 L 8.625 -12.890625 L 6.765625 -12.890625 L 6.765625 -13.46875 C 6.765625 -14.269531 6.601562 -14.890625 6.28125 -15.328125 C 5.957031 -15.765625 5.445312 -15.984375 4.75 -15.984375 C 4.039062 -15.984375 3.523438 -15.765625 3.203125 -15.328125 C 2.890625 -14.890625 2.734375 -14.273438 2.734375 -13.484375 C 2.734375 -12.835938 2.878906 -12.269531 3.171875 -11.78125 C 3.472656 -11.300781 3.835938 -10.851562 4.265625 -10.4375 C 4.703125 -10.03125 5.175781 -9.628906 5.6875 -9.234375 C 6.195312 -8.835938 6.671875 -8.40625 7.109375 -7.9375 C 7.546875 -7.46875 7.910156 -6.9375 8.203125 -6.34375 C 8.492188 -5.75 8.640625 -5.039062 8.640625 -4.21875 C 8.640625 -2.882812 8.316406 -1.816406 7.671875 -1.015625 C 7.023438 -0.222656 6.023438 0.171875 4.671875 0.171875 C 3.316406 0.171875 2.320312 -0.222656 1.6875 -1.015625 C 1.050781 -1.816406 0.734375 -2.882812 0.734375 -4.21875 L 0.734375 -5.21875 L 2.5625 -5.21875 L 2.5625 -4.125 C 2.5625 -3.320312 2.726562 -2.703125 3.0625 -2.265625 C 3.394531 -1.828125 3.914062 -1.609375 4.625 -1.609375 C 5.320312 -1.609375 5.835938 -1.828125 6.171875 -2.265625 C 6.515625 -2.703125 6.6875 -3.320312 6.6875 -4.125 C 6.6875 -4.769531 6.535156 -5.332031 6.234375 -5.8125 C 5.941406 -6.289062 5.578125 -6.734375 5.140625 -7.140625 C 4.710938 -7.554688 4.242188 -7.957031 3.734375 -8.34375 C 3.234375 -8.738281 2.765625 -9.171875 2.328125 -9.640625 C 1.898438 -10.109375 1.535156 -10.640625 1.234375 -11.234375 C 0.941406 -11.835938 0.796875 -12.546875 0.796875 -13.359375 C 0.796875 -14.722656 1.113281 -15.796875 1.75 -16.578125 C 2.394531 -17.367188 3.378906 -17.765625 4.703125 -17.765625 Z M 4.703125 -17.765625 "/></g></g></g><g fill="#a6873a" fill-opacity="1"><g transform="translate(242.214009, 105.478563)"><g><path d="M 4.84375 -17.59375 C 6.238281 -17.59375 7.242188 -17.207031 7.859375 -16.4375 C 8.484375 -15.675781 8.796875 -14.628906 8.796875 -13.296875 L 8.796875 -11.1875 C 8.796875 -9.769531 8.460938 -8.707031 7.796875 -8 C 7.140625 -7.289062 6.109375 -6.9375 4.703125 -6.9375 L 2.96875 -6.9375 L 2.96875 0 L 1 0 L 1 -17.59375 Z M 4.703125 -8.6875 C 5.429688 -8.6875 5.972656 -8.867188 6.328125 -9.234375 C 6.679688 -9.597656 6.859375 -10.207031 6.859375 -11.0625 L 6.859375 -13.390625 C 6.859375 -14.191406 6.703125 -14.789062 6.390625 -15.1875 C 6.078125 -15.59375 5.5625 -15.796875 4.84375 -15.796875 L 2.96875 -15.796875 L 2.96875 -8.6875 Z M 4.703125 -8.6875 "/></g></g></g><g fill="#a6873a" fill-opacity="1"><g transform="translate(253.87286, 105.478563)"><g><path d="M 7.265625 -9.796875 L 7.265625 -8.046875 L 2.96875 -8.046875 L 2.96875 -1.78125 L 8.234375 -1.78125 L 8.234375 0 L 1 0 L 1 -17.59375 L 8.234375 -17.59375 L 8.234375 -15.796875 L 2.96875 -15.796875 L 2.96875 -9.796875 Z M 7.265625 -9.796875 "/></g></g></g><g fill="#a6873a" fill-opacity="1"><g transform="translate(265.179961, 105.478563)"><g><path d="M 4.796875 -17.765625 C 6.148438 -17.765625 7.148438 -17.359375 7.796875 -16.546875 C 8.441406 -15.742188 8.765625 -14.675781 8.765625 -13.34375 L 8.765625 -11.765625 L 6.90625 -11.765625 L 6.90625 -13.4375 C 6.90625 -14.238281 6.738281 -14.863281 6.40625 -15.3125 C 6.082031 -15.757812 5.5625 -15.984375 4.84375 -15.984375 C 4.144531 -15.984375 3.625 -15.757812 3.28125 -15.3125 C 2.945312 -14.863281 2.78125 -14.238281 2.78125 -13.4375 L 2.78125 -4.140625 C 2.78125 -3.335938 2.945312 -2.710938 3.28125 -2.265625 C 3.625 -1.828125 4.144531 -1.609375 4.84375 -1.609375 C 5.5625 -1.609375 6.082031 -1.828125 6.40625 -2.265625 C 6.738281 -2.710938 6.90625 -3.335938 6.90625 -4.140625 L 6.90625 -6.4375 L 8.765625 -6.4375 L 8.765625 -4.25 C 8.765625 -2.90625 8.441406 -1.832031 7.796875 -1.03125 C 7.148438 -0.226562 6.148438 0.171875 4.796875 0.171875 C 3.453125 0.171875 2.457031 -0.226562 1.8125 -1.03125 C 1.175781 -1.832031 0.859375 -2.90625 0.859375 -4.25 L 0.859375 -13.34375 C 0.859375 -14.007812 0.9375 -14.613281 1.09375 -15.15625 C 1.25 -15.707031 1.488281 -16.175781 1.8125 -16.5625 C 2.144531 -16.945312 2.554688 -17.242188 3.046875 -17.453125 C 3.546875 -17.660156 4.128906 -17.765625 4.796875 -17.765625 Z M 4.796875 -17.765625 "/></g></g></g><g fill="#a6873a" fill-opacity="1"><g transform="translate(276.989565, 105.478563)"><g><path d="M 2.96875 -17.59375 L 2.96875 0 L 1 0 L 1 -17.59375 Z M 2.96875 -17.59375 "/></g></g></g><g fill="#a6873a" fill-opacity="1"><g transform="translate(283.221502, 105.478563)"><g><path d="M 2.984375 -3.546875 L 2.3125 0 L 0.5 0 L 3.875 -17.59375 L 6.703125 -17.59375 L 10.078125 0 L 8.109375 0 L 7.4375 -3.546875 Z M 3.234375 -5.21875 L 7.15625 -5.21875 L 5.171875 -15.375 Z M 3.234375 -5.21875 "/></g></g></g><g fill="#a6873a" fill-opacity="1"><g transform="translate(296.086333, 105.478563)"><g><path d="M 1 0 L 1 -17.59375 L 2.96875 -17.59375 L 2.96875 -1.78125 L 7.984375 -1.78125 L 7.984375 0 Z M 1 0 "/></g></g></g><g fill="#a6873a" fill-opacity="1"><g transform="translate(306.815567, 105.478563)"><g><path d="M 2.96875 -17.59375 L 2.96875 0 L 1 0 L 1 -17.59375 Z M 2.96875 -17.59375 "/></g></g></g><g fill="#a6873a" fill-opacity="1"><g transform="translate(313.047504, 105.478563)"><g><path d="M 4.703125 -17.765625 C 6.035156 -17.765625 7.019531 -17.363281 7.65625 -16.5625 C 8.300781 -15.769531 8.625 -14.703125 8.625 -13.359375 L 8.625 -12.890625 L 6.765625 -12.890625 L 6.765625 -13.46875 C 6.765625 -14.269531 6.601562 -14.890625 6.28125 -15.328125 C 5.957031 -15.765625 5.445312 -15.984375 4.75 -15.984375 C 4.039062 -15.984375 3.523438 -15.765625 3.203125 -15.328125 C 2.890625 -14.890625 2.734375 -14.273438 2.734375 -13.484375 C 2.734375 -12.835938 2.878906 -12.269531 3.171875 -11.78125 C 3.472656 -11.300781 3.835938 -10.851562 4.265625 -10.4375 C 4.703125 -10.03125 5.175781 -9.628906 5.6875 -9.234375 C 6.195312 -8.835938 6.671875 -8.40625 7.109375 -7.9375 C 7.546875 -7.46875 7.910156 -6.9375 8.203125 -6.34375 C 8.492188 -5.75 8.640625 -5.039062 8.640625 -4.21875 C 8.640625 -2.882812 8.316406 -1.816406 7.671875 -1.015625 C 7.023438 -0.222656 6.023438 0.171875 4.671875 0.171875 C 3.316406 0.171875 2.320312 -0.222656 1.6875 -1.015625 C 1.050781 -1.816406 0.734375 -2.882812 0.734375 -4.21875 L 0.734375 -5.21875 L 2.5625 -5.21875 L 2.5625 -4.125 C 2.5625 -3.320312 2.726562 -2.703125 3.0625 -2.265625 C 3.394531 -1.828125 3.914062 -1.609375 4.625 -1.609375 C 5.320312 -1.609375 5.835938 -1.828125 6.171875 -2.265625 C 6.515625 -2.703125 6.6875 -3.320312 6.6875 -4.125 C 6.6875 -4.769531 6.535156 -5.332031 6.234375 -5.8125 C 5.941406 -6.289062 5.578125 -6.734375 5.140625 -7.140625 C 4.710938 -7.554688 4.242188 -7.957031 3.734375 -8.34375 C 3.234375 -8.738281 2.765625 -9.171875 2.328125 -9.640625 C 1.898438 -10.109375 1.535156 -10.640625 1.234375 -11.234375 C 0.941406 -11.835938 0.796875 -12.546875 0.796875 -13.359375 C 0.796875 -14.722656 1.113281 -15.796875 1.75 -16.578125 C 2.394531 -17.367188 3.378906 -17.765625 4.703125 -17.765625 Z M 4.703125 -17.765625 "/></g></g></g><g fill="#a6873a" fill-opacity="1"><g transform="translate(324.65611, 105.478563)"><g><path d="M 3.5625 0 L 3.5625 -15.796875 L 0.328125 -15.796875 L 0.328125 -17.59375 L 8.765625 -17.59375 L 8.765625 -15.796875 L 5.53125 -15.796875 L 5.53125 0 Z M 3.5625 0 "/></g></g></g><g fill="#a6873a" fill-opacity="1"><g transform="translate(336.038578, 105.478563)"><g><path d="M 2.984375 -3.546875 L 2.3125 0 L 0.5 0 L 3.875 -17.59375 L 6.703125 -17.59375 L 10.078125 0 L 8.109375 0 L 7.4375 -3.546875 Z M 3.234375 -5.21875 L 7.15625 -5.21875 L 5.171875 -15.375 Z M 3.234375 -5.21875 "/></g></g></g><g fill="#a6873a" fill-opacity="1"><g transform="translate(348.90341, 105.478563)"><g/></g></g><g fill="#a6873a" fill-opacity="1"><g transform="translate(355.059961, 105.478563)"><g><path d="M 7.265625 -9.796875 L 7.265625 -8.046875 L 2.96875 -8.046875 L 2.96875 -1.78125 L 8.234375 -1.78125 L 8.234375 0 L 1 0 L 1 -17.59375 L 8.234375 -17.59375 L 8.234375 -15.796875 L 2.96875 -15.796875 L 2.96875 -9.796875 Z M 7.265625 -9.796875 "/></g></g></g><g fill="#a6873a" fill-opacity="1"><g transform="translate(366.367063, 105.478563)"><g><path d="M 7.484375 -0.03125 L 5.609375 -0.03125 L 2.6875 -14.015625 L 2.6875 0 L 0.984375 0 L 0.984375 -17.59375 L 3.71875 -17.59375 L 6.609375 -3.546875 L 9.390625 -17.59375 L 12.140625 -17.59375 L 12.140625 0 L 10.28125 0 L 10.28125 -14.140625 Z M 7.484375 -0.03125 "/></g></g></g><g fill="#a6873a" fill-opacity="1"><g transform="translate(381.769467, 105.478563)"><g/></g></g><g fill="#a6873a" fill-opacity="1"><g transform="translate(387.926018, 105.478563)"><g><path d="M 2.96875 -17.59375 L 2.96875 0 L 1 0 L 1 -17.59375 Z M 2.96875 -17.59375 "/></g></g></g><g fill="#a6873a" fill-opacity="1"><g transform="translate(394.157955, 105.478563)"><g><path d="M 7.484375 -0.03125 L 5.609375 -0.03125 L 2.6875 -14.015625 L 2.6875 0 L 0.984375 0 L 0.984375 -17.59375 L 3.71875 -17.59375 L 6.609375 -3.546875 L 9.390625 -17.59375 L 12.140625 -17.59375 L 12.140625 0 L 10.28125 0 L 10.28125 -14.140625 Z M 7.484375 -0.03125 "/></g></g></g><g fill="#a6873a" fill-opacity="1"><g transform="translate(409.560359, 105.478563)"><g><path d="M 2.96875 -17.59375 L 2.96875 0 L 1 0 L 1 -17.59375 Z M 2.96875 -17.59375 "/></g></g></g><g fill="#a6873a" fill-opacity="1"><g transform="translate(415.792296, 105.478563)"><g><path d="M 4.796875 -17.765625 C 6.148438 -17.765625 7.148438 -17.359375 7.796875 -16.546875 C 8.441406 -15.742188 8.765625 -14.675781 8.765625 -13.34375 L 8.765625 -11.828125 L 6.90625 -11.828125 L 6.90625 -13.4375 C 6.90625 -14.238281 6.738281 -14.863281 6.40625 -15.3125 C 6.082031 -15.757812 5.5625 -15.984375 4.84375 -15.984375 C 4.144531 -15.984375 3.625 -15.757812 3.28125 -15.3125 C 2.945312 -14.863281 2.78125 -14.238281 2.78125 -13.4375 L 2.78125 -4.140625 C 2.78125 -3.335938 2.945312 -2.710938 3.28125 -2.265625 C 3.625 -1.828125 4.144531 -1.609375 4.84375 -1.609375 C 5.5625 -1.609375 6.082031 -1.828125 6.40625 -2.265625 C 6.738281 -2.710938 6.90625 -3.335938 6.90625 -4.140625 L 6.90625 -7.65625 L 5.09375 -7.65625 L 5.09375 -9.421875 L 8.765625 -9.421875 L 8.765625 -4.25 C 8.765625 -2.90625 8.441406 -1.832031 7.796875 -1.03125 C 7.148438 -0.226562 6.148438 0.171875 4.796875 0.171875 C 3.453125 0.171875 2.457031 -0.226562 1.8125 -1.03125 C 1.175781 -1.832031 0.859375 -2.90625 0.859375 -4.25 L 0.859375 -13.34375 C 0.859375 -14.007812 0.9375 -14.613281 1.09375 -15.15625 C 1.25 -15.707031 1.488281 -16.175781 1.8125 -16.5625 C 2.144531 -16.945312 2.554688 -17.242188 3.046875 -17.453125 C 3.546875 -17.660156 4.128906 -17.765625 4.796875 -17.765625 Z M 4.796875 -17.765625 "/></g></g></g><g fill="#a6873a" fill-opacity="1"><g transform="translate(427.677266, 105.478563)"><g><path d="M 4.921875 -17.59375 C 6.316406 -17.59375 7.316406 -17.25 7.921875 -16.5625 C 8.535156 -15.875 8.84375 -14.875 8.84375 -13.5625 L 8.84375 -12.140625 C 8.84375 -11.160156 8.664062 -10.367188 8.3125 -9.765625 C 7.957031 -9.171875 7.40625 -8.753906 6.65625 -8.515625 C 7.457031 -8.285156 8.023438 -7.851562 8.359375 -7.21875 C 8.703125 -6.59375 8.875 -5.800781 8.875 -4.84375 L 8.875 -2.109375 C 8.875 -1.722656 8.890625 -1.347656 8.921875 -0.984375 C 8.953125 -0.628906 9.050781 -0.300781 9.21875 0 L 7.234375 0 C 7.117188 -0.25 7.035156 -0.519531 6.984375 -0.8125 C 6.929688 -1.101562 6.90625 -1.546875 6.90625 -2.140625 L 6.90625 -4.90625 C 6.90625 -5.882812 6.679688 -6.5625 6.234375 -6.9375 C 5.796875 -7.320312 5.164062 -7.515625 4.34375 -7.515625 L 2.96875 -7.515625 L 2.96875 0 L 1 0 L 1 -17.59375 Z M 4.421875 -9.296875 C 5.210938 -9.296875 5.820312 -9.457031 6.25 -9.78125 C 6.6875 -10.113281 6.90625 -10.753906 6.90625 -11.703125 L 6.90625 -13.390625 C 6.90625 -14.191406 6.75 -14.789062 6.4375 -15.1875 C 6.132812 -15.59375 5.613281 -15.796875 4.875 -15.796875 L 2.96875 -15.796875 L 2.96875 -9.296875 Z M 4.421875 -9.296875 "/></g></g></g><g fill="#a6873a" fill-opacity="1"><g transform="translate(439.838599, 105.478563)"><g><path d="M 2.984375 -3.546875 L 2.3125 0 L 0.5 0 L 3.875 -17.59375 L 6.703125 -17.59375 L 10.078125 0 L 8.109375 0 L 7.4375 -3.546875 Z M 3.234375 -5.21875 L 7.15625 -5.21875 L 5.171875 -15.375 Z M 3.234375 -5.21875 "/></g></g></g><g fill="#a6873a" fill-opacity="1"><g transform="translate(452.703431, 105.478563)"><g><path d="M 4.796875 -17.765625 C 6.148438 -17.765625 7.148438 -17.359375 7.796875 -16.546875 C 8.441406 -15.742188 8.765625 -14.675781 8.765625 -13.34375 L 8.765625 -11.765625 L 6.90625 -11.765625 L 6.90625 -13.4375 C 6.90625 -14.238281 6.738281 -14.863281 6.40625 -15.3125 C 6.082031 -15.757812 5.5625 -15.984375 4.84375 -15.984375 C 4.144531 -15.984375 3.625 -15.757812 3.28125 -15.3125 C 2.945312 -14.863281 2.78125 -14.238281 2.78125 -13.4375 L 2.78125 -4.140625 C 2.78125 -3.335938 2.945312 -2.710938 3.28125 -2.265625 C 3.625 -1.828125 4.144531 -1.609375 4.84375 -1.609375 C 5.5625 -1.609375 6.082031 -1.828125 6.40625 -2.265625 C 6.738281 -2.710938 6.90625 -3.335938 6.90625 -4.140625 L 6.90625 -6.4375 L 8.765625 -6.4375 L 8.765625 -4.25 C 8.765625 -2.988281 8.472656 -1.957031 7.890625 -1.15625 C 7.316406 -0.363281 6.425781 0.0703125 5.21875 0.15625 L 5.21875 0.921875 C 5.8125 0.921875 6.269531 1.035156 6.59375 1.265625 C 6.914062 1.492188 7.078125 1.8125 7.078125 2.21875 C 7.078125 2.71875 6.867188 3.109375 6.453125 3.390625 C 6.035156 3.671875 5.453125 3.8125 4.703125 3.8125 C 3.960938 3.8125 3.390625 3.671875 2.984375 3.390625 C 2.585938 3.117188 2.390625 2.742188 2.390625 2.265625 L 2.390625 2.0625 L 3.671875 2.0625 L 3.671875 2.234375 C 3.671875 2.671875 4.015625 2.914062 4.703125 2.96875 C 5.421875 2.96875 5.78125 2.695312 5.78125 2.15625 C 5.78125 1.65625 5.367188 1.40625 4.546875 1.40625 L 4.328125 1.40625 L 4.328125 0.15625 C 3.128906 0.0703125 2.25 -0.367188 1.6875 -1.171875 C 1.132812 -1.984375 0.859375 -3.007812 0.859375 -4.25 L 0.859375 -13.34375 C 0.859375 -14.007812 0.9375 -14.613281 1.09375 -15.15625 C 1.25 -15.707031 1.488281 -16.175781 1.8125 -16.5625 C 2.144531 -16.945312 2.554688 -17.242188 3.046875 -17.453125 C 3.546875 -17.660156 4.128906 -17.765625 4.796875 -17.765625 Z M 4.796875 -17.765625 "/></g></g></g><g fill="#a6873a" fill-opacity="1"><g transform="translate(464.513034, 105.478563)"><g><path d="M 4.046875 -20.75 C 4.296875 -20.75 4.523438 -20.710938 4.734375 -20.640625 C 4.941406 -20.566406 5.132812 -20.476562 5.3125 -20.375 C 5.488281 -20.269531 5.660156 -20.179688 5.828125 -20.109375 C 5.992188 -20.035156 6.171875 -20 6.359375 -20 C 6.578125 -20.019531 6.765625 -20.082031 6.921875 -20.1875 C 7.078125 -20.289062 7.222656 -20.476562 7.359375 -20.75 L 8.34375 -20.078125 C 8.144531 -19.585938 7.894531 -19.222656 7.59375 -18.984375 C 7.289062 -18.753906 6.945312 -18.640625 6.5625 -18.640625 C 6.3125 -18.640625 6.082031 -18.675781 5.875 -18.75 C 5.675781 -18.832031 5.488281 -18.914062 5.3125 -19 C 5.132812 -19.09375 4.960938 -19.175781 4.796875 -19.25 C 4.628906 -19.332031 4.445312 -19.375 4.25 -19.375 C 4.007812 -19.375 3.804688 -19.316406 3.640625 -19.203125 C 3.472656 -19.097656 3.320312 -18.90625 3.1875 -18.625 L 2.21875 -19.296875 C 2.414062 -19.816406 2.671875 -20.1875 2.984375 -20.40625 C 3.304688 -20.625 3.660156 -20.738281 4.046875 -20.75 Z M 2.984375 -3.546875 L 2.3125 0 L 0.5 0 L 3.875 -17.59375 L 6.703125 -17.59375 L 10.078125 0 L 8.109375 0 L 7.4375 -3.546875 Z M 3.234375 -5.21875 L 7.15625 -5.21875 L 5.171875 -15.375 Z M 3.234375 -5.21875 "/></g></g></g><g fill="#a6873a" fill-opacity="1"><g transform="translate(477.377866, 105.478563)"><g><path d="M 0.859375 -13.34375 C 0.859375 -14.695312 1.1875 -15.769531 1.84375 -16.5625 C 2.507812 -17.363281 3.519531 -17.765625 4.875 -17.765625 C 6.226562 -17.765625 7.238281 -17.363281 7.90625 -16.5625 C 8.582031 -15.769531 8.921875 -14.695312 8.921875 -13.34375 L 8.921875 -4.25 C 8.921875 -2.90625 8.582031 -1.832031 7.90625 -1.03125 C 7.238281 -0.226562 6.226562 0.171875 4.875 0.171875 C 3.519531 0.171875 2.507812 -0.226562 1.84375 -1.03125 C 1.1875 -1.832031 0.859375 -2.90625 0.859375 -4.25 Z M 2.78125 -4.140625 C 2.78125 -3.335938 2.953125 -2.710938 3.296875 -2.265625 C 3.640625 -1.828125 4.164062 -1.609375 4.875 -1.609375 C 5.59375 -1.609375 6.117188 -1.828125 6.453125 -2.265625 C 6.785156 -2.710938 6.953125 -3.335938 6.953125 -4.140625 L 6.953125 -13.4375 C 6.953125 -14.238281 6.785156 -14.863281 6.453125 -15.3125 C 6.117188 -15.757812 5.59375 -15.984375 4.875 -15.984375 C 4.164062 -15.984375 3.640625 -15.757812 3.296875 -15.3125 C 2.953125 -14.863281 2.78125 -14.238281 2.78125 -13.4375 Z M 2.78125 -4.140625 "/></g></g></g><g fill="#383325" fill-opacity="1"><g transform="translate(201.492254, 72.703935)"><g><path d="M 18.738281 -5.253906 C 18.3125 -4.464844 15.9375 -1.058594 11.183594 -1.058594 C 6.449219 -1.058594 2.589844 -5.480469 2.589844 -10.914062 C 2.589844 -16.363281 6.449219 -20.78125 11.183594 -20.78125 C 14.984375 -20.78125 17.332031 -18.78125 16.921875 -16.511719 L 19.3125 -18.617188 C 18.164062 -19.117188 15.921875 -21.703125 11.320312 -21.703125 C 5.417969 -21.703125 0.621094 -16.859375 0.621094 -10.882812 C 0.621094 -4.917969 5.417969 -0.0585938 11.320312 -0.0585938 C 15.785156 -0.0585938 18.585938 -3.4375 18.738281 -5.253906 Z M 18.738281 -5.253906 "/></g></g></g><g fill="#383325" fill-opacity="1"><g transform="translate(224.64881, 72.703935)"><g><path d="M 15.742188 -2.316406 L 11.789062 -8.21875 C 17.769531 -9.113281 19.496094 -11.761719 19.496094 -14.789062 C 19.496094 -19.222656 15.589844 -21.6875 10.671875 -21.6875 L 0.621094 -21.703125 C 0.621094 -21.703125 1.785156 -21.507812 1.785156 -19.386719 L 1.785156 -2.316406 C 1.785156 -0.179688 0.621094 0 0.621094 0 L 4.8125 0 C 4.8125 0 3.664062 -0.152344 3.648438 -2.316406 L 3.648438 -7.902344 L 6.855469 -7.902344 C 8.023438 -7.902344 9.082031 -7.929688 10.050781 -8.023438 L 13.863281 -2.316406 C 15.300781 -0.152344 14.257812 0 14.257812 0 L 18.449219 0 C 18.449219 0 17.179688 -0.179688 15.742188 -2.316406 Z M 6.855469 -8.734375 L 3.648438 -8.734375 L 3.648438 -19.375 C 3.648438 -19.980469 3.753906 -20.75 4.707031 -20.75 L 10.671875 -20.75 C 14.546875 -20.75 17.40625 -18.269531 17.40625 -14.878906 C 17.40625 -11.546875 14.757812 -8.824219 6.855469 -8.734375 Z M 6.855469 -8.734375 "/></g></g></g><g fill="#383325" fill-opacity="1"><g transform="translate(247.986984, 72.703935)"><g><path d="M 0.621094 -21.703125 C 0.621094 -21.703125 1.769531 -21.507812 1.769531 -19.386719 L 1.769531 -2.316406 C 1.769531 -0.179688 0.621094 0 0.621094 0 L 4.8125 0 C 4.8125 0 3.664062 -0.152344 3.648438 -2.316406 L 3.648438 -19.375 C 3.664062 -21.554688 4.8125 -21.703125 4.8125 -21.703125 Z M 0.621094 -21.703125 "/></g></g></g><g fill="#383325" fill-opacity="1"><g transform="translate(256.62925, 72.703935)"><g><path d="M 16.953125 -6.054688 C 16.859375 -4.011719 14.96875 -0.9375 9.6875 -0.9375 C 4.40625 -0.9375 2.9375 -7.039062 2.9375 -7.039062 L 0.621094 -5.328125 C 0.621094 -5.328125 2.84375 0 9.640625 0 C 17.179688 0 19.070312 -3.480469 19.175781 -6.085938 C 19.464844 -13 3.375 -11.261719 3.601562 -16.558594 C 3.707031 -19.253906 5.949219 -20.949219 9.929688 -20.949219 C 14.667969 -20.949219 15.695312 -17.601562 15.695312 -17.601562 L 17.421875 -19.617188 C 17.421875 -19.617188 14.289062 -21.703125 9.960938 -21.703125 C 5.628906 -21.703125 2.058594 -19.722656 1.90625 -16.332031 C 1.632812 -9.730469 17.179688 -11.746094 16.953125 -6.054688 Z M 16.953125 -6.054688 "/></g></g></g><g fill="#383325" fill-opacity="1"><g transform="translate(279.937155, 72.703935)"><g><path d="M 0.621094 -21.6875 L 0.621094 -18.164062 C 0.621094 -18.164062 1.40625 -20.75 5.886719 -20.75 L 7.671875 -20.75 C 7.792969 -20.417969 7.886719 -19.980469 7.886719 -19.386719 L 7.886719 -2.316406 C 7.886719 -0.179688 6.734375 0 6.734375 0 L 10.929688 0 C 10.929688 0 9.761719 -0.152344 9.761719 -2.316406 L 9.761719 -19.375 C 9.761719 -19.980469 9.851562 -20.417969 9.972656 -20.75 L 11.789062 -20.75 C 16.285156 -20.75 17.058594 -18.164062 17.058594 -18.164062 L 17.058594 -21.6875 Z M 0.621094 -21.6875 "/></g></g></g><g fill="#383325" fill-opacity="1"><g transform="translate(300.853756, 72.703935)"><g><path d="M 0.621094 -21.703125 C 0.621094 -21.703125 1.769531 -21.507812 1.769531 -19.386719 L 1.769531 -2.316406 C 1.769531 -0.179688 0.621094 0 0.621094 0 L 4.8125 0 C 4.8125 0 3.664062 -0.152344 3.648438 -2.316406 L 3.648438 -19.375 C 3.664062 -21.554688 4.8125 -21.703125 4.8125 -21.703125 Z M 0.621094 -21.703125 "/></g></g></g><g fill="#383325" fill-opacity="1"><g transform="translate(309.496024, 72.703935)"><g><path d="M 17.421875 0 L 21.613281 0 C 21.613281 0 20.402344 -0.152344 19.523438 -2.316406 L 11.820312 -21.703125 L 10.429688 -21.703125 L 2.710938 -2.316406 C 1.832031 -0.152344 0.621094 0 0.621094 0 L 3.8125 0 C 3.8125 0 2.722656 -0.179688 3.585938 -2.316406 L 5.949219 -8.234375 L 15.285156 -8.234375 L 17.648438 -2.316406 C 18.511719 -0.179688 17.421875 0 17.421875 0 Z M 6.175781 -8.792969 C 6.175781 -8.792969 10.550781 -19.765625 10.59375 -19.933594 C 10.671875 -19.765625 15.058594 -8.792969 15.058594 -8.792969 Z M 6.175781 -8.792969 "/></g></g></g><g fill="#383325" fill-opacity="1"><g transform="translate(334.937932, 72.703935)"><g><path d="M 5.253906 -21.703125 L 0.621094 -21.703125 C 0.621094 -21.703125 1.769531 -21.507812 1.769531 -19.386719 L 1.769531 -2.316406 C 1.769531 -0.179688 0.621094 0 0.621094 0 L 3.8125 0 C 3.8125 0 2.664062 -0.152344 2.648438 -2.316406 L 2.648438 -19.375 C 2.648438 -19.8125 2.710938 -20.175781 2.785156 -20.464844 C 3.011719 -20.175781 3.253906 -19.8125 3.496094 -19.386719 L 14.210938 0 L 15.089844 0 L 15.089844 -19.375 C 15.105469 -21.554688 16.253906 -21.703125 16.253906 -21.703125 L 13.0625 -21.703125 C 13.0625 -21.703125 14.226562 -21.507812 14.226562 -19.386719 L 14.226562 -3.359375 L 5.375 -19.375 C 4.175781 -21.554688 5.253906 -21.703125 5.253906 -21.703125 Z M 5.253906 -21.703125 "/></g></g></g><g fill="#383325" fill-opacity="1"><g transform="translate(355.052387, 72.703935)"><g><path d="M 10.519531 -10.746094 L 10.519531 -15.300781 C 10.519531 -15.300781 9.960938 -13.257812 5.238281 -13.257812 L 3.648438 -13.257812 L 3.648438 -19.375 C 3.648438 -19.980469 3.632812 -20.75 4.632812 -20.75 C 4.632812 -20.75 5.738281 -20.75 9.65625 -20.75 C 15.195312 -20.75 15.863281 -18.707031 15.863281 -18.707031 L 15.863281 -21.6875 L 0.621094 -21.703125 C 0.621094 -21.703125 1.769531 -21.507812 1.769531 -19.386719 L 1.769531 -2.316406 C 1.769531 -0.179688 0.621094 0 0.621094 0 L 15.863281 0 L 15.863281 -2.980469 C 15.863281 -2.980469 15.195312 -0.9375 9.65625 -0.9375 C 5.738281 -0.9375 4.632812 -0.9375 4.632812 -0.9375 C 3.707031 -0.9375 3.648438 -1.710938 3.648438 -2.316406 L 3.648438 -12.773438 L 5.238281 -12.789062 C 9.960938 -12.789062 10.519531 -10.746094 10.519531 -10.746094 Z M 10.519531 -10.746094 "/></g></g></g><g fill="#383325" fill-opacity="1"><g transform="translate(374.773337, 72.703935)"><g/></g></g><g fill="#383325" fill-opacity="1"><g transform="translate(385.776636, 72.703935)"><g><path d="M 15.742188 -2.316406 L 11.789062 -8.21875 C 17.769531 -9.113281 19.496094 -11.761719 19.496094 -14.789062 C 19.496094 -19.222656 15.589844 -21.6875 10.671875 -21.6875 L 0.621094 -21.703125 C 0.621094 -21.703125 1.785156 -21.507812 1.785156 -19.386719 L 1.785156 -2.316406 C 1.785156 -0.179688 0.621094 0 0.621094 0 L 4.8125 0 C 4.8125 0 3.664062 -0.152344 3.648438 -2.316406 L 3.648438 -7.902344 L 6.855469 -7.902344 C 8.023438 -7.902344 9.082031 -7.929688 10.050781 -8.023438 L 13.863281 -2.316406 C 15.300781 -0.152344 14.257812 0 14.257812 0 L 18.449219 0 C 18.449219 0 17.179688 -0.179688 15.742188 -2.316406 Z M 6.855469 -8.734375 L 3.648438 -8.734375 L 3.648438 -19.375 C 3.648438 -19.980469 3.753906 -20.75 4.707031 -20.75 L 10.671875 -20.75 C 14.546875 -20.75 17.40625 -18.269531 17.40625 -14.878906 C 17.40625 -11.546875 14.757812 -8.824219 6.855469 -8.734375 Z M 6.855469 -8.734375 "/></g></g></g><g fill="#383325" fill-opacity="1"><g transform="translate(409.1148, 72.703935)"><g><path d="M 11.320312 -21.703125 C 5.417969 -21.703125 0.621094 -16.859375 0.621094 -10.882812 C 0.621094 -4.917969 5.417969 -0.0585938 11.320312 -0.0585938 C 17.238281 -0.0585938 22.023438 -4.917969 22.023438 -10.882812 C 22.023438 -16.859375 17.238281 -21.703125 11.320312 -21.703125 Z M 11.320312 -0.953125 C 6.476562 -0.953125 2.542969 -5.386719 2.542969 -10.851562 C 2.542969 -16.316406 6.476562 -20.765625 11.320312 -20.765625 C 16.164062 -20.765625 20.101562 -16.316406 20.101562 -10.851562 C 20.101562 -5.386719 16.164062 -0.953125 11.320312 -0.953125 Z M 11.320312 -0.953125 "/></g></g></g><g fill="#383325" fill-opacity="1"><g transform="translate(434.995612, 72.703935)"><g><path d="M 18.738281 -5.253906 C 18.3125 -4.464844 15.9375 -1.058594 11.183594 -1.058594 C 6.449219 -1.058594 2.589844 -5.480469 2.589844 -10.914062 C 2.589844 -16.363281 6.449219 -20.78125 11.183594 -20.78125 C 14.984375 -20.78125 17.332031 -18.78125 16.921875 -16.511719 L 19.3125 -18.617188 C 18.164062 -19.117188 15.921875 -21.703125 11.320312 -21.703125 C 5.417969 -21.703125 0.621094 -16.859375 0.621094 -10.882812 C 0.621094 -4.917969 5.417969 -0.0585938 11.320312 -0.0585938 C 15.785156 -0.0585938 18.585938 -3.4375 18.738281 -5.253906 Z M 18.738281 -5.253906 "/></g></g></g><g fill="#383325" fill-opacity="1"><g transform="translate(458.152158, 72.703935)"><g><path d="M 3.648438 -8.234375 L 14.921875 -8.234375 L 14.921875 -2.316406 C 14.921875 -0.179688 13.757812 0 13.757812 0 L 17.949219 0 C 17.949219 0 16.800781 -0.152344 16.800781 -2.316406 L 16.800781 -19.375 C 16.800781 -21.554688 17.949219 -21.703125 17.949219 -21.703125 L 13.757812 -21.703125 C 13.757812 -21.703125 14.921875 -21.507812 14.921875 -19.386719 L 14.921875 -8.792969 L 3.648438 -8.792969 L 3.648438 -19.375 C 3.664062 -21.554688 4.8125 -21.703125 4.8125 -21.703125 L 0.621094 -21.703125 C 0.621094 -21.703125 1.769531 -21.507812 1.769531 -19.386719 L 1.769531 -2.316406 C 1.769531 -0.179688 0.621094 0 0.621094 0 L 4.8125 0 C 4.8125 0 3.664062 -0.152344 3.648438 -2.316406 Z M 3.648438 -8.234375 "/></g></g></g><g fill="#383325" fill-opacity="1"><g transform="translate(479.946583, 72.703935)"><g><path d="M 17.421875 0 L 21.613281 0 C 21.613281 0 20.402344 -0.152344 19.523438 -2.316406 L 11.820312 -21.703125 L 10.429688 -21.703125 L 2.710938 -2.316406 C 1.832031 -0.152344 0.621094 0 0.621094 0 L 3.8125 0 C 3.8125 0 2.722656 -0.179688 3.585938 -2.316406 L 5.949219 -8.234375 L 15.285156 -8.234375 L 17.648438 -2.316406 C 18.511719 -0.179688 17.421875 0 17.421875 0 Z M 6.175781 -8.792969 C 6.175781 -8.792969 10.550781 -19.765625 10.59375 -19.933594 C 10.671875 -19.765625 15.058594 -8.792969 15.058594 -8.792969 Z M 6.175781 -8.792969 "/></g></g></g></svg>