<svg xmlns="http://www.w3.org/2000/svg" xmlns:xlink="http://www.w3.org/1999/xlink" width="500" zoomAndPan="magnify" viewBox="0 0 375 374.999991" height="500" preserveAspectRatio="xMidYMid meet" version="1.0"><defs><g/><clipPath id="9d382a27da"><path d="M 187 209 L 188 209 L 188 210 L 187 210 Z M 187 209 " clip-rule="nonzero"/></clipPath><clipPath id="bbb6c029e7"><path d="M 115.335938 151.421875 L 267.761719 171.5625 L 259.609375 233.277344 L 107.183594 213.136719 Z M 115.335938 151.421875 " clip-rule="nonzero"/></clipPath><clipPath id="4ed11cfe6c"><path d="M 115.335938 151.421875 L 267.761719 171.5625 L 259.609375 233.277344 L 107.183594 213.136719 Z M 115.335938 151.421875 " clip-rule="nonzero"/></clipPath><clipPath id="ee5fc4cc55"><path d="M 235 167 L 267 167 L 267 200 L 235 200 Z M 235 167 " clip-rule="nonzero"/></clipPath><clipPath id="3ed16b0da7"><path d="M 115.335938 151.421875 L 267.761719 171.5625 L 259.609375 233.277344 L 107.183594 213.136719 Z M 115.335938 151.421875 " clip-rule="nonzero"/></clipPath><clipPath id="c002f1d41a"><path d="M 115.335938 151.421875 L 267.761719 171.5625 L 259.609375 233.277344 L 107.183594 213.136719 Z M 115.335938 151.421875 " clip-rule="nonzero"/></clipPath><clipPath id="63e457f341"><path d="M 238.820312 167.738281 L 267.652344 171.546875 L 263.390625 203.828125 L 234.554688 200.019531 Z M 238.820312 167.738281 " clip-rule="nonzero"/></clipPath><clipPath id="f437e59462"><path d="M 238.820312 167.738281 L 267.496094 171.527344 L 263.230469 203.808594 L 234.554688 200.019531 Z M 238.820312 167.738281 " clip-rule="nonzero"/></clipPath><clipPath id="e9c0c1b39a"><path d="M 110 176 L 189 176 L 189 208 L 110 208 Z M 110 176 " clip-rule="nonzero"/></clipPath><clipPath id="ec2d1ba939"><path d="M 115.335938 151.421875 L 267.761719 171.5625 L 259.609375 233.277344 L 107.183594 213.136719 Z M 115.335938 151.421875 " clip-rule="nonzero"/></clipPath><clipPath id="ff20cb2f08"><path d="M 115.335938 151.421875 L 267.761719 171.5625 L 259.609375 233.277344 L 107.183594 213.136719 Z M 115.335938 151.421875 " clip-rule="nonzero"/></clipPath><clipPath id="8ce4367874"><path d="M 235 167 L 267 167 L 267 200 L 235 200 Z M 235 167 " clip-rule="nonzero"/></clipPath><clipPath id="b3803492ae"><path d="M 115.335938 151.421875 L 267.761719 171.5625 L 259.609375 233.277344 L 107.183594 213.136719 Z M 115.335938 151.421875 " clip-rule="nonzero"/></clipPath><clipPath id="685f9de077"><path d="M 115.335938 151.421875 L 267.761719 171.5625 L 259.609375 233.277344 L 107.183594 213.136719 Z M 115.335938 151.421875 " clip-rule="nonzero"/></clipPath><clipPath id="8ef0d9a051"><path d="M 238.820312 167.738281 L 267.652344 171.546875 L 263.390625 203.828125 L 234.554688 200.019531 Z M 238.820312 167.738281 " clip-rule="nonzero"/></clipPath><clipPath id="7fb9e01201"><path d="M 238.820312 167.738281 L 267.496094 171.527344 L 263.230469 203.808594 L 234.554688 200.019531 Z M 238.820312 167.738281 " clip-rule="nonzero"/></clipPath><clipPath id="32700bb81b"><path d="M 110 176 L 189 176 L 189 208 L 110 208 Z M 110 176 " clip-rule="nonzero"/></clipPath><clipPath id="ec4e0956be"><path d="M 115.335938 151.421875 L 267.761719 171.5625 L 259.609375 233.277344 L 107.183594 213.136719 Z M 115.335938 151.421875 " clip-rule="nonzero"/></clipPath><clipPath id="56b3f16196"><path d="M 115.335938 151.421875 L 267.761719 171.5625 L 259.609375 233.277344 L 107.183594 213.136719 Z M 115.335938 151.421875 " clip-rule="nonzero"/></clipPath><clipPath id="8ee41af01d"><path d="M 210 226 L 212 226 L 212 227 L 210 227 Z M 210 226 " clip-rule="nonzero"/></clipPath><clipPath id="348e1bb5b7"><path d="M 115.335938 151.421875 L 267.761719 171.5625 L 259.609375 233.277344 L 107.183594 213.136719 Z M 115.335938 151.421875 " clip-rule="nonzero"/></clipPath><clipPath id="49a0b4210b"><path d="M 115.335938 151.421875 L 267.761719 171.5625 L 259.609375 233.277344 L 107.183594 213.136719 Z M 115.335938 151.421875 " clip-rule="nonzero"/></clipPath><clipPath id="b68bf9b32a"><path d="M 210.960938 226.554688 L 211.273438 226.597656 L 211.234375 226.910156 L 210.917969 226.867188 Z M 210.960938 226.554688 " clip-rule="nonzero"/></clipPath><clipPath id="8bda26ef2b"><path d="M 210.960938 226.554688 L 211.273438 226.597656 L 211.257812 226.730469 L 210.945312 226.691406 Z M 210.960938 226.554688 " clip-rule="nonzero"/></clipPath><clipPath id="475b16dc81"><path d="M 187 180 L 234 180 L 234 225 L 187 225 Z M 187 180 " clip-rule="nonzero"/></clipPath><clipPath id="af277a8346"><path d="M 115.335938 151.421875 L 267.761719 171.5625 L 259.609375 233.277344 L 107.183594 213.136719 Z M 115.335938 151.421875 " clip-rule="nonzero"/></clipPath><clipPath id="33685b6afb"><path d="M 115.335938 151.421875 L 267.761719 171.5625 L 259.609375 233.277344 L 107.183594 213.136719 Z M 115.335938 151.421875 " clip-rule="nonzero"/></clipPath><clipPath id="d785266ebe"><path d="M 97.453125 262 L 100.414062 262 L 100.414062 264.960938 L 97.453125 264.960938 Z M 97.453125 262 " clip-rule="nonzero"/></clipPath><clipPath id="f9b47c539a"><path d="M 98.933594 262 C 98.117188 262 97.453125 262.664062 97.453125 263.480469 C 97.453125 264.296875 98.117188 264.960938 98.933594 264.960938 C 99.75 264.960938 100.414062 264.296875 100.414062 263.480469 C 100.414062 262.664062 99.75 262 98.933594 262 Z M 98.933594 262 " clip-rule="nonzero"/></clipPath><clipPath id="e23088ce42"><path d="M 274.585938 262 L 277.546875 262 L 277.546875 264.960938 L 274.585938 264.960938 Z M 274.585938 262 " clip-rule="nonzero"/></clipPath><clipPath id="d2454f1e29"><path d="M 276.066406 262 C 275.25 262 274.585938 262.664062 274.585938 263.480469 C 274.585938 264.296875 275.25 264.960938 276.066406 264.960938 C 276.882812 264.960938 277.546875 264.296875 277.546875 263.480469 C 277.546875 262.664062 276.882812 262 276.066406 262 Z M 276.066406 262 " clip-rule="nonzero"/></clipPath></defs><g fill="#3a2620" fill-opacity="1"><g transform="translate(127.371164, 166.821479)"><g><path d="M 33.820312 1.339844 C 42.390625 1.339844 48.285156 0 53.640625 -1.742188 L 53.640625 -10.714844 L 52.90625 -10.714844 C 52.90625 -10.714844 48.683594 0.535156 33.820312 0.535156 C 20.894531 0.535156 10.046875 -13.929688 10.046875 -33.484375 C 10.046875 -53.039062 19.957031 -67.503906 33.820312 -67.503906 C 45.003906 -67.503906 50.425781 -62.75 50.425781 -54.78125 C 50.425781 -45.003906 31.609375 -41.050781 31.609375 -29.265625 C 31.609375 -26.183594 33.820312 -22.234375 37.433594 -23.035156 C 36.09375 -24.175781 35.425781 -25.3125 35.425781 -27.390625 C 35.425781 -35.359375 54.378906 -40.3125 54.378906 -54.242188 C 54.378906 -60.335938 49.152344 -68.308594 33.820312 -68.308594 C 17.144531 -68.308594 4.019531 -53.574219 4.019531 -33.484375 C 4.019531 -13.394531 17.144531 1.339844 33.820312 1.339844 Z M 33.820312 1.339844 "/></g></g></g><g fill="#3a2620" fill-opacity="1"><g transform="translate(169.30237, 194.997788)"><g><path d="M 1.777344 0 L 17.726562 0 L 17.726562 -0.59375 C 12.628906 -0.59375 12.273438 -4.800781 12.273438 -16.480469 L 12.273438 -57.742188 C 15.886719 -59.046875 18.734375 -59.636719 23.121094 -59.636719 C 34.148438 -59.636719 41.082031 -53.589844 41.082031 -43.75 C 41.082031 -36.636719 36.28125 -29.34375 28.871094 -29.34375 C 23.355469 -29.34375 20.628906 -32.722656 17.132812 -32.722656 C 16.066406 -32.722656 15.058594 -32.132812 15.058594 -30.707031 C 15.058594 -26.675781 21.339844 -26.441406 27.09375 -17.785156 C 36.457031 -3.734375 38.117188 0 40.847656 0 L 49.914062 0 L 49.914062 -0.59375 C 43.15625 -0.59375 37.644531 -11.144531 32.960938 -18.4375 C 28.160156 -25.90625 15.652344 -26.738281 15.652344 -30.589844 C 15.652344 -31.953125 16.660156 -32.132812 17.371094 -32.132812 C 19.859375 -32.132812 23.652344 -28.335938 29.226562 -28.335938 C 39.542969 -28.335938 46.179688 -35.6875 46.179688 -43.808594 C 46.179688 -53.472656 39.125 -60.46875 26.5 -60.46875 C 19.621094 -60.46875 15.414062 -59.28125 8.890625 -59.28125 L 1.777344 -59.28125 L 1.777344 -58.691406 C 6.875 -58.691406 7.234375 -54.480469 7.234375 -42.800781 L 7.234375 -16.480469 C 7.234375 -4.800781 6.875 -0.59375 1.777344 -0.59375 Z M 1.777344 0 "/></g></g></g><g clip-path="url(#9d382a27da)"><g clip-path="url(#bbb6c029e7)"><g clip-path="url(#4ed11cfe6c)"><path fill="#3a2620" d="M 187.671875 209.171875 L 187.675781 209.160156 L 187.671875 209.160156 Z M 187.671875 209.171875 " fill-opacity="1" fill-rule="nonzero"/></g></g></g><g clip-path="url(#ee5fc4cc55)"><g clip-path="url(#3ed16b0da7)"><g clip-path="url(#c002f1d41a)"><g clip-path="url(#63e457f341)"><g clip-path="url(#f437e59462)"><path fill="#3a2620" d="M 235.277344 196.078125 C 235.28125 196.082031 235.289062 196.089844 235.292969 196.09375 C 235.34375 196.179688 235.382812 196.257812 235.460938 196.351562 C 235.679688 196.746094 235.734375 197.128906 235.78125 197.5 C 235.871094 198.210938 235.71875 198.871094 235.441406 199.480469 C 235.394531 199.582031 235.328125 199.683594 235.269531 199.78125 C 235.269531 199.789062 235.265625 199.792969 235.261719 199.796875 C 235.273438 199.792969 235.285156 199.792969 235.296875 199.789062 C 235.574219 199.714844 235.84375 199.644531 236.117188 199.570312 C 236.117188 199.570312 236.117188 199.570312 236.121094 199.570312 C 236.960938 199.339844 237.804688 199.105469 238.644531 198.859375 C 240.804688 198.234375 242.953125 197.550781 245.082031 196.796875 C 247.292969 196.003906 249.488281 195.160156 251.648438 194.183594 C 253.804688 193.214844 255.933594 192.148438 257.980469 190.886719 C 259.007812 190.257812 260.015625 189.582031 260.984375 188.824219 C 261.949219 188.070312 262.882812 187.242188 263.734375 186.28125 C 264.160156 185.800781 264.558594 185.28125 264.917969 184.722656 C 265.277344 184.15625 265.597656 183.546875 265.832031 182.878906 C 266.070312 182.214844 266.222656 181.492188 266.242188 180.753906 C 266.25 180.570312 266.246094 180.386719 266.234375 180.203125 L 266.222656 180.0625 L 266.207031 179.910156 L 266.175781 179.65625 C 266.117188 179.285156 266.035156 178.929688 265.917969 178.585938 C 265.6875 177.894531 265.347656 177.269531 264.953125 176.710938 C 264.554688 176.152344 264.105469 175.664062 263.628906 175.222656 C 262.675781 174.351562 261.636719 173.664062 260.566406 173.074219 C 258.429688 171.90625 256.1875 171.101562 253.929688 170.441406 C 251.671875 169.78125 249.382812 169.296875 247.089844 168.894531 C 244.792969 168.5 242.488281 168.203125 240.175781 167.996094 L 240.125 168.328125 C 242.382812 168.828125 244.628906 169.363281 246.847656 169.976562 C 249.066406 170.578125 251.257812 171.273438 253.382812 172.078125 C 254.445312 172.480469 255.492188 172.917969 256.507812 173.398438 C 257.523438 173.882812 258.507812 174.40625 259.429688 175 C 260.347656 175.589844 261.207031 176.246094 261.914062 176.984375 C 262.621094 177.722656 263.160156 178.539062 263.382812 179.371094 C 263.4375 179.578125 263.476562 179.792969 263.492188 179.992188 L 263.507812 180.167969 L 263.507812 180.3125 C 263.507812 180.414062 263.503906 180.519531 263.496094 180.625 C 263.460938 181.042969 263.355469 181.460938 263.179688 181.875 C 262.839844 182.710938 262.234375 183.515625 261.523438 184.257812 C 260.8125 185 259.980469 185.683594 259.097656 186.3125 C 258.214844 186.941406 257.28125 187.53125 256.320312 188.078125 C 254.386719 189.171875 252.347656 190.132812 250.265625 191.007812 C 248.179688 191.871094 246.054688 192.675781 243.902344 193.410156 C 242.824219 193.773438 241.742188 194.136719 240.652344 194.480469 C 240.039062 194.675781 239.421875 194.863281 238.800781 195.050781 C 238.328125 195.191406 237.851562 195.332031 237.378906 195.472656 C 236.734375 195.664062 236.089844 195.851562 235.441406 196.03125 C 235.4375 196.035156 235.433594 196.035156 235.425781 196.035156 C 235.378906 196.050781 235.328125 196.066406 235.277344 196.078125 " fill-opacity="1" fill-rule="nonzero"/></g></g></g></g></g><g clip-path="url(#e9c0c1b39a)"><g clip-path="url(#ec2d1ba939)"><g clip-path="url(#ff20cb2f08)"><path fill="#3a2620" d="M 110.316406 192.074219 C 110.289062 192.808594 110.394531 193.546875 110.617188 194.242188 C 110.839844 194.929688 111.171875 195.566406 111.558594 196.132812 C 112.339844 197.269531 113.3125 198.15625 114.324219 198.90625 C 115.34375 199.65625 116.410156 200.277344 117.496094 200.824219 C 118.582031 201.375 119.695312 201.84375 120.808594 202.269531 C 123.046875 203.121094 125.324219 203.78125 127.617188 204.324219 C 128.765625 204.59375 129.914062 204.839844 131.066406 205.050781 C 132.222656 205.269531 133.378906 205.457031 134.535156 205.625 C 136.34375 205.886719 138.15625 206.097656 139.96875 206.261719 C 141.144531 206.371094 142.320312 206.460938 143.496094 206.535156 C 145.15625 206.644531 146.8125 206.726562 148.472656 206.792969 C 151.242188 206.894531 154.015625 206.953125 156.785156 206.980469 C 157.90625 206.992188 159.03125 207 160.152344 207.003906 C 160.898438 207.007812 161.644531 207.007812 162.390625 207.007812 C 167.023438 207.015625 171.65625 206.964844 176.289062 206.859375 C 179.382812 206.785156 182.503906 206.699219 185.597656 206.582031 C 186.507812 206.546875 187.347656 206.5 188.347656 206.472656 L 188.347656 206.464844 L 188.457031 206 L 187.660156 204.835938 C 187.042969 204.84375 186.378906 204.941406 185.828125 205.015625 L 185.828125 205.003906 C 182.667969 205.324219 179.453125 205.570312 176.269531 205.730469 C 171.660156 205.96875 167.023438 206.046875 162.410156 205.925781 C 162.253906 205.921875 162.089844 205.917969 161.933594 205.914062 C 161.769531 205.910156 161.605469 205.902344 161.441406 205.898438 C 161.273438 205.894531 161.109375 205.890625 160.945312 205.882812 C 160.871094 205.878906 160.796875 205.875 160.722656 205.875 C 160.613281 205.871094 160.53125 205.871094 160.421875 205.863281 C 160.308594 205.859375 160.203125 205.855469 160.113281 205.855469 C 159.9375 205.835938 159.925781 205.84375 159.847656 205.839844 C 159.652344 205.832031 159.441406 205.824219 159.242188 205.816406 C 159.242188 205.8125 159.230469 205.8125 159.226562 205.8125 C 158.949219 205.800781 158.664062 205.785156 158.378906 205.769531 C 158.101562 205.753906 157.820312 205.71875 157.539062 205.699219 C 157.257812 205.683594 156.976562 205.664062 156.695312 205.628906 L 156.691406 205.628906 C 153.980469 205.539062 151.296875 205.222656 148.613281 204.914062 C 146.726562 204.699219 144.847656 204.421875 142.964844 204.175781 L 142.960938 204.175781 C 141.785156 204.019531 140.609375 203.863281 139.445312 203.617188 C 139.441406 203.617188 139.441406 203.617188 139.441406 203.617188 L 139.429688 203.617188 C 137.941406 203.421875 136.472656 203.125 135.003906 202.84375 C 134.441406 202.734375 133.878906 202.632812 133.324219 202.519531 C 132.765625 202.40625 132.207031 202.292969 131.648438 202.171875 C 130.539062 201.925781 129.429688 201.675781 128.328125 201.398438 C 126.128906 200.847656 123.953125 200.230469 121.855469 199.46875 C 120.808594 199.085938 119.78125 198.660156 118.792969 198.191406 C 117.804688 197.722656 116.855469 197.195312 115.996094 196.59375 C 115.140625 195.992188 114.363281 195.3125 113.808594 194.554688 C 113.253906 193.796875 112.9375 192.984375 112.933594 192.132812 C 112.921875 191.28125 113.238281 190.382812 113.753906 189.527344 C 114.273438 188.667969 114.984375 187.867188 115.769531 187.117188 C 116.554688 186.367188 117.425781 185.675781 118.335938 185.023438 C 119.246094 184.371094 120.199219 183.761719 121.171875 183.179688 C 123.125 182.015625 125.167969 180.972656 127.242188 179.988281 C 129.320312 179.007812 131.441406 178.089844 133.578125 177.199219 L 133.472656 176.882812 C 131.222656 177.457031 128.992188 178.125 126.792969 178.898438 C 124.597656 179.671875 122.425781 180.554688 120.3125 181.597656 C 118.203125 182.652344 116.136719 183.847656 114.257812 185.421875 C 113.320312 186.214844 112.429688 187.109375 111.691406 188.195312 C 111.320312 188.734375 110.992188 189.332031 110.75 189.984375 C 110.503906 190.632812 110.347656 191.34375 110.316406 192.074219 " fill-opacity="1" fill-rule="nonzero"/></g></g></g><g clip-path="url(#8ce4367874)"><g clip-path="url(#b3803492ae)"><g clip-path="url(#685f9de077)"><g clip-path="url(#8ef0d9a051)"><g clip-path="url(#7fb9e01201)"><path fill="#3a2620" d="M 235.277344 196.078125 C 235.28125 196.082031 235.289062 196.089844 235.292969 196.09375 C 235.34375 196.179688 235.382812 196.257812 235.460938 196.351562 C 235.679688 196.746094 235.734375 197.128906 235.78125 197.5 C 235.871094 198.210938 235.71875 198.871094 235.441406 199.480469 C 235.394531 199.582031 235.328125 199.683594 235.269531 199.78125 C 235.269531 199.789062 235.265625 199.792969 235.261719 199.796875 C 235.273438 199.792969 235.285156 199.792969 235.296875 199.789062 C 235.574219 199.714844 235.84375 199.644531 236.117188 199.570312 C 236.117188 199.570312 236.117188 199.570312 236.121094 199.570312 C 236.960938 199.339844 237.804688 199.105469 238.644531 198.859375 C 240.804688 198.234375 242.953125 197.550781 245.082031 196.796875 C 247.292969 196.003906 249.488281 195.160156 251.648438 194.183594 C 253.804688 193.214844 255.933594 192.148438 257.980469 190.886719 C 259.007812 190.257812 260.015625 189.582031 260.984375 188.824219 C 261.949219 188.070312 262.882812 187.242188 263.734375 186.28125 C 264.160156 185.800781 264.558594 185.28125 264.917969 184.722656 C 265.277344 184.15625 265.597656 183.546875 265.832031 182.878906 C 266.070312 182.214844 266.222656 181.492188 266.242188 180.753906 C 266.25 180.570312 266.246094 180.386719 266.234375 180.203125 L 266.222656 180.0625 L 266.207031 179.910156 L 266.175781 179.65625 C 266.117188 179.285156 266.035156 178.929688 265.917969 178.585938 C 265.6875 177.894531 265.347656 177.269531 264.953125 176.710938 C 264.554688 176.152344 264.105469 175.664062 263.628906 175.222656 C 262.675781 174.351562 261.636719 173.664062 260.566406 173.074219 C 258.429688 171.90625 256.1875 171.101562 253.929688 170.441406 C 251.671875 169.78125 249.382812 169.296875 247.089844 168.894531 C 244.792969 168.5 242.488281 168.203125 240.175781 167.996094 L 240.125 168.328125 C 242.382812 168.828125 244.628906 169.363281 246.847656 169.976562 C 249.066406 170.578125 251.257812 171.273438 253.382812 172.078125 C 254.445312 172.480469 255.492188 172.917969 256.507812 173.398438 C 257.523438 173.882812 258.507812 174.40625 259.429688 175 C 260.347656 175.589844 261.207031 176.246094 261.914062 176.984375 C 262.621094 177.722656 263.160156 178.539062 263.382812 179.371094 C 263.4375 179.578125 263.476562 179.792969 263.492188 179.992188 L 263.507812 180.167969 L 263.507812 180.3125 C 263.507812 180.414062 263.503906 180.519531 263.496094 180.625 C 263.460938 181.042969 263.355469 181.460938 263.179688 181.875 C 262.839844 182.710938 262.234375 183.515625 261.523438 184.257812 C 260.8125 185 259.980469 185.683594 259.097656 186.3125 C 258.214844 186.941406 257.28125 187.53125 256.320312 188.078125 C 254.386719 189.171875 252.347656 190.132812 250.265625 191.007812 C 248.179688 191.871094 246.054688 192.675781 243.902344 193.410156 C 242.824219 193.773438 241.742188 194.136719 240.652344 194.480469 C 240.039062 194.675781 239.421875 194.863281 238.800781 195.050781 C 238.328125 195.191406 237.851562 195.332031 237.378906 195.472656 C 236.734375 195.664062 236.089844 195.851562 235.441406 196.03125 C 235.4375 196.035156 235.433594 196.035156 235.425781 196.035156 C 235.378906 196.050781 235.328125 196.066406 235.277344 196.078125 " fill-opacity="1" fill-rule="nonzero"/></g></g></g></g></g><g clip-path="url(#32700bb81b)"><g clip-path="url(#ec4e0956be)"><g clip-path="url(#56b3f16196)"><path fill="#3a2620" d="M 110.316406 192.074219 C 110.289062 192.808594 110.394531 193.546875 110.617188 194.242188 C 110.839844 194.929688 111.171875 195.566406 111.558594 196.132812 C 112.339844 197.269531 113.3125 198.15625 114.324219 198.90625 C 115.34375 199.65625 116.410156 200.277344 117.496094 200.824219 C 118.582031 201.375 119.695312 201.84375 120.808594 202.269531 C 123.046875 203.121094 125.324219 203.78125 127.617188 204.324219 C 128.765625 204.59375 129.914062 204.839844 131.066406 205.050781 C 132.222656 205.269531 133.378906 205.457031 134.535156 205.625 C 136.34375 205.886719 138.15625 206.097656 139.96875 206.261719 C 141.144531 206.371094 142.320312 206.460938 143.496094 206.535156 C 145.15625 206.644531 146.8125 206.726562 148.472656 206.792969 C 151.242188 206.894531 154.015625 206.953125 156.785156 206.980469 C 157.90625 206.992188 159.03125 207 160.152344 207.003906 C 160.898438 207.007812 161.644531 207.007812 162.390625 207.007812 C 167.023438 207.015625 171.65625 206.964844 176.289062 206.859375 C 179.382812 206.785156 182.503906 206.699219 185.597656 206.582031 C 186.507812 206.546875 187.347656 206.5 188.347656 206.472656 L 188.347656 206.464844 L 188.457031 206 L 187.660156 204.835938 C 187.042969 204.84375 186.410156 204.953125 185.78125 205.011719 C 182.609375 205.328125 179.429688 205.574219 176.246094 205.734375 C 171.636719 205.972656 167.019531 206.050781 162.40625 205.929688 C 162.082031 205.921875 161.757812 205.910156 161.4375 205.898438 C 161.269531 205.894531 161.109375 205.890625 160.945312 205.882812 C 160.871094 205.878906 160.796875 205.875 160.722656 205.875 C 160.613281 205.871094 160.5 205.867188 160.390625 205.859375 C 160.28125 205.859375 160.175781 205.851562 160.066406 205.847656 C 159.980469 205.84375 159.902344 205.84375 159.816406 205.835938 C 159.621094 205.828125 159.425781 205.820312 159.230469 205.8125 C 159.226562 205.8125 159.222656 205.8125 159.21875 205.8125 C 158.941406 205.796875 158.65625 205.785156 158.375 205.769531 C 158.097656 205.753906 157.816406 205.71875 157.539062 205.699219 C 157.257812 205.683594 156.976562 205.664062 156.695312 205.628906 L 156.691406 205.628906 C 153.980469 205.539062 151.296875 205.222656 148.613281 204.914062 C 146.726562 204.699219 144.847656 204.421875 142.964844 204.175781 L 142.960938 204.175781 C 141.785156 204.019531 140.609375 203.863281 139.445312 203.617188 C 139.441406 203.617188 139.441406 203.617188 139.441406 203.617188 L 139.429688 203.617188 C 137.941406 203.421875 136.472656 203.125 135.003906 202.84375 C 134.441406 202.734375 133.878906 202.632812 133.324219 202.519531 C 132.765625 202.40625 132.207031 202.292969 131.648438 202.171875 C 130.539062 201.925781 129.429688 201.675781 128.328125 201.398438 C 126.128906 200.847656 123.953125 200.230469 121.855469 199.46875 C 120.808594 199.085938 119.78125 198.660156 118.792969 198.191406 C 117.804688 197.722656 116.855469 197.195312 115.996094 196.59375 C 115.140625 195.992188 114.363281 195.3125 113.808594 194.554688 C 113.253906 193.796875 112.9375 192.984375 112.933594 192.132812 C 112.921875 191.28125 113.238281 190.382812 113.753906 189.527344 C 114.273438 188.667969 114.984375 187.867188 115.769531 187.117188 C 116.554688 186.367188 117.425781 185.675781 118.335938 185.023438 C 119.246094 184.371094 120.199219 183.761719 121.171875 183.179688 C 123.125 182.015625 125.167969 180.972656 127.242188 179.988281 C 129.320312 179.007812 131.441406 178.089844 133.578125 177.199219 L 133.472656 176.882812 C 131.222656 177.457031 128.992188 178.125 126.792969 178.898438 C 124.597656 179.671875 122.425781 180.554688 120.3125 181.597656 C 118.203125 182.652344 116.136719 183.847656 114.257812 185.421875 C 113.320312 186.214844 112.429688 187.109375 111.691406 188.195312 C 111.320312 188.734375 110.992188 189.332031 110.75 189.984375 C 110.503906 190.632812 110.347656 191.34375 110.316406 192.074219 " fill-opacity="1" fill-rule="nonzero"/></g></g></g><g clip-path="url(#8ee41af01d)"><g clip-path="url(#348e1bb5b7)"><g clip-path="url(#49a0b4210b)"><g clip-path="url(#b68bf9b32a)"><g clip-path="url(#8bda26ef2b)"><path fill="#3a2620" d="M 210.976562 226.671875 C 210.976562 226.679688 210.976562 226.679688 210.976562 226.683594 C 210.976562 226.6875 210.976562 226.691406 210.976562 226.695312 L 211.011719 226.6875 C 211 226.679688 210.988281 226.675781 210.976562 226.671875 " fill-opacity="1" fill-rule="nonzero"/></g></g></g></g></g><g clip-path="url(#475b16dc81)"><g clip-path="url(#af277a8346)"><g clip-path="url(#33685b6afb)"><path fill="#3a2620" d="M 187.191406 199.269531 L 188.988281 201.957031 L 189.476562 202.683594 L 190.671875 204.46875 L 191.050781 205.027344 C 191.15625 205.191406 191.261719 205.761719 191.222656 205.953125 L 191.148438 206.328125 C 191.15625 206.328125 191.171875 206.328125 191.171875 206.328125 L 191.171875 206.332031 L 190.539062 209.046875 L 190.539062 209.054688 L 189.691406 212.714844 C 189.578125 213.207031 189.859375 213.535156 190.316406 213.449219 C 190.777344 213.363281 191.335938 212.921875 191.554688 212.46875 L 193.273438 208.902344 L 193.273438 208.898438 L 194.421875 206.503906 L 198.945312 205.835938 L 199.273438 205.785156 L 199.28125 205.785156 L 212.164062 203.886719 L 212.058594 204.351562 L 212.058594 204.359375 L 212.097656 204.371094 L 211.597656 207.152344 L 211.597656 207.167969 L 208.089844 223.730469 C 208.019531 224.074219 208.089844 224.359375 208.355469 224.394531 L 208.371094 224.398438 C 208.472656 224.410156 208.59375 224.414062 208.722656 224.390625 L 210.792969 224 C 211.273438 223.914062 211.824219 223.480469 212.011719 223.027344 L 213.789062 218.753906 C 213.910156 218.785156 214.027344 218.730469 214.15625 218.707031 L 215.066406 218.535156 L 215.3125 218.492188 C 215.792969 218.402344 216.15625 218.050781 216.066406 217.566406 L 216 217.21875 C 215.972656 217.0625 215.902344 216.914062 215.800781 216.78125 C 215.589844 216.507812 215.25 216.324219 214.925781 216.386719 L 214.714844 216.425781 L 216.292969 212.714844 C 216.414062 212.746094 216.554688 212.816406 216.683594 212.792969 L 217.160156 212.707031 L 217.804688 212.585938 C 218.285156 212.496094 218.617188 212.015625 218.527344 211.535156 L 218.460938 211.1875 C 218.40625 210.871094 218.167969 210.566406 217.878906 210.417969 C 217.722656 210.335938 217.554688 210.300781 217.386719 210.332031 L 217.214844 210.363281 L 218.972656 206.164062 L 219.054688 205.976562 L 220.289062 203.035156 L 220.460938 202.617188 L 226.933594 201.742188 L 226.984375 201.738281 C 228.476562 201.511719 231.246094 200.324219 232.480469 199.085938 C 232.90625 198.664062 233.148438 198.234375 233.097656 197.832031 C 233.050781 197.460938 232.75 197.148438 232.292969 196.894531 C 230.839844 196.078125 227.789062 195.839844 226.265625 196.070312 C 226.238281 196.074219 223.871094 196.597656 220.410156 197.371094 C 220.296875 197.398438 220.183594 197.421875 220.066406 197.449219 C 219.890625 197.488281 219.714844 197.527344 219.535156 197.566406 L 219.328125 197.351562 L 219.191406 197.207031 L 217.304688 195.210938 L 213.707031 191.410156 L 213.878906 191.378906 C 214.363281 191.289062 214.699219 190.839844 214.609375 190.359375 L 214.542969 190.011719 C 214.453125 189.527344 214 189.335938 213.519531 189.421875 L 212.398438 189.632812 C 212.269531 189.65625 212.132812 189.625 212.03125 189.695312 L 209.203125 186.644531 L 209.414062 186.605469 C 209.894531 186.515625 210.242188 186.089844 210.152344 185.609375 L 210.085938 185.257812 C 210 184.777344 209.503906 184.410156 209.023438 184.5 L 207.867188 184.714844 C 207.738281 184.738281 207.621094 184.792969 207.519531 184.867188 L 204.328125 181.503906 C 203.992188 181.148438 203.3125 180.890625 202.832031 180.980469 L 200.765625 181.363281 C 200.285156 181.449219 200.113281 181.902344 200.378906 182.3125 L 209.164062 196.007812 L 210.933594 198.765625 L 211.347656 199.410156 C 211.089844 199.46875 210.832031 199.523438 210.578125 199.582031 C 203.566406 201.152344 196.3125 202.773438 193.804688 203.335938 L 191.964844 201.601562 L 189.878906 199.636719 L 189.019531 198.828125 C 188.652344 198.480469 187.976562 198.269531 187.519531 198.355469 C 187.058594 198.4375 186.910156 198.851562 187.191406 199.269531 " fill-opacity="1" fill-rule="nonzero"/><path fill="#3a2620" d="M 187.191406 199.269531 L 188.988281 201.957031 L 189.476562 202.683594 L 190.671875 204.46875 L 191.050781 205.027344 C 191.15625 205.191406 191.277344 205.765625 191.234375 205.953125 L 191.171875 206.328125 L 191.171875 206.332031 L 190.539062 209.046875 L 190.539062 209.054688 L 189.691406 212.714844 C 189.578125 213.207031 189.859375 213.535156 190.316406 213.449219 C 190.777344 213.363281 191.335938 212.921875 191.554688 212.46875 L 193.273438 208.902344 L 193.273438 208.898438 L 194.421875 206.503906 L 198.945312 205.835938 L 199.273438 205.785156 L 199.28125 205.785156 L 212.164062 203.886719 L 212.058594 204.351562 L 212.058594 204.359375 L 212.097656 204.371094 L 211.597656 207.152344 L 211.597656 207.167969 L 208.089844 223.730469 C 208.019531 224.074219 208.089844 224.359375 208.355469 224.394531 L 208.371094 224.398438 C 208.472656 224.410156 208.59375 224.414062 208.722656 224.390625 L 210.792969 224 C 211.273438 223.914062 211.824219 223.480469 212.011719 223.027344 L 213.789062 218.753906 C 213.910156 218.785156 214.027344 218.730469 214.15625 218.707031 L 215.066406 218.535156 L 215.3125 218.492188 C 215.792969 218.402344 216.15625 218.050781 216.066406 217.566406 L 216 217.21875 C 215.972656 217.0625 215.902344 216.914062 215.800781 216.78125 C 215.589844 216.507812 215.25 216.324219 214.925781 216.386719 L 214.714844 216.425781 L 216.292969 212.714844 C 216.414062 212.746094 216.554688 212.816406 216.683594 212.792969 L 217.160156 212.707031 L 217.804688 212.585938 C 218.285156 212.496094 218.617188 212.015625 218.527344 211.535156 L 218.460938 211.1875 C 218.40625 210.871094 218.167969 210.566406 217.878906 210.417969 C 217.722656 210.335938 217.554688 210.300781 217.386719 210.332031 L 217.214844 210.363281 L 218.972656 206.164062 L 219.054688 205.976562 L 220.289062 203.035156 L 220.460938 202.617188 L 226.933594 201.742188 L 226.984375 201.738281 C 228.476562 201.511719 231.246094 200.324219 232.480469 199.085938 C 232.90625 198.664062 233.148438 198.234375 233.097656 197.832031 C 233.050781 197.460938 232.75 197.148438 232.292969 196.894531 C 230.839844 196.078125 227.789062 195.839844 226.265625 196.070312 C 226.238281 196.074219 223.871094 196.597656 220.410156 197.371094 C 220.296875 197.398438 220.183594 197.421875 220.066406 197.449219 C 219.890625 197.488281 219.714844 197.527344 219.535156 197.566406 L 219.328125 197.351562 L 219.191406 197.207031 L 217.304688 195.210938 L 213.707031 191.410156 L 213.878906 191.378906 C 214.363281 191.289062 214.699219 190.839844 214.609375 190.359375 L 214.542969 190.011719 C 214.453125 189.527344 214 189.335938 213.519531 189.421875 L 212.398438 189.632812 C 212.269531 189.65625 212.132812 189.625 212.03125 189.695312 L 209.203125 186.644531 L 209.414062 186.605469 C 209.894531 186.515625 210.242188 186.089844 210.152344 185.609375 L 210.085938 185.257812 C 210 184.777344 209.503906 184.410156 209.023438 184.5 L 207.867188 184.714844 C 207.738281 184.738281 207.621094 184.792969 207.519531 184.867188 L 204.328125 181.503906 C 203.992188 181.148438 203.3125 180.890625 202.832031 180.980469 L 200.765625 181.363281 C 200.285156 181.449219 200.113281 181.902344 200.378906 182.3125 L 209.164062 196.007812 L 210.933594 198.765625 L 211.347656 199.410156 C 211.089844 199.46875 210.832031 199.523438 210.578125 199.582031 C 203.566406 201.152344 196.3125 202.773438 193.804688 203.335938 L 191.964844 201.601562 L 189.878906 199.636719 L 189.019531 198.828125 C 188.652344 198.480469 187.976562 198.269531 187.519531 198.355469 C 187.058594 198.4375 186.910156 198.851562 187.191406 199.269531 " fill-opacity="1" fill-rule="nonzero"/></g></g></g><g clip-path="url(#d785266ebe)"><g clip-path="url(#f9b47c539a)"><path fill="#261913" d="M 97.453125 262 L 100.414062 262 L 100.414062 264.960938 L 97.453125 264.960938 Z M 97.453125 262 " fill-opacity="1" fill-rule="nonzero"/></g></g><g clip-path="url(#e23088ce42)"><g clip-path="url(#d2454f1e29)"><path fill="#261913" d="M 274.585938 262 L 277.546875 262 L 277.546875 264.960938 L 274.585938 264.960938 Z M 274.585938 262 " fill-opacity="1" fill-rule="nonzero"/></g></g><g fill="#c3a58a" fill-opacity="1"><g transform="translate(109.918408, 268.337795)"><g><path d="M 4.25 -5.734375 L 4.25 -4.703125 L 1.734375 -4.703125 L 1.734375 -1.046875 L 4.828125 -1.046875 L 4.828125 0 L 0.59375 0 L 0.59375 -10.296875 L 4.828125 -10.296875 L 4.828125 -9.25 L 1.734375 -9.25 L 1.734375 -5.734375 Z M 4.25 -5.734375 "/></g></g></g><g fill="#c3a58a" fill-opacity="1"><g transform="translate(116.537202, 268.337795)"><g><path d="M 2.75 -10.390625 C 3.53125 -10.390625 4.109375 -10.15625 4.484375 -9.6875 C 4.859375 -9.226562 5.046875 -8.609375 5.046875 -7.828125 L 5.046875 -7.546875 L 3.953125 -7.546875 L 3.953125 -7.875 C 3.953125 -8.351562 3.859375 -8.71875 3.671875 -8.96875 C 3.484375 -9.21875 3.1875 -9.34375 2.78125 -9.34375 C 2.363281 -9.34375 2.0625 -9.21875 1.875 -8.96875 C 1.695312 -8.71875 1.609375 -8.359375 1.609375 -7.890625 C 1.609375 -7.515625 1.691406 -7.179688 1.859375 -6.890625 C 2.035156 -6.609375 2.25 -6.347656 2.5 -6.109375 C 2.75 -5.867188 3.023438 -5.632812 3.328125 -5.40625 C 3.628906 -5.175781 3.90625 -4.921875 4.15625 -4.640625 C 4.414062 -4.367188 4.628906 -4.054688 4.796875 -3.703125 C 4.972656 -3.359375 5.0625 -2.945312 5.0625 -2.46875 C 5.0625 -1.6875 4.867188 -1.0625 4.484375 -0.59375 C 4.109375 -0.125 3.523438 0.109375 2.734375 0.109375 C 1.941406 0.109375 1.359375 -0.125 0.984375 -0.59375 C 0.609375 -1.0625 0.421875 -1.6875 0.421875 -2.46875 L 0.421875 -3.0625 L 1.5 -3.0625 L 1.5 -2.40625 C 1.5 -1.9375 1.597656 -1.570312 1.796875 -1.3125 C 1.992188 -1.0625 2.296875 -0.9375 2.703125 -0.9375 C 3.117188 -0.9375 3.421875 -1.0625 3.609375 -1.3125 C 3.804688 -1.570312 3.90625 -1.9375 3.90625 -2.40625 C 3.90625 -2.789062 3.816406 -3.125 3.640625 -3.40625 C 3.472656 -3.6875 3.257812 -3.945312 3 -4.1875 C 2.75 -4.425781 2.476562 -4.660156 2.1875 -4.890625 C 1.894531 -5.117188 1.617188 -5.367188 1.359375 -5.640625 C 1.109375 -5.921875 0.894531 -6.234375 0.71875 -6.578125 C 0.550781 -6.929688 0.46875 -7.347656 0.46875 -7.828125 C 0.46875 -8.617188 0.65625 -9.242188 1.03125 -9.703125 C 1.40625 -10.160156 1.976562 -10.390625 2.75 -10.390625 Z M 2.75 -10.390625 "/></g></g></g><g fill="#c3a58a" fill-opacity="1"><g transform="translate(123.332485, 268.337795)"><g><path d="M 2.84375 -10.296875 C 3.65625 -10.296875 4.238281 -10.070312 4.59375 -9.625 C 4.957031 -9.175781 5.140625 -8.5625 5.140625 -7.78125 L 5.140625 -6.546875 C 5.140625 -5.722656 4.945312 -5.101562 4.5625 -4.6875 C 4.175781 -4.269531 3.570312 -4.0625 2.75 -4.0625 L 1.734375 -4.0625 L 1.734375 0 L 0.59375 0 L 0.59375 -10.296875 Z M 2.75 -5.09375 C 3.175781 -5.09375 3.492188 -5.195312 3.703125 -5.40625 C 3.910156 -5.613281 4.015625 -5.96875 4.015625 -6.46875 L 4.015625 -7.84375 C 4.015625 -8.3125 3.921875 -8.660156 3.734375 -8.890625 C 3.554688 -9.128906 3.257812 -9.25 2.84375 -9.25 L 1.734375 -9.25 L 1.734375 -5.09375 Z M 2.75 -5.09375 "/></g></g></g><g fill="#c3a58a" fill-opacity="1"><g transform="translate(130.15718, 268.337795)"><g><path d="M 4.25 -5.734375 L 4.25 -4.703125 L 1.734375 -4.703125 L 1.734375 -1.046875 L 4.828125 -1.046875 L 4.828125 0 L 0.59375 0 L 0.59375 -10.296875 L 4.828125 -10.296875 L 4.828125 -9.25 L 1.734375 -9.25 L 1.734375 -5.734375 Z M 4.25 -5.734375 "/></g></g></g><g fill="#c3a58a" fill-opacity="1"><g transform="translate(136.775974, 268.337795)"><g><path d="M 2.8125 -10.390625 C 3.601562 -10.390625 4.1875 -10.15625 4.5625 -9.6875 C 4.9375 -9.21875 5.125 -8.59375 5.125 -7.8125 L 5.125 -6.875 L 4.046875 -6.875 L 4.046875 -7.859375 C 4.046875 -8.335938 3.945312 -8.703125 3.75 -8.953125 C 3.5625 -9.210938 3.257812 -9.34375 2.84375 -9.34375 C 2.425781 -9.34375 2.117188 -9.210938 1.921875 -8.953125 C 1.722656 -8.703125 1.625 -8.335938 1.625 -7.859375 L 1.625 -2.421875 C 1.625 -1.953125 1.722656 -1.585938 1.921875 -1.328125 C 2.117188 -1.066406 2.425781 -0.9375 2.84375 -0.9375 C 3.257812 -0.9375 3.5625 -1.066406 3.75 -1.328125 C 3.945312 -1.585938 4.046875 -1.953125 4.046875 -2.421875 L 4.046875 -3.765625 L 5.125 -3.765625 L 5.125 -2.484375 C 5.125 -1.703125 4.9375 -1.070312 4.5625 -0.59375 C 4.1875 -0.125 3.601562 0.109375 2.8125 0.109375 C 2.019531 0.109375 1.4375 -0.125 1.0625 -0.59375 C 0.6875 -1.070312 0.5 -1.703125 0.5 -2.484375 L 0.5 -7.8125 C 0.5 -8.195312 0.546875 -8.546875 0.640625 -8.859375 C 0.734375 -9.179688 0.875 -9.457031 1.0625 -9.6875 C 1.257812 -9.914062 1.5 -10.085938 1.78125 -10.203125 C 2.070312 -10.328125 2.414062 -10.390625 2.8125 -10.390625 Z M 2.8125 -10.390625 "/></g></g></g><g fill="#c3a58a" fill-opacity="1"><g transform="translate(143.688914, 268.337795)"><g><path d="M 1.734375 -10.296875 L 1.734375 0 L 0.59375 0 L 0.59375 -10.296875 Z M 1.734375 -10.296875 "/></g></g></g><g fill="#c3a58a" fill-opacity="1"><g transform="translate(147.336878, 268.337795)"><g><path d="M 1.75 -2.078125 L 1.359375 0 L 0.296875 0 L 2.265625 -10.296875 L 3.921875 -10.296875 L 5.890625 0 L 4.75 0 L 4.359375 -2.078125 Z M 1.890625 -3.0625 L 4.1875 -3.0625 L 3.03125 -9 Z M 1.890625 -3.0625 "/></g></g></g><g fill="#c3a58a" fill-opacity="1"><g transform="translate(154.867514, 268.337795)"><g><path d="M 0.59375 0 L 0.59375 -10.296875 L 1.734375 -10.296875 L 1.734375 -1.046875 L 4.671875 -1.046875 L 4.671875 0 Z M 0.59375 0 "/></g></g></g><g fill="#c3a58a" fill-opacity="1"><g transform="translate(161.148042, 268.337795)"><g><path d="M 1.734375 -10.296875 L 1.734375 0 L 0.59375 0 L 0.59375 -10.296875 Z M 1.734375 -10.296875 "/></g></g></g><g fill="#c3a58a" fill-opacity="1"><g transform="translate(164.796006, 268.337795)"><g><path d="M 2.75 -10.390625 C 3.53125 -10.390625 4.109375 -10.15625 4.484375 -9.6875 C 4.859375 -9.226562 5.046875 -8.609375 5.046875 -7.828125 L 5.046875 -7.546875 L 3.953125 -7.546875 L 3.953125 -7.875 C 3.953125 -8.351562 3.859375 -8.71875 3.671875 -8.96875 C 3.484375 -9.21875 3.1875 -9.34375 2.78125 -9.34375 C 2.363281 -9.34375 2.0625 -9.21875 1.875 -8.96875 C 1.695312 -8.71875 1.609375 -8.359375 1.609375 -7.890625 C 1.609375 -7.515625 1.691406 -7.179688 1.859375 -6.890625 C 2.035156 -6.609375 2.25 -6.347656 2.5 -6.109375 C 2.75 -5.867188 3.023438 -5.632812 3.328125 -5.40625 C 3.628906 -5.175781 3.90625 -4.921875 4.15625 -4.640625 C 4.414062 -4.367188 4.628906 -4.054688 4.796875 -3.703125 C 4.972656 -3.359375 5.0625 -2.945312 5.0625 -2.46875 C 5.0625 -1.6875 4.867188 -1.0625 4.484375 -0.59375 C 4.109375 -0.125 3.523438 0.109375 2.734375 0.109375 C 1.941406 0.109375 1.359375 -0.125 0.984375 -0.59375 C 0.609375 -1.0625 0.421875 -1.6875 0.421875 -2.46875 L 0.421875 -3.0625 L 1.5 -3.0625 L 1.5 -2.40625 C 1.5 -1.9375 1.597656 -1.570312 1.796875 -1.3125 C 1.992188 -1.0625 2.296875 -0.9375 2.703125 -0.9375 C 3.117188 -0.9375 3.421875 -1.0625 3.609375 -1.3125 C 3.804688 -1.570312 3.90625 -1.9375 3.90625 -2.40625 C 3.90625 -2.789062 3.816406 -3.125 3.640625 -3.40625 C 3.472656 -3.6875 3.257812 -3.945312 3 -4.1875 C 2.75 -4.425781 2.476562 -4.660156 2.1875 -4.890625 C 1.894531 -5.117188 1.617188 -5.367188 1.359375 -5.640625 C 1.109375 -5.921875 0.894531 -6.234375 0.71875 -6.578125 C 0.550781 -6.929688 0.46875 -7.347656 0.46875 -7.828125 C 0.46875 -8.617188 0.65625 -9.242188 1.03125 -9.703125 C 1.40625 -10.160156 1.976562 -10.390625 2.75 -10.390625 Z M 2.75 -10.390625 "/></g></g></g><g fill="#c3a58a" fill-opacity="1"><g transform="translate(171.59129, 268.337795)"><g><path d="M 2.09375 0 L 2.09375 -9.25 L 0.1875 -9.25 L 0.1875 -10.296875 L 5.125 -10.296875 L 5.125 -9.25 L 3.234375 -9.25 L 3.234375 0 Z M 2.09375 0 "/></g></g></g><g fill="#c3a58a" fill-opacity="1"><g transform="translate(178.2542, 268.337795)"><g><path d="M 1.75 -2.078125 L 1.359375 0 L 0.296875 0 L 2.265625 -10.296875 L 3.921875 -10.296875 L 5.890625 0 L 4.75 0 L 4.359375 -2.078125 Z M 1.890625 -3.0625 L 4.1875 -3.0625 L 3.03125 -9 Z M 1.890625 -3.0625 "/></g></g></g><g fill="#c3a58a" fill-opacity="1"><g transform="translate(185.784836, 268.337795)"><g/></g></g><g fill="#c3a58a" fill-opacity="1"><g transform="translate(189.388671, 268.337795)"><g><path d="M 4.25 -5.734375 L 4.25 -4.703125 L 1.734375 -4.703125 L 1.734375 -1.046875 L 4.828125 -1.046875 L 4.828125 0 L 0.59375 0 L 0.59375 -10.296875 L 4.828125 -10.296875 L 4.828125 -9.25 L 1.734375 -9.25 L 1.734375 -5.734375 Z M 4.25 -5.734375 "/></g></g></g><g fill="#c3a58a" fill-opacity="1"><g transform="translate(196.007464, 268.337795)"><g><path d="M 4.375 -0.015625 L 3.28125 -0.015625 L 1.578125 -8.203125 L 1.578125 0 L 0.578125 0 L 0.578125 -10.296875 L 2.171875 -10.296875 L 3.859375 -2.078125 L 5.5 -10.296875 L 7.109375 -10.296875 L 7.109375 0 L 6.015625 0 L 6.015625 -8.28125 Z M 4.375 -0.015625 "/></g></g></g><g fill="#c3a58a" fill-opacity="1"><g transform="translate(205.023508, 268.337795)"><g/></g></g><g fill="#c3a58a" fill-opacity="1"><g transform="translate(208.627344, 268.337795)"><g><path d="M 1.734375 -10.296875 L 1.734375 0 L 0.59375 0 L 0.59375 -10.296875 Z M 1.734375 -10.296875 "/></g></g></g><g fill="#c3a58a" fill-opacity="1"><g transform="translate(212.275308, 268.337795)"><g><path d="M 4.375 -0.015625 L 3.28125 -0.015625 L 1.578125 -8.203125 L 1.578125 0 L 0.578125 0 L 0.578125 -10.296875 L 2.171875 -10.296875 L 3.859375 -2.078125 L 5.5 -10.296875 L 7.109375 -10.296875 L 7.109375 0 L 6.015625 0 L 6.015625 -8.28125 Z M 4.375 -0.015625 "/></g></g></g><g fill="#c3a58a" fill-opacity="1"><g transform="translate(221.291352, 268.337795)"><g><path d="M 1.734375 -10.296875 L 1.734375 0 L 0.59375 0 L 0.59375 -10.296875 Z M 1.734375 -10.296875 "/></g></g></g><g fill="#c3a58a" fill-opacity="1"><g transform="translate(224.939317, 268.337795)"><g><path d="M 2.8125 -10.390625 C 3.601562 -10.390625 4.1875 -10.15625 4.5625 -9.6875 C 4.9375 -9.21875 5.125 -8.59375 5.125 -7.8125 L 5.125 -6.921875 L 4.046875 -6.921875 L 4.046875 -7.859375 C 4.046875 -8.335938 3.945312 -8.703125 3.75 -8.953125 C 3.5625 -9.210938 3.257812 -9.34375 2.84375 -9.34375 C 2.425781 -9.34375 2.117188 -9.210938 1.921875 -8.953125 C 1.722656 -8.703125 1.625 -8.335938 1.625 -7.859375 L 1.625 -2.421875 C 1.625 -1.953125 1.722656 -1.585938 1.921875 -1.328125 C 2.117188 -1.066406 2.425781 -0.9375 2.84375 -0.9375 C 3.257812 -0.9375 3.5625 -1.066406 3.75 -1.328125 C 3.945312 -1.585938 4.046875 -1.953125 4.046875 -2.421875 L 4.046875 -4.484375 L 2.984375 -4.484375 L 2.984375 -5.515625 L 5.125 -5.515625 L 5.125 -2.484375 C 5.125 -1.703125 4.9375 -1.070312 4.5625 -0.59375 C 4.1875 -0.125 3.601562 0.109375 2.8125 0.109375 C 2.019531 0.109375 1.4375 -0.125 1.0625 -0.59375 C 0.6875 -1.070312 0.5 -1.703125 0.5 -2.484375 L 0.5 -7.8125 C 0.5 -8.195312 0.546875 -8.546875 0.640625 -8.859375 C 0.734375 -9.179688 0.875 -9.457031 1.0625 -9.6875 C 1.257812 -9.914062 1.5 -10.085938 1.78125 -10.203125 C 2.070312 -10.328125 2.414062 -10.390625 2.8125 -10.390625 Z M 2.8125 -10.390625 "/></g></g></g><g fill="#c3a58a" fill-opacity="1"><g transform="translate(231.896374, 268.337795)"><g><path d="M 2.875 -10.296875 C 3.695312 -10.296875 4.285156 -10.09375 4.640625 -9.6875 C 4.992188 -9.289062 5.171875 -8.707031 5.171875 -7.9375 L 5.171875 -7.109375 C 5.171875 -6.535156 5.066406 -6.070312 4.859375 -5.71875 C 4.660156 -5.363281 4.335938 -5.117188 3.890625 -4.984375 C 4.367188 -4.847656 4.703125 -4.59375 4.890625 -4.21875 C 5.085938 -3.851562 5.1875 -3.394531 5.1875 -2.84375 L 5.1875 -1.234375 C 5.1875 -1.003906 5.195312 -0.785156 5.21875 -0.578125 C 5.238281 -0.367188 5.296875 -0.175781 5.390625 0 L 4.234375 0 C 4.160156 -0.144531 4.109375 -0.300781 4.078125 -0.46875 C 4.054688 -0.644531 4.046875 -0.90625 4.046875 -1.25 L 4.046875 -2.859375 C 4.046875 -3.441406 3.914062 -3.84375 3.65625 -4.0625 C 3.394531 -4.28125 3.023438 -4.390625 2.546875 -4.390625 L 1.734375 -4.390625 L 1.734375 0 L 0.59375 0 L 0.59375 -10.296875 Z M 2.59375 -5.4375 C 3.050781 -5.4375 3.40625 -5.53125 3.65625 -5.71875 C 3.914062 -5.914062 4.046875 -6.296875 4.046875 -6.859375 L 4.046875 -7.84375 C 4.046875 -8.3125 3.953125 -8.660156 3.765625 -8.890625 C 3.585938 -9.128906 3.285156 -9.25 2.859375 -9.25 L 1.734375 -9.25 L 1.734375 -5.4375 Z M 2.59375 -5.4375 "/></g></g></g><g fill="#c3a58a" fill-opacity="1"><g transform="translate(239.015205, 268.337795)"><g><path d="M 1.75 -2.078125 L 1.359375 0 L 0.296875 0 L 2.265625 -10.296875 L 3.921875 -10.296875 L 5.890625 0 L 4.75 0 L 4.359375 -2.078125 Z M 1.890625 -3.0625 L 4.1875 -3.0625 L 3.03125 -9 Z M 1.890625 -3.0625 "/></g></g></g><g fill="#c3a58a" fill-opacity="1"><g transform="translate(246.545841, 268.337795)"><g><path d="M 2.8125 -10.390625 C 3.601562 -10.390625 4.1875 -10.15625 4.5625 -9.6875 C 4.9375 -9.21875 5.125 -8.59375 5.125 -7.8125 L 5.125 -6.875 L 4.046875 -6.875 L 4.046875 -7.859375 C 4.046875 -8.335938 3.945312 -8.703125 3.75 -8.953125 C 3.5625 -9.210938 3.257812 -9.34375 2.84375 -9.34375 C 2.425781 -9.34375 2.117188 -9.210938 1.921875 -8.953125 C 1.722656 -8.703125 1.625 -8.335938 1.625 -7.859375 L 1.625 -2.421875 C 1.625 -1.953125 1.722656 -1.585938 1.921875 -1.328125 C 2.117188 -1.066406 2.425781 -0.9375 2.84375 -0.9375 C 3.257812 -0.9375 3.5625 -1.066406 3.75 -1.328125 C 3.945312 -1.585938 4.046875 -1.953125 4.046875 -2.421875 L 4.046875 -3.765625 L 5.125 -3.765625 L 5.125 -2.484375 C 5.125 -1.742188 4.953125 -1.140625 4.609375 -0.671875 C 4.273438 -0.210938 3.757812 0.0390625 3.0625 0.09375 L 3.0625 0.546875 C 3.40625 0.546875 3.671875 0.609375 3.859375 0.734375 C 4.046875 0.867188 4.140625 1.054688 4.140625 1.296875 C 4.140625 1.585938 4.015625 1.816406 3.765625 1.984375 C 3.523438 2.148438 3.1875 2.234375 2.75 2.234375 C 2.320312 2.234375 1.988281 2.148438 1.75 1.984375 C 1.507812 1.828125 1.390625 1.609375 1.390625 1.328125 L 1.390625 1.203125 L 2.140625 1.203125 L 2.140625 1.3125 C 2.140625 1.5625 2.34375 1.703125 2.75 1.734375 C 3.164062 1.734375 3.375 1.578125 3.375 1.265625 C 3.375 0.972656 3.132812 0.828125 2.65625 0.828125 L 2.53125 0.828125 L 2.53125 0.09375 C 1.832031 0.0390625 1.316406 -0.21875 0.984375 -0.6875 C 0.660156 -1.15625 0.5 -1.753906 0.5 -2.484375 L 0.5 -7.8125 C 0.5 -8.195312 0.546875 -8.546875 0.640625 -8.859375 C 0.734375 -9.179688 0.875 -9.457031 1.0625 -9.6875 C 1.257812 -9.914062 1.5 -10.085938 1.78125 -10.203125 C 2.070312 -10.328125 2.414062 -10.390625 2.8125 -10.390625 Z M 2.8125 -10.390625 "/></g></g></g><g fill="#c3a58a" fill-opacity="1"><g transform="translate(253.458781, 268.337795)"><g><path d="M 2.375 -12.140625 C 2.519531 -12.140625 2.648438 -12.117188 2.765625 -12.078125 C 2.890625 -12.035156 3.003906 -11.984375 3.109375 -11.921875 C 3.210938 -11.867188 3.3125 -11.816406 3.40625 -11.765625 C 3.507812 -11.722656 3.613281 -11.703125 3.71875 -11.703125 C 3.84375 -11.710938 3.953125 -11.75 4.046875 -11.8125 C 4.140625 -11.875 4.226562 -11.984375 4.3125 -12.140625 L 4.875 -11.75 C 4.757812 -11.46875 4.613281 -11.253906 4.4375 -11.109375 C 4.257812 -10.972656 4.0625 -10.90625 3.84375 -10.90625 C 3.6875 -10.90625 3.550781 -10.925781 3.4375 -10.96875 C 3.320312 -11.019531 3.210938 -11.070312 3.109375 -11.125 C 3.003906 -11.175781 2.898438 -11.222656 2.796875 -11.265625 C 2.703125 -11.316406 2.597656 -11.34375 2.484375 -11.34375 C 2.347656 -11.34375 2.226562 -11.304688 2.125 -11.234375 C 2.03125 -11.171875 1.945312 -11.054688 1.875 -10.890625 L 1.296875 -11.296875 C 1.410156 -11.597656 1.5625 -11.8125 1.75 -11.9375 C 1.9375 -12.0625 2.144531 -12.128906 2.375 -12.140625 Z M 1.75 -2.078125 L 1.359375 0 L 0.296875 0 L 2.265625 -10.296875 L 3.921875 -10.296875 L 5.890625 0 L 4.75 0 L 4.359375 -2.078125 Z M 1.890625 -3.0625 L 4.1875 -3.0625 L 3.03125 -9 Z M 1.890625 -3.0625 "/></g></g></g><g fill="#c3a58a" fill-opacity="1"><g transform="translate(260.989417, 268.337795)"><g><path d="M 0.5 -7.8125 C 0.5 -8.601562 0.691406 -9.226562 1.078125 -9.6875 C 1.460938 -10.15625 2.054688 -10.390625 2.859375 -10.390625 C 3.648438 -10.390625 4.238281 -10.15625 4.625 -9.6875 C 5.019531 -9.226562 5.21875 -8.601562 5.21875 -7.8125 L 5.21875 -2.484375 C 5.21875 -1.703125 5.019531 -1.070312 4.625 -0.59375 C 4.238281 -0.125 3.648438 0.109375 2.859375 0.109375 C 2.054688 0.109375 1.460938 -0.125 1.078125 -0.59375 C 0.691406 -1.070312 0.5 -1.703125 0.5 -2.484375 Z M 1.625 -2.421875 C 1.625 -1.953125 1.722656 -1.585938 1.921875 -1.328125 C 2.128906 -1.066406 2.441406 -0.9375 2.859375 -0.9375 C 3.273438 -0.9375 3.582031 -1.066406 3.78125 -1.328125 C 3.976562 -1.585938 4.078125 -1.953125 4.078125 -2.421875 L 4.078125 -7.859375 C 4.078125 -8.335938 3.976562 -8.703125 3.78125 -8.953125 C 3.582031 -9.210938 3.273438 -9.34375 2.859375 -9.34375 C 2.441406 -9.34375 2.128906 -9.210938 1.921875 -8.953125 C 1.722656 -8.703125 1.625 -8.335938 1.625 -7.859375 Z M 1.625 -2.421875 "/></g></g></g><g fill="#261913" fill-opacity="1"><g transform="translate(97.894056, 249.917736)"><g><path d="M 12.648438 -3.546875 C 12.363281 -3.015625 10.757812 -0.714844 7.550781 -0.714844 C 4.351562 -0.714844 1.746094 -3.699219 1.746094 -7.367188 C 1.746094 -11.042969 4.351562 -14.027344 7.550781 -14.027344 C 10.113281 -14.027344 11.699219 -12.679688 11.421875 -11.148438 L 13.039062 -12.566406 C 12.261719 -12.90625 10.75 -14.652344 7.640625 -14.652344 C 3.65625 -14.652344 0.417969 -11.382812 0.417969 -7.347656 C 0.417969 -3.320312 3.65625 -0.0390625 7.640625 -0.0390625 C 10.65625 -0.0390625 12.546875 -2.320312 12.648438 -3.546875 Z M 12.648438 -3.546875 "/></g></g></g><g fill="#261913" fill-opacity="1"><g transform="translate(111.826993, 249.917736)"><g><path d="M 10.625 -1.5625 L 7.960938 -5.546875 C 11.996094 -6.152344 13.160156 -7.9375 13.160156 -9.980469 C 13.160156 -12.976562 10.523438 -14.640625 7.203125 -14.640625 L 0.417969 -14.652344 C 0.417969 -14.652344 1.207031 -14.519531 1.207031 -13.089844 L 1.207031 -1.5625 C 1.207031 -0.121094 0.417969 0 0.417969 0 L 3.25 0 C 3.25 0 2.472656 -0.101562 2.460938 -1.5625 L 2.460938 -5.332031 L 4.628906 -5.332031 C 5.414062 -5.332031 6.128906 -5.355469 6.785156 -5.414062 L 9.359375 -1.5625 C 10.328125 -0.101562 9.625 0 9.625 0 L 12.453125 0 C 12.453125 0 11.597656 -0.121094 10.625 -1.5625 Z M 4.628906 -5.894531 L 2.460938 -5.894531 L 2.460938 -13.078125 C 2.460938 -13.488281 2.535156 -14.007812 3.175781 -14.007812 L 7.203125 -14.007812 C 9.820312 -14.007812 11.75 -12.332031 11.75 -10.042969 C 11.75 -7.796875 9.960938 -5.957031 4.628906 -5.894531 Z M 4.628906 -5.894531 "/></g></g></g><g fill="#261913" fill-opacity="1"><g transform="translate(125.882497, 249.917736)"><g><path d="M 0.417969 -14.652344 C 0.417969 -14.652344 1.195312 -14.519531 1.195312 -13.089844 L 1.195312 -1.5625 C 1.195312 -0.121094 0.417969 0 0.417969 0 L 3.25 0 C 3.25 0 2.472656 -0.101562 2.460938 -1.5625 L 2.460938 -13.078125 C 2.472656 -14.550781 3.25 -14.652344 3.25 -14.652344 Z M 0.417969 -14.652344 "/></g></g></g><g fill="#261913" fill-opacity="1"><g transform="translate(130.020346, 249.917736)"><g><path d="M 11.441406 -4.085938 C 11.382812 -2.707031 10.105469 -0.632812 6.539062 -0.632812 C 2.972656 -0.632812 1.980469 -4.75 1.980469 -4.75 L 0.417969 -3.597656 C 0.417969 -3.597656 1.921875 0 6.507812 0 C 11.597656 0 12.875 -2.351562 12.945312 -4.105469 C 13.140625 -8.777344 2.277344 -7.601562 2.433594 -11.175781 C 2.503906 -12.996094 4.015625 -14.140625 6.703125 -14.140625 C 9.902344 -14.140625 10.59375 -11.882812 10.59375 -11.882812 L 11.761719 -13.242188 C 11.761719 -13.242188 9.644531 -14.652344 6.722656 -14.652344 C 3.800781 -14.652344 1.390625 -13.3125 1.289062 -11.023438 C 1.101562 -6.570312 11.597656 -7.929688 11.441406 -4.085938 Z M 11.441406 -4.085938 "/></g></g></g><g fill="#261913" fill-opacity="1"><g transform="translate(144.055422, 249.917736)"><g><path d="M 0.417969 -14.640625 L 0.417969 -12.261719 C 0.417969 -12.261719 0.949219 -14.007812 3.972656 -14.007812 L 5.179688 -14.007812 C 5.261719 -13.78125 5.324219 -13.488281 5.324219 -13.089844 L 5.324219 -1.5625 C 5.324219 -0.121094 4.546875 0 4.546875 0 L 7.375 0 C 7.375 0 6.589844 -0.101562 6.589844 -1.5625 L 6.589844 -13.078125 C 6.589844 -13.488281 6.652344 -13.78125 6.734375 -14.007812 L 7.960938 -14.007812 C 10.992188 -14.007812 11.515625 -12.261719 11.515625 -12.261719 L 11.515625 -14.640625 Z M 0.417969 -14.640625 "/></g></g></g><g fill="#261913" fill-opacity="1"><g transform="translate(156.476712, 249.917736)"><g><path d="M 0.417969 -14.652344 C 0.417969 -14.652344 1.195312 -14.519531 1.195312 -13.089844 L 1.195312 -1.5625 C 1.195312 -0.121094 0.417969 0 0.417969 0 L 3.25 0 C 3.25 0 2.472656 -0.101562 2.460938 -1.5625 L 2.460938 -13.078125 C 2.472656 -14.550781 3.25 -14.652344 3.25 -14.652344 Z M 0.417969 -14.652344 "/></g></g></g><g fill="#261913" fill-opacity="1"><g transform="translate(160.614564, 249.917736)"><g><path d="M 11.761719 0 L 14.589844 0 C 14.589844 0 13.773438 -0.101562 13.179688 -1.5625 L 7.980469 -14.652344 L 7.039062 -14.652344 L 1.828125 -1.5625 C 1.234375 -0.101562 0.417969 0 0.417969 0 L 2.574219 0 C 2.574219 0 1.839844 -0.121094 2.421875 -1.5625 L 4.015625 -5.558594 L 10.320312 -5.558594 L 11.914062 -1.5625 C 12.496094 -0.121094 11.761719 0 11.761719 0 Z M 4.167969 -5.9375 C 4.167969 -5.9375 7.121094 -13.34375 7.152344 -13.457031 C 7.203125 -13.34375 10.167969 -5.9375 10.167969 -5.9375 Z M 4.167969 -5.9375 "/></g></g></g><g fill="#261913" fill-opacity="1"><g transform="translate(176.08979, 249.917736)"><g><path d="M 3.546875 -14.652344 L 0.417969 -14.652344 C 0.417969 -14.652344 1.195312 -14.519531 1.195312 -13.089844 L 1.195312 -1.5625 C 1.195312 -0.121094 0.417969 0 0.417969 0 L 2.574219 0 C 2.574219 0 1.796875 -0.101562 1.789062 -1.5625 L 1.789062 -13.078125 C 1.789062 -13.375 1.828125 -13.621094 1.878906 -13.8125 C 2.035156 -13.621094 2.195312 -13.375 2.359375 -13.089844 L 9.59375 0 L 10.1875 0 L 10.1875 -13.078125 C 10.195312 -14.550781 10.972656 -14.652344 10.972656 -14.652344 L 8.816406 -14.652344 C 8.816406 -14.652344 9.605469 -14.519531 9.605469 -13.089844 L 9.605469 -2.269531 L 3.628906 -13.078125 C 2.820312 -14.550781 3.546875 -14.652344 3.546875 -14.652344 Z M 3.546875 -14.652344 "/></g></g></g><g fill="#261913" fill-opacity="1"><g transform="translate(187.96974, 249.917736)"><g><path d="M 7.101562 -7.253906 L 7.101562 -10.328125 C 7.101562 -10.328125 6.722656 -8.949219 3.535156 -8.949219 L 2.460938 -8.949219 L 2.460938 -13.078125 C 2.460938 -13.488281 2.453125 -14.007812 3.125 -14.007812 C 3.125 -14.007812 3.871094 -14.007812 6.519531 -14.007812 C 10.257812 -14.007812 10.707031 -12.628906 10.707031 -12.628906 L 10.707031 -14.640625 L 0.417969 -14.652344 C 0.417969 -14.652344 1.195312 -14.519531 1.195312 -13.089844 L 1.195312 -1.5625 C 1.195312 -0.121094 0.417969 0 0.417969 0 L 10.707031 0 L 10.707031 -2.011719 C 10.707031 -2.011719 10.257812 -0.632812 6.519531 -0.632812 C 3.871094 -0.632812 3.125 -0.632812 3.125 -0.632812 C 2.503906 -0.632812 2.460938 -1.15625 2.460938 -1.5625 L 2.460938 -8.625 L 3.535156 -8.632812 C 6.722656 -8.632812 7.101562 -7.253906 7.101562 -7.253906 Z M 7.101562 -7.253906 "/></g></g></g><g fill="#261913" fill-opacity="1"><g transform="translate(199.584131, 249.917736)"><g/></g></g><g fill="#261913" fill-opacity="1"><g transform="translate(205.315343, 249.917736)"><g><path d="M 10.625 -1.5625 L 7.960938 -5.546875 C 11.996094 -6.152344 13.160156 -7.9375 13.160156 -9.980469 C 13.160156 -12.976562 10.523438 -14.640625 7.203125 -14.640625 L 0.417969 -14.652344 C 0.417969 -14.652344 1.207031 -14.519531 1.207031 -13.089844 L 1.207031 -1.5625 C 1.207031 -0.121094 0.417969 0 0.417969 0 L 3.25 0 C 3.25 0 2.472656 -0.101562 2.460938 -1.5625 L 2.460938 -5.332031 L 4.628906 -5.332031 C 5.414062 -5.332031 6.128906 -5.355469 6.785156 -5.414062 L 9.359375 -1.5625 C 10.328125 -0.101562 9.625 0 9.625 0 L 12.453125 0 C 12.453125 0 11.597656 -0.121094 10.625 -1.5625 Z M 4.628906 -5.894531 L 2.460938 -5.894531 L 2.460938 -13.078125 C 2.460938 -13.488281 2.535156 -14.007812 3.175781 -14.007812 L 7.203125 -14.007812 C 9.820312 -14.007812 11.75 -12.332031 11.75 -10.042969 C 11.75 -7.796875 9.960938 -5.957031 4.628906 -5.894531 Z M 4.628906 -5.894531 "/></g></g></g><g fill="#261913" fill-opacity="1"><g transform="translate(219.37085, 249.917736)"><g><path d="M 7.640625 -14.652344 C 3.65625 -14.652344 0.417969 -11.382812 0.417969 -7.347656 C 0.417969 -3.320312 3.65625 -0.0390625 7.640625 -0.0390625 C 11.636719 -0.0390625 14.867188 -3.320312 14.867188 -7.347656 C 14.867188 -11.382812 11.636719 -14.652344 7.640625 -14.652344 Z M 7.640625 -0.644531 C 4.371094 -0.644531 1.714844 -3.636719 1.714844 -7.324219 C 1.714844 -11.015625 4.371094 -14.019531 7.640625 -14.019531 C 10.910156 -14.019531 13.570312 -11.015625 13.570312 -7.324219 C 13.570312 -3.636719 10.910156 -0.644531 7.640625 -0.644531 Z M 7.640625 -0.644531 "/></g></g></g><g fill="#261913" fill-opacity="1"><g transform="translate(235.142284, 249.917736)"><g><path d="M 12.648438 -3.546875 C 12.363281 -3.015625 10.757812 -0.714844 7.550781 -0.714844 C 4.351562 -0.714844 1.746094 -3.699219 1.746094 -7.367188 C 1.746094 -11.042969 4.351562 -14.027344 7.550781 -14.027344 C 10.113281 -14.027344 11.699219 -12.679688 11.421875 -11.148438 L 13.039062 -12.566406 C 12.261719 -12.90625 10.75 -14.652344 7.640625 -14.652344 C 3.65625 -14.652344 0.417969 -11.382812 0.417969 -7.347656 C 0.417969 -3.320312 3.65625 -0.0390625 7.640625 -0.0390625 C 10.65625 -0.0390625 12.546875 -2.320312 12.648438 -3.546875 Z M 12.648438 -3.546875 "/></g></g></g><g fill="#261913" fill-opacity="1"><g transform="translate(249.075224, 249.917736)"><g><path d="M 2.460938 -5.558594 L 10.074219 -5.558594 L 10.074219 -1.5625 C 10.074219 -0.121094 9.289062 0 9.289062 0 L 12.117188 0 C 12.117188 0 11.339844 -0.101562 11.339844 -1.5625 L 11.339844 -13.078125 C 11.339844 -14.550781 12.117188 -14.652344 12.117188 -14.652344 L 9.289062 -14.652344 C 9.289062 -14.652344 10.074219 -14.519531 10.074219 -13.089844 L 10.074219 -5.9375 L 2.460938 -5.9375 L 2.460938 -13.078125 C 2.472656 -14.550781 3.25 -14.652344 3.25 -14.652344 L 0.417969 -14.652344 C 0.417969 -14.652344 1.195312 -14.519531 1.195312 -13.089844 L 1.195312 -1.5625 C 1.195312 -0.121094 0.417969 0 0.417969 0 L 3.25 0 C 3.25 0 2.472656 -0.101562 2.460938 -1.5625 Z M 2.460938 -5.558594 "/></g></g></g><g fill="#261913" fill-opacity="1"><g transform="translate(262.088918, 249.917736)"><g><path d="M 11.761719 0 L 14.589844 0 C 14.589844 0 13.773438 -0.101562 13.179688 -1.5625 L 7.980469 -14.652344 L 7.039062 -14.652344 L 1.828125 -1.5625 C 1.234375 -0.101562 0.417969 0 0.417969 0 L 2.574219 0 C 2.574219 0 1.839844 -0.121094 2.421875 -1.5625 L 4.015625 -5.558594 L 10.320312 -5.558594 L 11.914062 -1.5625 C 12.496094 -0.121094 11.761719 0 11.761719 0 Z M 4.167969 -5.9375 C 4.167969 -5.9375 7.121094 -13.34375 7.152344 -13.457031 C 7.203125 -13.34375 10.167969 -5.9375 10.167969 -5.9375 Z M 4.167969 -5.9375 "/></g></g></g></svg>