<svg xmlns="http://www.w3.org/2000/svg" xmlns:xlink="http://www.w3.org/1999/xlink" width="500" zoomAndPan="magnify" viewBox="0 0 375 374.999991" height="500" preserveAspectRatio="xMidYMid meet" version="1.0"><defs><g/><clipPath id="310008f165"><path d="M 189 235 L 190 235 L 190 236 L 189 236 Z M 189 235 " clip-rule="nonzero"/></clipPath><clipPath id="3671cfa65c"><path d="M 39.109375 115.414062 L 356.597656 157.363281 L 339.699219 285.25 L 22.210938 243.300781 Z M 39.109375 115.414062 " clip-rule="nonzero"/></clipPath><clipPath id="0089f8e36e"><path d="M 39.109375 115.414062 L 356.597656 157.363281 L 339.699219 285.25 L 22.210938 243.300781 Z M 39.109375 115.414062 " clip-rule="nonzero"/></clipPath><clipPath id="6590907b72"><path d="M 88 218 L 89 218 L 89 219 L 88 219 Z M 88 218 " clip-rule="nonzero"/></clipPath><clipPath id="744fad2f88"><path d="M 39.109375 115.414062 L 356.597656 157.363281 L 339.699219 285.25 L 22.210938 243.300781 Z M 39.109375 115.414062 " clip-rule="nonzero"/></clipPath><clipPath id="53f90a2c17"><path d="M 39.109375 115.414062 L 356.597656 157.363281 L 339.699219 285.25 L 22.210938 243.300781 Z M 39.109375 115.414062 " clip-rule="nonzero"/></clipPath><clipPath id="eca0a475ba"><path d="M 288 149 L 354 149 L 354 217 L 288 217 Z M 288 149 " clip-rule="nonzero"/></clipPath><clipPath id="25d2946f77"><path d="M 39.109375 115.414062 L 356.597656 157.363281 L 339.699219 285.25 L 22.210938 243.300781 Z M 39.109375 115.414062 " clip-rule="nonzero"/></clipPath><clipPath id="0f51054fae"><path d="M 39.109375 115.414062 L 356.597656 157.363281 L 339.699219 285.25 L 22.210938 243.300781 Z M 39.109375 115.414062 " clip-rule="nonzero"/></clipPath><clipPath id="2e103f5e48"><path d="M 296.246094 149.386719 L 356.28125 157.320312 L 347.402344 224.539062 L 287.363281 216.605469 Z M 296.246094 149.386719 " clip-rule="nonzero"/></clipPath><clipPath id="8170143191"><path d="M 296.246094 149.386719 L 355.957031 157.277344 L 347.074219 224.496094 L 287.363281 216.605469 Z M 296.246094 149.386719 " clip-rule="nonzero"/></clipPath><clipPath id="02adcded5c"><path d="M 28 168 L 192 168 L 192 232 L 28 232 Z M 28 168 " clip-rule="nonzero"/></clipPath><clipPath id="99cae45c59"><path d="M 39.109375 115.414062 L 356.597656 157.363281 L 339.699219 285.25 L 22.210938 243.300781 Z M 39.109375 115.414062 " clip-rule="nonzero"/></clipPath><clipPath id="df9eadbed1"><path d="M 39.109375 115.414062 L 356.597656 157.363281 L 339.699219 285.25 L 22.210938 243.300781 Z M 39.109375 115.414062 " clip-rule="nonzero"/></clipPath><clipPath id="0612c1dba9"><path d="M 288 149 L 354 149 L 354 217 L 288 217 Z M 288 149 " clip-rule="nonzero"/></clipPath><clipPath id="728dbcea50"><path d="M 39.109375 115.414062 L 356.597656 157.363281 L 339.699219 285.25 L 22.210938 243.300781 Z M 39.109375 115.414062 " clip-rule="nonzero"/></clipPath><clipPath id="095390fd88"><path d="M 39.109375 115.414062 L 356.597656 157.363281 L 339.699219 285.25 L 22.210938 243.300781 Z M 39.109375 115.414062 " clip-rule="nonzero"/></clipPath><clipPath id="fdc08977f6"><path d="M 296.246094 149.386719 L 356.28125 157.320312 L 347.402344 224.539062 L 287.363281 216.605469 Z M 296.246094 149.386719 " clip-rule="nonzero"/></clipPath><clipPath id="e76e6828bc"><path d="M 296.246094 149.386719 L 355.957031 157.277344 L 347.074219 224.496094 L 287.363281 216.605469 Z M 296.246094 149.386719 " clip-rule="nonzero"/></clipPath><clipPath id="fd5383ec39"><path d="M 28 168 L 192 168 L 192 232 L 28 232 Z M 28 168 " clip-rule="nonzero"/></clipPath><clipPath id="530ac7a5e3"><path d="M 39.109375 115.414062 L 356.597656 157.363281 L 339.699219 285.25 L 22.210938 243.300781 Z M 39.109375 115.414062 " clip-rule="nonzero"/></clipPath><clipPath id="621483d7bd"><path d="M 39.109375 115.414062 L 356.597656 157.363281 L 339.699219 285.25 L 22.210938 243.300781 Z M 39.109375 115.414062 " clip-rule="nonzero"/></clipPath><clipPath id="3223a38382"><path d="M 238 272 L 239 272 L 239 273 L 238 273 Z M 238 272 " clip-rule="nonzero"/></clipPath><clipPath id="032bcfd185"><path d="M 39.109375 115.414062 L 356.597656 157.363281 L 339.699219 285.25 L 22.210938 243.300781 Z M 39.109375 115.414062 " clip-rule="nonzero"/></clipPath><clipPath id="09f6921286"><path d="M 39.109375 115.414062 L 356.597656 157.363281 L 339.699219 285.25 L 22.210938 243.300781 Z M 39.109375 115.414062 " clip-rule="nonzero"/></clipPath><clipPath id="ed662e8f27"><path d="M 238.230469 271.863281 L 238.882812 271.949219 L 238.796875 272.601562 L 238.144531 272.515625 Z M 238.230469 271.863281 " clip-rule="nonzero"/></clipPath><clipPath id="23911c39b7"><path d="M 238.230469 271.863281 L 238.882812 271.949219 L 238.847656 272.230469 L 238.195312 272.144531 Z M 238.230469 271.863281 " clip-rule="nonzero"/></clipPath><clipPath id="d9c1346ccb"><path d="M 188 176 L 285 176 L 285 268 L 188 268 Z M 188 176 " clip-rule="nonzero"/></clipPath><clipPath id="5b655734af"><path d="M 39.109375 115.414062 L 356.597656 157.363281 L 339.699219 285.25 L 22.210938 243.300781 Z M 39.109375 115.414062 " clip-rule="nonzero"/></clipPath><clipPath id="6c8f49cb35"><path d="M 39.109375 115.414062 L 356.597656 157.363281 L 339.699219 285.25 L 22.210938 243.300781 Z M 39.109375 115.414062 " clip-rule="nonzero"/></clipPath></defs><g fill="#383325" fill-opacity="1"><g transform="translate(62.295336, 147.85773)"><g><path d="M 70.417969 2.789062 C 88.269531 2.789062 100.539062 0 111.695312 -3.625 L 111.695312 -22.3125 L 110.160156 -22.3125 C 110.160156 -22.3125 101.375 1.117188 70.417969 1.117188 C 43.507812 1.117188 20.917969 -29.003906 20.917969 -69.722656 C 20.917969 -110.441406 41.554688 -140.558594 70.417969 -140.558594 C 93.707031 -140.558594 105 -130.660156 105 -114.066406 C 105 -93.707031 65.816406 -85.480469 65.816406 -60.9375 C 65.816406 -54.523438 70.417969 -46.296875 77.949219 -47.96875 C 75.160156 -50.339844 73.765625 -52.710938 73.765625 -57.03125 C 73.765625 -73.625 113.230469 -83.945312 113.230469 -112.949219 C 113.230469 -125.640625 102.351562 -142.234375 70.417969 -142.234375 C 35.699219 -142.234375 8.367188 -111.554688 8.367188 -69.722656 C 8.367188 -27.890625 35.699219 2.789062 70.417969 2.789062 Z M 70.417969 2.789062 "/></g></g></g><g fill="#383325" fill-opacity="1"><g transform="translate(149.607563, 206.52848)"><g><path d="M 3.703125 0 L 36.910156 0 L 36.910156 -1.234375 C 26.292969 -1.234375 25.550781 -10 25.550781 -34.316406 L 25.550781 -120.234375 C 33.082031 -122.949219 39.007812 -124.183594 48.144531 -124.183594 C 71.101562 -124.183594 85.546875 -111.59375 85.546875 -91.101562 C 85.546875 -76.289062 75.546875 -61.105469 60.117188 -61.105469 C 48.636719 -61.105469 42.957031 -68.140625 35.675781 -68.140625 C 33.453125 -68.140625 31.355469 -66.90625 31.355469 -63.941406 C 31.355469 -55.550781 44.4375 -55.054688 56.414062 -37.03125 C 75.917969 -7.777344 79.375 0 85.050781 0 L 103.9375 0 L 103.9375 -1.234375 C 89.867188 -1.234375 78.386719 -23.207031 68.632812 -38.390625 C 58.636719 -53.945312 32.589844 -55.671875 32.589844 -63.695312 C 32.589844 -66.535156 34.6875 -66.90625 36.167969 -66.90625 C 41.351562 -66.90625 49.253906 -59.003906 60.855469 -59.003906 C 82.335938 -59.003906 96.160156 -74.3125 96.160156 -91.222656 C 96.160156 -111.34375 81.472656 -125.910156 55.179688 -125.910156 C 40.859375 -125.910156 32.09375 -123.441406 18.515625 -123.441406 L 3.703125 -123.441406 L 3.703125 -122.207031 C 14.320312 -122.207031 15.058594 -113.445312 15.058594 -89.125 L 15.058594 -34.316406 C 15.058594 -10 14.320312 -1.234375 3.703125 -1.234375 Z M 3.703125 0 "/></g></g></g><g clip-path="url(#310008f165)"><g clip-path="url(#3671cfa65c)"><g clip-path="url(#0089f8e36e)"><path fill="#383325" d="M 189.734375 235.667969 L 189.742188 235.644531 L 189.738281 235.644531 Z M 189.734375 235.667969 " fill-opacity="1" fill-rule="nonzero"/></g></g></g><g clip-path="url(#6590907b72)"><g clip-path="url(#744fad2f88)"><g clip-path="url(#53f90a2c17)"><path fill="#383325" d="M 88.441406 218.308594 C 88.441406 218.3125 88.441406 218.316406 88.441406 218.320312 L 88.445312 218.308594 L 88.441406 218.308594 " fill-opacity="1" fill-rule="nonzero"/></g></g></g><g clip-path="url(#eca0a475ba)"><g clip-path="url(#25d2946f77)"><g clip-path="url(#0f51054fae)"><g clip-path="url(#2e103f5e48)"><g clip-path="url(#8170143191)"><path fill="#383325" d="M 288.867188 208.398438 C 288.875 208.410156 288.886719 208.421875 288.894531 208.433594 C 289.003906 208.613281 289.082031 208.773438 289.246094 208.964844 C 289.246094 208.964844 289.246094 208.964844 289.246094 208.96875 C 289.703125 209.789062 289.8125 210.589844 289.910156 211.355469 C 290.097656 212.84375 289.789062 214.21875 289.207031 215.480469 C 289.109375 215.695312 288.972656 215.902344 288.851562 216.113281 C 288.847656 216.125 288.839844 216.136719 288.835938 216.144531 C 288.859375 216.136719 288.882812 216.132812 288.910156 216.125 C 289.480469 215.976562 290.046875 215.824219 290.617188 215.667969 C 290.617188 215.671875 290.617188 215.667969 290.621094 215.667969 C 292.375 215.195312 294.128906 214.703125 295.875 214.195312 C 300.371094 212.886719 304.84375 211.460938 309.28125 209.894531 C 313.882812 208.246094 318.460938 206.484375 322.953125 204.457031 C 327.441406 202.433594 331.875 200.214844 336.140625 197.589844 C 338.277344 196.277344 340.375 194.875 342.390625 193.296875 C 344.40625 191.726562 346.351562 190 348.125 188 C 349.007812 187 349.839844 185.921875 350.589844 184.75 C 351.335938 183.578125 352 182.304688 352.492188 180.914062 C 352.984375 179.535156 353.304688 178.03125 353.34375 176.492188 C 353.355469 176.109375 353.347656 175.722656 353.328125 175.339844 L 353.304688 175.050781 L 353.273438 174.734375 L 353.203125 174.203125 C 353.085938 173.429688 352.910156 172.691406 352.667969 171.972656 C 352.1875 170.539062 351.480469 169.230469 350.65625 168.070312 C 349.832031 166.910156 348.894531 165.890625 347.90625 164.976562 C 345.921875 163.160156 343.75 161.726562 341.527344 160.5 C 337.074219 158.066406 332.40625 156.390625 327.707031 155.011719 C 323.003906 153.640625 318.238281 152.632812 313.460938 151.792969 C 308.679688 150.976562 303.878906 150.355469 299.066406 149.925781 L 298.960938 150.617188 C 303.664062 151.660156 308.339844 152.769531 312.960938 154.046875 C 317.578125 155.304688 322.136719 156.746094 326.566406 158.425781 C 328.78125 159.265625 330.960938 160.171875 333.074219 161.175781 C 335.183594 162.183594 337.238281 163.273438 339.15625 164.507812 C 341.070312 165.734375 342.863281 167.101562 344.335938 168.640625 C 345.800781 170.175781 346.929688 171.878906 347.390625 173.613281 C 347.507812 174.042969 347.582031 174.488281 347.621094 174.90625 L 347.648438 175.269531 L 347.652344 175.570312 C 347.652344 175.785156 347.640625 176 347.625 176.21875 C 347.550781 177.089844 347.332031 177.960938 346.96875 178.828125 C 346.253906 180.566406 345.003906 182.238281 343.519531 183.785156 C 342.035156 185.332031 340.300781 186.75 338.46875 188.0625 C 336.628906 189.375 334.6875 190.601562 332.679688 191.742188 C 328.65625 194.015625 324.410156 196.015625 320.074219 197.839844 C 315.734375 199.644531 311.308594 201.316406 306.820312 202.839844 C 304.578125 203.597656 302.328125 204.359375 300.0625 205.070312 C 298.78125 205.480469 297.492188 205.871094 296.199219 206.257812 C 295.214844 206.554688 294.226562 206.847656 293.238281 207.140625 C 291.898438 207.539062 290.558594 207.925781 289.210938 208.304688 C 289.199219 208.308594 289.1875 208.308594 289.175781 208.3125 C 289.074219 208.339844 288.96875 208.371094 288.867188 208.398438 " fill-opacity="1" fill-rule="nonzero"/></g></g></g></g></g><g clip-path="url(#02adcded5c)"><g clip-path="url(#99cae45c59)"><g clip-path="url(#df9eadbed1)"><path fill="#383325" d="M 28.664062 200.066406 C 28.605469 201.589844 28.824219 203.132812 29.285156 204.574219 C 29.75 206.011719 30.445312 207.332031 31.25 208.515625 C 32.875 210.878906 34.902344 212.726562 37.007812 214.289062 C 39.128906 215.851562 41.351562 217.140625 43.613281 218.285156 C 45.875 219.433594 48.1875 220.402344 50.511719 221.292969 C 55.167969 223.0625 59.910156 224.441406 64.6875 225.574219 C 67.074219 226.132812 69.46875 226.644531 71.871094 227.085938 C 74.273438 227.539062 76.679688 227.929688 79.09375 228.277344 C 82.859375 228.828125 86.632812 229.261719 90.410156 229.605469 C 92.851562 229.828125 95.304688 230.019531 97.75 230.175781 C 101.203125 230.40625 104.65625 230.574219 108.109375 230.710938 C 113.882812 230.925781 119.65625 231.042969 125.421875 231.101562 C 127.757812 231.125 130.097656 231.140625 132.433594 231.148438 C 133.988281 231.15625 135.539062 231.160156 137.09375 231.160156 C 146.742188 231.171875 156.390625 231.070312 166.035156 230.847656 C 172.476562 230.695312 178.972656 230.515625 185.417969 230.273438 C 187.3125 230.199219 189.066406 230.101562 191.144531 230.042969 L 191.148438 230.027344 L 191.367188 229.0625 L 189.714844 226.632812 C 188.425781 226.648438 187.042969 226.859375 185.894531 227.007812 L 185.898438 226.988281 C 179.316406 227.648438 172.625 228.164062 165.992188 228.5 C 156.394531 228.992188 146.742188 229.15625 137.132812 228.90625 C 136.804688 228.902344 136.472656 228.886719 136.144531 228.878906 C 135.804688 228.871094 135.457031 228.859375 135.113281 228.847656 C 134.769531 228.839844 134.425781 228.832031 134.082031 228.816406 C 133.933594 228.808594 133.777344 228.800781 133.625 228.796875 C 133.394531 228.789062 133.222656 228.789062 132.996094 228.777344 C 132.761719 228.765625 132.539062 228.757812 132.355469 228.757812 C 131.980469 228.722656 131.960938 228.738281 131.800781 228.730469 C 131.390625 228.710938 130.949219 228.691406 130.542969 228.675781 C 130.535156 228.671875 130.515625 228.671875 130.507812 228.671875 C 129.929688 228.644531 129.335938 228.613281 128.742188 228.578125 C 128.160156 228.550781 127.578125 228.472656 126.992188 228.4375 C 126.40625 228.402344 125.816406 228.363281 125.234375 228.285156 L 125.222656 228.285156 C 119.582031 228.101562 113.992188 227.445312 108.410156 226.800781 C 104.476562 226.351562 100.5625 225.777344 96.648438 225.257812 L 96.636719 225.257812 C 94.183594 224.933594 91.734375 224.609375 89.3125 224.101562 C 89.308594 224.101562 89.308594 224.101562 89.308594 224.101562 L 89.28125 224.097656 C 86.183594 223.6875 83.121094 223.074219 80.066406 222.488281 C 78.898438 222.261719 77.726562 222.050781 76.566406 221.808594 C 75.40625 221.574219 74.238281 221.339844 73.082031 221.085938 C 70.765625 220.574219 68.457031 220.058594 66.164062 219.480469 C 61.585938 218.332031 57.054688 217.046875 52.6875 215.460938 C 50.503906 214.664062 48.371094 213.777344 46.3125 212.800781 C 44.253906 211.820312 42.277344 210.722656 40.488281 209.46875 C 38.703125 208.21875 37.085938 206.804688 35.929688 205.226562 C 34.777344 203.648438 34.121094 201.953125 34.109375 200.183594 C 34.085938 198.410156 34.742188 196.542969 35.816406 194.761719 C 36.898438 192.972656 38.382812 191.300781 40.011719 189.742188 C 41.652344 188.179688 43.464844 186.738281 45.363281 185.382812 C 47.25 184.019531 49.238281 182.753906 51.265625 181.542969 C 55.328125 179.117188 59.582031 176.945312 63.90625 174.894531 C 68.234375 172.851562 72.644531 170.945312 77.097656 169.089844 L 76.875 168.425781 C 72.191406 169.625 67.550781 171.011719 62.972656 172.628906 C 58.394531 174.238281 53.878906 176.078125 49.472656 178.246094 C 45.085938 180.4375 40.785156 182.933594 36.863281 186.210938 C 34.917969 187.863281 33.0625 189.726562 31.519531 191.984375 C 30.753906 193.109375 30.066406 194.347656 29.5625 195.707031 C 29.050781 197.0625 28.722656 198.542969 28.664062 200.066406 " fill-opacity="1" fill-rule="nonzero"/></g></g></g><g clip-path="url(#0612c1dba9)"><g clip-path="url(#728dbcea50)"><g clip-path="url(#095390fd88)"><g clip-path="url(#fdc08977f6)"><g clip-path="url(#e76e6828bc)"><path fill="#383325" d="M 288.867188 208.398438 C 288.875 208.410156 288.886719 208.421875 288.894531 208.433594 C 289.003906 208.613281 289.082031 208.773438 289.246094 208.964844 C 289.246094 208.964844 289.246094 208.964844 289.246094 208.96875 C 289.703125 209.789062 289.8125 210.589844 289.910156 211.355469 C 290.097656 212.84375 289.789062 214.21875 289.207031 215.480469 C 289.109375 215.695312 288.972656 215.902344 288.851562 216.113281 C 288.847656 216.125 288.839844 216.136719 288.835938 216.144531 C 288.859375 216.136719 288.882812 216.132812 288.910156 216.125 C 289.480469 215.976562 290.046875 215.824219 290.617188 215.667969 C 290.617188 215.671875 290.617188 215.667969 290.621094 215.667969 C 292.375 215.195312 294.128906 214.703125 295.875 214.195312 C 300.371094 212.886719 304.84375 211.460938 309.28125 209.894531 C 313.882812 208.246094 318.460938 206.484375 322.953125 204.457031 C 327.441406 202.433594 331.875 200.214844 336.140625 197.589844 C 338.277344 196.277344 340.375 194.875 342.390625 193.296875 C 344.40625 191.726562 346.351562 190 348.125 188 C 349.007812 187 349.839844 185.921875 350.589844 184.75 C 351.335938 183.578125 352 182.304688 352.492188 180.914062 C 352.984375 179.535156 353.304688 178.03125 353.34375 176.492188 C 353.355469 176.109375 353.347656 175.722656 353.328125 175.339844 L 353.304688 175.050781 L 353.273438 174.734375 L 353.203125 174.203125 C 353.085938 173.429688 352.910156 172.691406 352.667969 171.972656 C 352.1875 170.539062 351.480469 169.230469 350.65625 168.070312 C 349.832031 166.910156 348.894531 165.890625 347.90625 164.976562 C 345.921875 163.160156 343.75 161.726562 341.527344 160.5 C 337.074219 158.066406 332.40625 156.390625 327.707031 155.011719 C 323.003906 153.640625 318.238281 152.632812 313.460938 151.792969 C 308.679688 150.976562 303.878906 150.355469 299.066406 149.925781 L 298.960938 150.617188 C 303.664062 151.660156 308.339844 152.769531 312.960938 154.046875 C 317.578125 155.304688 322.136719 156.746094 326.566406 158.425781 C 328.78125 159.265625 330.960938 160.171875 333.074219 161.175781 C 335.183594 162.183594 337.238281 163.273438 339.15625 164.507812 C 341.070312 165.734375 342.863281 167.101562 344.335938 168.640625 C 345.800781 170.175781 346.929688 171.878906 347.390625 173.613281 C 347.507812 174.042969 347.582031 174.488281 347.621094 174.90625 L 347.648438 175.269531 L 347.652344 175.570312 C 347.652344 175.785156 347.640625 176 347.625 176.21875 C 347.550781 177.089844 347.332031 177.960938 346.96875 178.828125 C 346.253906 180.566406 345.003906 182.238281 343.519531 183.785156 C 342.035156 185.332031 340.300781 186.75 338.46875 188.0625 C 336.628906 189.375 334.6875 190.601562 332.679688 191.742188 C 328.65625 194.015625 324.410156 196.015625 320.074219 197.839844 C 315.734375 199.644531 311.308594 201.316406 306.820312 202.839844 C 304.578125 203.597656 302.328125 204.359375 300.0625 205.070312 C 298.78125 205.480469 297.492188 205.871094 296.199219 206.257812 C 295.214844 206.554688 294.226562 206.847656 293.238281 207.140625 C 291.898438 207.539062 290.558594 207.925781 289.210938 208.304688 C 289.199219 208.308594 289.1875 208.308594 289.175781 208.3125 C 289.074219 208.339844 288.96875 208.371094 288.867188 208.398438 " fill-opacity="1" fill-rule="nonzero"/></g></g></g></g></g><g clip-path="url(#fd5383ec39)"><g clip-path="url(#530ac7a5e3)"><g clip-path="url(#621483d7bd)"><path fill="#383325" d="M 28.664062 200.066406 C 28.605469 201.589844 28.824219 203.132812 29.285156 204.574219 C 29.75 206.011719 30.445312 207.332031 31.25 208.515625 C 32.875 210.878906 34.902344 212.726562 37.007812 214.289062 C 39.128906 215.851562 41.351562 217.140625 43.613281 218.285156 C 45.875 219.433594 48.1875 220.402344 50.511719 221.292969 C 55.167969 223.0625 59.910156 224.441406 64.6875 225.574219 C 67.074219 226.132812 69.46875 226.644531 71.871094 227.085938 C 74.273438 227.539062 76.679688 227.929688 79.09375 228.277344 C 82.859375 228.828125 86.632812 229.261719 90.410156 229.605469 C 92.851562 229.828125 95.304688 230.019531 97.75 230.175781 C 101.203125 230.40625 104.65625 230.574219 108.109375 230.710938 C 113.882812 230.925781 119.65625 231.042969 125.421875 231.101562 C 127.757812 231.125 130.097656 231.140625 132.433594 231.148438 C 133.988281 231.15625 135.539062 231.160156 137.09375 231.160156 C 146.742188 231.171875 156.390625 231.070312 166.035156 230.847656 C 172.476562 230.695312 178.972656 230.515625 185.417969 230.273438 C 187.3125 230.199219 189.066406 230.101562 191.144531 230.042969 L 191.148438 230.027344 L 191.367188 229.0625 L 189.714844 226.632812 C 188.425781 226.648438 187.109375 226.875 185.800781 227.003906 C 179.191406 227.660156 172.574219 228.175781 165.941406 228.511719 C 156.347656 229 146.730469 229.164062 137.125 228.910156 C 136.449219 228.894531 135.777344 228.875 135.105469 228.851562 C 134.761719 228.839844 134.425781 228.828125 134.082031 228.816406 C 133.929688 228.808594 133.773438 228.804688 133.625 228.796875 C 133.390625 228.789062 133.160156 228.78125 132.929688 228.769531 C 132.703125 228.761719 132.480469 228.753906 132.25 228.746094 C 132.078125 228.738281 131.910156 228.730469 131.734375 228.722656 C 131.324219 228.703125 130.917969 228.6875 130.511719 228.671875 C 130.507812 228.667969 130.5 228.667969 130.492188 228.667969 C 129.90625 228.636719 129.320312 228.609375 128.734375 228.578125 C 128.152344 228.546875 127.574219 228.472656 126.988281 228.4375 C 126.402344 228.398438 125.816406 228.363281 125.234375 228.285156 L 125.222656 228.285156 C 119.582031 228.101562 113.992188 227.445312 108.410156 226.800781 C 104.476562 226.351562 100.5625 225.777344 96.648438 225.257812 L 96.636719 225.257812 C 94.183594 224.933594 91.734375 224.609375 89.3125 224.101562 C 89.308594 224.101562 89.308594 224.101562 89.308594 224.101562 L 89.28125 224.097656 C 86.183594 223.6875 83.121094 223.074219 80.066406 222.488281 C 78.898438 222.261719 77.726562 222.050781 76.566406 221.808594 C 75.40625 221.574219 74.238281 221.339844 73.082031 221.085938 C 70.765625 220.574219 68.457031 220.058594 66.164062 219.480469 C 61.585938 218.332031 57.054688 217.046875 52.6875 215.460938 C 50.503906 214.664062 48.371094 213.777344 46.3125 212.800781 C 44.253906 211.820312 42.277344 210.722656 40.488281 209.46875 C 38.703125 208.21875 37.085938 206.804688 35.929688 205.226562 C 34.777344 203.648438 34.121094 201.953125 34.109375 200.183594 C 34.085938 198.410156 34.742188 196.542969 35.816406 194.761719 C 36.898438 192.972656 38.382812 191.300781 40.011719 189.742188 C 41.652344 188.179688 43.464844 186.738281 45.363281 185.382812 C 47.25 184.019531 49.238281 182.753906 51.265625 181.542969 C 55.328125 179.117188 59.582031 176.945312 63.90625 174.894531 C 68.234375 172.851562 72.644531 170.945312 77.097656 169.089844 L 76.875 168.425781 C 72.191406 169.625 67.550781 171.011719 62.972656 172.628906 C 58.394531 174.238281 53.878906 176.078125 49.472656 178.246094 C 45.085938 180.4375 40.785156 182.933594 36.863281 186.210938 C 34.917969 187.863281 33.0625 189.726562 31.519531 191.984375 C 30.753906 193.109375 30.066406 194.347656 29.5625 195.707031 C 29.050781 197.0625 28.722656 198.542969 28.664062 200.066406 " fill-opacity="1" fill-rule="nonzero"/></g></g></g><g clip-path="url(#3223a38382)"><g clip-path="url(#032bcfd185)"><g clip-path="url(#09f6921286)"><g clip-path="url(#ed662e8f27)"><g clip-path="url(#23911c39b7)"><path fill="#383325" d="M 238.265625 272.109375 C 238.265625 272.117188 238.265625 272.125 238.261719 272.125 C 238.261719 272.136719 238.261719 272.144531 238.261719 272.152344 L 238.339844 272.136719 C 238.316406 272.125 238.292969 272.117188 238.265625 272.109375 " fill-opacity="1" fill-rule="nonzero"/></g></g></g></g></g><g clip-path="url(#d9c1346ccb)"><g clip-path="url(#5b655734af)"><g clip-path="url(#6c8f49cb35)"><path fill="#383325" d="M 188.734375 215.046875 L 192.480469 220.640625 L 193.496094 222.15625 L 195.984375 225.867188 L 196.769531 227.039062 C 196.992188 227.375 197.214844 228.566406 197.125 228.960938 L 196.972656 229.742188 C 196.988281 229.742188 197.023438 229.742188 197.023438 229.742188 L 197.023438 229.753906 L 195.710938 235.40625 L 195.707031 235.417969 L 193.941406 243.039062 C 193.707031 244.066406 194.289062 244.75 195.246094 244.574219 C 196.207031 244.394531 197.371094 243.472656 197.824219 242.527344 L 201.402344 235.105469 L 201.402344 235.097656 L 203.789062 230.109375 L 213.214844 228.71875 L 213.898438 228.617188 L 213.910156 228.613281 L 240.738281 224.660156 L 240.515625 225.625 L 240.519531 225.644531 L 240.601562 225.664062 L 239.558594 231.460938 L 239.554688 231.492188 L 232.253906 265.980469 C 232.105469 266.699219 232.253906 267.289062 232.808594 267.363281 L 232.839844 267.367188 C 233.050781 267.394531 233.300781 267.402344 233.570312 267.351562 L 237.878906 266.542969 C 238.882812 266.359375 240.027344 265.457031 240.417969 264.515625 L 244.121094 255.617188 C 244.371094 255.679688 244.617188 255.570312 244.890625 255.515625 L 246.78125 255.164062 L 247.292969 255.074219 C 248.296875 254.886719 249.046875 254.148438 248.863281 253.144531 L 248.726562 252.417969 C 248.667969 252.09375 248.519531 251.78125 248.308594 251.511719 C 247.871094 250.941406 247.164062 250.558594 246.484375 250.6875 L 246.046875 250.769531 L 249.332031 243.039062 C 249.585938 243.105469 249.878906 243.257812 250.148438 243.207031 L 251.140625 243.023438 L 252.480469 242.773438 C 253.484375 242.589844 254.171875 241.589844 253.988281 240.585938 L 253.851562 239.859375 C 253.730469 239.203125 253.242188 238.566406 252.636719 238.257812 C 252.316406 238.085938 251.957031 238.011719 251.613281 238.078125 L 251.25 238.144531 L 254.917969 229.402344 L 255.082031 229.015625 L 257.652344 222.886719 L 258.015625 222.019531 L 271.492188 220.195312 L 271.597656 220.183594 C 274.707031 219.71875 280.472656 217.246094 283.042969 214.667969 C 283.925781 213.785156 284.429688 212.890625 284.324219 212.054688 C 284.230469 211.277344 283.601562 210.628906 282.652344 210.097656 C 279.621094 208.398438 273.277344 207.90625 270.101562 208.382812 C 270.042969 208.390625 265.113281 209.480469 257.90625 211.089844 C 257.667969 211.144531 257.433594 211.199219 257.191406 211.25 C 256.828125 211.332031 256.457031 211.414062 256.082031 211.5 L 255.652344 211.046875 L 255.367188 210.746094 L 251.4375 206.59375 L 243.945312 198.683594 L 244.308594 198.617188 C 245.3125 198.429688 246.011719 197.496094 245.828125 196.492188 L 245.695312 195.765625 C 245.507812 194.761719 244.558594 194.359375 243.558594 194.542969 L 241.222656 194.976562 C 240.953125 195.027344 240.675781 194.957031 240.464844 195.109375 L 234.574219 188.753906 L 235.007812 188.679688 C 236.007812 188.492188 236.730469 187.605469 236.546875 186.601562 L 236.410156 185.871094 C 236.226562 184.871094 235.195312 184.105469 234.195312 184.289062 L 231.789062 184.738281 C 231.515625 184.789062 231.273438 184.902344 231.066406 185.050781 L 224.421875 178.046875 C 223.71875 177.308594 222.308594 176.773438 221.308594 176.960938 L 217 177.757812 C 216 177.941406 215.644531 178.878906 216.195312 179.738281 L 234.488281 208.25 L 238.171875 213.996094 L 239.035156 215.339844 C 238.5 215.457031 237.964844 215.574219 237.433594 215.695312 C 222.832031 218.964844 207.734375 222.34375 202.507812 223.511719 L 198.675781 219.902344 L 194.335938 215.8125 L 192.546875 214.125 C 191.78125 213.40625 190.371094 212.960938 189.414062 213.140625 C 188.457031 213.316406 188.152344 214.175781 188.734375 215.046875 " fill-opacity="1" fill-rule="nonzero"/><path fill="#383325" d="M 188.734375 215.046875 L 192.480469 220.640625 L 193.496094 222.15625 L 195.984375 225.867188 L 196.769531 227.039062 C 196.992188 227.375 197.242188 228.570312 197.15625 228.964844 L 197.023438 229.742188 L 197.023438 229.753906 L 195.710938 235.40625 L 195.707031 235.417969 L 193.941406 243.039062 C 193.707031 244.066406 194.289062 244.75 195.246094 244.574219 C 196.207031 244.394531 197.371094 243.472656 197.824219 242.527344 L 201.402344 235.105469 L 201.402344 235.097656 L 203.789062 230.109375 L 213.214844 228.71875 L 213.898438 228.617188 L 213.910156 228.613281 L 240.738281 224.660156 L 240.515625 225.625 L 240.519531 225.644531 L 240.601562 225.664062 L 239.558594 231.460938 L 239.554688 231.492188 L 232.253906 265.980469 C 232.105469 266.699219 232.253906 267.289062 232.808594 267.363281 L 232.839844 267.367188 C 233.050781 267.394531 233.300781 267.402344 233.570312 267.351562 L 237.878906 266.542969 C 238.882812 266.359375 240.027344 265.457031 240.417969 264.515625 L 244.121094 255.617188 C 244.371094 255.679688 244.617188 255.570312 244.890625 255.515625 L 246.78125 255.164062 L 247.292969 255.074219 C 248.296875 254.886719 249.046875 254.148438 248.863281 253.144531 L 248.726562 252.417969 C 248.667969 252.09375 248.519531 251.78125 248.308594 251.511719 C 247.871094 250.941406 247.164062 250.558594 246.484375 250.6875 L 246.046875 250.769531 L 249.332031 243.039062 C 249.585938 243.105469 249.878906 243.257812 250.148438 243.207031 L 251.140625 243.023438 L 252.480469 242.773438 C 253.484375 242.589844 254.171875 241.589844 253.988281 240.585938 L 253.851562 239.859375 C 253.730469 239.203125 253.242188 238.566406 252.636719 238.257812 C 252.316406 238.085938 251.957031 238.011719 251.613281 238.078125 L 251.25 238.144531 L 254.917969 229.402344 L 255.082031 229.015625 L 257.652344 222.886719 L 258.015625 222.019531 L 271.492188 220.195312 L 271.597656 220.183594 C 274.707031 219.71875 280.472656 217.246094 283.042969 214.667969 C 283.925781 213.785156 284.429688 212.890625 284.324219 212.054688 C 284.230469 211.277344 283.601562 210.628906 282.652344 210.097656 C 279.621094 208.398438 273.277344 207.90625 270.101562 208.382812 C 270.042969 208.390625 265.113281 209.480469 257.90625 211.089844 C 257.667969 211.144531 257.433594 211.199219 257.191406 211.25 C 256.828125 211.332031 256.457031 211.414062 256.082031 211.5 L 255.652344 211.046875 L 255.367188 210.746094 L 251.4375 206.59375 L 243.945312 198.683594 L 244.308594 198.617188 C 245.3125 198.429688 246.011719 197.496094 245.828125 196.492188 L 245.695312 195.765625 C 245.507812 194.761719 244.558594 194.359375 243.558594 194.542969 L 241.222656 194.976562 C 240.953125 195.027344 240.675781 194.957031 240.464844 195.109375 L 234.574219 188.753906 L 235.007812 188.679688 C 236.007812 188.492188 236.730469 187.605469 236.546875 186.601562 L 236.410156 185.871094 C 236.226562 184.871094 235.195312 184.105469 234.195312 184.289062 L 231.789062 184.738281 C 231.515625 184.789062 231.273438 184.902344 231.066406 185.050781 L 224.421875 178.046875 C 223.71875 177.308594 222.308594 176.773438 221.308594 176.960938 L 217 177.757812 C 216 177.941406 215.644531 178.878906 216.195312 179.738281 L 234.488281 208.25 L 238.171875 213.996094 L 239.035156 215.339844 C 238.5 215.457031 237.964844 215.574219 237.433594 215.695312 C 222.832031 218.964844 207.734375 222.34375 202.507812 223.511719 L 198.675781 219.902344 L 194.335938 215.8125 L 192.546875 214.125 C 191.78125 213.40625 190.371094 212.960938 189.414062 213.140625 C 188.457031 213.316406 188.152344 214.175781 188.734375 215.046875 " fill-opacity="1" fill-rule="nonzero"/></g></g></g><g fill="#383325" fill-opacity="1"><g transform="translate(0.889214, 319.79653)"><g><path d="M 26.339844 -7.382812 C 25.742188 -6.277344 22.402344 -1.488281 15.722656 -1.488281 C 9.0625 -1.488281 3.636719 -7.703125 3.636719 -15.339844 C 3.636719 -23 9.0625 -29.210938 15.722656 -29.210938 C 21.0625 -29.210938 24.359375 -26.402344 23.785156 -23.210938 L 27.148438 -26.167969 C 25.53125 -26.871094 22.382812 -30.507812 15.914062 -30.507812 C 7.617188 -30.507812 0.871094 -23.703125 0.871094 -15.296875 C 0.871094 -6.914062 7.617188 -0.0859375 15.914062 -0.0859375 C 22.191406 -0.0859375 26.125 -4.828125 26.339844 -7.382812 Z M 26.339844 -7.382812 "/></g></g></g><g fill="#383325" fill-opacity="1"><g transform="translate(29.907533, 319.79653)"><g><path d="M 22.125 -3.253906 L 16.574219 -11.554688 C 24.976562 -12.808594 27.402344 -16.53125 27.402344 -20.785156 C 27.402344 -27.019531 21.914062 -30.488281 15 -30.488281 L 0.871094 -30.507812 C 0.871094 -30.507812 2.511719 -30.234375 2.511719 -27.253906 L 2.511719 -3.253906 C 2.511719 -0.253906 0.871094 0 0.871094 0 L 6.765625 0 C 6.765625 0 5.148438 -0.210938 5.128906 -3.253906 L 5.128906 -11.105469 L 9.636719 -11.105469 C 11.277344 -11.105469 12.765625 -11.148438 14.128906 -11.277344 L 19.488281 -3.253906 C 21.511719 -0.210938 20.042969 0 20.042969 0 L 25.933594 0 C 25.933594 0 24.148438 -0.253906 22.125 -3.253906 Z M 9.636719 -12.277344 L 5.128906 -12.277344 L 5.128906 -27.234375 C 5.128906 -28.085938 5.277344 -29.167969 6.617188 -29.167969 L 15 -29.167969 C 20.445312 -29.167969 24.46875 -25.679688 24.46875 -20.914062 C 24.46875 -16.234375 20.742188 -12.402344 9.636719 -12.277344 Z M 9.636719 -12.277344 "/></g></g></g><g fill="#383325" fill-opacity="1"><g transform="translate(59.181125, 319.79653)"><g><path d="M 0.871094 -30.507812 C 0.871094 -30.507812 2.488281 -30.234375 2.488281 -27.253906 L 2.488281 -3.253906 C 2.488281 -0.253906 0.871094 0 0.871094 0 L 6.765625 0 C 6.765625 0 5.148438 -0.210938 5.128906 -3.253906 L 5.128906 -27.234375 C 5.148438 -30.296875 6.765625 -30.507812 6.765625 -30.507812 Z M 0.871094 -30.507812 "/></g></g></g><g fill="#383325" fill-opacity="1"><g transform="translate(67.798928, 319.79653)"><g><path d="M 23.828125 -8.511719 C 23.703125 -5.636719 21.042969 -1.320312 13.617188 -1.320312 C 6.191406 -1.320312 4.128906 -9.894531 4.128906 -9.894531 L 0.871094 -7.488281 C 0.871094 -7.488281 4 0 13.550781 0 C 24.148438 0 26.808594 -4.894531 26.957031 -8.554688 C 27.359375 -18.277344 4.746094 -15.828125 5.0625 -23.277344 C 5.210938 -27.0625 8.363281 -29.445312 13.957031 -29.445312 C 20.617188 -29.445312 22.0625 -24.742188 22.0625 -24.742188 L 24.488281 -27.574219 C 24.488281 -27.574219 20.085938 -30.507812 14 -30.507812 C 7.914062 -30.507812 2.894531 -27.722656 2.679688 -22.957031 C 2.296875 -13.679688 24.148438 -16.511719 23.828125 -8.511719 Z M 23.828125 -8.511719 "/></g></g></g><g fill="#383325" fill-opacity="1"><g transform="translate(97.029975, 319.79653)"><g><path d="M 0.871094 -30.488281 L 0.871094 -25.53125 C 0.871094 -25.53125 1.980469 -29.167969 8.277344 -29.167969 L 10.785156 -29.167969 C 10.957031 -28.699219 11.085938 -28.085938 11.085938 -27.253906 L 11.085938 -3.253906 C 11.085938 -0.253906 9.46875 0 9.46875 0 L 15.359375 0 C 15.359375 0 13.722656 -0.210938 13.722656 -3.253906 L 13.722656 -27.234375 C 13.722656 -28.085938 13.851562 -28.699219 14.019531 -29.167969 L 16.574219 -29.167969 C 22.894531 -29.167969 23.976562 -25.53125 23.976562 -25.53125 L 23.976562 -30.488281 Z M 0.871094 -30.488281 "/></g></g></g><g fill="#383325" fill-opacity="1"><g transform="translate(122.899936, 319.79653)"><g><path d="M 0.871094 -30.507812 C 0.871094 -30.507812 2.488281 -30.234375 2.488281 -27.253906 L 2.488281 -3.253906 C 2.488281 -0.253906 0.871094 0 0.871094 0 L 6.765625 0 C 6.765625 0 5.148438 -0.210938 5.128906 -3.253906 L 5.128906 -27.234375 C 5.148438 -30.296875 6.765625 -30.507812 6.765625 -30.507812 Z M 0.871094 -30.507812 "/></g></g></g><g fill="#383325" fill-opacity="1"><g transform="translate(131.517739, 319.79653)"><g><path d="M 24.488281 0 L 30.382812 0 C 30.382812 0 28.679688 -0.210938 27.445312 -3.253906 L 16.617188 -30.507812 L 14.660156 -30.507812 L 3.808594 -3.253906 C 2.574219 -0.210938 0.871094 0 0.871094 0 L 5.363281 0 C 5.363281 0 3.828125 -0.253906 5.042969 -3.253906 L 8.363281 -11.574219 L 21.488281 -11.574219 L 24.808594 -3.253906 C 26.019531 -0.253906 24.488281 0 24.488281 0 Z M 8.679688 -12.359375 C 8.679688 -12.359375 14.828125 -27.785156 14.894531 -28.019531 C 15 -27.785156 21.167969 -12.359375 21.167969 -12.359375 Z M 8.679688 -12.359375 "/></g></g></g><g fill="#383325" fill-opacity="1"><g transform="translate(163.748244, 319.79653)"><g><path d="M 7.382812 -30.507812 L 0.871094 -30.507812 C 0.871094 -30.507812 2.488281 -30.234375 2.488281 -27.253906 L 2.488281 -3.253906 C 2.488281 -0.253906 0.871094 0 0.871094 0 L 5.363281 0 C 5.363281 0 3.746094 -0.210938 3.722656 -3.253906 L 3.722656 -27.234375 C 3.722656 -27.851562 3.808594 -28.359375 3.914062 -28.765625 C 4.234375 -28.359375 4.574219 -27.851562 4.914062 -27.253906 L 19.976562 0 L 21.210938 0 L 21.210938 -27.234375 C 21.234375 -30.296875 22.851562 -30.507812 22.851562 -30.507812 L 18.359375 -30.507812 C 18.359375 -30.507812 20 -30.234375 20 -27.253906 L 20 -4.722656 L 7.554688 -27.234375 C 5.871094 -30.296875 7.382812 -30.507812 7.382812 -30.507812 Z M 7.382812 -30.507812 "/></g></g></g><g fill="#383325" fill-opacity="1"><g transform="translate(188.490744, 319.79653)"><g><path d="M 14.785156 -15.105469 L 14.785156 -21.511719 C 14.785156 -21.511719 14 -18.636719 7.363281 -18.636719 L 5.128906 -18.636719 L 5.128906 -27.234375 C 5.128906 -28.085938 5.105469 -29.167969 6.511719 -29.167969 C 6.511719 -29.167969 8.0625 -29.167969 13.574219 -29.167969 C 21.359375 -29.167969 22.296875 -26.296875 22.296875 -26.296875 L 22.296875 -30.488281 L 0.871094 -30.507812 C 0.871094 -30.507812 2.488281 -30.234375 2.488281 -27.253906 L 2.488281 -3.253906 C 2.488281 -0.253906 0.871094 0 0.871094 0 L 22.296875 0 L 22.296875 -4.191406 C 22.296875 -4.191406 21.359375 -1.320312 13.574219 -1.320312 C 8.0625 -1.320312 6.511719 -1.320312 6.511719 -1.320312 C 5.210938 -1.320312 5.128906 -2.402344 5.128906 -3.253906 L 5.128906 -17.957031 L 7.363281 -17.976562 C 14 -17.976562 14.785156 -15.105469 14.785156 -15.105469 Z M 14.785156 -15.105469 "/></g></g></g><g fill="#383325" fill-opacity="1"><g transform="translate(212.680153, 319.79653)"><g/></g></g><g fill="#383325" fill-opacity="1"><g transform="translate(224.61649, 319.79653)"><g><path d="M 22.125 -3.253906 L 16.574219 -11.554688 C 24.976562 -12.808594 27.402344 -16.53125 27.402344 -20.785156 C 27.402344 -27.019531 21.914062 -30.488281 15 -30.488281 L 0.871094 -30.507812 C 0.871094 -30.507812 2.511719 -30.234375 2.511719 -27.253906 L 2.511719 -3.253906 C 2.511719 -0.253906 0.871094 0 0.871094 0 L 6.765625 0 C 6.765625 0 5.148438 -0.210938 5.128906 -3.253906 L 5.128906 -11.105469 L 9.636719 -11.105469 C 11.277344 -11.105469 12.765625 -11.148438 14.128906 -11.277344 L 19.488281 -3.253906 C 21.511719 -0.210938 20.042969 0 20.042969 0 L 25.933594 0 C 25.933594 0 24.148438 -0.253906 22.125 -3.253906 Z M 9.636719 -12.277344 L 5.128906 -12.277344 L 5.128906 -27.234375 C 5.128906 -28.085938 5.277344 -29.167969 6.617188 -29.167969 L 15 -29.167969 C 20.445312 -29.167969 24.46875 -25.679688 24.46875 -20.914062 C 24.46875 -16.234375 20.742188 -12.402344 9.636719 -12.277344 Z M 9.636719 -12.277344 "/></g></g></g><g fill="#383325" fill-opacity="1"><g transform="translate(253.89009, 319.79653)"><g><path d="M 15.914062 -30.507812 C 7.617188 -30.507812 0.871094 -23.703125 0.871094 -15.296875 C 0.871094 -6.914062 7.617188 -0.0859375 15.914062 -0.0859375 C 24.234375 -0.0859375 30.957031 -6.914062 30.957031 -15.296875 C 30.957031 -23.703125 24.234375 -30.507812 15.914062 -30.507812 Z M 15.914062 -1.339844 C 9.105469 -1.339844 3.574219 -7.574219 3.574219 -15.253906 C 3.574219 -22.933594 9.105469 -29.191406 15.914062 -29.191406 C 22.722656 -29.191406 28.253906 -22.933594 28.253906 -15.253906 C 28.253906 -7.574219 22.722656 -1.339844 15.914062 -1.339844 Z M 15.914062 -1.339844 "/></g></g></g><g fill="#383325" fill-opacity="1"><g transform="translate(286.737503, 319.79653)"><g><path d="M 26.339844 -7.382812 C 25.742188 -6.277344 22.402344 -1.488281 15.722656 -1.488281 C 9.0625 -1.488281 3.636719 -7.703125 3.636719 -15.339844 C 3.636719 -23 9.0625 -29.210938 15.722656 -29.210938 C 21.0625 -29.210938 24.359375 -26.402344 23.785156 -23.210938 L 27.148438 -26.167969 C 25.53125 -26.871094 22.382812 -30.507812 15.914062 -30.507812 C 7.617188 -30.507812 0.871094 -23.703125 0.871094 -15.296875 C 0.871094 -6.914062 7.617188 -0.0859375 15.914062 -0.0859375 C 22.191406 -0.0859375 26.125 -4.828125 26.339844 -7.382812 Z M 26.339844 -7.382812 "/></g></g></g><g fill="#383325" fill-opacity="1"><g transform="translate(315.755831, 319.79653)"><g><path d="M 5.128906 -11.574219 L 20.976562 -11.574219 L 20.976562 -3.253906 C 20.976562 -0.253906 19.339844 0 19.339844 0 L 25.234375 0 C 25.234375 0 23.617188 -0.210938 23.617188 -3.253906 L 23.617188 -27.234375 C 23.617188 -30.296875 25.234375 -30.507812 25.234375 -30.507812 L 19.339844 -30.507812 C 19.339844 -30.507812 20.976562 -30.234375 20.976562 -27.253906 L 20.976562 -12.359375 L 5.128906 -12.359375 L 5.128906 -27.234375 C 5.148438 -30.296875 6.765625 -30.507812 6.765625 -30.507812 L 0.871094 -30.507812 C 0.871094 -30.507812 2.488281 -30.234375 2.488281 -27.253906 L 2.488281 -3.253906 C 2.488281 -0.253906 0.871094 0 0.871094 0 L 6.765625 0 C 6.765625 0 5.148438 -0.210938 5.128906 -3.253906 Z M 5.128906 -11.574219 "/></g></g></g><g fill="#383325" fill-opacity="1"><g transform="translate(342.859616, 319.79653)"><g><path d="M 24.488281 0 L 30.382812 0 C 30.382812 0 28.679688 -0.210938 27.445312 -3.253906 L 16.617188 -30.507812 L 14.660156 -30.507812 L 3.808594 -3.253906 C 2.574219 -0.210938 0.871094 0 0.871094 0 L 5.363281 0 C 5.363281 0 3.828125 -0.253906 5.042969 -3.253906 L 8.363281 -11.574219 L 21.488281 -11.574219 L 24.808594 -3.253906 C 26.019531 -0.253906 24.488281 0 24.488281 0 Z M 8.679688 -12.359375 C 8.679688 -12.359375 14.828125 -27.785156 14.894531 -28.019531 C 15 -27.785156 21.167969 -12.359375 21.167969 -12.359375 Z M 8.679688 -12.359375 "/></g></g></g></svg>